0
SECTION
2
HEADER
9
$INSUNITS
70
4
9
$ACADVER
1
AC1014
9
$HANDSEED
5
FFFF
0
ENDSEC
0
SECTION
2
TABLES
0
TABLE
2
VPORT
5
8
100
AcDbSymbolTable
0
ENDTAB
0
TABLE
2
LTYPE
5
5
100
AcDbSymbolTable
0
LTYPE
5
14
100
AcDbSymbolTableRecord
100
AcDbLinetypeTableRecord
2
BYBLOCK
70
0
0
LTYPE
5
15
100
AcDbSymbolTableRecord
100
AcDbLinetypeTableRecord
2
BYLAYER
70
0
0
ENDTAB
0
TABLE
2
LAYER
5
2
100
AcDbSymbolTable
70
2
0
LAYER
5
50
100
AcDbSymbolTableRecord
100
AcDbLayerTableRecord
2
0
70
0
6
CONTINUOUS
0
ENDTAB
0
TABLE
2
STYLE
5
3
100
AcDbSymbolTable
70
1
0
STYLE
5
11
100
AcDbSymbolTableRecord
100
AcDbTextStyleTableRecord
2
STANDARD
70
0
0
ENDTAB
0
TABLE
2
VIEW
5
6
100
AcDbSymbolTable
70
0
0
ENDTAB
0
TABLE
2
UCS
5
7
100
AcDbSymbolTable
70
0
0
ENDTAB
0
TABLE
2
APPID
5
9
100
AcDbSymbolTable
70
2
0
APPID
5
12
100
AcDbSymbolTableRecord
100
AcDbRegAppTableRecord
2
ACAD
70
0
0
ENDTAB
0
TABLE
2
DIMSTYLE
5
A
100
AcDbSymbolTable
70
1
0
ENDTAB
0
TABLE
2
BLOCK_RECORD
5
1
100
AcDbSymbolTable
70
1
0
BLOCK_RECORD
5
1F
100
AcDbSymbolTableRecord
100
AcDbBlockTableRecord
2
*MODEL_SPACE
0
BLOCK_RECORD
5
1B
100
AcDbSymbolTableRecord
100
AcDbBlockTableRecord
2
*PAPER_SPACE
0
ENDTAB
0
ENDSEC
0
SECTION
2
BLOCKS
0
BLOCK
5
20
100
AcDbEntity
100
AcDbBlockBegin
2
*MODEL_SPACE
0
ENDBLK
5
21
100
AcDbEntity
100
AcDbBlockEnd
0
BLOCK
5
1C
100
AcDbEntity
100
AcDbBlockBegin
2
*PAPER_SPACE
0
ENDBLK
5
1D
100
AcDbEntity
100
AcDbBlockEnd
0
ENDSEC
0
SECTION
2
ENTITIES
0
LWPOLYLINE
5
100
100
AcDbEntity
8
0
100
AcDbPolyline
90
24
70
1
43
0.0
10
-105.96492027464164
20
-27.504788668170125
10
125.36096501106853
20
-27.529632389999307
42
0.4142450185957598
10
126.36107240813588
20
-26.529632395766377
10
126.3610724081359
20
-10.471072015417239
42
0.41421356237309631
10
125.36107240813591
20
-9.4710720154172368
10
123.5222398893319
20
-9.4710720154172421
42
-0.41421356237309859
10
122.5222398893319
20
-8.4710720154172332
10
122.52223988933193
20
8.5240837688792581
42
0.4142135623730957
10
121.52223988933193
20
9.5240837688792563
10
110.49084460478588
20
9.5240837688792723
42
-0.41421356237309503
10
109.49084460478588
20
10.524083768879269
10
109.49084460478589
20
26.500000417232521
42
0.41421356237310153
10
108.49084460478588
20
27.500000417232521
10
-83.486984519281876
20
27.500000417232929
42
0.41421356237310153
10
-84.486984519281876
20
26.500000417232947
10
-84.486984519281933
20
10.524083768879269
42
-0.41421356237309764
10
-85.486984519281918
20
9.5240837688792706
10
-89.490349603391451
20
9.5240837688792741
42
0.41421356237309631
10
-90.490349603391437
20
8.5240837688792741
10
-90.490349603391493
20
-9.4911762653309069
42
-0.41421356237309825
10
-91.490349603391479
20
-10.491176265330907
10
-105.96481287757429
20
-10.491176265330878
42
0.41421356237309503
10
-106.96481287757429
20
-11.491176265330875
10
-106.96481287757433
20
-26.504788673937206
42
0.41418210685014717
0
LWPOLYLINE
5
101
100
AcDbEntity
8
0
100
AcDbPolyline
90
4
70
1
43
0.0
10
150.58999947845936
20
27.219315006779539
10
150.58999947845936
20
-5.9999995529651624
42
0.99999999999999989
10
152.58999947845936
20
-5.9999995529651606
10
152.58999947845936
20
27.219315006779546
42
0.99999999999999989
0
LWPOLYLINE
5
102
100
AcDbEntity
8
0
100
AcDbPolyline
90
4
70
1
43
0.0
10
121.78686648784915
20
-47.014021629814053
10
78.701101802020304
20
-47.014021629814039
42
0.99999999999999989
10
78.701101802020261
20
-49.014021629814046
10
121.78686648784915
20
-49.014021629814081
42
0.99999999999999989
0
LWPOLYLINE
5
103
100
AcDbEntity
8
0
100
AcDbPolyline
90
4
70
1
43
0.0
10
39.361982991683504
20
49.015518838469525
10
74.77089715324621
20
49.015518838469532
42
0.99999999999999989
10
74.77089715324621
20
51.015518838469532
10
39.361982991683504
20
51.015518838469532
42
0.99999999999999989
0
LWPOLYLINE
5
104
100
AcDbEntity
8
0
100
AcDbPolyline
90
4
70
1
43
0.0
10
-40.653133512150873
20
48.985978370185961
10
-92.738898197979722
20
48.985978370185975
42
0.99999999999999989
10
-92.738898197979751
20
46.985978370185975
10
-40.653133512150873
20
46.985978370185933
42
0.99999999999999989
0
LWPOLYLINE
5
105
100
AcDbEntity
8
0
100
AcDbPolyline
90
4
70
1
43
0.0
10
-40.653133512150873
20
-47.014021629814053
10
-92.738898197979722
20
-47.014021629814039
42
0.99999999999999989
10
-92.738898197979751
20
-49.014021629814039
10
-40.653133512150873
20
-49.014021629814081
42
0.99999999999999989
0
LWPOLYLINE
5
106
100
AcDbEntity
8
0
100
AcDbPolyline
90
4
70
1
43
0.0
10
-35.410000521540645
20
31.000000447034836
10
-35.410000521540638
20
45.219315006779546
42
0.99999999999999989
10
-37.410000521540645
20
45.219315006779546
10
-37.410000521540638
20
31.000000447034836
42
0.99999999999999989
0
LWPOLYLINE
5
107
100
AcDbEntity
8
0
100
AcDbPolyline
90
4
70
1
43
0.0
10
77.589999478459362
20
45.219315006779539
10
77.589999478459362
20
31.000000447034836
42
0.99999999999999989
10
79.589999478459362
20
31.000000447034836
10
79.589999478459362
20
45.219315006779546
42
0.99999999999999989
0
LINE
5
108
100
AcDbEntity
8
0
100
AcDbLine
10
97.000001279205719
20
49.00000077600744
30
0
11
151.60119851227881
21
49.000004906744749
31
0
0
ARC
5
109
100
AcDbEntity
8
0
100
AcDbCircle
10
151.60119858793169
20
48.000004906744735
30
0
40
1.0000000000000171
210
0
220
-0
230
1
100
AcDbArc
50
4.3534084824281419e-06
51
90.000004334590599
0
LINE
5
110
100
AcDbEntity
8
0
100
AcDbLine
10
152.60119858793169
20
48.00000498239762
30
0
11
152.60119978807592
21
32.136175663314631
31
0
0
ARC
5
111
100
AcDbEntity
8
0
100
AcDbCircle
10
151.60119978807592
20
32.136175587661768
30
0
40
0.99999999999999933
210
0
220
0
230
1
100
AcDbArc
50
-179.99999564659154
51
4.3534084824281419e-06
0
LINE
5
112
100
AcDbEntity
8
0
100
AcDbLine
10
150.60119978807592
20
32.136175512008904
30
0
11
150.60119873879125
21
46.005902820632329
31
0
0
ARC
5
113
100
AcDbEntity
8
0
100
AcDbCircle
10
149.60119873879128
20
46.005902744979473
30
0
40
0.99999999999998157
210
0
220
-0
230
1
100
AcDbArc
50
4.3534084824281419e-06
51
90.006308862684619
0
LINE
5
114
100
AcDbEntity
8
0
100
AcDbLine
10
149.6010886283656
20
47.005902738917307
30
0
11
97.000111465275936
21
47.000110822896858
31
0
0
ARC
5
115
100
AcDbEntity
8
0
100
AcDbCircle
10
97.000001354850269
20
48.000110816834713
30
0
40
0.99999999999998579
210
0
220
0
230
1
100
AcDbArc
50
180.00630920955987
51
270.0063088626838
0
ARC
5
116
100
AcDbEntity
8
0
100
AcDbCircle
10
97.000001354858568
20
48.000000776007482
30
0
40
0.9999999999999637
210
0
220
0
230
1
100
AcDbArc
50
90.000004334588979
51
180.00000435340849
0
ARC
5
117
100
AcDbEntity
8
0
100
AcDbCircle
10
149.00000223517418
20
-13.000000178813938
30
0
40
0.99999999999999645
210
0
220
-0
230
1
100
AcDbArc
50
0
51
180
0
LINE
5
118
100
AcDbEntity
8
0
100
AcDbLine
10
150.00000223517418
20
-13.000000178813934
30
0
11
150.00000223517418
21
-26.000000402331352
31
0
0
ARC
5
119
100
AcDbEntity
8
0
100
AcDbCircle
10
151.00000223517418
20
-26.000000402331356
30
0
40
0.99999999999999645
210
0
220
0
230
1
100
AcDbArc
50
180
51
270
0
LINE
5
120
100
AcDbEntity
8
0
100
AcDbLine
10
151.00000223517418
20
-27.000000402331352
30
0
11
154.00000230967999
21
-27.000000402331352
31
0
0
ARC
5
121
100
AcDbEntity
8
0
100
AcDbCircle
10
154.00000230967999
20
-28.000000402331349
30
0
40
0.99999999999999645
210
0
220
0
230
1
100
AcDbArc
50
0
51
90
0
LINE
5
122
100
AcDbEntity
8
0
100
AcDbLine
10
155.00000230967999
20
-28.000000402331352
30
0
11
155.00000230967999
21
-48.000000730156898
31
0
0
ARC
5
123
100
AcDbEntity
8
0
100
AcDbCircle
10
154.00000230967999
20
-48.000000730156898
30
0
40
0.99999999999999645
210
0
220
0
230
1
100
AcDbArc
50
-90
51
0
0
LINE
5
124
100
AcDbEntity
8
0
100
AcDbLine
10
154.00000230967999
20
-49.000000730156898
30
0
11
145.00000214576721
21
-49.000000730156898
31
0
0
ARC
5
125
100
AcDbEntity
8
0
100
AcDbCircle
10
145.00000214576721
20
-48.000000700354576
30
0
40
0.99999999999999645
210
0
220
-0
230
1
100
AcDbArc
50
90
51
270
0
LINE
5
126
100
AcDbEntity
8
0
100
AcDbLine
10
145.00000214576721
20
-47.000000700354576
30
0
11
152.00000227987766
21
-47.000000700354576
31
0
0
ARC
5
127
100
AcDbEntity
8
0
100
AcDbCircle
10
152.00000227987766
20
-46.000000700354576
30
0
40
0.99999999999999645
210
0
220
0
230
1
100
AcDbArc
50
-90
51
0
0
LINE
5
128
100
AcDbEntity
8
0
100
AcDbLine
10
153.00000227987766
20
-46.000000700354576
30
0
11
153.00000227987766
21
-30.000000432133675
31
0
0
ARC
5
129
100
AcDbEntity
8
0
100
AcDbCircle
10
152.00000227987766
20
-30.000000432133671
30
0
40
0.99999999999999645
210
0
220
0
230
1
100
AcDbArc
50
0
51
90
0
LINE
5
130
100
AcDbEntity
8
0
100
AcDbLine
10
152.00000227987766
20
-29.000000432133675
30
0
11
149.00000220537186
21
-29.000000432133675
31
0
0
ARC
5
131
100
AcDbEntity
8
0
100
AcDbCircle
10
149.00000220537186
20
-28.000000432133678
30
0
40
0.99999999999999645
210
0
220
0
230
1
100
AcDbArc
50
180
51
270
0
LINE
5
132
100
AcDbEntity
8
0
100
AcDbLine
10
148.00000220537186
20
-28.000000432133675
30
0
11
148.00000223517418
21
-13.000000178813934
31
0
0
LWPOLYLINE
5
133
100
AcDbEntity
8
0
100
AcDbPolyline
90
4
70
1
43
0.0
10
73.686866487849144
20
-47.014021629814053
10
21.601101802020288
20
-47.014021629814039
42
0.99999999999999989
10
21.601101802020253
20
-49.014021629814046
10
73.686866487849144
20
-49.014021629814081
42
0.99999999999999989
0
LWPOLYLINE
5
134
100
AcDbEntity
8
0
100
AcDbPolyline
90
4
70
1
43
0.0
10
35.500000536441803
20
49.000000700354576
10
2.5079782170290921
20
49.000000700354576
42
0.99999999999999989
10
2.5079782170290965
20
47.000000700354576
10
35.500000536441803
20
47.000000700354576
42
0.99999999999999989
0
LWPOLYLINE
5
135
100
AcDbEntity
8
0
100
AcDbPolyline
90
10
70
1
43
0.0
10
-96.800001445412647
20
47.999611112777274
42
-0.41407089169176348
10
-97.79951431268735
20
46.999611231426428
10
-152.00049045997673
20
46.973208159069408
42
0.41407079323448687
10
-153.00000332725136
20
45.973208613906671
10
-153.00000797667758
20
32.143373100738309
42
-0.99999999999999989
10
-155.00000797667747
20
32.143373773114504
10
-155.00000264586794
20
48.000001066345007
42
-0.41421346390589425
10
-154.00000264586802
20
49.000000730156898
10
-97.800001445412633
20
49.000000730156898
42
-0.41421356237309503
10
-96.800001445412647
20
48.000000730156898
0
LWPOLYLINE
5
136
100
AcDbEntity
8
0
100
AcDbPolyline
90
4
70
1
43
0.0
10
-155.01000052154063
20
25.059315006779535
10
-155.01000052154063
20
-25.009999552965169
42
0.99999999999999989
10
-153.01000052154066
20
-25.009999552965169
10
-153.01000052154063
20
25.059315006779546
42
0.99999999999999989
0
LINE
5
137
100
AcDbEntity
8
0
100
AcDbLine
10
-152.00000227987766
20
-47.000000700354576
30
0
11
-98.000001445412636
21
-47.000000700354576
31
0
0
ARC
5
138
100
AcDbEntity
8
0
100
AcDbCircle
10
-98.000001445412636
20
-48.000000730156898
30
0
40
0.99999999999999645
210
0
220
0
230
1
100
AcDbArc
50
-90
51
90
0
LINE
5
139
100
AcDbEntity
8
0
100
AcDbLine
10
-98.000001445412636
20
-49.000000730156898
30
0
11
-154.00000230967999
21
-49.000000730156898
31
0
0
ARC
5
140
100
AcDbEntity
8
0
100
AcDbCircle
10
-154.00000230968001
20
-48.000000730156898
30
0
40
0.99999999999999645
210
0
220
0
230
1
100
AcDbArc
50
180
51
270.00000000000159
0
LINE
5
141
100
AcDbEntity
8
0
100
AcDbLine
10
-155.00000230968001
20
-48.000000730156898
30
0
11
-155.00000230967999
21
-32.000000461935997
31
0
0
ARC
5
142
100
AcDbEntity
8
0
100
AcDbCircle
10
-154.00000227987766
20
-32.000000461935997
30
0
40
0.99999999999999645
210
0
220
0
230
1
100
AcDbArc
50
0
51
180
0
LINE
5
143
100
AcDbEntity
8
0
100
AcDbLine
10
-153.00000227987766
20
-32.000000461935997
30
0
11
-153.00000227987766
21
-46.000000700354576
31
0
0
ARC
5
144
100
AcDbEntity
8
0
100
AcDbCircle
10
-152.00000227987766
20
-46.000000700354576
30
0
40
0.99999999999999645
210
0
220
0
230
1
100
AcDbArc
50
180
51
270
0
LWPOLYLINE
5
145
100
AcDbEntity
8
0
100
AcDbPolyline
90
4
70
1
43
0.0
10
-1.2291028467537934
20
51.015518838469532
10
-32.138017008316496
20
51.015518838469532
42
0.99999999999999989
10
-32.138017008316496
20
49.015518838469532
10
-1.2291028467537937
20
49.015518838469532
42
0.99999999999999989
0
LWPOLYLINE
5
146
100
AcDbEntity
8
0
100
AcDbPolyline
90
4
70
1
43
0.0
10
16.446866487849139
20
-47.014021629814053
10
-35.638898197979714
20
-47.014021629814039
42
0.99999999999999989
10
-35.638898197979749
20
-49.014021629814046
10
16.446866487849139
20
-49.014021629814081
42
0.99999999999999989
0
LWPOLYLINE
5
147
100
AcDbEntity
8
0
100
AcDbPolyline
90
4
70
1
43
0.0
10
82.261982991683482
20
49.015518838469532
10
91.170897153246187
20
49.015518838469532
42
0.99999999999999989
10
91.170897153246187
20
51.015518838469532
10
82.261982991683482
20
51.015518838469532
42
0.99999999999999989
0
LWPOLYLINE
5
148
100
AcDbEntity
8
0
100
AcDbPolyline
90
16
70
1
43
0.0
10
143.34086169584026
20
-54.29999999999999
42
-0.41421356237309631
10
141.34086169584026
20
-52.299999999999983
10
141.34086169584026
20
-50.500000000000043
42
0.41421356237309631
10
139.34086169584026
20
-48.500000000000028
10
127.34086169584025
20
-48.500000000000021
42
0.41421356237309503
10
125.34086169584026
20
-50.500000000000028
10
125.34086169584026
20
-52.300000000000004
42
-0.41421356237309243
10
123.34086169584027
20
-54.299999999999997
10
-154.5
20
-54.300000000000033
42
-0.41421356237309503
10
-158.5
20
-50.300000000000026
10
-158.5
20
50.299999999999976
42
-0.41421356237309503
10
-154.5
20
54.299999999999983
10
154.5
20
54.300000000000011
42
-0.41421356237309503
10
158.5
20
50.300000000000011
10
158.5
20
-50.299999999999997
42
-0.41421356237309503
10
154.5
20
-54.299999999999997
0
SPLINE
5
149
100
AcDbEntity
8
0
100
AcDbSpline
70
0
71
3
72
8
73
4
74
0
42
0.000000001
43
0.0000000001
44
0.0000000001
40
0
40
0
40
0
40
0
40
1
40
1
40
1
40
1
10
39.343123999654438
20
47.132741644328597
30
0
10
38.790839249824046
20
47.132741644328632
30
0
10
38.34312399965431
20
46.685026394159586
30
0
10
38.343123999654352
20
46.13274164432859
30
0
0
LINE
5
150
100
AcDbEntity
8
0
100
AcDbLine
10
39.343123999654438
20
47.132741644328597
30
0
11
74.906782397917368
21
47.133079762767764
31
0
0
SPLINE
5
151
100
AcDbEntity
8
0
100
AcDbSpline
70
0
71
3
72
8
73
4
74
0
42
0.000000001
43
0.0000000001
44
0.0000000001
40
0
40
0
40
0
40
0
40
1
40
1
40
1
40
1
10
75.90682324274465
20
46.133120609264054
30
0
10
75.906800684308465
20
46.685405358634249
30
0
10
75.459067147286945
20
47.133102321203999
30
0
10
74.906782397917368
20
47.133079762767764
30
0
0
LINE
5
152
100
AcDbEntity
8
0
100
AcDbLine
10
75.90682324274465
20
46.133120609264054
30
0
11
75.907869888396846
21
30.125705982089208
31
0
0
SPLINE
5
153
100
AcDbEntity
8
0
100
AcDbSpline
70
0
71
3
72
8
73
4
74
0
42
0.000000001
43
0.0000000001
44
0.0000000001
40
0
40
0
40
0
40
0
40
1
40
1
40
1
40
1
10
74.907869888396874
20
29.125705982089176
30
0
10
75.460154638227891
20
29.125705982089176
30
0
10
75.907869888396846
20
29.573421232258262
30
0
10
75.907869888396846
20
30.125705982089208
30
0
0
LINE
5
154
100
AcDbEntity
8
0
100
AcDbLine
10
74.907869888396874
20
29.125705982089176
30
0
11
63.144915791880948
21
29.125705982089176
31
0
0
SPLINE
5
155
100
AcDbEntity
8
0
100
AcDbSpline
70
0
71
3
72
8
73
4
74
0
42
0.000000001
43
0.0000000001
44
0.0000000001
40
0
40
0
40
0
40
0
40
1
40
1
40
1
40
1
10
62.144915791880862
20
30.125705982089208
30
0
10
62.144915791880862
20
29.573421232258266
30
0
10
62.592631042049987
20
29.12570598208918
30
0
10
63.144915791880948
20
29.125705982089176
30
0
0
LINE
5
156
100
AcDbEntity
8
0
100
AcDbLine
10
62.144915791880862
20
30.125705982089208
30
0
11
62.144915791880862
21
31.137511226934691
31
0
0
LINE
5
157
100
AcDbEntity
8
0
100
AcDbLine
10
62.144915791880862
20
31.137511226934691
30
0
11
47.332803730273419
21
31.137511226934812
31
0
0
LINE
5
158
100
AcDbEntity
8
0
100
AcDbLine
10
47.332803730273419
20
31.137511226934812
30
0
11
47.33286989053444
21
30.125655182089467
31
0
0
SPLINE
5
159
100
AcDbEntity
8
0
100
AcDbSpline
70
0
71
3
72
8
73
4
74
0
42
0.000000001
43
0.0000000001
44
0.0000000001
40
0
40
0
40
0
40
0
40
1
40
1
40
1
40
1
10
46.332869890534766
20
29.125655182089321
30
0
10
46.885154640365414
20
29.125655182089403
30
0
10
47.332869890534468
20
29.573370432258507
30
0
10
47.33286989053444
20
30.125655182089467
30
0
0
LINE
5
160
100
AcDbEntity
8
0
100
AcDbLine
10
46.332869890534766
20
29.125655182089321
30
0
11
39.332364991877952
21
29.125655182088863
31
0
0
SPLINE
5
161
100
AcDbEntity
8
0
100
AcDbSpline
70
0
71
3
72
8
73
4
74
0
42
0.000000001
43
0.0000000001
44
0.0000000001
40
0
40
0
40
0
40
0
40
1
40
1
40
1
40
1
10
38.332364991877938
20
30.125655182088707
30
0
10
38.332364991877945
20
29.573370432257757
30
0
10
38.780080242047333
20
29.125655182088739
30
0
10
39.332364991877952
20
29.125655182088863
30
0
0
LINE
5
162
100
AcDbEntity
8
0
100
AcDbLine
10
38.332364991877938
20
30.125655182088707
30
0
11
38.34312399965436
21
46.13274164432859
31
0
0
SPLINE
5
163
100
AcDbEntity
8
0
100
AcDbSpline
70
0
71
3
72
8
73
4
74
0
42
0.000000001
43
0.0000000001
44
0.0000000001
40
0
40
0
40
0
40
0
40
1
40
1
40
1
40
1
10
77.702223736269914
20
-34.570594487022099
30
0
10
77.702223736270042
20
-35.122878403224398
30
0
10
78.14993768542864
20
-35.570593308092583
30
0
10
78.702221601629674
20
-35.57059448702006
30
0
0
LINE
5
164
100
AcDbEntity
8
0
100
AcDbLine
10
77.702223736269914
20
-34.570594487022099
30
0
11
77.702223736270398
21
-32.070594487022817
31
0
0
SPLINE
5
165
100
AcDbEntity
8
0
100
AcDbSpline
70
0
71
3
72
8
73
4
74
0
42
0.000000001
43
0.0000000001
44
0.0000000001
40
0
40
0
40
0
40
0
40
1
40
1
40
1
40
1
10
78.702223736270369
20
-31.070594487022795
30
0
10
78.149938986439452
20
-31.070594487022795
30
0
10
77.702223736270426
20
-31.518309737191856
30
0
10
77.702223736270398
20
-32.070594487022817
30
0
0
LINE
5
166
100
AcDbEntity
8
0
100
AcDbLine
10
78.702223736270369
20
-31.070594487022795
30
0
11
92.702223736270298
21
-31.070594487022781
31
0
0
SPLINE
5
167
100
AcDbEntity
8
0
100
AcDbSpline
70
0
71
3
72
8
73
4
74
0
42
0.000000001
43
0.0000000001
44
0.0000000001
40
0
40
0
40
0
40
0
40
1
40
1
40
1
40
1
10
93.702223736270284
20
-32.070594487022831
30
0
10
93.702223736270298
20
-31.518309737191856
30
0
10
93.254508486101159
20
-31.070594487022781
30
0
10
92.702223736270298
20
-31.070594487022781
30
0
0
LINE
5
168
100
AcDbEntity
8
0
100
AcDbLine
10
93.702223736270284
20
-32.070594487022831
30
0
11
93.702223736270298
21
-34.570596621660748
31
0
0
SPLINE
5
169
100
AcDbEntity
8
0
100
AcDbSpline
70
0
71
3
72
8
73
4
74
0
42
0.000000001
43
0.0000000001
44
0.0000000001
40
0
40
0
40
0
40
0
40
1
40
1
40
1
40
1
10
92.702221601634264
20
-35.570594487020699
30
0
10
93.254506351463945
20
-35.570595665948886
30
0
10
93.702222557342068
20
-35.122881371490408
30
0
10
93.702223736270298
20
-34.570596621660748
30
0
0
LINE
5
170
100
AcDbEntity
8
0
100
AcDbLine
10
92.702221601634264
20
-35.570594487020699
30
0
11
92.702221601634221
21
-40.57059448702087
31
0
0
SPLINE
5
171
100
AcDbEntity
8
0
100
AcDbSpline
70
0
71
3
72
8
73
4
74
0
42
0.000000001
43
0.0000000001
44
0.0000000001
40
0
40
0
40
0
40
0
40
1
40
1
40
1
40
1
10
93.70222160163425
20
-41.570594487020898
30
0
10
93.70222160163425
20
-41.018309737189959
30
0
10
93.254506351465153
20
-40.570594487020884
30
0
10
92.702221601634221
20
-40.57059448702087
30
0
0
LINE
5
172
100
AcDbEntity
8
0
100
AcDbLine
10
93.70222160163425
20
-41.570594487020898
30
0
11
93.70222160163425
21
-44.070594487020649
31
0
0
SPLINE
5
173
100
AcDbEntity
8
0
100
AcDbSpline
70
0
71
3
72
8
73
4
74
0
42
0.000000001
43
0.0000000001
44
0.0000000001
40
0
40
0
40
0
40
0
40
1
40
1
40
1
40
1
10
92.702221601634264
20
-45.070594487020692
30
0
10
93.254506351465182
20
-45.070594487020692
30
0
10
93.70222160163425
20
-44.622879236851631
30
0
10
93.70222160163425
20
-44.070594487020649
30
0
0
LINE
5
174
100
AcDbEntity
8
0
100
AcDbLine
10
92.702221601634264
20
-45.070594487020692
30
0
11
78.702221601634349
21
-45.070594487020692
31
0
0
SPLINE
5
175
100
AcDbEntity
8
0
100
AcDbSpline
70
0
71
3
72
8
73
4
74
0
42
0.000000001
43
0.0000000001
44
0.0000000001
40
0
40
0
40
0
40
0
40
1
40
1
40
1
40
1
10
77.702221601634335
20
-44.070594487020649
30
0
10
77.702221601634335
20
-44.622879236851631
30
0
10
78.14993685180346
20
-45.070594487020692
30
0
10
78.702221601634349
20
-45.070594487020692
30
0
0
LINE
5
176
100
AcDbEntity
8
0
100
AcDbLine
10
77.702221601634335
20
-44.070594487020649
30
0
11
77.702223736270398
21
-41.570594487022838
31
0
0
SPLINE
5
177
100
AcDbEntity
8
0
100
AcDbSpline
70
0
71
3
72
8
73
4
74
0
42
0.000000001
43
0.0000000001
44
0.0000000001
40
0
40
0
40
0
40
0
40
1
40
1
40
1
40
1
10
78.702221601629958
20
-40.570594487025375
30
0
10
78.149937685428966
20
-40.570595665952922
30
0
10
77.702223736270398
20
-41.01831057082051
30
0
10
77.702223736270398
20
-41.570594487022838
30
0
0
LINE
5
178
100
AcDbEntity
8
0
100
AcDbLine
10
78.702221601629958
20
-40.570594487025375
30
0
11
78.702221601629674
21
-35.57059448702006
31
0
0
SPLINE
5
179
100
AcDbEntity
8
0
100
AcDbSpline
70
0
71
3
72
8
73
4
74
0
42
0.000000001
43
0.0000000001
44
0.0000000001
40
0
40
0
40
0
40
0
40
1
40
1
40
1
40
1
10
-130.85508236546156
20
16.579405258899993
30
0
10
-131.40736628166252
20
16.579404079972235
30
0
10
-131.85508023082062
20
16.131689175104448
30
0
10
-131.85508023082039
20
15.579405258902153
30
0
0
LINE
5
180
100
AcDbEntity
8
0
100
AcDbLine
10
-130.85508236546156
20
16.579405258899993
30
0
11
-130.85508236546116
21
21.579405258904288
31
0
0
SPLINE
5
181
100
AcDbEntity
8
0
100
AcDbSpline
70
0
71
3
72
8
73
4
74
0
42
0.000000001
43
0.0000000001
44
0.0000000001
40
0
40
0
40
0
40
0
40
1
40
1
40
1
40
1
10
-131.85508023082039
20
22.579405258902398
30
0
10
-131.85508023082076
20
22.027121342700152
30
0
10
-131.40736628166249
20
21.579406437831867
30
0
10
-130.85508236546116
20
21.579405258904288
30
0
0
LINE
5
182
100
AcDbEntity
8
0
100
AcDbLine
10
-131.85508023082039
20
22.579405258902398
30
0
11
-131.85508023082039
21
25.079405258902167
31
0
0
SPLINE
5
183
100
AcDbEntity
8
0
100
AcDbSpline
70
0
71
3
72
8
73
4
74
0
42
0.000000001
43
0.0000000001
44
0.0000000001
40
0
40
0
40
0
40
0
40
1
40
1
40
1
40
1
10
-130.85508023082107
20
26.079405258902213
30
0
10
-131.40736498065132
20
26.079405258902042
30
0
10
-131.85508023082042
20
25.631690008733017
30
0
10
-131.85508023082039
20
25.079405258902167
30
0
0
LINE
5
184
100
AcDbEntity
8
0
100
AcDbLine
10
-130.85508023082107
20
26.079405258902213
30
0
11
-123.42433420811946
21
26.079406104248282
31
0
0
SPLINE
5
185
100
AcDbEntity
8
0
100
AcDbSpline
70
0
71
3
72
8
73
4
74
0
42
0.000000001
43
0.0000000001
44
0.0000000001
40
0
40
0
40
0
40
0
40
1
40
1
40
1
40
1
10
-123.42433420811946
20
26.079406104248282
30
0
10
-123.25864878317077
20
26.079406104248186
30
0
10
-123.1243342081202
20
26.213720679299009
30
0
10
-123.12433420812044
20
26.379406104248616
30
0
0
LINE
5
186
100
AcDbEntity
8
0
100
AcDbLine
10
-123.12433420812044
20
26.379406104248616
30
0
11
-123.12433420812113
21
27.080456212498927
31
0
0
SPLINE
5
187
100
AcDbEntity
8
0
100
AcDbSpline
70
0
71
3
72
8
73
4
74
0
42
0.000000001
43
0.0000000001
44
0.0000000001
40
0
40
0
40
0
40
0
40
1
40
1
40
1
40
1
10
-122.12433420812111
20
28.080456212498319
30
0
10
-122.67661895795206
20
28.080456212498515
30
0
10
-123.12433420812106
20
27.632740962329368
30
0
10
-123.12433420812113
20
27.080456212498927
30
0
0
LINE
5
188
100
AcDbEntity
8
0
100
AcDbLine
10
-122.12433420812111
20
28.080456212498319
30
0
11
-116.11357411708831
21
28.087446141886151
31
0
0
SPLINE
5
189
100
AcDbEntity
8
0
100
AcDbSpline
70
0
71
3
72
8
73
4
74
0
42
0.000000001
43
0.0000000001
44
0.0000000001
40
0
40
0
40
0
40
0
40
1
40
1
40
1
40
1
10
-115.11357411708964
20
27.087447225145958
30
0
10
-115.11357471535703
20
27.639731551937462
30
0
10
-115.5612897902971
20
28.087446141886268
30
0
10
-116.11357411708831
20
28.087446141886151
30
0
0
LINE
5
190
100
AcDbEntity
8
0
100
AcDbLine
10
-115.11357411708964
20
27.087447225145958
30
0
11
-115.1135720606211
21
26.086396033055067
31
0
0
LINE
5
191
100
AcDbEntity
8
0
100
AcDbLine
10
-115.1135720606211
20
26.086396033055067
30
0
11
-99.548334208119954
21
26.079406804206542
31
0
0
SPLINE
5
192
100
AcDbEntity
8
0
100
AcDbSpline
70
0
71
3
72
8
73
4
74
0
42
0.000000001
43
0.0000000001
44
0.0000000001
40
0
40
0
40
0
40
0
40
1
40
1
40
1
40
1
10
-99.548334208119954
20
26.079406804206542
30
0
10
-99.38264878317085
20
26.079406804206581
30
0
10
-99.248334208120141
20
26.213721379257258
30
0
10
-99.248334208120284
20
26.379406804206866
30
0
0
LINE
5
193
100
AcDbEntity
8
0
100
AcDbLine
10
-99.248334208120284
20
26.379406804206866
30
0
11
-99.248334208119616
21
27.079404735841802
31
0
0
SPLINE
5
194
100
AcDbEntity
8
0
100
AcDbSpline
70
0
71
3
72
8
73
4
74
0
42
0.000000001
43
0.0000000001
44
0.0000000001
40
0
40
0
40
0
40
0
40
1
40
1
40
1
40
1
10
-98.248334208119687
20
28.079404735840548
30
0
10
-98.800618957949979
20
28.079404735840804
30
0
10
-99.248334208118877
20
27.631689485672286
30
0
10
-99.248334208119616
20
27.079404735841802
30
0
0
LINE
5
195
100
AcDbEntity
8
0
100
AcDbLine
10
-98.248334208119687
20
28.079404735840548
30
0
11
-92.23757411708624
21
28.086394665229029
31
0
0
SPLINE
5
196
100
AcDbEntity
8
0
100
AcDbSpline
70
0
71
3
72
8
73
4
74
0
42
0.000000001
43
0.0000000001
44
0.0000000001
40
0
40
0
40
0
40
0
40
1
40
1
40
1
40
1
10
-91.237574117086879
20
27.08639574848884
30
0
10
-91.237574715354256
20
27.638680075280337
30
0
10
-91.68528979029503
20
28.086394665229179
30
0
10
-92.23757411708624
20
28.086394665229029
30
0
0
LINE
5
197
100
AcDbEntity
8
0
100
AcDbLine
10
-91.237574117086879
20
27.08639574848884
30
0
11
-91.237573015011947
21
26.385345256941498
31
0
0
SPLINE
5
198
100
AcDbEntity
8
0
100
AcDbSpline
70
0
71
3
72
8
73
4
74
0
42
0.000000001
43
0.0000000001
44
0.0000000001
40
0
40
0
40
0
40
0
40
1
40
1
40
1
40
1
10
-91.237573357668168
20
26.385345256940774
30
0
10
-91.236994081844571
20
26.220071326292409
30
0
10
-91.102850146155575
20
26.08639673359437
30
0
10
-90.937575200345151
20
26.08639673359437
30
0
0
LINE
5
199
100
AcDbEntity
8
0
100
AcDbLine
10
-90.937575200345151
20
26.08639673359437
30
0
11
-90.650570757373288
21
26.08639518829774
31
0
0
SPLINE
5
200
100
AcDbEntity
8
0
100
AcDbSpline
70
0
71
3
72
8
73
4
74
0
42
0.000000001
43
0.0000000001
44
0.0000000001
40
0
40
0
40
0
40
0
40
1
40
1
40
1
40
1
10
-89.650570757373288
20
25.086395188297701
30
0
10
-89.650570757373288
20
25.638679938128011
30
0
10
-90.09828600754291
20
26.086395188297736
30
0
10
-90.650570757373288
20
26.08639518829774
30
0
0
LINE
5
201
100
AcDbEntity
8
0
100
AcDbLine
10
-89.650570757373288
20
25.086395188297701
30
0
11
-89.650570757373288
21
22.586395188297281
31
0
0
SPLINE
5
202
100
AcDbEntity
8
0
100
AcDbSpline
70
0
71
3
72
8
73
4
74
0
42
0.000000001
43
0.0000000001
44
0.0000000001
40
0
40
0
40
0
40
0
40
1
40
1
40
1
40
1
10
-90.650573357666175
20
21.586397788597157
30
0
10
-90.098288607837162
20
21.586396352492674
30
0
10
-89.650572193477188
20
22.034110438468254
30
0
10
-89.650570757373288
20
22.586395188297281
30
0
0
LINE
5
203
100
AcDbEntity
8
0
100
AcDbLine
10
-90.650573357666175
20
21.586397788597157
30
0
11
-90.650570757369522
21
16.586397788593775
31
0
0
SPLINE
5
204
100
AcDbEntity
8
0
100
AcDbSpline
70
0
71
3
72
8
73
4
74
0
42
0.000000001
43
0.0000000001
44
0.0000000001
40
0
40
0
40
0
40
0
40
1
40
1
40
1
40
1
10
-89.650570757369508
20
15.586397788593743
30
0
10
-89.650570757369508
20
16.138682538424696
30
0
10
-90.09828600753913
20
16.586397788593775
30
0
10
-90.650570757369522
20
16.586397788593775
30
0
0
LINE
5
205
100
AcDbEntity
8
0
100
AcDbLine
10
-89.650570757369508
20
15.586397788593743
30
0
11
-89.650570757369508
21
13.086397788593329
31
0
0
SPLINE
5
206
100
AcDbEntity
8
0
100
AcDbSpline
70
0
71
3
72
8
73
4
74
0
42
0.000000001
43
0.0000000001
44
0.0000000001
40
0
40
0
40
0
40
0
40
1
40
1
40
1
40
1
10
-90.650570757369508
20
12.086397788593295
30
0
10
-90.09828600753913
20
12.086397788593295
30
0
10
-89.650570757369508
20
12.534113038762376
30
0
10
-89.650570757369508
20
13.086397788593329
30
0
0
LINE
5
207
100
AcDbEntity
8
0
100
AcDbLine
10
-90.650570757369508
20
12.086397788593295
30
0
11
-90.950572892009887
21
12.086399333890581
31
0
0
LINE
5
208
100
AcDbEntity
8
0
100
AcDbLine
10
-90.950572892009887
20
12.086399333890581
30
0
11
-130.85508023081542
21
12.079407859188141
31
0
0
SPLINE
5
209
100
AcDbEntity
8
0
100
AcDbSpline
70
0
71
3
72
8
73
4
74
0
42
0.000000001
43
0.0000000001
44
0.0000000001
40
0
40
0
40
0
40
0
40
1
40
1
40
1
40
1
10
-131.85508023081476
20
13.079407859188182
30
0
10
-131.85508023081476
20
12.527123109357222
30
0
10
-131.40736498064567
20
12.079407859188137
30
0
10
-130.85508023081542
20
12.079407859188141
30
0
0
LINE
5
210
100
AcDbEntity
8
0
100
AcDbLine
10
-131.85508023081476
20
13.079407859188182
30
0
11
-131.85508023082039
21
15.579405258902153
31
0
0
SPLINE
5
211
100
AcDbEntity
8
0
100
AcDbSpline
70
0
71
3
72
8
73
4
74
0
42
0.000000001
43
0.0000000001
44
0.0000000001
40
0
40
0
40
0
40
0
40
1
40
1
40
1
40
1
10
-112.79970072691606
20
41.632951023601834
30
0
10
-112.79970072691606
20
41.08066710740016
30
0
10
-112.35198677775779
20
40.632952202531897
30
0
10
-111.79970286155665
20
40.632951023604349
30
0
0
LINE
5
212
100
AcDbEntity
8
0
100
AcDbLine
10
-112.79970072691606
20
41.632951023601834
30
0
11
-112.79970072691418
21
44.132951023601585
31
0
0
SPLINE
5
213
100
AcDbEntity
8
0
100
AcDbSpline
70
0
71
3
72
8
73
4
74
0
42
0.000000001
43
0.0000000001
44
0.0000000001
40
0
40
0
40
0
40
0
40
1
40
1
40
1
40
1
10
-111.79970072691405
20
45.13295102360162
30
0
10
-112.35198547674511
20
45.13295102360162
30
0
10
-112.79970072691418
20
44.685235773432545
30
0
10
-112.79970072691418
20
44.132951023601585
30
0
0
LINE
5
214
100
AcDbEntity
8
0
100
AcDbLine
10
-111.79970072691405
20
45.13295102360162
30
0
11
-111.49970239589788
21
45.132952169448942
31
0
0
LINE
5
215
100
AcDbEntity
8
0
100
AcDbLine
10
-111.49970239589788
20
45.132952169448942
30
0
11
-97.799700726914253
21
45.132951106069676
31
0
0
SPLINE
5
216
100
AcDbEntity
8
0
100
AcDbSpline
70
0
71
3
72
8
73
4
74
0
42
0.000000001
43
0.0000000001
44
0.0000000001
40
0
40
0
40
0
40
0
40
1
40
1
40
1
40
1
10
-96.799700726914168
20
44.132951023601585
30
0
10
-96.799700726914168
20
44.685235773432545
30
0
10
-97.247415977083293
20
45.13295102360162
30
0
10
-97.79970072691421
20
45.13295102360162
30
0
0
LINE
5
217
100
AcDbEntity
8
0
100
AcDbLine
10
-96.799700726914168
20
44.132951023601585
30
0
11
-96.799700726916043
21
41.632948888963021
31
0
0
SPLINE
5
218
100
AcDbEntity
8
0
100
AcDbSpline
70
0
71
3
72
8
73
4
74
0
42
0.000000001
43
0.0000000001
44
0.0000000001
40
0
40
0
40
0
40
0
40
1
40
1
40
1
40
1
10
-97.799702861554024
20
40.632951023605301
30
0
10
-97.247418111724357
20
40.632949844675949
30
0
10
-96.799701905845495
20
41.08066413913334
30
0
10
-96.799700726916043
20
41.632948888963021
30
0
0
LINE
5
219
100
AcDbEntity
8
0
100
AcDbLine
10
-97.799702861554024
20
40.632951023605301
30
0
11
-97.799702861554024
21
35.632951023605116
31
0
0
SPLINE
5
220
100
AcDbEntity
8
0
100
AcDbSpline
70
0
71
3
72
8
73
4
74
0
42
0.000000001
43
0.0000000001
44
0.0000000001
40
0
40
0
40
0
40
0
40
1
40
1
40
1
40
1
10
-96.799702861553953
20
34.632951023605074
30
0
10
-96.799702861553953
20
35.185235773436034
30
0
10
-97.247418111723078
20
35.632951023605116
30
0
10
-97.799702861554024
20
35.632951023605116
30
0
0
LINE
5
221
100
AcDbEntity
8
0
100
AcDbLine
10
-96.799702861553953
20
34.632951023605074
30
0
11
-96.799702861553953
21
32.132951023605315
31
0
0
SPLINE
5
222
100
AcDbEntity
8
0
100
AcDbSpline
70
0
71
3
72
8
73
4
74
0
42
0.000000001
43
0.0000000001
44
0.0000000001
40
0
40
0
40
0
40
0
40
1
40
1
40
1
40
1
10
-97.799702861554024
20
31.132951023605276
30
0
10
-97.247418111723078
20
31.132951023605273
30
0
10
-96.799702861553953
20
31.580666273774362
30
0
10
-96.799702861553953
20
32.132951023605315
30
0
0
LINE
5
223
100
AcDbEntity
8
0
100
AcDbLine
10
-97.799702861554024
20
31.132951023605276
30
0
11
-98.099704530536542
21
31.132952169452601
31
0
0
LINE
5
224
100
AcDbEntity
8
0
100
AcDbLine
10
-98.099704530536542
20
31.132952169452601
30
0
11
-111.79970286155387
21
31.13295137230196
31
0
0
SPLINE
5
225
100
AcDbEntity
8
0
100
AcDbSpline
70
0
71
3
72
8
73
4
74
0
42
0.000000001
43
0.0000000001
44
0.0000000001
40
0
40
0
40
0
40
0
40
1
40
1
40
1
40
1
10
-112.79970286155397
20
32.132951023605315
30
0
10
-112.79970286155397
20
31.580666273774362
30
0
10
-112.35198761138491
20
31.132951023605273
30
0
10
-111.79970286155387
20
31.132951023605262
30
0
0
LINE
5
226
100
AcDbEntity
8
0
100
AcDbLine
10
-112.79970286155397
20
32.132951023605315
30
0
11
-112.79970072691606
21
34.632951023601571
31
0
0
SPLINE
5
227
100
AcDbEntity
8
0
100
AcDbSpline
70
0
71
3
72
8
73
4
74
0
42
0.000000001
43
0.0000000001
44
0.0000000001
40
0
40
0
40
0
40
0
40
1
40
1
40
1
40
1
10
-111.79970286155665
20
35.632951023599674
30
0
10
-112.35198677775779
20
35.632949844671487
30
0
10
-112.79970072691606
20
35.185234939803863
30
0
10
-112.79970072691606
20
34.632951023601571
30
0
0
LINE
5
228
100
AcDbEntity
8
0
100
AcDbLine
10
-111.79970286155665
20
35.632951023599674
30
0
11
-111.79970286155665
21
40.632951023604349
31
0
0
SPLINE
5
229
100
AcDbEntity
8
0
100
AcDbSpline
70
0
71
3
72
8
73
4
74
0
42
0.000000001
43
0.0000000001
44
0.0000000001
40
0
40
0
40
0
40
0
40
1
40
1
40
1
40
1
10
-131.84970072691686
20
41.632950823952577
30
0
10
-131.84970072691692
20
41.08066690775027
30
0
10
-131.40198677775854
20
40.632952002882654
30
0
10
-130.84970286155817
20
40.632950823954452
30
0
0
LINE
5
230
100
AcDbEntity
8
0
100
AcDbLine
10
-131.84970072691686
20
41.632950823952577
30
0
11
-131.84970072691502
21
44.132950823951674
31
0
0
SPLINE
5
231
100
AcDbEntity
8
0
100
AcDbSpline
70
0
71
3
72
8
73
4
74
0
42
0.000000001
43
0.0000000001
44
0.0000000001
40
0
40
0
40
0
40
0
40
1
40
1
40
1
40
1
10
-130.84970072691502
20
45.132950823951731
30
0
10
-131.40198547674595
20
45.132950823951717
30
0
10
-131.84970072691502
20
44.685235573782634
30
0
10
-131.84970072691502
20
44.132950823951674
30
0
0
LINE
5
232
100
AcDbEntity
8
0
100
AcDbLine
10
-130.84970072691502
20
45.132950823951731
30
0
11
-129.84970286158983
21
45.132955308955658
31
0
0
LINE
5
233
100
AcDbEntity
8
0
100
AcDbLine
10
-129.84970286158983
20
45.132955308955658
30
0
11
-116.84970072691515
21
45.132951504655878
31
0
0
SPLINE
5
234
100
AcDbEntity
8
0
100
AcDbSpline
70
0
71
3
72
8
73
4
74
0
42
0.000000001
43
0.0000000001
44
0.0000000001
40
0
40
0
40
0
40
0
40
1
40
1
40
1
40
1
10
-115.84970072691502
20
44.132950823951674
30
0
10
-115.84970072691502
20
44.685235573782634
30
0
10
-116.29741597708409
20
45.132950823951717
30
0
10
-116.84970072691506
20
45.132950823951731
30
0
0
LINE
5
235
100
AcDbEntity
8
0
100
AcDbLine
10
-115.84970072691502
20
44.132950823951674
30
0
11
-115.84970072691755
21
41.632948689312464
31
0
0
SPLINE
5
236
100
AcDbEntity
8
0
100
AcDbSpline
70
0
71
3
72
8
73
4
74
0
42
0.000000001
43
0.0000000001
44
0.0000000001
40
0
40
0
40
0
40
0
40
1
40
1
40
1
40
1
10
-116.84970286155574
20
40.632950823955085
30
0
10
-116.29741811172615
20
40.63294964502618
30
0
10
-115.84970190584647
20
41.080663939482804
30
0
10
-115.84970072691755
20
41.632948689312464
30
0
0
LINE
5
237
100
AcDbEntity
8
0
100
AcDbLine
10
-116.84970286155574
20
40.632950823955085
30
0
11
-116.84970072691634
21
35.632950823952982
31
0
0
SPLINE
5
238
100
AcDbEntity
8
0
100
AcDbSpline
70
0
71
3
72
8
73
4
74
0
42
0.000000001
43
0.0000000001
44
0.0000000001
40
0
40
0
40
0
40
0
40
1
40
1
40
1
40
1
10
-115.84970072691689
20
34.632950823952328
30
0
10
-115.84970072691655
20
35.185235573783267
30
0
10
-116.29741597708536
20
35.632950823952626
30
0
10
-116.84970072691634
20
35.632950823952982
30
0
0
LINE
5
239
100
AcDbEntity
8
0
100
AcDbLine
10
-115.84970072691689
20
34.632950823952328
30
0
11
-115.84970072691689
21
32.132950823952555
31
0
0
SPLINE
5
240
100
AcDbEntity
8
0
100
AcDbSpline
70
0
71
3
72
8
73
4
74
0
42
0.000000001
43
0.0000000001
44
0.0000000001
40
0
40
0
40
0
40
0
40
1
40
1
40
1
40
1
10
-116.84970072691696
20
31.132950823952523
30
0
10
-116.29741597708596
20
31.13295082395252
30
0
10
-115.84970072691688
20
31.580666074121595
30
0
10
-115.84970072691689
20
32.132950823952555
30
0
0
LINE
5
241
100
AcDbEntity
8
0
100
AcDbLine
10
-116.84970072691696
20
31.132950823952523
30
0
11
-117.8497028615196
21
31.132955308925702
31
0
0
LINE
5
242
100
AcDbEntity
8
0
100
AcDbLine
10
-117.8497028615196
20
31.132955308925702
30
0
11
-130.84970072691681
21
31.132951504656585
31
0
0
SPLINE
5
243
100
AcDbEntity
8
0
100
AcDbSpline
70
0
71
3
72
8
73
4
74
0
42
0.000000001
43
0.0000000001
44
0.0000000001
40
0
40
0
40
0
40
0
40
1
40
1
40
1
40
1
10
-131.84970072691692
20
32.132950823952555
30
0
10
-131.84970072691686
20
31.580666074121595
30
0
10
-131.4019854767478
20
31.132950823952513
30
0
10
-130.84970072691689
20
31.132950823952523
30
0
0
LINE
5
244
100
AcDbEntity
8
0
100
AcDbLine
10
-131.84970072691692
20
32.132950823952555
30
0
11
-131.84970072691692
21
34.632950823952328
31
0
0
SPLINE
5
245
100
AcDbEntity
8
0
100
AcDbSpline
70
0
71
3
72
8
73
4
74
0
42
0.000000001
43
0.0000000001
44
0.0000000001
40
0
40
0
40
0
40
0
40
1
40
1
40
1
40
1
10
-130.84970286155811
20
35.632950823949784
30
0
10
-131.40198677775857
20
35.632949645022251
30
0
10
-131.84970072691692
20
35.185234740153973
30
0
10
-131.84970072691692
20
34.632950823952328
30
0
0
LINE
5
246
100
AcDbEntity
8
0
100
AcDbLine
10
-130.84970286155811
20
35.632950823949784
30
0
11
-130.84970286155817
21
40.632950823954452
31
0
0
SPLINE
5
247
100
AcDbEntity
8
0
100
AcDbSpline
70
0
71
3
72
8
73
4
74
0
42
0.000000001
43
0.0000000001
44
0.0000000001
40
0
40
0
40
0
40
0
40
1
40
1
40
1
40
1
10
-150.88356317958153
20
41.643373773114298
30
0
10
-150.88356317958153
20
41.091089205133784
30
0
10
-150.43584821321869
20
40.643374030289266
30
0
10
-149.88356364523818
20
40.643373773114263
30
0
0
LINE
5
248
100
AcDbEntity
8
0
100
AcDbLine
10
-150.88356317958153
20
41.643373773114298
30
0
11
-150.88356317958153
21
44.143373773114064
31
0
0
SPLINE
5
249
100
AcDbEntity
8
0
100
AcDbSpline
70
0
71
3
72
8
73
4
74
0
42
0.000000001
43
0.0000000001
44
0.0000000001
40
0
40
0
40
0
40
0
40
1
40
1
40
1
40
1
10
-149.88356317958159
20
45.143373773114099
30
0
10
-150.43584792941186
20
45.143373773113879
30
0
10
-150.88356317958161
20
44.695658522944875
30
0
10
-150.88356317958153
20
44.143373773114064
30
0
0
LINE
5
250
100
AcDbEntity
8
0
100
AcDbLine
10
-149.88356317958159
20
45.143373773114099
30
0
11
-135.88356317958102
21
45.143373773114099
31
0
0
SPLINE
5
251
100
AcDbEntity
8
0
100
AcDbSpline
70
0
71
3
72
8
73
4
74
0
42
0.000000001
43
0.0000000001
44
0.0000000001
40
0
40
0
40
0
40
0
40
1
40
1
40
1
40
1
10
-134.88356317958102
20
44.143373773114064
30
0
10
-134.88356317958059
20
44.695658522945024
30
0
10
-135.33127842975045
20
45.143373773113964
30
0
10
-135.88356317958102
20
45.143373773114099
30
0
0
LINE
5
252
100
AcDbEntity
8
0
100
AcDbLine
10
-134.88356317958102
20
44.143373773114064
30
0
11
-134.88356317958164
21
41.643373307457054
31
0
0
SPLINE
5
253
100
AcDbEntity
8
0
100
AcDbSpline
70
0
71
3
72
8
73
4
74
0
42
0.000000001
43
0.0000000001
44
0.0000000001
40
0
40
0
40
0
40
0
40
1
40
1
40
1
40
1
10
-135.88356364523733
20
40.643373773114568
30
0
10
-135.33127889540708
20
40.643373515939409
30
0
10
-134.88356343675613
20
41.091088557626748
30
0
10
-134.88356317958164
20
41.643373307457054
30
0
0
LINE
5
254
100
AcDbEntity
8
0
100
AcDbLine
10
-135.88356364523733
20
40.643373773114568
30
0
11
-135.88356364523733
21
35.643373773114398
31
0
0
SPLINE
5
255
100
AcDbEntity
8
0
100
AcDbSpline
70
0
71
3
72
8
73
4
74
0
42
0.000000001
43
0.0000000001
44
0.0000000001
40
0
40
0
40
0
40
0
40
1
40
1
40
1
40
1
10
-134.88356364523733
20
34.643373773114348
30
0
10
-134.88356364523733
20
35.195658522945322
30
0
10
-135.33127889540705
20
35.643373773114398
30
0
10
-135.88356364523733
20
35.643373773114398
30
0
0
LINE
5
256
100
AcDbEntity
8
0
100
AcDbLine
10
-134.88356364523733
20
34.643373773114348
30
0
11
-134.88356364523736
21
32.14337377311459
31
0
0
SPLINE
5
257
100
AcDbEntity
8
0
100
AcDbSpline
70
0
71
3
72
8
73
4
74
0
42
0.000000001
43
0.0000000001
44
0.0000000001
40
0
40
0
40
0
40
0
40
1
40
1
40
1
40
1
10
-135.88356364523733
20
31.143373773114558
30
0
10
-135.33127889540705
20
31.143373773114558
30
0
10
-134.88356364523733
20
31.591089023283629
30
0
10
-134.88356364523736
20
32.14337377311459
30
0
0
LINE
5
258
100
AcDbEntity
8
0
100
AcDbLine
10
-135.88356364523733
20
31.143373773114558
30
0
11
-149.88356364523787
21
31.143373773114558
31
0
0
SPLINE
5
259
100
AcDbEntity
8
0
100
AcDbSpline
70
0
71
3
72
8
73
4
74
0
42
0.000000001
43
0.0000000001
44
0.0000000001
40
0
40
0
40
0
40
0
40
1
40
1
40
1
40
1
10
-150.88356364523787
20
32.14337377311459
30
0
10
-150.88356364523784
20
31.591089023283633
30
0
10
-150.43584839506815
20
31.143373773114558
30
0
10
-149.88356364523787
20
31.143373773114558
30
0
0
LINE
5
260
100
AcDbEntity
8
0
100
AcDbLine
10
-150.88356364523787
20
32.14337377311459
30
0
11
-150.88356151059745
21
34.643373773111485
31
0
0
SPLINE
5
261
100
AcDbEntity
8
0
100
AcDbSpline
70
0
71
3
72
8
73
4
74
0
42
0.000000001
43
0.0000000001
44
0.0000000001
40
0
40
0
40
0
40
0
40
1
40
1
40
1
40
1
10
-149.88356197625274
20
35.643373773111534
30
0
10
-150.43584654423387
20
35.64337351593651
30
0
10
-150.88356151059742
20
35.195658341092638
30
0
10
-150.88356151059745
20
34.643373773111485
30
0
0
LINE
5
262
100
AcDbEntity
8
0
100
AcDbLine
10
-149.88356197625274
20
35.643373773111534
30
0
11
-149.88356364523816
21
40.643373773114263
31
0
0
SPLINE
5
263
100
AcDbEntity
8
0
100
AcDbSpline
70
0
71
3
72
8
73
4
74
0
42
0.000000001
43
0.0000000001
44
0.0000000001
40
0
40
0
40
0
40
0
40
1
40
1
40
1
40
1
10
-39.644321223027944
20
34.636395188295943
30
0
10
-39.644321223027944
20
35.18867993812691
30
0
10
-40.102795480973455
20
35.629405258908164
30
0
10
-40.655080230803755
20
35.629405258908164
30
0
0
LINE
5
264
100
AcDbEntity
8
0
100
AcDbLine
10
-39.644321223027944
20
34.636395188295943
30
0
11
-39.644321223027944
21
32.136395188295538
31
0
0
SPLINE
5
265
100
AcDbEntity
8
0
100
AcDbSpline
70
0
71
3
72
8
73
4
74
0
42
0.000000001
43
0.0000000001
44
0.0000000001
40
0
40
0
40
0
40
0
40
1
40
1
40
1
40
1
10
-40.644321223027937
20
31.136395188296152
30
0
10
-40.09203647319768
20
31.136395188296149
30
0
10
-39.644321223027944
20
31.584110438465231
30
0
10
-39.644321223027944
20
32.136395188295538
30
0
0
LINE
5
266
100
AcDbEntity
8
0
100
AcDbLine
10
-40.644321223027937
20
31.136395188296152
30
0
11
-54.644321223027731
21
31.136395188296149
31
0
0
LINE
5
267
100
AcDbEntity
8
0
100
AcDbLine
10
-54.644321223027731
20
31.136395188296149
30
0
11
-92.749700726915762
21
31.132900223602569
31
0
0
SPLINE
5
268
100
AcDbEntity
8
0
100
AcDbSpline
70
0
71
3
72
8
73
4
74
0
42
0.000000001
43
0.0000000001
44
0.0000000001
40
0
40
0
40
0
40
0
40
1
40
1
40
1
40
1
10
-93.749700726915819
20
32.132900223601951
30
0
10
-93.749700726915947
20
31.580615473771307
30
0
10
-93.301985476746751
20
31.132900223602388
30
0
10
-92.749700726915762
20
31.132900223602569
30
0
0
LINE
5
269
100
AcDbEntity
8
0
100
AcDbLine
10
-93.749700726915819
20
32.132900223601951
30
0
11
-93.749700726915819
21
34.632900223600629
31
0
0
SPLINE
5
270
100
AcDbEntity
8
0
100
AcDbSpline
70
0
71
3
72
8
73
4
74
0
42
0.000000001
43
0.0000000001
44
0.0000000001
40
0
40
0
40
0
40
0
40
1
40
1
40
1
40
1
10
-92.749702861556571
20
35.632900223598739
30
0
10
-93.301986777756838
20
35.632899044671184
30
0
10
-93.749700726915819
20
35.185184139802928
30
0
10
-93.749700726915819
20
34.632900223600629
30
0
0
LINE
5
271
100
AcDbEntity
8
0
100
AcDbLine
10
-92.749702861556571
20
35.632900223598739
30
0
11
-92.738943853780057
21
40.639890152991242
31
0
0
SPLINE
5
272
100
AcDbEntity
8
0
100
AcDbSpline
70
0
71
3
72
8
73
4
74
0
42
0.000000001
43
0.0000000001
44
0.0000000001
40
0
40
0
40
0
40
0
40
1
40
1
40
1
40
1
10
-93.738941719139234
20
41.639890152988706
30
0
10
-93.738941719139234
20
41.087606236787046
30
0
10
-93.291227769980367
20
40.639891331918783
30
0
10
-92.738943853780057
20
40.639890152991242
30
0
0
LINE
5
273
100
AcDbEntity
8
0
100
AcDbLine
10
-93.738941719139234
20
41.639890152988706
30
0
11
-93.738941719139234
21
44.139890152989125
31
0
0
SPLINE
5
274
100
AcDbEntity
8
0
100
AcDbSpline
70
0
71
3
72
8
73
4
74
0
42
0.000000001
43
0.0000000001
44
0.0000000001
40
0
40
0
40
0
40
0
40
1
40
1
40
1
40
1
10
-92.738941719139234
20
45.139890152989175
30
0
10
-93.291226468970279
20
45.139890152989167
30
0
10
-93.738941719139234
20
44.692174902819424
30
0
10
-93.738941719139234
20
44.139890152989125
30
0
0
LINE
5
275
100
AcDbEntity
8
0
100
AcDbLine
10
-92.738941719139234
20
45.139890152989175
30
0
11
-40.644321223027937
21
45.136395188296007
31
0
0
SPLINE
5
276
100
AcDbEntity
8
0
100
AcDbSpline
70
0
71
3
72
8
73
4
74
0
42
0.000000001
43
0.0000000001
44
0.0000000001
40
0
40
0
40
0
40
0
40
1
40
1
40
1
40
1
10
-39.644321223027944
20
44.136395188295971
30
0
10
-39.644321223027944
20
44.688679938126924
30
0
10
-40.09203647319768
20
45.136395188296
30
0
10
-40.644321223027937
20
45.136395188296007
30
0
0
LINE
5
277
100
AcDbEntity
8
0
100
AcDbLine
10
-39.644321223027944
20
44.136395188295971
30
0
11
-39.644321223027944
21
41.636395188295545
31
0
0
SPLINE
5
278
100
AcDbEntity
8
0
100
AcDbSpline
70
0
71
3
72
8
73
4
74
0
42
0.000000001
43
0.0000000001
44
0.0000000001
40
0
40
0
40
0
40
0
40
1
40
1
40
1
40
1
10
-40.655080230803755
20
40.629405258908335
30
0
10
-40.102795480973455
20
40.629405258908335
30
0
10
-39.644321223027944
20
41.084110438465238
30
0
10
-39.644321223027944
20
41.636395188295545
30
0
0
LINE
5
279
100
AcDbEntity
8
0
100
AcDbLine
10
-40.655080230803755
20
40.629405258908335
30
0
11
-40.655080230803755
21
35.629405258908157
31
0
0
SPLINE
5
280
100
AcDbEntity
8
0
100
AcDbSpline
70
0
71
3
72
8
73
4
74
0
42
0.000000001
43
0.0000000001
44
0.0000000001
40
0
40
0
40
0
40
0
40
1
40
1
40
1
40
1
10
-150.89432191428011
20
3.536393837641254
30
0
10
-150.89432191428011
20
2.9841099214395967
30
0
10
-150.44660796512116
20
2.5363950165713245
30
0
10
-149.89432404891986
20
2.5363938376437862
30
0
0
LINE
5
281
100
AcDbEntity
8
0
100
AcDbLine
10
-150.89432191428011
20
3.536393837641254
30
0
11
-150.89432191427642
21
6.0363938376417003
31
0
0
SPLINE
5
282
100
AcDbEntity
8
0
100
AcDbSpline
70
0
71
3
72
8
73
4
74
0
42
0.000000001
43
0.0000000001
44
0.0000000001
40
0
40
0
40
0
40
0
40
1
40
1
40
1
40
1
10
-149.89432191427642
20
7.036393837641743
30
0
10
-150.4466066641067
20
7.0363938376417368
30
0
10
-150.89432191427642
20
6.5886785874726614
30
0
10
-150.89432191427642
20
6.0363938376417003
30
0
0
LINE
5
283
100
AcDbEntity
8
0
100
AcDbLine
10
-149.89432191427642
20
7.036393837641743
30
0
11
-148.89432404896124
21
7.0363989886460088
31
0
0
LINE
5
284
100
AcDbEntity
8
0
100
AcDbLine
10
-148.89432404896124
20
7.0363989886460088
30
0
11
-135.89432191427599
21
7.0363946181999095
31
0
0
SPLINE
5
285
100
AcDbEntity
8
0
100
AcDbSpline
70
0
71
3
72
8
73
4
74
0
42
0.000000001
43
0.0000000001
44
0.0000000001
40
0
40
0
40
0
40
0
40
1
40
1
40
1
40
1
10
-134.89432191427579
20
6.0363938376416932
30
0
10
-134.89432191427579
20
6.5886785874726552
30
0
10
-135.3420371644456
20
7.0363938376417368
30
0
10
-135.89432191427591
20
7.0363938376417305
30
0
0
LINE
5
286
100
AcDbEntity
8
0
100
AcDbLine
10
-134.89432191427579
20
6.0363938376416932
30
0
11
-134.89432191427852
21
3.5363917030031278
31
0
0
SPLINE
5
287
100
AcDbEntity
8
0
100
AcDbSpline
70
0
71
3
72
8
73
4
74
0
42
0.000000001
43
0.0000000001
44
0.0000000001
40
0
40
0
40
0
40
0
40
1
40
1
40
1
40
1
10
-135.89432404891608
20
2.5363938376457913
30
0
10
-135.34203929908637
20
2.5363926587162262
30
0
10
-134.89432309320733
20
2.9841069531740954
30
0
10
-134.89432191427852
20
3.5363917030031278
30
0
0
LINE
5
288
100
AcDbEntity
8
0
100
AcDbLine
10
-135.89432404891608
20
2.5363938376457913
30
0
11
-135.89432404891608
21
-2.4636061623543877
31
0
0
SPLINE
5
289
100
AcDbEntity
8
0
100
AcDbSpline
70
0
71
3
72
8
73
4
74
0
42
0.000000001
43
0.0000000001
44
0.0000000001
40
0
40
0
40
0
40
0
40
1
40
1
40
1
40
1
10
-134.89432404891596
20
-3.4636061623544294
30
0
10
-134.89432404891596
20
-2.9113214125234617
30
0
10
-135.3420392990858
20
-2.4636061623543872
30
0
10
-135.89432404891608
20
-2.4636061623543872
30
0
0
LINE
5
290
100
AcDbEntity
8
0
100
AcDbLine
10
-134.89432404891596
20
-3.4636061623544294
30
0
11
-134.89432404891596
21
-5.9636061623541892
31
0
0
SPLINE
5
291
100
AcDbEntity
8
0
100
AcDbSpline
70
0
71
3
72
8
73
4
74
0
42
0.000000001
43
0.0000000001
44
0.0000000001
40
0
40
0
40
0
40
0
40
1
40
1
40
1
40
1
10
-135.89432404891608
20
-6.9636061623542256
30
0
10
-135.34203929908574
20
-6.9636061623542256
30
0
10
-134.89432404891596
20
-6.5158909121851361
30
0
10
-134.89432404891596
20
-5.9636061623541892
30
0
0
LINE
5
292
100
AcDbEntity
8
0
100
AcDbLine
10
-135.89432404891608
20
-6.9636061623542256
30
0
11
-136.8943261835083
21
-6.9636010113852809
31
0
0
LINE
5
293
100
AcDbEntity
8
0
100
AcDbLine
10
-136.8943261835083
20
-6.9636010113852809
30
0
11
-149.8943240489165
21
-6.9636053817961416
31
0
0
SPLINE
5
294
100
AcDbEntity
8
0
100
AcDbSpline
70
0
71
3
72
8
73
4
74
0
42
0.000000001
43
0.0000000001
44
0.0000000001
40
0
40
0
40
0
40
0
40
1
40
1
40
1
40
1
10
-150.89432404891656
20
-5.9636061623541892
30
0
10
-150.89432404891656
20
-6.515890912185144
30
0
10
-150.44660879874687
20
-6.9636061623542318
30
0
10
-149.89432404891662
20
-6.9636061623542256
30
0
0
LINE
5
295
100
AcDbEntity
8
0
100
AcDbLine
10
-150.89432404891656
20
-5.9636061623541892
30
0
11
-150.8943219142792
21
-3.4636061623583569
31
0
0
SPLINE
5
296
100
AcDbEntity
8
0
100
AcDbSpline
70
0
71
3
72
8
73
4
74
0
42
0.000000001
43
0.0000000001
44
0.0000000001
40
0
40
0
40
0
40
0
40
1
40
1
40
1
40
1
10
-149.89432404891929
20
-2.4636061623602363
30
0
10
-150.44660796512056
20
-2.4636073412883097
30
0
10
-150.89432191427937
20
-2.9113222461567139
30
0
10
-150.8943219142792
20
-3.4636061623583569
30
0
0
LINE
5
297
100
AcDbEntity
8
0
100
AcDbLine
10
-149.89432404891929
20
-2.4636061623602363
30
0
11
-149.89432404891986
21
2.5363938376437862
31
0
0
SPLINE
5
298
100
AcDbEntity
8
0
100
AcDbSpline
70
0
71
3
72
8
73
4
74
0
42
0.000000001
43
0.0000000001
44
0.0000000001
40
0
40
0
40
0
40
0
40
1
40
1
40
1
40
1
10
-134.90508078551693
20
-41.563606447774923
30
0
10
-134.90508078551693
20
-41.01132169794397
30
0
10
-135.35279603568605
20
-40.563606447774873
30
0
10
-135.90508078551696
20
-40.563606447774873
30
0
0
LINE
5
299
100
AcDbEntity
8
0
100
AcDbLine
10
-134.90508078551693
20
-41.563606447774923
30
0
11
-134.90508078551699
21
-44.063606447774681
31
0
0
SPLINE
5
300
100
AcDbEntity
8
0
100
AcDbSpline
70
0
71
3
72
8
73
4
74
0
42
0.000000001
43
0.0000000001
44
0.0000000001
40
0
40
0
40
0
40
0
40
1
40
1
40
1
40
1
10
-135.90508078551696
20
-45.063606447774717
30
0
10
-135.35279603568605
20
-45.063606447774717
30
0
10
-134.90508078551696
20
-44.615891197605642
30
0
10
-134.90508078551699
20
-44.063606447774681
30
0
0
LINE
5
301
100
AcDbEntity
8
0
100
AcDbLine
10
-135.90508078551696
20
-45.063606447774717
30
0
11
-149.90508078551682
21
-45.063606447774717
31
0
0
SPLINE
5
302
100
AcDbEntity
8
0
100
AcDbSpline
70
0
71
3
72
8
73
4
74
0
42
0.000000001
43
0.0000000001
44
0.0000000001
40
0
40
0
40
0
40
0
40
1
40
1
40
1
40
1
10
-150.90508078551687
20
-44.063606447774681
30
0
10
-150.90508078551682
20
-44.615891197605663
30
0
10
-150.45736553534778
20
-45.063606447774717
30
0
10
-149.90508078551682
20
-45.063606447774717
30
0
0
LINE
5
303
100
AcDbEntity
8
0
100
AcDbLine
10
-150.90508078551687
20
-44.063606447774681
30
0
11
-150.90508078551679
21
-41.563606447774923
31
0
0
SPLINE
5
304
100
AcDbEntity
8
0
100
AcDbSpline
70
0
71
3
72
8
73
4
74
0
42
0.000000001
43
0.0000000001
44
0.0000000001
40
0
40
0
40
0
40
0
40
1
40
1
40
1
40
1
10
-149.90508292015684
20
-40.563606447776806
30
0
10
-150.45736683635812
20
-40.563607626704851
30
0
10
-150.90508078551696
20
-41.011322531573271
30
0
10
-150.90508078551679
20
-41.563606447774923
30
0
0
LINE
5
305
100
AcDbEntity
8
0
100
AcDbLine
10
-149.90508292015684
20
-40.563606447776806
30
0
11
-149.90508292015684
21
-35.56360644777277
31
0
0
SPLINE
5
306
100
AcDbEntity
8
0
100
AcDbSpline
70
0
71
3
72
8
73
4
74
0
42
0.000000001
43
0.0000000001
44
0.0000000001
40
0
40
0
40
0
40
0
40
1
40
1
40
1
40
1
10
-150.90508078551682
20
-34.5636064477753
30
0
10
-150.90508078551707
20
-35.115890363976831
30
0
10
-150.45736683635812
20
-35.563605268845137
30
0
10
-149.90508292015684
20
-35.56360644777277
30
0
0
LINE
5
307
100
AcDbEntity
8
0
100
AcDbLine
10
-150.90508078551682
20
-34.5636064477753
30
0
11
-150.90508078551682
21
-32.063606447774909
31
0
0
SPLINE
5
308
100
AcDbEntity
8
0
100
AcDbSpline
70
0
71
3
72
8
73
4
74
0
42
0.000000001
43
0.0000000001
44
0.0000000001
40
0
40
0
40
0
40
0
40
1
40
1
40
1
40
1
10
-149.90508078551682
20
-31.063606447774884
30
0
10
-150.45736553534778
20
-31.063606447774976
30
0
10
-150.90508078551687
20
-31.511321697944656
30
0
10
-150.90508078551682
20
-32.063606447774909
30
0
0
LINE
5
309
100
AcDbEntity
8
0
100
AcDbLine
10
-149.90508078551682
20
-31.063606447774884
30
0
11
-135.90508078551696
21
-31.063606447774884
31
0
0
SPLINE
5
310
100
AcDbEntity
8
0
100
AcDbSpline
70
0
71
3
72
8
73
4
74
0
42
0.000000001
43
0.0000000001
44
0.0000000001
40
0
40
0
40
0
40
0
40
1
40
1
40
1
40
1
10
-134.90508078551696
20
-32.063606447774909
30
0
10
-134.90508078551673
20
-31.511321697944577
30
0
10
-135.35279603568591
20
-31.063606447774955
30
0
10
-135.90508078551696
20
-31.063606447774884
30
0
0
LINE
5
311
100
AcDbEntity
8
0
100
AcDbLine
10
-134.90508078551696
20
-32.063606447774909
30
0
11
-134.90508078551696
21
-34.5636064477753
31
0
0
SPLINE
5
312
100
AcDbEntity
8
0
100
AcDbSpline
70
0
71
3
72
8
73
4
74
0
42
0.000000001
43
0.0000000001
44
0.0000000001
40
0
40
0
40
0
40
0
40
1
40
1
40
1
40
1
10
-135.90508078551696
20
-35.563606447774703
30
0
10
-135.35279603568605
20
-35.563606447774873
30
0
10
-134.90508078551682
20
-35.115891197605315
30
0
10
-134.90508078551696
20
-34.5636064477753
30
0
0
LINE
5
313
100
AcDbEntity
8
0
100
AcDbLine
10
-135.90508078551696
20
-35.563606447774703
30
0
11
-135.90508078551696
21
-40.563606447774873
31
0
0
SPLINE
5
314
100
AcDbEntity
8
0
100
AcDbSpline
70
0
71
3
72
8
73
4
74
0
42
0.000000001
43
0.0000000001
44
0.0000000001
40
0
40
0
40
0
40
0
40
1
40
1
40
1
40
1
10
-150.90508078551784
20
-15.520595477536823
30
0
10
-150.90508078551784
20
-16.072879393738493
30
0
10
-150.45736683635886
20
-16.520594298606742
30
0
10
-149.90508292015758
20
-16.52059547753429
30
0
0
LINE
5
315
100
AcDbEntity
8
0
100
AcDbLine
10
-150.90508078551784
20
-15.520595477536823
30
0
11
-150.90508078551431
21
-13.020595477536411
31
0
0
SPLINE
5
316
100
AcDbEntity
8
0
100
AcDbSpline
70
0
71
3
72
8
73
4
74
0
42
0.000000001
43
0.0000000001
44
0.0000000001
40
0
40
0
40
0
40
0
40
1
40
1
40
1
40
1
10
-149.90508078551429
20
-12.020595477536373
30
0
10
-150.45736553534465
20
-12.020595477536382
30
0
10
-150.90508078551431
20
-12.468310727705454
30
0
10
-150.90508078551431
20
-13.020595477536411
30
0
0
LINE
5
317
100
AcDbEntity
8
0
100
AcDbLine
10
-149.90508078551429
20
-12.020595477536373
30
0
11
-148.90508292019899
21
-12.020590326532108
31
0
0
LINE
5
318
100
AcDbEntity
8
0
100
AcDbLine
10
-148.90508292019899
20
-12.020590326532108
30
0
11
-135.905080785514
21
-12.020594696978193
31
0
0
SPLINE
5
319
100
AcDbEntity
8
0
100
AcDbSpline
70
0
71
3
72
8
73
4
74
0
42
0.000000001
43
0.0000000001
44
0.0000000001
40
0
40
0
40
0
40
0
40
1
40
1
40
1
40
1
10
-134.90508078551383
20
-13.020595477536411
30
0
10
-134.90508078551383
20
-12.46831072770545
30
0
10
-135.35279603568353
20
-12.020595477536366
30
0
10
-135.90508078551386
20
-12.020595477536368
30
0
0
LINE
5
320
100
AcDbEntity
8
0
100
AcDbLine
10
-134.90508078551383
20
-13.020595477536411
30
0
11
-134.90508078551636
21
-15.520597612174976
31
0
0
SPLINE
5
321
100
AcDbEntity
8
0
100
AcDbSpline
70
0
71
3
72
8
73
4
74
0
42
0.000000001
43
0.0000000001
44
0.0000000001
40
0
40
0
40
0
40
0
40
1
40
1
40
1
40
1
10
-135.90508292015389
20
-16.52059547753241
30
0
10
-135.35279817032418
20
-16.520596656461919
30
0
10
-134.90508196444526
20
-16.07288236200402
30
0
10
-134.90508078551636
20
-15.520597612174976
30
0
0
LINE
5
322
100
AcDbEntity
8
0
100
AcDbLine
10
-135.90508292015389
20
-16.52059547753241
30
0
11
-135.90508292015392
21
-21.520595477532559
31
0
0
SPLINE
5
323
100
AcDbEntity
8
0
100
AcDbSpline
70
0
71
3
72
8
73
4
74
0
42
0.000000001
43
0.0000000001
44
0.0000000001
40
0
40
0
40
0
40
0
40
1
40
1
40
1
40
1
10
-134.90508292015392
20
-22.52059547753262
30
0
10
-134.90508292015392
20
-21.968310727701681
30
0
10
-135.35279817032352
20
-21.520595477532559
30
0
10
-135.90508292015392
20
-21.520595477532559
30
0
0
LINE
5
324
100
AcDbEntity
8
0
100
AcDbLine
10
-134.90508292015392
20
-22.52059547753262
30
0
11
-134.90508292015389
21
-25.020595477532396
31
0
0
SPLINE
5
325
100
AcDbEntity
8
0
100
AcDbSpline
70
0
71
3
72
8
73
4
74
0
42
0.000000001
43
0.0000000001
44
0.0000000001
40
0
40
0
40
0
40
0
40
1
40
1
40
1
40
1
10
-135.90508292015392
20
-26.020595477532428
30
0
10
-135.35279817032355
20
-26.020595477532424
30
0
10
-134.90508292015389
20
-25.572880227363356
30
0
10
-134.90508292015389
20
-25.020595477532396
30
0
0
LINE
5
326
100
AcDbEntity
8
0
100
AcDbLine
10
-135.90508292015392
20
-26.020595477532428
30
0
11
-136.90508505474617
21
-26.020590326563461
31
0
0
LINE
5
327
100
AcDbEntity
8
0
100
AcDbLine
10
-136.90508505474617
20
-26.020590326563461
30
0
11
-149.90508292015426
21
-26.020594696974332
31
0
0
SPLINE
5
328
100
AcDbEntity
8
0
100
AcDbSpline
70
0
71
3
72
8
73
4
74
0
42
0.000000001
43
0.0000000001
44
0.0000000001
40
0
40
0
40
0
40
0
40
1
40
1
40
1
40
1
10
-150.90508292015437
20
-25.020595477532382
30
0
10
-150.90508292015437
20
-25.572880227363342
30
0
10
-150.45736766998465
20
-26.02059547753241
30
0
10
-149.90508292015434
20
-26.020595477532407
30
0
0
LINE
5
329
100
AcDbEntity
8
0
100
AcDbLine
10
-150.90508292015437
20
-25.020595477532382
30
0
11
-150.90508078551682
21
-22.520595477536432
31
0
0
SPLINE
5
330
100
AcDbEntity
8
0
100
AcDbSpline
70
0
71
3
72
8
73
4
74
0
42
0.000000001
43
0.0000000001
44
0.0000000001
40
0
40
0
40
0
40
0
40
1
40
1
40
1
40
1
10
-149.90508292015684
20
-21.520595477538322
30
0
10
-150.45736683635812
20
-21.520596656466374
30
0
10
-150.90508078551699
20
-21.96831156133479
30
0
10
-150.90508078551682
20
-22.520595477536432
30
0
0
LINE
5
331
100
AcDbEntity
8
0
100
AcDbLine
10
-149.90508292015684
20
-21.520595477538322
30
0
11
-149.90508292015758
21
-16.520595477534286
31
0
0
SPLINE
5
332
100
AcDbEntity
8
0
100
AcDbSpline
70
0
71
3
72
8
73
4
74
0
42
0.000000001
43
0.0000000001
44
0.0000000001
40
0
40
0
40
0
40
0
40
1
40
1
40
1
40
1
10
-150.88356304304222
20
22.593378770072018
30
0
10
-150.88356304304222
20
22.041094202091507
30
0
10
-150.43584807667926
20
21.593379027246982
30
0
10
-149.88356350869873
20
21.593378770071979
30
0
0
LINE
5
333
100
AcDbEntity
8
0
100
AcDbLine
10
-150.88356304304222
20
22.593378770072018
30
0
11
-150.88356304304222
21
25.093378770071784
31
0
0
SPLINE
5
334
100
AcDbEntity
8
0
100
AcDbSpline
70
0
71
3
72
8
73
4
74
0
42
0.000000001
43
0.0000000001
44
0.0000000001
40
0
40
0
40
0
40
0
40
1
40
1
40
1
40
1
10
-149.88356304304219
20
26.093378770071816
30
0
10
-150.43584779287309
20
26.093378770071816
30
0
10
-150.88356304304222
20
25.64566351990274
30
0
10
-150.88356304304222
20
25.093378770071784
30
0
0
LINE
5
335
100
AcDbEntity
8
0
100
AcDbLine
10
-149.88356304304219
20
26.093378770071816
30
0
11
-135.88356304304222
21
26.093378770071816
31
0
0
SPLINE
5
336
100
AcDbEntity
8
0
100
AcDbSpline
70
0
71
3
72
8
73
4
74
0
42
0.000000001
43
0.0000000001
44
0.0000000001
40
0
40
0
40
0
40
0
40
1
40
1
40
1
40
1
10
-134.88356304304227
20
25.093378770071773
30
0
10
-134.88356304304227
20
25.645663519902733
30
0
10
-135.33127829321137
20
26.093378770071816
30
0
10
-135.88356304304222
20
26.093378770071816
30
0
0
LINE
5
337
100
AcDbEntity
8
0
100
AcDbLine
10
-134.88356304304227
20
25.093378770071773
30
0
11
-134.88356304304227
21
22.593378304415403
31
0
0
SPLINE
5
338
100
AcDbEntity
8
0
100
AcDbSpline
70
0
71
3
72
8
73
4
74
0
42
0.000000001
43
0.0000000001
44
0.0000000001
40
0
40
0
40
0
40
0
40
1
40
1
40
1
40
1
10
-135.88356350869884
20
21.593378770071979
30
0
10
-135.33127875886782
20
21.593378512896969
30
0
10
-134.88356330021713
20
22.04109355458445
30
0
10
-134.88356304304227
20
22.593378304415403
30
0
0
LINE
5
339
100
AcDbEntity
8
0
100
AcDbLine
10
-135.88356350869884
20
21.593378770071979
30
0
11
-135.88356350869887
21
16.593378770071801
31
0
0
SPLINE
5
340
100
AcDbEntity
8
0
100
AcDbSpline
70
0
71
3
72
8
73
4
74
0
42
0.000000001
43
0.0000000001
44
0.0000000001
40
0
40
0
40
0
40
0
40
1
40
1
40
1
40
1
10
-134.88356350869887
20
15.593378770071764
30
0
10
-134.88356350869887
20
16.145663519902719
30
0
10
-135.331278758868
20
16.593378770071801
30
0
10
-135.88356350869887
20
16.593378770071801
30
0
0
LINE
5
341
100
AcDbEntity
8
0
100
AcDbLine
10
-134.88356350869887
20
15.593378770071764
30
0
11
-134.88356350869887
21
13.093378770072004
31
0
0
SPLINE
5
342
100
AcDbEntity
8
0
100
AcDbSpline
70
0
71
3
72
8
73
4
74
0
42
0.000000001
43
0.0000000001
44
0.0000000001
40
0
40
0
40
0
40
0
40
1
40
1
40
1
40
1
10
-135.88356350869887
20
12.093378770071961
30
0
10
-135.331278758868
20
12.093378770071961
30
0
10
-134.88356350869884
20
12.541094020241042
30
0
10
-134.88356350869887
20
13.093378770072004
30
0
0
LINE
5
343
100
AcDbEntity
8
0
100
AcDbLine
10
-135.88356350869887
20
12.093378770071961
30
0
11
-149.88356350869878
21
12.093378770071954
31
0
0
SPLINE
5
344
100
AcDbEntity
8
0
100
AcDbSpline
70
0
71
3
72
8
73
4
74
0
42
0.000000001
43
0.0000000001
44
0.0000000001
40
0
40
0
40
0
40
0
40
1
40
1
40
1
40
1
10
-150.88356350869881
20
13.093378770071995
30
0
10
-150.88356350869876
20
12.541094020241035
30
0
10
-150.43584825852972
20
12.093378770071961
30
0
10
-149.88356350869878
20
12.093378770071954
30
0
0
LINE
5
345
100
AcDbEntity
8
0
100
AcDbLine
10
-150.88356350869881
20
13.093378770071995
30
0
11
-150.88356137405739
21
15.593378770069201
31
0
0
SPLINE
5
346
100
AcDbEntity
8
0
100
AcDbSpline
70
0
71
3
72
8
73
4
74
0
42
0.000000001
43
0.0000000001
44
0.0000000001
40
0
40
0
40
0
40
0
40
1
40
1
40
1
40
1
10
-149.88356183971325
20
16.593378770069226
30
0
10
-150.43584640769382
20
16.593378512894862
30
0
10
-150.88356137405736
20
16.145663338050344
30
0
10
-150.88356137405739
20
15.593378770069201
30
0
0
LINE
5
347
100
AcDbEntity
8
0
100
AcDbLine
10
-149.88356183971325
20
16.593378770069226
30
0
11
-149.88356350869873
21
21.593378770071979
31
0
0
SPLINE
5
348
100
AcDbEntity
8
0
100
AcDbSpline
70
0
71
3
72
8
73
4
74
0
42
0.000000001
43
0.0000000001
44
0.0000000001
40
0
40
0
40
0
40
0
40
1
40
1
40
1
40
1
10
-92.042578833846406
20
6.0294071589790939
30
0
10
-92.042578833846406
20
6.5816919088100567
30
0
10
-92.490294084015531
20
7.0294071589791374
30
0
10
-93.042578833846505
20
7.0294071589791365
30
0
0
LINE
5
349
100
AcDbEntity
8
0
100
AcDbLine
10
-92.042578833846406
20
6.0294071589790939
30
0
11
-92.042578833849618
21
3.5294045586832734
31
0
0
SPLINE
5
350
100
AcDbEntity
8
0
100
AcDbSpline
70
0
71
3
72
8
73
4
74
0
42
0.000000001
43
0.0000000001
44
0.0000000001
40
0
40
0
40
0
40
0
40
1
40
1
40
1
40
1
10
-93.04258143414414
20
2.5294071589841147
30
0
10
-92.490296684315098
20
2.5294057228793805
30
0
10
-92.042580269954342
20
2.9771198088542477
30
0
10
-92.042578833849618
20
3.5294045586832734
30
0
0
LINE
5
351
100
AcDbEntity
8
0
100
AcDbLine
10
-93.04258143414414
20
2.5294071589841147
30
0
11
-93.042578833848097
21
-2.4705928410192826
31
0
0
SPLINE
5
352
100
AcDbEntity
8
0
100
AcDbSpline
70
0
71
3
72
8
73
4
74
0
42
0.000000001
43
0.0000000001
44
0.0000000001
40
0
40
0
40
0
40
0
40
1
40
1
40
1
40
1
10
-92.042578833848836
20
-3.4705928410201303
30
0
10
-92.042578833848395
20
-2.9183080911891763
30
0
10
-92.490294084017123
20
-2.4705928410197338
30
0
10
-93.042578833848097
20
-2.4705928410192826
30
0
0
LINE
5
353
100
AcDbEntity
8
0
100
AcDbLine
10
-92.042578833848836
20
-3.4705928410201303
30
0
11
-92.042578833848836
21
-5.9705928410199043
31
0
0
SPLINE
5
354
100
AcDbEntity
8
0
100
AcDbSpline
70
0
71
3
72
8
73
4
74
0
42
0.000000001
43
0.0000000001
44
0.0000000001
40
0
40
0
40
0
40
0
40
1
40
1
40
1
40
1
10
-93.04257883384895
20
-6.9705928410199185
30
0
10
-92.490294084017961
20
-6.9705928410199194
30
0
10
-92.042578833848836
20
-6.5228775908508441
30
0
10
-92.042578833848836
20
-5.9705928410199043
30
0
0
LINE
5
355
100
AcDbEntity
8
0
100
AcDbLine
10
-93.04257883384895
20
-6.9705928410199185
30
0
11
-96.010832365443761
21
-6.9705925768953136
31
0
0
LINE
5
356
100
AcDbEntity
8
0
100
AcDbLine
10
-96.010832365443761
20
-6.9705925768953136
30
0
11
-96.010832365443761
21
-7.9705938957498823
31
0
0
SPLINE
5
357
100
AcDbEntity
8
0
100
AcDbSpline
70
0
71
3
72
8
73
4
74
0
42
0.000000001
43
0.0000000001
44
0.0000000001
40
0
40
0
40
0
40
0
40
1
40
1
40
1
40
1
10
-97.010832365443761
20
-8.9705938957499036
30
0
10
-96.458547615612758
20
-8.9705938957499107
30
0
10
-96.010832365443761
20
-8.522878645580839
30
0
10
-96.010832365443761
20
-7.9705938957498823
30
0
0
LINE
5
358
100
AcDbEntity
8
0
100
AcDbLine
10
-97.010832365443761
20
-8.9705938957499036
30
0
11
-103.0108342081181
21
-8.9705938957499036
31
0
0
SPLINE
5
359
100
AcDbEntity
8
0
100
AcDbSpline
70
0
71
3
72
8
73
4
74
0
42
0.000000001
43
0.0000000001
44
0.0000000001
40
0
40
0
40
0
40
0
40
1
40
1
40
1
40
1
10
-104.0108342081181
20
-7.9705938957498823
30
0
10
-104.0108342081181
20
-8.522878645580839
30
0
10
-103.56311895794894
20
-8.9705938957499036
30
0
10
-103.0108342081181
20
-8.9705938957499036
30
0
0
LINE
5
360
100
AcDbEntity
8
0
100
AcDbLine
10
-104.0108342081181
20
-7.9705938957498823
30
0
11
-104.0108342081181
21
-6.9705942673391554
31
0
0
LINE
5
361
100
AcDbEntity
8
0
100
AcDbLine
10
-104.0108342081181
20
-6.9705942673391554
30
0
11
-114.45613346531907
21
-6.9705942673397931
31
0
0
LINE
5
362
100
AcDbEntity
8
0
100
AcDbLine
10
-114.45613346531907
20
-6.9705942673397931
30
0
11
-114.45613346531907
21
-12.020593631138512
31
0
0
LINE
5
363
100
AcDbEntity
8
0
100
AcDbLine
10
-114.45613346531907
20
-12.020593631138512
30
0
11
-112.09257976516049
21
-12.020593841455394
31
0
0
SPLINE
5
364
100
AcDbEntity
8
0
100
AcDbSpline
70
0
71
3
72
8
73
4
74
0
42
0.000000001
43
0.0000000001
44
0.0000000001
40
0
40
0
40
0
40
0
40
1
40
1
40
1
40
1
10
-111.09257976516034
20
-13.020593841455423
30
0
10
-111.09257976516034
20
-12.468309091624469
30
0
10
-111.54029501532946
20
-12.020593841455387
30
0
10
-112.09257976516049
20
-12.020593841455394
30
0
0
LINE
5
365
100
AcDbEntity
8
0
100
AcDbLine
10
-111.09257976516034
20
-13.020593841455423
30
0
11
-111.09257976516034
21
-15.520596441751238
31
0
0
SPLINE
5
366
100
AcDbEntity
8
0
100
AcDbSpline
70
0
71
3
72
8
73
4
74
0
42
0.000000001
43
0.0000000001
44
0.0000000001
40
0
40
0
40
0
40
0
40
1
40
1
40
1
40
1
10
-112.0925823654531
20
-16.520593841452012
30
0
10
-111.54029761562414
20
-16.520595277555856
30
0
10
-111.09258120126412
20
-16.072881191580276
30
0
10
-111.09257976516034
20
-15.520596441751238
30
0
0
LINE
5
367
100
AcDbEntity
8
0
100
AcDbLine
10
-112.0925823654531
20
-16.520593841452012
30
0
11
-112.0925823654531
21
-21.520593841452204
31
0
0
SPLINE
5
368
100
AcDbEntity
8
0
100
AcDbSpline
70
0
71
3
72
8
73
4
74
0
42
0.000000001
43
0.0000000001
44
0.0000000001
40
0
40
0
40
0
40
0
40
1
40
1
40
1
40
1
10
-111.09258236545293
20
-22.520593841452218
30
0
10
-111.09258236545293
20
-21.968309091621258
30
0
10
-111.54029761562205
20
-21.520593841452204
30
0
10
-112.0925823654531
20
-21.520593841452204
30
0
0
LINE
5
369
100
AcDbEntity
8
0
100
AcDbLine
10
-111.09258236545293
20
-22.520593841452218
30
0
11
-111.09258236545293
21
-25.020593841452641
31
0
0
SPLINE
5
370
100
AcDbEntity
8
0
100
AcDbSpline
70
0
71
3
72
8
73
4
74
0
42
0.000000001
43
0.0000000001
44
0.0000000001
40
0
40
0
40
0
40
0
40
1
40
1
40
1
40
1
10
-112.0925823654531
20
-26.020593841452676
30
0
10
-111.54029761562205
20
-26.02059384145268
30
0
10
-111.09258236545293
20
-25.572878591283583
30
0
10
-111.09258236545293
20
-25.020593841452641
30
0
0
LINE
5
371
100
AcDbEntity
8
0
100
AcDbLine
10
-112.0925823654531
20
-26.020593841452676
30
0
11
-126.09258236545337
21
-26.020593218855758
31
0
0
SPLINE
5
372
100
AcDbEntity
8
0
100
AcDbSpline
70
0
71
3
72
8
73
4
74
0
42
0.000000001
43
0.0000000001
44
0.0000000001
40
0
40
0
40
0
40
0
40
1
40
1
40
1
40
1
10
-127.00159211194681
20
-25.437368697675602
30
0
10
-126.83864956845596
20
-25.792755684054942
30
0
10
-126.48354295498501
20
-26.020593841452669
30
0
10
-126.09258236545344
20
-26.02059384145268
30
0
0
LINE
5
373
100
AcDbEntity
8
0
100
AcDbLine
10
-127.00159211194681
20
-25.437368697675602
30
0
11
-129.45686540015853
21
-25.437368697675602
31
0
0
SPLINE
5
374
100
AcDbEntity
8
0
100
AcDbSpline
70
0
71
3
72
8
73
4
74
0
42
0.000000001
43
0.0000000001
44
0.0000000001
40
0
40
0
40
0
40
0
40
1
40
1
40
1
40
1
10
-130.45686540015851
20
-24.437368697675556
30
0
10
-130.45686540015851
20
-24.989653447506534
30
0
10
-130.00915014998955
20
-25.437368697675602
30
0
10
-129.45686540015853
20
-25.437368697675602
30
0
0
LINE
5
375
100
AcDbEntity
8
0
100
AcDbLine
10
-130.45686540015851
20
-24.437368697675556
30
0
11
-130.45686540015851
21
-18.43736685500129
31
0
0
SPLINE
5
376
100
AcDbEntity
8
0
100
AcDbSpline
70
0
71
3
72
8
73
4
74
0
42
0.000000001
43
0.0000000001
44
0.0000000001
40
0
40
0
40
0
40
0
40
1
40
1
40
1
40
1
10
-129.45686540015853
20
-17.437366855001262
30
0
10
-130.00915014998955
20
-17.437366855001262
30
0
10
-130.45686540015851
20
-17.885082105170326
30
0
10
-130.45686540015851
20
-18.43736685500129
30
0
0
LINE
5
377
100
AcDbEntity
8
0
100
AcDbLine
10
-129.45686540015853
20
-17.437366855001262
30
0
11
-128.4561329738616
21
-17.43736685500383
31
0
0
LINE
5
378
100
AcDbEntity
8
0
100
AcDbLine
10
-128.4561329738616
20
-17.43736685500383
30
0
11
-128.4561329738616
21
-1.5613686976787911
31
0
0
LINE
5
379
100
AcDbEntity
8
0
100
AcDbLine
10
-128.4561329738616
20
-1.5613686976787911
30
0
11
-129.45613246849297
21
-1.5613686976787833
31
0
0
SPLINE
5
380
100
AcDbEntity
8
0
100
AcDbSpline
70
0
71
3
72
8
73
4
74
0
42
0.000000001
43
0.0000000001
44
0.0000000001
40
0
40
0
40
0
40
0
40
1
40
1
40
1
40
1
10
-130.45613246849291
20
-0.56136869767874076
30
0
10
-130.45613246849294
20
-1.1136534475096951
30
0
10
-130.0084172183239
20
-1.5613686976787833
30
0
10
-129.45613246849297
20
-1.5613686976787833
30
0
0
LINE
5
381
100
AcDbEntity
8
0
100
AcDbLine
10
-130.45613246849291
20
-0.56136869767874076
30
0
11
-130.45613246849294
21
5.4386331449955545
31
0
0
SPLINE
5
382
100
AcDbEntity
8
0
100
AcDbSpline
70
0
71
3
72
8
73
4
74
0
42
0.000000001
43
0.0000000001
44
0.0000000001
40
0
40
0
40
0
40
0
40
1
40
1
40
1
40
1
10
-129.45613246849291
20
6.438633144995598
30
0
10
-130.00841721832387
20
6.4386331449955918
30
0
10
-130.45613246849294
20
5.9909178948265112
30
0
10
-130.45613246849294
20
5.4386331449955563
30
0
0
LINE
5
383
100
AcDbEntity
8
0
100
AcDbLine
10
-129.45613246849291
20
6.438633144995598
30
0
11
-127.87984427872803
21
6.4386331449955918
31
0
0
LINE
5
384
100
AcDbEntity
8
0
100
AcDbLine
10
-127.87984427872803
20
6.4386331449955918
30
0
11
-127.87984427872803
21
8.019376059430483
31
0
0
SPLINE
5
385
100
AcDbEntity
8
0
100
AcDbSpline
70
0
71
3
72
8
73
4
74
0
42
0.000000001
43
0.0000000001
44
0.0000000001
40
0
40
0
40
0
40
0
40
1
40
1
40
1
40
1
10
-126.8798442787286
20
9.0193760594305115
30
0
10
-127.4321290285589
20
9.0193760594305115
30
0
10
-127.87984427872803
20
8.5716608092614308
30
0
10
-127.87984427872803
20
8.019376059430483
30
0
0
LINE
5
386
100
AcDbEntity
8
0
100
AcDbLine
10
-126.8798442787286
20
9.0193760594305115
30
0
11
-120.8798424360543
21
9.0193760594305044
31
0
0
SPLINE
5
387
100
AcDbEntity
8
0
100
AcDbSpline
70
0
71
3
72
8
73
4
74
0
42
0.000000001
43
0.0000000001
44
0.0000000001
40
0
40
0
40
0
40
0
40
1
40
1
40
1
40
1
10
-119.8798424360543
20
8.0193760594304759
30
0
10
-119.8798424360543
20
8.5716608092614237
30
0
10
-120.32755768622403
20
9.0193760594305115
30
0
10
-120.8798424360543
20
9.0193760594305044
30
0
0
LINE
5
388
100
AcDbEntity
8
0
100
AcDbLine
10
-119.8798424360543
20
8.0193760594304759
30
0
11
-119.8798424360543
21
7.0186462334260469
31
0
0
LINE
5
389
100
AcDbEntity
8
0
100
AcDbLine
10
-119.8798424360543
20
7.0186462334260469
30
0
11
-104.00007520033924
21
7.0363951705903478
31
0
0
LINE
5
390
100
AcDbEntity
8
0
100
AcDbLine
10
-104.00007520033924
20
7.0363951705903478
30
0
11
-104.00007520033924
21
8.0363946652241562
31
0
0
SPLINE
5
391
100
AcDbEntity
8
0
100
AcDbSpline
70
0
71
3
72
8
73
4
74
0
42
0.000000001
43
0.0000000001
44
0.0000000001
40
0
40
0
40
0
40
0
40
1
40
1
40
1
40
1
10
-103.00007520033914
20
9.0363946652241989
30
0
10
-103.55235995017011
20
9.0363946652241989
30
0
10
-104.00007520033924
20
8.5886794150551093
30
0
10
-104.00007520033924
20
8.0363946652241562
30
0
0
LINE
5
392
100
AcDbEntity
8
0
100
AcDbLine
10
-103.00007520033914
20
9.0363946652241989
30
0
11
-97.000073357664846
21
9.0363946652241918
31
0
0
SPLINE
5
393
100
AcDbEntity
8
0
100
AcDbSpline
70
0
71
3
72
8
73
4
74
0
42
0.000000001
43
0.0000000001
44
0.0000000001
40
0
40
0
40
0
40
0
40
1
40
1
40
1
40
1
10
-96.000073357664846
20
8.0363946652241562
30
0
10
-96.000073357664846
20
8.5886794150551093
30
0
10
-96.447788607833786
20
9.0363946652241918
30
0
10
-97.000073357664846
20
9.0363946652241918
30
0
0
LINE
5
394
100
AcDbEntity
8
0
100
AcDbLine
10
-96.000073357664846
20
8.0363946652241562
30
0
11
-96.000073357664846
21
7.0294074221463188
31
0
0
LINE
5
395
100
AcDbEntity
8
0
100
AcDbLine
10
-96.000073357664846
20
7.0294074221463188
30
0
11
-93.042578833846505
21
7.0294071589791365
31
0
0
SPLINE
5
396
100
AcDbEntity
8
0
100
AcDbSpline
70
0
71
3
72
8
73
4
74
0
42
0.000000001
43
0.0000000001
44
0.0000000001
40
0.0013559802272710231
40
0.0013559802272710231
40
0.0013559802272710231
40
0.0013559802272710231
40
1
40
1
40
1
40
1
10
-130.5573252004734
20
-31.070599991772404
30
0
10
-131.10857722921392
20
-31.071811901332875
30
0
10
-131.55507911653646
20
-31.519061660379663
30
0
10
-131.55507911653658
20
-32.07059752300939
30
0
0
SPLINE
5
397
100
AcDbEntity
8
0
100
AcDbSpline
70
0
71
3
72
8
73
4
74
0
42
0.000000001
43
0.0000000001
44
0.0000000001
40
4.0122607356447621e-09
40
4.0122607356447621e-09
40
4.0122607356447621e-09
40
4.0122607356447621e-09
40
1
40
1
40
1
40
1
10
-130.55732519836292
20
-31.070600045381823
30
0
10
-130.3917080418901
20
-31.064080051587979
30
0
10
-130.2600258697866
20
-30.929326708618603
30
0
10
-130.25732520035734
20
-30.763603266405887
30
0
0
LINE
5
398
100
AcDbEntity
8
0
100
AcDbLine
10
-130.25732520035734
20
-30.763603266405887
30
0
11
-130.25732520035868
21
-30.062553858118317
31
0
0
SPLINE
5
399
100
AcDbEntity
8
0
100
AcDbSpline
70
0
71
3
72
8
73
4
74
0
42
0.000000001
43
0.0000000001
44
0.0000000001
40
0
40
0
40
0
40
0
40
1
40
1
40
1
40
1
10
-129.25732520035868
20
-29.062553858118289
30
0
10
-129.80960995018955
20
-29.062553858118289
30
0
10
-130.25732520035868
20
-29.510269108287357
30
0
10
-130.25732520035868
20
-30.062553858118317
30
0
0
LINE
5
400
100
AcDbEntity
8
0
100
AcDbLine
10
-129.25732520035868
20
-29.062553858118289
30
0
11
-123.26808313246254
21
-29.062553858118303
31
0
0
SPLINE
5
401
100
AcDbEntity
8
0
100
AcDbSpline
70
0
71
3
72
8
73
4
74
0
42
0.000000001
43
0.0000000001
44
0.0000000001
40
0
40
0
40
0
40
0
40
1
40
1
40
1
40
1
10
-122.26808313246309
20
-30.062552773229818
30
0
10
-122.26808373162966
20
-29.510268447074264
30
0
10
-122.71579880630698
20
-29.062553858118303
30
0
10
-123.26808313246254
20
-29.062553858118303
30
0
0
LINE
5
402
100
AcDbEntity
8
0
100
AcDbLine
10
-122.26808313246309
20
-30.062552773229818
30
0
11
-122.26808204643496
21
-31.063603266406211
31
0
0
LINE
5
403
100
AcDbEntity
8
0
100
AcDbLine
10
-122.26808204643496
20
-31.063603266406211
30
0
11
-106.39208420813492
21
-31.063603266406211
31
0
0
LINE
5
404
100
AcDbEntity
8
0
100
AcDbLine
10
-106.39208420813492
20
-31.063603266406211
30
0
11
-106.39208420813293
21
-30.063605334773513
31
0
0
SPLINE
5
405
100
AcDbEntity
8
0
100
AcDbSpline
70
0
71
3
72
8
73
4
74
0
42
0.000000001
43
0.0000000001
44
0.0000000001
40
0
40
0
40
0
40
0
40
1
40
1
40
1
40
1
10
-105.39208420813294
20
-29.063605334775385
30
0
10
-105.94436895796332
20
-29.063605334775385
30
0
10
-106.39208420813239
20
-29.511320584943853
30
0
10
-106.39208420813293
20
-30.063605334773513
30
0
0
LINE
5
406
100
AcDbEntity
8
0
100
AcDbLine
10
-105.39208420813294
20
-29.063605334775385
30
0
11
-99.381324117100235
21
-29.063605334775396
31
0
0
SPLINE
5
407
100
AcDbEntity
8
0
100
AcDbSpline
70
0
71
3
72
8
73
4
74
0
42
0.000000001
43
0.0000000001
44
0.0000000001
40
0
40
0
40
0
40
0
40
1
40
1
40
1
40
1
10
-98.381324117100917
20
-30.063604251516232
30
0
10
-98.381324715367839
20
-29.511319924724706
30
0
10
-98.829039790308855
20
-29.063605334775385
30
0
10
-99.381324117100235
20
-29.063605334775396
30
0
0
LINE
5
408
100
AcDbEntity
8
0
100
AcDbLine
10
-98.381324117100917
20
-30.063604251516232
30
0
11
-98.381324117100917
21
-31.063603911829027
31
0
0
LINE
5
409
100
AcDbEntity
8
0
100
AcDbLine
10
-98.381324117100917
20
-31.063603911829027
30
0
11
-97.794320757387396
21
-31.063603911829027
31
0
0
SPLINE
5
410
100
AcDbEntity
8
0
100
AcDbSpline
70
0
71
3
72
8
73
4
74
0
42
0.000000001
43
0.0000000001
44
0.0000000001
40
0
40
0
40
0
40
0
40
1
40
1
40
1
40
1
10
-96.794320757387297
20
-32.06360391182907
30
0
10
-96.794320757387297
20
-31.511319161998124
30
0
10
-97.242036007556365
20
-31.063603911829027
30
0
10
-97.794320757387396
20
-31.063603911829027
30
0
0
LINE
5
411
100
AcDbEntity
8
0
100
AcDbLine
10
-96.794320757387297
20
-32.06360391182907
30
0
11
-96.794320757390452
21
-34.563606512125531
31
0
0
SPLINE
5
412
100
AcDbEntity
8
0
100
AcDbSpline
70
0
71
3
72
8
73
4
74
0
42
0.000000001
43
0.0000000001
44
0.0000000001
40
0
40
0
40
0
40
0
40
1
40
1
40
1
40
1
10
-97.794323357685016
20
-35.563603911824075
30
0
10
-97.242038607856614
20
-35.563605347928785
30
0
10
-96.794322193495859
20
-35.115891261953927
30
0
10
-96.794320757390452
20
-34.563606512125531
30
0
0
LINE
5
413
100
AcDbEntity
8
0
100
AcDbLine
10
-97.794323357685016
20
-35.563603911824075
30
0
11
-97.805079765165388
21
-40.570593841215299
31
0
0
SPLINE
5
414
100
AcDbEntity
8
0
100
AcDbSpline
70
0
71
3
72
8
73
4
74
0
42
0.000000001
43
0.0000000001
44
0.0000000001
40
0
40
0
40
0
40
0
40
1
40
1
40
1
40
1
10
-96.805079765166155
20
-41.570593841216088
30
0
10
-96.805079765165715
20
-41.018309091385774
30
0
10
-97.252795015334428
20
-40.570593841215725
30
0
10
-97.805079765165388
20
-40.570593841215299
30
0
0
LINE
5
415
100
AcDbEntity
8
0
100
AcDbLine
10
-96.805079765166155
20
-41.570593841216088
30
0
11
-96.805079765166155
21
-44.063603911828025
31
0
0
SPLINE
5
416
100
AcDbEntity
8
0
100
AcDbSpline
70
0
71
3
72
8
73
4
74
0
42
0.000000001
43
0.0000000001
44
0.0000000001
40
0
40
0
40
0
40
0
40
1
40
1
40
1
40
1
10
-97.805079765166525
20
-45.063603911827677
30
0
10
-97.252795015335607
20
-45.063603911827883
30
0
10
-96.805079765166369
20
-44.615888661658985
30
0
10
-96.805079765166155
20
-44.063603911828025
30
0
0
LINE
5
417
100
AcDbEntity
8
0
100
AcDbLine
10
-97.805079765166525
20
-45.063603911827677
30
0
11
-130.55507911653621
21
-45.063603911827698
31
0
0
SPLINE
5
418
100
AcDbEntity
8
0
100
AcDbSpline
70
0
71
3
72
8
73
4
74
0
42
0.000000001
43
0.0000000001
44
0.0000000001
40
0
40
0
40
0
40
0
40
1
40
1
40
1
40
1
10
-131.55507911653638
20
-44.063603911827812
30
0
10
-131.55507911653629
20
-44.615888661658772
30
0
10
-131.10736386636654
20
-45.063603911827798
30
0
10
-130.55507911653621
20
-45.063603911827698
30
0
0
LINE
5
419
100
AcDbEntity
8
0
100
AcDbLine
10
-131.55507911653638
20
-44.063603911827812
30
0
11
-131.5550791165364
21
-41.570597523009681
31
0
0
SPLINE
5
420
100
AcDbEntity
8
0
100
AcDbSpline
70
0
71
3
72
8
73
4
74
0
42
0.000000001
43
0.0000000001
44
0.0000000001
40
0
40
0
40
0
40
0
40
1
40
1
40
1
40
1
10
-130.55508125117763
20
-40.570597523012275
30
0
10
-131.10736516737799
20
-40.57059870194044
30
0
10
-131.55507911653638
20
-41.018313606808022
30
0
10
-131.5550791165364
20
-41.570597523009681
30
0
0
LINE
5
421
100
AcDbEntity
8
0
100
AcDbLine
10
-130.55508125117763
20
-40.570597523012275
30
0
11
-130.55508125117765
21
-35.570597523007592
31
0
0
SPLINE
5
422
100
AcDbEntity
8
0
100
AcDbSpline
70
0
71
3
72
8
73
4
74
0
42
0.000000001
43
0.0000000001
44
0.0000000001
40
0
40
0
40
0
40
0
40
1
40
1
40
1
40
1
10
-131.55507911653655
20
-34.570597523009795
30
0
10
-131.55507911653672
20
-35.12288143921144
30
0
10
-131.10736516737799
20
-35.570596344079874
30
0
10
-130.55508125117765
20
-35.570597523007592
30
0
0
LINE
5
423
100
AcDbEntity
8
0
100
AcDbLine
10
-131.55507911653655
20
-34.570597523009795
30
0
11
-131.55507911653658
21
-32.07059752300939
31
0
0
SPLINE
5
424
100
AcDbEntity
8
0
100
AcDbSpline
70
0
71
3
72
8
73
4
74
0
42
0.000000001
43
0.0000000001
44
0.0000000001
40
0
40
0
40
0
40
0
40
1
40
1
40
1
40
1
10
146.09317924262831
20
-22.520593842422475
30
0
10
146.09317924262831
20
-21.968309092591515
30
0
10
145.64546399245927
20
-21.520593842422429
30
0
10
145.09317924262828
20
-21.520593842422429
30
0
0
LINE
5
425
100
AcDbEntity
8
0
100
AcDbLine
10
146.09317924262831
20
-22.520593842422475
30
0
11
146.09317924262831
21
-25.020593842422876
31
0
0
SPLINE
5
426
100
AcDbEntity
8
0
100
AcDbSpline
70
0
71
3
72
8
73
4
74
0
42
0.000000001
43
0.0000000001
44
0.0000000001
40
0
40
0
40
0
40
0
40
1
40
1
40
1
40
1
10
145.09317924262828
20
-26.020593842422279
30
0
10
145.64546399245927
20
-26.020593842422279
30
0
10
146.09317924262831
20
-25.572878592253186
30
0
10
146.09317924262831
20
-25.020593842422876
30
0
0
LINE
5
427
100
AcDbEntity
8
0
100
AcDbLine
10
145.09317924262828
20
-26.020593842422279
30
0
11
131.09317924262848
21
-26.020593842422279
31
0
0
SPLINE
5
428
100
AcDbEntity
8
0
100
AcDbSpline
70
0
71
3
72
8
73
4
74
0
42
0.000000001
43
0.0000000001
44
0.0000000001
40
0
40
0
40
0
40
0
40
1
40
1
40
1
40
1
10
130.09317924262839
20
-25.020593842422876
30
0
10
130.09317924262839
20
-25.572878592253186
30
0
10
130.54089449279752
20
-26.020593842422279
30
0
10
131.09317924262848
20
-26.020593842422279
30
0
0
LINE
5
429
100
AcDbEntity
8
0
100
AcDbLine
10
130.09317924262839
20
-25.020593842422876
30
0
11
130.09317924262842
21
-22.520593842422475
31
0
0
SPLINE
5
430
100
AcDbEntity
8
0
100
AcDbSpline
70
0
71
3
72
8
73
4
74
0
42
0.000000001
43
0.0000000001
44
0.0000000001
40
0
40
0
40
0
40
0
40
1
40
1
40
1
40
1
10
131.09317710798803
20
-21.520593842424361
30
0
10
130.54089319178703
20
-21.520595021352076
30
0
10
130.09317924262859
20
-21.968309926220485
30
0
10
130.09317924262842
20
-22.520593842422475
30
0
0
LINE
5
431
100
AcDbEntity
8
0
100
AcDbLine
10
131.09317710798803
20
-21.520593842424361
30
0
11
131.09317710798803
21
-16.520593842420329
31
0
0
SPLINE
5
432
100
AcDbEntity
8
0
100
AcDbSpline
70
0
71
3
72
8
73
4
74
0
42
0.000000001
43
0.0000000001
44
0.0000000001
40
0
40
0
40
0
40
0
40
1
40
1
40
1
40
1
10
130.09317924262842
20
-15.520593842422876
30
0
10
130.09317924262817
20
-16.072877758624358
30
0
10
130.54089319178669
20
-16.520592663492693
30
0
10
131.09317710798803
20
-16.520593842420329
30
0
0
LINE
5
433
100
AcDbEntity
8
0
100
AcDbLine
10
130.09317924262842
20
-15.520593842422876
30
0
11
130.09317924262839
21
-13.020593842422464
31
0
0
SPLINE
5
434
100
AcDbEntity
8
0
100
AcDbSpline
70
0
71
3
72
8
73
4
74
0
42
0.000000001
43
0.0000000001
44
0.0000000001
40
0
40
0
40
0
40
0
40
1
40
1
40
1
40
1
10
131.09317924262848
20
-12.02059384242242
30
0
10
130.54089449279752
20
-12.02059384242242
30
0
10
130.09317924262839
20
-12.468309092591507
30
0
10
130.09317924262839
20
-13.020593842422464
30
0
0
LINE
5
435
100
AcDbEntity
8
0
100
AcDbLine
10
131.09317924262848
20
-12.02059384242242
30
0
11
145.09317924262828
21
-12.020593842422427
31
0
0
SPLINE
5
436
100
AcDbEntity
8
0
100
AcDbSpline
70
0
71
3
72
8
73
4
74
0
42
0.000000001
43
0.0000000001
44
0.0000000001
40
0
40
0
40
0
40
0
40
1
40
1
40
1
40
1
10
146.09317924262831
20
-13.020593842422464
30
0
10
146.09317924262831
20
-12.468309092591507
30
0
10
145.64546399245927
20
-12.02059384242242
30
0
10
145.09317924262828
20
-12.020593842422427
30
0
0
LINE
5
437
100
AcDbEntity
8
0
100
AcDbLine
10
146.09317924262831
20
-13.020593842422464
30
0
11
146.09317924262831
21
-15.520593842422876
31
0
0
SPLINE
5
438
100
AcDbEntity
8
0
100
AcDbSpline
70
0
71
3
72
8
73
4
74
0
42
0.000000001
43
0.0000000001
44
0.0000000001
40
0
40
0
40
0
40
0
40
1
40
1
40
1
40
1
10
145.09317924262828
20
-16.520593842422894
30
0
10
145.64546399245924
20
-16.520593842422887
30
0
10
146.09317924262831
20
-16.072878592253176
30
0
10
146.09317924262831
20
-15.520593842422876
30
0
0
LINE
5
439
100
AcDbEntity
8
0
100
AcDbLine
10
145.09317924262828
20
-16.520593842422894
30
0
11
145.09317924262828
21
-21.520593842422432
31
0
0
SPLINE
5
440
100
AcDbEntity
8
0
100
AcDbSpline
70
0
71
3
72
8
73
4
74
0
42
0.000000001
43
0.0000000001
44
0.0000000001
40
0
40
0
40
0
40
0
40
1
40
1
40
1
40
1
10
127.70116976920121
20
-5.9636041117453118
30
0
10
127.70116976920121
20
-6.5158888615762738
30
0
10
128.14888501937031
20
-6.9636041117453473
30
0
10
128.70116976920127
20
-6.9636041117453473
30
0
0
LINE
5
441
100
AcDbEntity
8
0
100
AcDbLine
10
127.70116976920121
20
-5.9636041117453118
30
0
11
127.71192877697771
21
-3.4636046498345707
31
0
0
SPLINE
5
442
100
AcDbEntity
8
0
100
AcDbSpline
70
0
71
3
72
8
73
4
74
0
42
0.000000001
43
0.0000000001
44
0.0000000001
40
0
40
0
40
0
40
0
40
1
40
1
40
1
40
1
10
128.71192664233669
20
-2.4636046498364634
30
0
10
128.15964272613598
20
-2.4636058287646549
30
0
10
127.71192877697771
20
-2.9113207336329134
30
0
10
127.71192877697771
20
-3.4636046498345707
30
0
0
LINE
5
443
100
AcDbEntity
8
0
100
AcDbLine
10
128.71192664233669
20
-2.4636046498364634
30
0
11
128.71192664233669
21
2.5363953501675649
31
0
0
SPLINE
5
444
100
AcDbEntity
8
0
100
AcDbSpline
70
0
71
3
72
8
73
4
74
0
42
0.000000001
43
0.0000000001
44
0.0000000001
40
0
40
0
40
0
40
0
40
1
40
1
40
1
40
1
10
127.71192877697771
20
3.5363953501656726
30
0
10
127.71192877697771
20
2.9841114339633839
30
0
10
128.15964272613598
20
2.5363965290957635
30
0
10
128.71192664233669
20
2.5363953501675658
30
0
0
LINE
5
445
100
AcDbEntity
8
0
100
AcDbLine
10
127.71192877697771
20
3.5363953501656726
30
0
11
127.71192877697771
21
6.029405420777616
31
0
0
SPLINE
5
446
100
AcDbEntity
8
0
100
AcDbSpline
70
0
71
3
72
8
73
4
74
0
42
0.000000001
43
0.0000000001
44
0.0000000001
40
0
40
0
40
0
40
0
40
1
40
1
40
1
40
1
10
128.7119287769778
20
7.0294054207776444
30
0
10
128.15964402714681
20
7.0294054207776444
30
0
10
127.71192877697771
20
6.5816901706079323
30
0
10
127.71192877697771
20
6.029405420777616
30
0
0
LINE
5
447
100
AcDbEntity
8
0
100
AcDbLine
10
128.7119287769778
20
7.0294054207776444
30
0
11
147.46368552650867
21
7.0294054207776444
31
0
0
SPLINE
5
448
100
AcDbEntity
8
0
100
AcDbSpline
70
0
71
3
72
8
73
4
74
0
42
0.000000001
43
0.0000000001
44
0.0000000001
40
0
40
0
40
0
40
0
40
1
40
1
40
1
40
1
10
148.4636855265087
20
6.0294054207776089
30
0
10
148.4636855265087
20
6.5816901706079323
30
0
10
148.0159702763396
20
7.0294054207776444
30
0
10
147.46368552650867
20
7.0294054207776444
30
0
0
LINE
5
449
100
AcDbEntity
8
0
100
AcDbLine
10
148.4636855265087
20
6.0294054207776089
30
0
11
148.463685526402
21
3.5293880678090046
31
0
0
SPLINE
5
450
100
AcDbEntity
8
0
100
AcDbSpline
70
0
71
3
72
8
73
4
74
0
42
0.000000001
43
0.0000000001
44
0.0000000001
40
0
40
0
40
0
40
0
40
1
40
1
40
1
40
1
10
147.46366763455467
20
2.5294059590266276
30
0
10
148.01595238429709
20
2.5293960775730624
30
0
10
148.46367564489535
20
2.9771033171698269
30
0
10
148.46368552634866
20
3.5293880669122339
30
0
0
LINE
5
451
100
AcDbEntity
8
0
100
AcDbLine
10
147.46366763455467
20
2.5294059590266276
30
0
11
147.47444453428517
21
-2.4636041117455099
31
0
0
SPLINE
5
452
100
AcDbEntity
8
0
100
AcDbSpline
70
0
71
3
72
8
73
4
74
0
42
0.000000001
43
0.0000000001
44
0.0000000001
40
0
40
0
40
0
40
0
40
1
40
1
40
1
40
1
10
148.4744445342852
20
-3.4636041117455458
30
0
10
148.4744445342852
20
-2.9113193619145843
30
0
10
148.02672928411579
20
-2.4636041117455099
30
0
10
147.47444453428517
20
-2.4636041117455099
30
0
0
LINE
5
453
100
AcDbEntity
8
0
100
AcDbLine
10
148.4744445342852
20
-3.4636041117455458
30
0
11
148.4744445342852
21
-5.9636042571254304
31
0
0
SPLINE
5
454
100
AcDbEntity
8
0
100
AcDbSpline
70
0
71
3
72
8
73
4
74
0
42
0.000000001
43
0.0000000001
44
0.0000000001
40
0
40
0
40
0
40
0
40
1
40
1
40
1
40
1
10
147.47444438890506
20
-6.9636041117453553
30
0
10
148.02672913873565
20
-6.9636041920366498
30
0
10
148.47444445399387
20
-6.5158890069563977
30
0
10
148.4744445342852
20
-5.9636042571254304
30
0
0
LINE
5
455
100
AcDbEntity
8
0
100
AcDbLine
10
147.47444438890506
20
-6.9636041117453553
30
0
11
128.70116976920127
21
-6.9636041117453473
31
0
0
SPLINE
5
456
100
AcDbEntity
8
0
100
AcDbSpline
70
0
71
3
72
8
73
4
74
0
42
0.000000001
43
0.0000000001
44
0.0000000001
40
0
40
0
40
0
40
0
40
1
40
1
40
1
40
1
10
111.03242023485143
20
13.086396187219894
30
0
10
111.03242023485143
20
12.534111447132499
30
0
10
111.48013546981358
20
12.086396200999712
30
0
10
112.03242020990029
20
12.086396187219865
30
0
0
LINE
5
457
100
AcDbEntity
8
0
100
AcDbLine
10
111.03242023485143
20
13.086396187219894
30
0
11
111.03242023485143
21
15.579405983810306
31
0
0
SPLINE
5
458
100
AcDbEntity
8
0
100
AcDbSpline
70
0
71
3
72
8
73
4
74
0
42
0.000000001
43
0.0000000001
44
0.0000000001
40
0
40
0
40
0
40
0
40
1
40
1
40
1
40
1
10
112.02165862677958
20
16.572416054421225
30
0
10
111.46937489242872
20
16.572414618320593
30
0
10
111.03242023485144
20
16.13168971816344
30
0
10
111.03242023485143
20
15.579405983810306
30
0
0
LINE
5
459
100
AcDbEntity
8
0
100
AcDbLine
10
112.02165862677958
20
16.572416054421225
30
0
11
112.02165862677958
21
21.572416054425897
31
0
0
SPLINE
5
460
100
AcDbEntity
8
0
100
AcDbSpline
70
0
71
3
72
8
73
4
74
0
42
0.000000001
43
0.0000000001
44
0.0000000001
40
0
40
0
40
0
40
0
40
1
40
1
40
1
40
1
10
111.02166122707494
20
22.572416054422717
30
0
10
111.02166122707494
20
22.020132320070232
30
0
10
111.46937489242872
20
21.572417490526533
30
0
10
112.02165862677958
20
21.572416054425897
30
0
0
LINE
5
461
100
AcDbEntity
8
0
100
AcDbLine
10
111.02166122707494
20
22.572416054422717
30
0
11
111.02166122707494
21
25.07241605442249
31
0
0
SPLINE
5
462
100
AcDbEntity
8
0
100
AcDbSpline
70
0
71
3
72
8
73
4
74
0
42
0.000000001
43
0.0000000001
44
0.0000000001
40
0
40
0
40
0
40
0
40
1
40
1
40
1
40
1
10
112.02166122707499
20
26.072416054422511
30
0
10
111.469376477244
20
26.072416054422515
30
0
10
111.02166122707494
20
25.62470080425345
30
0
10
111.02166122707494
20
25.07241605442249
30
0
0
LINE
5
463
100
AcDbEntity
8
0
100
AcDbLine
10
112.02166122707499
20
26.072416054422511
30
0
11
113.0324176345551
21
26.079406129198826
31
0
0
LINE
5
464
100
AcDbEntity
8
0
100
AcDbLine
10
113.0324176345551
20
26.079406129198826
30
0
11
115.00066579188193
21
26.079406522824709
31
0
0
LINE
5
465
100
AcDbEntity
8
0
100
AcDbLine
10
115.00066579188193
20
26.079406522824709
30
0
11
115.01142479965843
21
27.08639469017568
31
0
0
SPLINE
5
466
100
AcDbEntity
8
0
100
AcDbSpline
70
0
71
3
72
8
73
4
74
0
42
0.000000001
43
0.0000000001
44
0.0000000001
40
0
40
0
40
0
40
0
40
1
40
1
40
1
40
1
10
116.01142479965816
20
28.086394690175709
30
0
10
115.4591400498275
20
28.086394690175709
30
0
10
115.01142479965843
20
27.638679440005983
30
0
10
115.01142479965843
20
27.08639469017568
30
0
0
LINE
5
467
100
AcDbEntity
8
0
100
AcDbLine
10
116.01142479965816
20
28.086394690175709
30
0
11
122.00066579187899
21
28.086394690175709
31
0
0
SPLINE
5
468
100
AcDbEntity
8
0
100
AcDbSpline
70
0
71
3
72
8
73
4
74
0
42
0.000000001
43
0.0000000001
44
0.0000000001
40
0
40
0
40
0
40
0
40
1
40
1
40
1
40
1
10
123.00066579187897
20
27.086394690175677
30
0
10
123.00066579187897
20
27.638679440005987
30
0
10
122.55295054170995
20
28.086394690175709
30
0
10
122.00066579187899
20
28.086394690175709
30
0
0
LINE
5
469
100
AcDbEntity
8
0
100
AcDbLine
10
123.00066579187897
20
27.086394690175677
30
0
11
123.00066579187899
21
26.079405412276621
31
0
0
LINE
5
470
100
AcDbEntity
8
0
100
AcDbLine
10
123.00066579187899
20
26.079405412276621
30
0
11
138.87666763455908
21
26.079405412276621
31
0
0
LINE
5
471
100
AcDbEntity
8
0
100
AcDbLine
10
138.87666763455908
20
26.079405412276621
30
0
11
138.87666763455911
21
27.079406104247681
31
0
0
SPLINE
5
472
100
AcDbEntity
8
0
100
AcDbSpline
70
0
71
3
72
8
73
4
74
0
42
0.000000001
43
0.0000000001
44
0.0000000001
40
0
40
0
40
0
40
0
40
1
40
1
40
1
40
1
10
139.87666763455911
20
28.079406104247706
30
0
10
139.32438288472852
20
28.079406104247706
30
0
10
138.87666763455911
20
27.631690854077991
30
0
10
138.87666763455911
20
27.079406104247681
30
0
0
LINE
5
473
100
AcDbEntity
8
0
100
AcDbLine
10
139.87666763455911
20
28.079406104247706
30
0
11
145.87666763455741
21
28.079406104247706
31
0
0
SPLINE
5
474
100
AcDbEntity
8
0
100
AcDbSpline
70
0
71
3
72
8
73
4
74
0
42
0.000000001
43
0.0000000001
44
0.0000000001
40
0
40
0
40
0
40
0
40
1
40
1
40
1
40
1
10
146.87666763455746
20
27.079406104247678
30
0
10
146.87666763455746
20
27.631690854077991
30
0
10
146.42895238438805
20
28.079406104247706
30
0
10
145.87666763455741
20
28.079406104247706
30
0
0
LINE
5
475
100
AcDbEntity
8
0
100
AcDbLine
10
146.87666763455746
20
27.079406104247678
30
0
11
146.87666763455749
21
13.08639531782295
31
0
0
SPLINE
5
476
100
AcDbEntity
8
0
100
AcDbSpline
70
0
71
3
72
8
73
4
74
0
42
0.000000001
43
0.0000000001
44
0.0000000001
40
0
40
0
40
0
40
0
40
1
40
1
40
1
40
1
10
145.87666760960656
20
12.086395342774081
30
0
10
146.42895235943718
20
12.086395328994241
30
0
10
146.87666762077731
20
12.53411056799262
30
0
10
146.87666763455749
20
13.08639531782295
30
0
0
LINE
5
477
100
AcDbEntity
8
0
100
AcDbLine
10
145.87666760960656
20
12.086395342774081
30
0
11
112.03242020990029
21
12.086396187219865
31
0
0
SPLINE
5
478
100
AcDbEntity
8
0
100
AcDbSpline
70
0
71
3
72
8
73
4
74
0
42
0.000000001
43
0.0000000001
44
0.0000000001
40
0
40
0
40
0
40
0
40
1
40
1
40
1
40
1
10
130.08247145622124
20
32.136395374581411
30
0
10
130.08247145622124
20
31.584110624750462
30
0
10
130.53018670639031
20
31.136395374581376
30
0
10
131.08247145622127
20
31.136395374581376
30
0
0
LINE
5
479
100
AcDbEntity
8
0
100
AcDbLine
10
130.08247145622124
20
32.136395374581411
30
0
11
130.0932304639974
21
34.636395374581184
31
0
0
SPLINE
5
480
100
AcDbEntity
8
0
100
AcDbSpline
70
0
71
3
72
8
73
4
74
0
42
0.000000001
43
0.0000000001
44
0.0000000001
40
0
40
0
40
0
40
0
40
1
40
1
40
1
40
1
10
131.09322832935672
20
35.636395374579294
30
0
10
130.54094441315598
20
35.636394195651093
30
0
10
130.0932304639974
20
35.188679290783483
30
0
10
130.0932304639974
20
34.636395374581184
30
0
0
LINE
5
481
100
AcDbEntity
8
0
100
AcDbLine
10
131.09322832935672
20
35.636395374579294
30
0
11
131.09322832935669
21
40.636395374583316
31
0
0
SPLINE
5
482
100
AcDbEntity
8
0
100
AcDbSpline
70
0
71
3
72
8
73
4
74
0
42
0.000000001
43
0.0000000001
44
0.0000000001
40
0
40
0
40
0
40
0
40
1
40
1
40
1
40
1
10
130.0932304639974
20
41.636395374581426
30
0
10
130.0932304639974
20
41.084111458379766
30
0
10
130.54094441315598
20
40.636396553511503
30
0
10
131.09322832935669
20
40.636395374583316
30
0
0
LINE
5
483
100
AcDbEntity
8
0
100
AcDbLine
10
130.0932304639974
20
41.636395374581426
30
0
11
130.09323046399737
21
44.12940544519337
31
0
0
SPLINE
5
484
100
AcDbEntity
8
0
100
AcDbSpline
70
0
71
3
72
8
73
4
74
0
42
0.000000001
43
0.0000000001
44
0.0000000001
40
0
40
0
40
0
40
0
40
1
40
1
40
1
40
1
10
131.09323046399743
20
45.129405445193399
30
0
10
130.54094571416678
20
45.129405445193399
30
0
10
130.0932304639974
20
44.681690195024323
30
0
10
130.09323046399737
20
44.12940544519337
30
0
0
LINE
5
485
100
AcDbEntity
8
0
100
AcDbLine
10
131.09323046399743
20
45.129405445193399
30
0
11
147.47442924262882
21
45.136395888254896
31
0
0
SPLINE
5
486
100
AcDbEntity
8
0
100
AcDbSpline
70
0
71
3
72
8
73
4
74
0
42
0.000000001
43
0.0000000001
44
0.0000000001
40
0
40
0
40
0
40
0
40
1
40
1
40
1
40
1
10
148.47442924262882
20
44.13639588825486
30
0
10
148.47442924262882
20
44.68868063808582
30
0
10
148.02671399245946
20
45.136395888254896
30
0
10
147.47442924262882
20
45.136395888254896
30
0
0
LINE
5
487
100
AcDbEntity
8
0
100
AcDbLine
10
148.47442924262882
20
44.13639588825486
30
0
11
148.47442924262884
21
41.636395888255095
31
0
0
SPLINE
5
488
100
AcDbEntity
8
0
100
AcDbSpline
70
0
71
3
72
8
73
4
74
0
42
0.000000001
43
0.0000000001
44
0.0000000001
40
0
40
0
40
0
40
0
40
1
40
1
40
1
40
1
10
147.47442924262879
20
40.636395888255059
30
0
10
148.02671399245949
20
40.636395888255059
30
0
10
148.47442924262884
20
41.084111138424142
30
0
10
148.47442924262884
20
41.636395888255095
30
0
0
LINE
5
489
100
AcDbEntity
8
0
100
AcDbLine
10
147.47442924262879
20
40.636395888255059
30
0
11
147.47442924262879
21
35.636395888254874
31
0
0
SPLINE
5
490
100
AcDbEntity
8
0
100
AcDbSpline
70
0
71
3
72
8
73
4
74
0
42
0.000000001
43
0.0000000001
44
0.0000000001
40
0
40
0
40
0
40
0
40
1
40
1
40
1
40
1
10
148.47442924262882
20
34.636395888254853
30
0
10
148.47442924262884
20
35.188680638085792
30
0
10
148.02671399245946
20
35.636395888254874
30
0
10
147.47442924262879
20
35.636395888254874
30
0
0
LINE
5
491
100
AcDbEntity
8
0
100
AcDbLine
10
148.47442924262882
20
34.636395888254853
30
0
11
148.47442924262884
21
32.13639588825508
31
0
0
SPLINE
5
492
100
AcDbEntity
8
0
100
AcDbSpline
70
0
71
3
72
8
73
4
74
0
42
0.000000001
43
0.0000000001
44
0.0000000001
40
0
40
0
40
0
40
0
40
1
40
1
40
1
40
1
10
147.47442945834939
20
31.136395888255045
30
0
10
148.02671412393588
20
31.136396007394168
30
0
10
148.47442924262882
20
31.584111222668302
30
0
10
148.47442924262884
20
32.13639588825508
30
0
0
LINE
5
493
100
AcDbEntity
8
0
100
AcDbLine
10
147.47442945834939
20
31.136395888255045
30
0
11
131.08247145622127
21
31.13639537458138
31
0
0
SPLINE
5
494
100
AcDbEntity
8
0
100
AcDbSpline
70
0
71
3
72
8
73
4
74
0
42
0.000000001
43
0.0000000001
44
0.0000000001
40
0
40
0
40
0
40
0
40
1
40
1
40
1
40
1
10
101.51817885262496
20
32.129404360095428
30
0
10
101.51817885262496
20
31.577119610264468
30
0
10
101.96589410279402
20
31.129404360095386
30
0
10
102.51817885262498
20
31.129404360095229
30
0
0
LINE
5
495
100
AcDbEntity
8
0
100
AcDbLine
10
101.51817885262496
20
32.129404360095428
30
0
11
101.51817885262496
21
34.636394288669187
31
0
0
SPLINE
5
496
100
AcDbEntity
8
0
100
AcDbSpline
70
0
71
3
72
8
73
4
74
0
42
0.000000001
43
0.0000000001
44
0.0000000001
40
0
40
0
40
0
40
0
40
1
40
1
40
1
40
1
10
102.51817625232988
20
35.636394288666018
30
0
10
101.96589251797897
20
35.636392852565379
30
0
10
101.51817885262494
20
35.188678023021673
30
0
10
101.51817885262496
20
34.636394288669187
30
0
0
LINE
5
497
100
AcDbEntity
8
0
100
AcDbLine
10
102.51817625232988
20
35.636394288666018
30
0
11
102.51817625232989
21
40.636394288672612
31
0
0
SPLINE
5
498
100
AcDbEntity
8
0
100
AcDbSpline
70
0
71
3
72
8
73
4
74
0
42
0.000000001
43
0.0000000001
44
0.0000000001
40
0
40
0
40
0
40
0
40
1
40
1
40
1
40
1
10
101.51817885262524
20
41.636394288669429
30
0
10
101.51817885262528
20
41.084110554316304
30
0
10
101.96589251797897
20
40.636395724773237
30
0
10
102.51817625232989
20
40.636394288672612
30
0
0
LINE
5
499
100
AcDbEntity
8
0
100
AcDbLine
10
101.51817885262524
20
41.636394288669429
30
0
11
101.50741984484876
21
44.129404359281388
31
0
0
SPLINE
5
500
100
AcDbEntity
8
0
100
AcDbSpline
70
0
71
3
72
8
73
4
74
0
42
0.000000001
43
0.0000000001
44
0.0000000001
40
0
40
0
40
0
40
0
40
1
40
1
40
1
40
1
10
102.50741984484883
20
45.129404359281402
30
0
10
101.95513509501782
20
45.129404359281409
30
0
10
101.50741984484876
20
44.681689109111687
30
0
10
101.50741984484876
20
44.129404359281388
30
0
0
LINE
5
501
100
AcDbEntity
8
0
100
AcDbLine
10
102.50741984484883
20
45.129404359281402
30
0
11
123.66192924262788
21
45.129405959680746
31
0
0
SPLINE
5
502
100
AcDbEntity
8
0
100
AcDbSpline
70
0
71
3
72
8
73
4
74
0
42
0.000000001
43
0.0000000001
44
0.0000000001
40
0
40
0
40
0
40
0
40
1
40
1
40
1
40
1
10
124.66192924262796
20
44.12940595968071
30
0
10
124.66192924262796
20
44.681690709511656
30
0
10
124.21421399245858
20
45.129405959680746
30
0
10
123.66192924262788
20
45.129405959680746
30
0
0
LINE
5
503
100
AcDbEntity
8
0
100
AcDbLine
10
124.66192924262796
20
44.12940595968071
30
0
11
124.66192924262796
21
41.636395888255095
31
0
0
SPLINE
5
504
100
AcDbEntity
8
0
100
AcDbSpline
70
0
71
3
72
8
73
4
74
0
42
0.000000001
43
0.0000000001
44
0.0000000001
40
0
40
0
40
0
40
0
40
1
40
1
40
1
40
1
10
123.66192924262791
20
40.636395888255059
30
0
10
124.21421399245858
20
40.636395888255059
30
0
10
124.66192924262796
20
41.084111138424142
30
0
10
124.66192924262796
20
41.636395888255095
30
0
0
LINE
5
505
100
AcDbEntity
8
0
100
AcDbLine
10
123.66192924262791
20
40.636395888255059
30
0
11
123.66192924262791
21
35.636395888254874
31
0
0
SPLINE
5
506
100
AcDbEntity
8
0
100
AcDbSpline
70
0
71
3
72
8
73
4
74
0
42
0.000000001
43
0.0000000001
44
0.0000000001
40
0
40
0
40
0
40
0
40
1
40
1
40
1
40
1
10
124.66192924262792
20
34.636395888254853
30
0
10
124.66192924262796
20
35.188680638085799
30
0
10
124.21421399245857
20
35.636395888254874
30
0
10
123.66192924262791
20
35.636395888254874
30
0
0
LINE
5
507
100
AcDbEntity
8
0
100
AcDbLine
10
124.66192924262792
20
34.636395888254853
30
0
11
124.66192924262799
21
32.129405959680916
31
0
0
SPLINE
5
508
100
AcDbEntity
8
0
100
AcDbSpline
70
0
71
3
72
8
73
4
74
0
42
0.000000001
43
0.0000000001
44
0.0000000001
40
0
40
0
40
0
40
0
40
1
40
1
40
1
40
1
10
123.66192931828068
20
31.129405959680891
30
0
10
124.21421403856733
20
31.129406001462634
30
0
10
124.66192924262786
20
31.57712123939443
30
0
10
124.66192924262799
20
32.129405959680916
30
0
0
LINE
5
509
100
AcDbEntity
8
0
100
AcDbLine
10
123.66192931828068
20
31.129405959680891
30
0
11
102.51817885262498
21
31.129404360095233
31
0
0
SPLINE
5
510
100
AcDbEntity
8
0
100
AcDbSpline
70
0
71
3
72
8
73
4
74
0
42
0.000000001
43
0.0000000001
44
0.0000000001
40
0
40
0
40
0
40
0
40
1
40
1
40
1
40
1
10
99.838618870984988
20
31.129404359280919
30
0
10
100.39090362081592
20
31.129404305040662
30
0
10
100.8386189149558
20
31.577119511239236
30
0
10
100.83861896919638
20
32.129404261070192
30
0
0
LINE
5
511
100
AcDbEntity
8
0
100
AcDbLine
10
99.838618870984988
20
31.129404359280919
30
0
11
90.206114071243135
21
31.13639523574723
31
0
0
LINE
5
512
100
AcDbEntity
8
0
100
AcDbLine
10
90.206114071243135
20
31.13639523574723
30
0
11
90.206179698310535
21
30.132695911477683
31
0
0
SPLINE
5
513
100
AcDbEntity
8
0
100
AcDbSpline
70
0
71
3
72
8
73
4
74
0
42
0.000000001
43
0.0000000001
44
0.0000000001
40
0
40
0
40
0
40
0
40
1
40
1
40
1
40
1
10
89.206179698310848
20
29.132695911477651
30
0
10
89.758464448141453
20
29.132695911477651
30
0
10
90.206179698310564
20
29.580411161646726
30
0
10
90.206179698310535
20
30.132695911477683
30
0
0
LINE
5
514
100
AcDbEntity
8
0
100
AcDbLine
10
89.206179698310848
20
29.132695911477651
30
0
11
82.205674799654375
21
29.132695911476372
31
0
0
SPLINE
5
515
100
AcDbEntity
8
0
100
AcDbSpline
70
0
71
3
72
8
73
4
74
0
42
0.000000001
43
0.0000000001
44
0.0000000001
40
0
40
0
40
0
40
0
40
1
40
1
40
1
40
1
10
81.205674799654361
20
30.1326959114764
30
0
10
81.205674799654361
20
29.580411161645447
30
0
10
81.65339004982377
20
29.132695911476372
30
0
10
82.205674799654375
20
29.132695911476372
30
0
0
LINE
5
516
100
AcDbEntity
8
0
100
AcDbLine
10
81.205674799654361
20
30.1326959114764
30
0
11
81.205674799654361
21
46.140310228155236
31
0
0
SPLINE
5
517
100
AcDbEntity
8
0
100
AcDbSpline
70
0
71
3
72
8
73
4
74
0
42
0.000000001
43
0.0000000001
44
0.0000000001
40
0
40
0
40
0
40
0
40
1
40
1
40
1
40
1
10
82.213206477473747
20
47.132721392033488
30
0
10
81.660937511472042
20
47.136896806663408
30
0
10
81.20985021428416
20
46.692579194156664
30
0
10
81.205674799654361
20
46.140310228155236
30
0
0
LINE
5
518
100
AcDbEntity
8
0
100
AcDbLine
10
82.213206477473747
20
47.132721392033488
30
0
11
89.205705877275747
21
47.140309713960519
31
0
0
SPLINE
5
519
100
AcDbEntity
8
0
100
AcDbSpline
70
0
71
3
72
8
73
4
74
0
42
0.000000001
43
0.0000000001
44
0.0000000001
40
0
40
0
40
0
40
0
40
1
40
1
40
1
40
1
10
90.205178925916641
20
46.139783040132933
30
0
10
90.205469876477935
20
46.692067713325649
30
0
10
89.757990550468548
20
47.140018763399205
30
0
10
89.205705877275747
20
47.140309713960519
30
0
0
LINE
5
520
100
AcDbEntity
8
0
100
AcDbLine
10
90.205178925916641
20
46.139783040132933
30
0
11
90.205179063175351
21
45.136395235830484
31
0
0
LINE
5
521
100
AcDbEntity
8
0
100
AcDbLine
10
90.205179063175351
20
45.136395235830484
30
0
11
99.849377976972846
21
45.136394288669244
31
0
0
SPLINE
5
522
100
AcDbEntity
8
0
100
AcDbSpline
70
0
71
3
72
8
73
4
74
0
42
0.000000001
43
0.0000000001
44
0.0000000001
40
0
40
0
40
0
40
0
40
1
40
1
40
1
40
1
10
100.84937797697287
20
44.136394288669194
30
0
10
100.84937797697287
20
44.688679038500155
30
0
10
100.40166272680374
20
45.136394288669237
30
0
10
99.849377976972846
20
45.136394288669244
30
0
0
LINE
5
523
100
AcDbEntity
8
0
100
AcDbLine
10
100.84937797697287
20
44.136394288669194
30
0
11
100.83862156948889
21
41.62940175898234
31
0
0
SPLINE
5
524
100
AcDbEntity
8
0
100
AcDbSpline
70
0
71
3
72
8
73
4
74
0
42
0.000000001
43
0.0000000001
44
0.0000000001
40
0
40
0
40
0
40
0
40
1
40
1
40
1
40
1
10
99.838618969196347
20
40.629404359281565
30
0
10
100.39090371902539
20
40.629402923177722
30
0
10
100.83862013338505
20
41.077117009153305
30
0
10
100.83862156948889
20
41.62940175898234
30
0
0
LINE
5
525
100
AcDbEntity
8
0
100
AcDbLine
10
99.838618969196347
20
40.629404359281565
30
0
11
99.838618969196347
21
35.629404359281402
31
0
0
SPLINE
5
526
100
AcDbEntity
8
0
100
AcDbSpline
70
0
71
3
72
8
73
4
74
0
42
0.000000001
43
0.0000000001
44
0.0000000001
40
0
40
0
40
0
40
0
40
1
40
1
40
1
40
1
10
100.83861896919638
20
34.629404359281359
30
0
10
100.83861896919638
20
35.18168910911168
30
0
10
100.39090371902731
20
35.629404359281402
30
0
10
99.838618969196347
20
35.629404359281402
30
0
0
LINE
5
527
100
AcDbEntity
8
0
100
AcDbLine
10
100.83861896919638
20
34.629404359281359
30
0
11
100.83861896919638
21
32.129404261070192
31
0
0
SPLINE
5
528
100
AcDbEntity
8
0
100
AcDbSpline
70
0
71
3
72
8
73
4
74
0
42
0.000000001
43
0.0000000001
44
0.0000000001
40
0
40
0
40
0
40
0
40
1
40
1
40
1
40
1
10
1.5110582808606499
20
32.139890202874177
30
0
10
1.5110582808606499
20
31.587728800227239
30
0
10
1.9585810452109609
20
31.140064658760807
30
0
10
2.5107424203135582
20
31.139890252757894
30
0
0
LINE
5
529
100
AcDbEntity
8
0
100
AcDbLine
10
1.5110582808606499
20
32.139890202874177
30
0
11
1.5110582808606499
21
34.639890152990191
31
0
0
SPLINE
5
530
100
AcDbEntity
8
0
100
AcDbSpline
70
0
71
3
72
8
73
4
74
0
42
0.000000001
43
0.0000000001
44
0.0000000001
40
0
40
0
40
0
40
0
40
1
40
1
40
1
40
1
10
2.5110561462196728
20
35.639890152987647
30
0
10
1.9587722300192512
20
35.639888974059453
30
0
10
1.5110582808606641
20
35.192174069191836
30
0
10
1.5110582808606499
20
34.639890152990191
30
0
0
LINE
5
531
100
AcDbEntity
8
0
100
AcDbLine
10
2.5110561462196728
20
35.639890152987647
30
0
11
2.500297138443158
21
40.632900223604487
31
0
0
SPLINE
5
532
100
AcDbEntity
8
0
100
AcDbSpline
70
0
71
3
72
8
73
4
74
0
42
0.000000001
43
0.0000000001
44
0.0000000001
40
0
40
0
40
0
40
0
40
1
40
1
40
1
40
1
10
1.5002992730842601
20
41.632900223601965
30
0
10
1.5002992730842601
20
41.080616307400305
30
0
10
1.9480132222428337
20
40.632901402532042
30
0
10
2.500297138443158
20
40.632900223604487
30
0
0
LINE
5
533
100
AcDbEntity
8
0
100
AcDbLine
10
1.5002992730842601
20
41.632900223601965
30
0
11
1.5002992730842601
21
44.129405379007238
31
0
0
SPLINE
5
534
100
AcDbEntity
8
0
100
AcDbSpline
70
0
71
3
72
8
73
4
74
0
42
0.000000001
43
0.0000000001
44
0.0000000001
40
0
40
0
40
0
40
0
40
1
40
1
40
1
40
1
10
2.5002985439193655
20
45.129405379006627
30
0
10
1.9480140788452616
20
45.129404976300705
30
0
10
1.5002992730842739
20
44.681689844081674
30
0
10
1.5002992730842601
20
44.129405379007238
30
0
0
LINE
5
535
100
AcDbEntity
8
0
100
AcDbLine
10
2.5002985439193655
20
45.129405379006627
30
0
11
35.555678776972158
21
45.136445988295854
31
0
0
SPLINE
5
536
100
AcDbEntity
8
0
100
AcDbSpline
70
0
71
3
72
8
73
4
74
0
42
0.000000001
43
0.0000000001
44
0.0000000001
40
0
40
0
40
0
40
0
40
1
40
1
40
1
40
1
10
36.555678776972258
20
44.136445988295819
30
0
10
36.555678776972258
20
44.688730738126779
30
0
10
36.107963526803147
20
45.136445988295854
30
0
10
35.555678776972158
20
45.136445988295854
30
0
0
LINE
5
537
100
AcDbEntity
8
0
100
AcDbLine
10
36.555678776972258
20
44.136445988295819
30
0
11
36.555678776972258
21
41.636445988296067
31
0
0
SPLINE
5
538
100
AcDbEntity
8
0
100
AcDbSpline
70
0
71
3
72
8
73
4
74
0
42
0.000000001
43
0.0000000001
44
0.0000000001
40
0
40
0
40
0
40
0
40
1
40
1
40
1
40
1
10
35.555678776972151
20
40.636445988296039
30
0
10
36.107963526803147
20
40.636445988296032
30
0
10
36.555678776972258
20
41.0841612384651
30
0
10
36.555678776972258
20
41.636445988296067
30
0
0
LINE
5
539
100
AcDbEntity
8
0
100
AcDbLine
10
35.555678776972151
20
40.636445988296039
30
0
11
35.544919769196085
21
35.629456058907998
31
0
0
SPLINE
5
540
100
AcDbEntity
8
0
100
AcDbSpline
70
0
71
3
72
8
73
4
74
0
42
0.000000001
43
0.0000000001
44
0.0000000001
40
0
40
0
40
0
40
0
40
1
40
1
40
1
40
1
10
36.544919769196049
20
34.629456058907977
30
0
10
36.544919769196049
20
35.181740808738937
30
0
10
36.097204519026647
20
35.629456058908005
30
0
10
35.544919769196085
20
35.629456058907998
30
0
0
LINE
5
541
100
AcDbEntity
8
0
100
AcDbLine
10
36.544919769196049
20
34.629456058907977
30
0
11
36.544919769196049
21
32.129456058908218
31
0
0
SPLINE
5
542
100
AcDbEntity
8
0
100
AcDbSpline
70
0
71
3
72
8
73
4
74
0
42
0.000000001
43
0.0000000001
44
0.0000000001
40
0
40
0
40
0
40
0
40
1
40
1
40
1
40
1
10
35.544919769196085
20
31.129456058908179
30
0
10
36.097204519026924
20
31.129456058908179
30
0
10
36.544919769196049
20
31.577171309077258
30
0
10
36.544919769196049
20
32.129456058908218
30
0
0
LINE
5
543
100
AcDbEntity
8
0
100
AcDbLine
10
35.544919769196085
20
31.129456058908179
30
0
11
2.5107424203135582
21
31.139890252757894
31
0
0
SPLINE
5
544
100
AcDbEntity
8
0
100
AcDbSpline
70
0
71
3
72
8
73
4
74
0
42
0.000000001
43
0.0000000001
44
0.0000000001
40
0
40
0
40
0
40
0
40
1
40
1
40
1
40
1
10
150.8522228049618
20
-41.570595886938683
30
0
10
150.85222280496183
20
-41.01831113710837
30
0
10
150.40450755479273
20
-40.570595886938669
30
0
10
149.8522228049618
20
-40.570595886938669
30
0
0
LINE
5
545
100
AcDbEntity
8
0
100
AcDbLine
10
150.8522228049618
20
-41.570595886938683
30
0
11
150.85222280496183
21
-44.070595886939103
31
0
0
SPLINE
5
546
100
AcDbEntity
8
0
100
AcDbSpline
70
0
71
3
72
8
73
4
74
0
42
0.000000001
43
0.0000000001
44
0.0000000001
40
0
40
0
40
0
40
0
40
1
40
1
40
1
40
1
10
149.85222280496177
20
-45.070595886939138
30
0
10
150.40450755479273
20
-45.070595886939138
30
0
10
150.85222280496183
20
-44.622880636769402
30
0
10
150.85222280496183
20
-44.070595886939103
30
0
0
LINE
5
547
100
AcDbEntity
8
0
100
AcDbLine
10
149.85222280496177
20
-45.070595886939138
30
0
11
135.85222280496191
21
-45.070595886939138
31
0
0
SPLINE
5
548
100
AcDbEntity
8
0
100
AcDbSpline
70
0
71
3
72
8
73
4
74
0
42
0.000000001
43
0.0000000001
44
0.0000000001
40
0
40
0
40
0
40
0
40
1
40
1
40
1
40
1
10
134.85222280496185
20
-44.070595886939103
30
0
10
134.85222280496185
20
-44.622880636769423
30
0
10
135.29993805513095
20
-45.070595886939124
30
0
10
135.85222280496191
20
-45.070595886939138
30
0
0
LINE
5
549
100
AcDbEntity
8
0
100
AcDbLine
10
134.85222280496185
20
-44.070595886939103
30
0
11
134.85222280496188
21
-41.570595886938683
31
0
0
SPLINE
5
550
100
AcDbEntity
8
0
100
AcDbSpline
70
0
71
3
72
8
73
4
74
0
42
0.000000001
43
0.0000000001
44
0.0000000001
40
0
40
0
40
0
40
0
40
1
40
1
40
1
40
1
10
135.85222067032151
20
-40.570595886940588
30
0
10
135.29993675412049
20
-40.570597065868618
30
0
10
134.85222280496174
20
-41.018311970737017
30
0
10
134.85222280496188
20
-41.570595886938683
30
0
0
LINE
5
551
100
AcDbEntity
8
0
100
AcDbLine
10
135.85222067032151
20
-40.570595886940588
30
0
11
135.85222067032149
21
-35.570595886936559
31
0
0
SPLINE
5
552
100
AcDbEntity
8
0
100
AcDbSpline
70
0
71
3
72
8
73
4
74
0
42
0.000000001
43
0.0000000001
44
0.0000000001
40
0
40
0
40
0
40
0
40
1
40
1
40
1
40
1
10
134.85222280496188
20
-34.570595886939103
30
0
10
134.85222280496168
20
-35.122879803140592
30
0
10
135.29993675412049
20
-35.570594708008912
30
0
10
135.85222067032149
20
-35.570595886936559
30
0
0
LINE
5
553
100
AcDbEntity
8
0
100
AcDbLine
10
134.85222280496188
20
-34.570595886939103
30
0
11
134.85222280496185
21
-32.070595886938669
31
0
0
SPLINE
5
554
100
AcDbEntity
8
0
100
AcDbSpline
70
0
71
3
72
8
73
4
74
0
42
0.000000001
43
0.0000000001
44
0.0000000001
40
0
40
0
40
0
40
0
40
1
40
1
40
1
40
1
10
135.85222280496194
20
-31.070595886938655
30
0
10
135.29993805513095
20
-31.0705958869382
30
0
10
134.852222804962
20
-31.518311137108039
30
0
10
134.85222280496185
20
-32.070595886938669
30
0
0
LINE
5
555
100
AcDbEntity
8
0
100
AcDbLine
10
135.85222280496194
20
-31.070595886938655
30
0
11
149.8522228049618
21
-31.070595886939291
31
0
0
SPLINE
5
556
100
AcDbEntity
8
0
100
AcDbSpline
70
0
71
3
72
8
73
4
74
0
42
0.000000001
43
0.0000000001
44
0.0000000001
40
0
40
0
40
0
40
0
40
1
40
1
40
1
40
1
10
150.8522228049618
20
-32.070595886938669
30
0
10
150.8522228049618
20
-31.518311137108359
30
0
10
150.40450755479273
20
-31.070595886938655
30
0
10
149.8522228049618
20
-31.070595886939291
30
0
0
LINE
5
557
100
AcDbEntity
8
0
100
AcDbLine
10
150.8522228049618
20
-32.070595886938669
30
0
11
150.85222280496183
21
-34.570595886939088
31
0
0
SPLINE
5
558
100
AcDbEntity
8
0
100
AcDbSpline
70
0
71
3
72
8
73
4
74
0
42
0.000000001
43
0.0000000001
44
0.0000000001
40
0
40
0
40
0
40
0
40
1
40
1
40
1
40
1
10
149.85222280496177
20
-35.570595886939131
30
0
10
150.40450755479273
20
-35.570595886939131
30
0
10
150.85222280496183
20
-35.122880636769395
30
0
10
150.85222280496183
20
-34.570595886939088
30
0
0
LINE
5
559
100
AcDbEntity
8
0
100
AcDbLine
10
149.85222280496177
20
-35.570595886939131
30
0
11
149.8522228049618
21
-40.570595886938669
31
0
0
SPLINE
5
560
100
AcDbEntity
8
0
100
AcDbSpline
70
0
71
3
72
8
73
4
74
0
42
0.000000001
43
0.0000000001
44
0.0000000001
40
0
40
0
40
0
40
0
40
1
40
1
40
1
40
1
10
131.80222327061665
20
-41.57059588693869
30
0
10
131.80222327061665
20
-41.01831113710837
30
0
10
131.35450802044758
20
-40.570595886938648
30
0
10
130.80222327061659
20
-40.570595886938648
30
0
0
LINE
5
561
100
AcDbEntity
8
0
100
AcDbLine
10
131.80222327061665
20
-41.57059588693869
30
0
11
131.80222327061665
21
-44.07059588693911
31
0
0
SPLINE
5
562
100
AcDbEntity
8
0
100
AcDbSpline
70
0
71
3
72
8
73
4
74
0
42
0.000000001
43
0.0000000001
44
0.0000000001
40
0
40
0
40
0
40
0
40
1
40
1
40
1
40
1
10
130.80222327061662
20
-45.070595886939138
30
0
10
131.35450802044755
20
-45.070595886939138
30
0
10
131.80222327061665
20
-44.622880636769423
30
0
10
131.80222327061665
20
-44.07059588693911
30
0
0
LINE
5
563
100
AcDbEntity
8
0
100
AcDbLine
10
130.80222327061662
20
-45.070595886939138
30
0
11
116.80222327061674
21
-45.070595886939124
31
0
0
SPLINE
5
564
100
AcDbEntity
8
0
100
AcDbSpline
70
0
71
3
72
8
73
4
74
0
42
0.000000001
43
0.0000000001
44
0.0000000001
40
0
40
0
40
0
40
0
40
1
40
1
40
1
40
1
10
115.80222327061671
20
-44.07059588693911
30
0
10
115.80222327061671
20
-44.622880636769423
30
0
10
116.24993852078578
20
-45.070595886939124
30
0
10
116.80222327061674
20
-45.070595886939124
30
0
0
LINE
5
565
100
AcDbEntity
8
0
100
AcDbLine
10
115.80222327061671
20
-44.07059588693911
30
0
11
115.80222327061671
21
-41.57059588693869
31
0
0
SPLINE
5
566
100
AcDbEntity
8
0
100
AcDbSpline
70
0
71
3
72
8
73
4
74
0
42
0.000000001
43
0.0000000001
44
0.0000000001
40
0
40
0
40
0
40
0
40
1
40
1
40
1
40
1
10
116.80222113597634
20
-40.570595886940595
30
0
10
116.24993721977538
20
-40.570597065868618
30
0
10
115.80222327061655
20
-41.018311970737031
30
0
10
115.80222327061671
20
-41.57059588693869
30
0
0
LINE
5
567
100
AcDbEntity
8
0
100
AcDbLine
10
116.80222113597634
20
-40.570595886940595
30
0
11
116.80222113597634
21
-35.570595886936573
31
0
0
SPLINE
5
568
100
AcDbEntity
8
0
100
AcDbSpline
70
0
71
3
72
8
73
4
74
0
42
0.000000001
43
0.0000000001
44
0.0000000001
40
0
40
0
40
0
40
0
40
1
40
1
40
1
40
1
10
115.80222327061671
20
-34.570595886939088
30
0
10
115.80222327061647
20
-35.122879803140606
30
0
10
116.24993721977538
20
-35.570594708008912
30
0
10
116.80222113597634
20
-35.570595886936573
30
0
0
LINE
5
569
100
AcDbEntity
8
0
100
AcDbLine
10
115.80222327061671
20
-34.570595886939088
30
0
11
115.80222327061671
21
-32.070595886938669
31
0
0
SPLINE
5
570
100
AcDbEntity
8
0
100
AcDbSpline
70
0
71
3
72
8
73
4
74
0
42
0.000000001
43
0.0000000001
44
0.0000000001
40
0
40
0
40
0
40
0
40
1
40
1
40
1
40
1
10
116.80222327061674
20
-31.070595886938655
30
0
10
116.24993852078582
20
-31.070595886938186
30
0
10
115.80222327061685
20
-31.518311137108039
30
0
10
115.80222327061671
20
-32.070595886938669
30
0
0
LINE
5
571
100
AcDbEntity
8
0
100
AcDbLine
10
116.80222327061674
20
-31.070595886938655
30
0
11
130.80222327061662
21
-31.070595886939284
31
0
0
SPLINE
5
572
100
AcDbEntity
8
0
100
AcDbSpline
70
0
71
3
72
8
73
4
74
0
42
0.000000001
43
0.0000000001
44
0.0000000001
40
0
40
0
40
0
40
0
40
1
40
1
40
1
40
1
10
131.80222327061665
20
-32.070595886938669
30
0
10
131.80222327061665
20
-31.518311137108377
30
0
10
131.35450802044758
20
-31.070595886938644
30
0
10
130.80222327061662
20
-31.070595886939284
30
0
0
LINE
5
573
100
AcDbEntity
8
0
100
AcDbLine
10
131.80222327061665
20
-32.070595886938669
30
0
11
131.80222327061665
21
-34.570595886939088
31
0
0
SPLINE
5
574
100
AcDbEntity
8
0
100
AcDbSpline
70
0
71
3
72
8
73
4
74
0
42
0.000000001
43
0.0000000001
44
0.0000000001
40
0
40
0
40
0
40
0
40
1
40
1
40
1
40
1
10
130.80222327061662
20
-35.570595886939117
30
0
10
131.35450802044755
20
-35.570595886939117
30
0
10
131.80222327061665
20
-35.122880636769409
30
0
10
131.80222327061665
20
-34.570595886939088
30
0
0
LINE
5
575
100
AcDbEntity
8
0
100
AcDbLine
10
130.80222327061662
20
-35.570595886939117
30
0
11
130.80222327061659
21
-40.570595886938648
31
0
0
SPLINE
5
576
100
AcDbEntity
8
0
100
AcDbSpline
70
0
71
3
72
8
73
4
74
0
42
0.000000001
43
0.0000000001
44
0.0000000001
40
0
40
0
40
0
40
0
40
1
40
1
40
1
40
1
10
58.652223270612645
20
-34.570595186980192
30
0
10
58.652223270612645
20
-35.122878921332656
30
0
10
59.099936935966326
20
-35.570593750875744
30
0
10
59.652220670317178
20
-35.570595186976362
30
0
0
LINE
5
577
100
AcDbEntity
8
0
100
AcDbLine
10
58.652223270612645
20
-34.570595186980192
30
0
11
58.652223270612616
21
-32.070595186979759
31
0
0
SPLINE
5
578
100
AcDbEntity
8
0
100
AcDbSpline
70
0
71
3
72
8
73
4
74
0
42
0.000000001
43
0.0000000001
44
0.0000000001
40
0
40
0
40
0
40
0
40
1
40
1
40
1
40
1
10
59.652223270612339
20
-31.07059518697973
30
0
10
59.099938520781663
20
-31.07059518697973
30
0
10
58.652223270612616
20
-31.518310437149463
30
0
10
58.652223270612616
20
-32.070595186979759
30
0
0
LINE
5
579
100
AcDbEntity
8
0
100
AcDbLine
10
59.652223270612339
20
-31.07059518697973
30
0
11
73.652223270611941
21
-31.070592557032917
31
0
0
SPLINE
5
580
100
AcDbEntity
8
0
100
AcDbSpline
70
0
71
3
72
8
73
4
74
0
42
0.000000001
43
0.0000000001
44
0.0000000001
40
0
40
0
40
0
40
0
40
1
40
1
40
1
40
1
10
74.652223270612552
20
-32.070595186979773
30
0
10
74.652223270612552
20
-31.518310437149477
30
0
10
74.204508020443171
20
-31.070595186979748
30
0
10
73.652223270612438
20
-31.07059518697973
30
0
0
LINE
5
581
100
AcDbEntity
8
0
100
AcDbLine
10
74.652223270612552
20
-32.070595186979773
30
0
11
74.652223270612552
21
-34.570597787275616
31
0
0
SPLINE
5
582
100
AcDbEntity
8
0
100
AcDbSpline
70
0
71
3
72
8
73
4
74
0
42
0.000000001
43
0.0000000001
44
0.0000000001
40
0
40
0
40
0
40
0
40
1
40
1
40
1
40
1
10
73.652220670320347
20
-35.570595186976362
30
0
10
74.204505420149061
20
-35.570596623080206
30
0
10
74.652221834509064
20
-35.122882537104644
30
0
10
74.652223270612552
20
-34.570597787275616
30
0
0
LINE
5
583
100
AcDbEntity
8
0
100
AcDbLine
10
73.652220670320347
20
-35.570595186976362
30
0
11
73.652220670320347
21
-40.570595186975922
31
0
0
SPLINE
5
584
100
AcDbEntity
8
0
100
AcDbSpline
70
0
71
3
72
8
73
4
74
0
42
0.000000001
43
0.0000000001
44
0.0000000001
40
0
40
0
40
0
40
0
40
1
40
1
40
1
40
1
10
74.65222067032046
20
-41.570595186975929
30
0
10
74.65222067032046
20
-41.01831043714563
30
0
10
74.204505420151023
20
-40.570595186975922
30
0
10
73.652220670320347
20
-40.570595186975922
30
0
0
LINE
5
585
100
AcDbEntity
8
0
100
AcDbLine
10
74.65222067032046
20
-41.570595186975929
30
0
11
74.65222067032046
21
-44.070595186976348
31
0
0
SPLINE
5
586
100
AcDbEntity
8
0
100
AcDbSpline
70
0
71
3
72
8
73
4
74
0
42
0.000000001
43
0.0000000001
44
0.0000000001
40
0
40
0
40
0
40
0
40
1
40
1
40
1
40
1
10
73.652220670320347
20
-45.070595186976384
30
0
10
74.204505420151051
20
-45.070595186976384
30
0
10
74.652220670320489
20
-44.622879936806669
30
0
10
74.65222067032046
20
-44.070595186976348
30
0
0
LINE
5
587
100
AcDbEntity
8
0
100
AcDbLine
10
73.652220670320347
20
-45.070595186976384
30
0
11
59.652220670320339
21
-45.070594564379
31
0
0
SPLINE
5
588
100
AcDbEntity
8
0
100
AcDbSpline
70
0
71
3
72
8
73
4
74
0
42
0.000000001
43
0.0000000001
44
0.0000000001
40
0
40
0
40
0
40
0
40
1
40
1
40
1
40
1
10
58.652220670320567
20
-44.070595186976348
30
0
10
58.652220670320581
20
-44.622879936806676
30
0
10
59.099935920489543
20
-45.070595186976405
30
0
10
59.652220670320276
20
-45.070595186976384
30
0
0
LINE
5
589
100
AcDbEntity
8
0
100
AcDbLine
10
58.652220670320567
20
-44.070595186976348
30
0
11
58.652222804958249
21
-41.570595186977869
31
0
0
SPLINE
5
590
100
AcDbEntity
8
0
100
AcDbSpline
70
0
71
3
72
8
73
4
74
0
42
0.000000001
43
0.0000000001
44
0.0000000001
40
0
40
0
40
0
40
0
40
1
40
1
40
1
40
1
10
59.652220204663138
20
-40.57059518698167
30
0
10
59.099936470312251
20
-40.570596623082331
30
0
10
58.652222804958249
20
-41.018311452625383
30
0
10
58.652222804958249
20
-41.570595186977869
30
0
0
LINE
5
591
100
AcDbEntity
8
0
100
AcDbLine
10
59.652220204663138
20
-40.57059518698167
30
0
11
59.652220670317178
21
-35.570595186976369
31
0
0
SPLINE
5
592
100
AcDbEntity
8
0
100
AcDbSpline
70
0
71
3
72
8
73
4
74
0
42
0.000000001
43
0.0000000001
44
0.0000000001
40
0
40
0
40
0
40
0
40
1
40
1
40
1
40
1
10
39.618177709633557
20
-34.570595186980206
30
0
10
39.618177709633557
20
-35.122878921332671
30
0
10
40.065891374987245
20
-35.570593750875751
30
0
10
40.618175109338146
20
-35.570595186976362
30
0
0
LINE
5
593
100
AcDbEntity
8
0
100
AcDbLine
10
39.618177709633557
20
-34.570595186980206
30
0
11
39.618177709633557
21
-32.070595186979773
31
0
0
SPLINE
5
594
100
AcDbEntity
8
0
100
AcDbSpline
70
0
71
3
72
8
73
4
74
0
42
0.000000001
43
0.0000000001
44
0.0000000001
40
0
40
0
40
0
40
0
40
1
40
1
40
1
40
1
10
40.618177709633272
20
-31.07059518697973
30
0
10
40.06589295980266
20
-31.070595186979748
30
0
10
39.618177709633557
20
-31.518310437149463
30
0
10
39.618177709633557
20
-32.070595186979773
30
0
0
LINE
5
595
100
AcDbEntity
8
0
100
AcDbLine
10
40.618177709633272
20
-31.07059518697973
30
0
11
54.618177709632931
21
-31.070592557032917
31
0
0
SPLINE
5
596
100
AcDbEntity
8
0
100
AcDbSpline
70
0
71
3
72
8
73
4
74
0
42
0.000000001
43
0.0000000001
44
0.0000000001
40
0
40
0
40
0
40
0
40
1
40
1
40
1
40
1
10
55.618177709633457
20
-32.070595186979773
30
0
10
55.618177709633457
20
-31.518310437149463
30
0
10
55.170462459464069
20
-31.07059518697973
30
0
10
54.618177709633436
20
-31.070595186979745
30
0
0
LINE
5
597
100
AcDbEntity
8
0
100
AcDbLine
10
55.618177709633457
20
-32.070595186979773
30
0
11
55.618177709633457
21
-34.570597787275602
31
0
0
SPLINE
5
598
100
AcDbEntity
8
0
100
AcDbSpline
70
0
71
3
72
8
73
4
74
0
42
0.000000001
43
0.0000000001
44
0.0000000001
40
0
40
0
40
0
40
0
40
1
40
1
40
1
40
1
10
54.618175109341294
20
-35.570595186976377
30
0
10
55.170459859169995
20
-35.570596623080206
30
0
10
55.618176273529954
20
-35.122882537104644
30
0
10
55.618177709633457
20
-34.570597787275602
30
0
0
LINE
5
599
100
AcDbEntity
8
0
100
AcDbLine
10
54.618175109341294
20
-35.570595186976377
30
0
11
54.618175109341287
21
-40.570595186975936
31
0
0
SPLINE
5
600
100
AcDbEntity
8
0
100
AcDbSpline
70
0
71
3
72
8
73
4
74
0
42
0.000000001
43
0.0000000001
44
0.0000000001
40
0
40
0
40
0
40
0
40
1
40
1
40
1
40
1
10
55.61817510934128
20
-41.570595186975929
30
0
10
55.61817510934128
20
-41.018310437145615
30
0
10
55.170459859171892
20
-40.570595186975936
30
0
10
54.618175109341287
20
-40.570595186975936
30
0
0
LINE
5
601
100
AcDbEntity
8
0
100
AcDbLine
10
55.61817510934128
20
-41.570595186975929
30
0
11
55.618175109341301
21
-44.070595186976348
31
0
0
SPLINE
5
602
100
AcDbEntity
8
0
100
AcDbSpline
70
0
71
3
72
8
73
4
74
0
42
0.000000001
43
0.0000000001
44
0.0000000001
40
0
40
0
40
0
40
0
40
1
40
1
40
1
40
1
10
54.618175109341287
20
-45.070595186976391
30
0
10
55.170459859171885
20
-45.070595186976384
30
0
10
55.618175109341301
20
-44.622879936806669
30
0
10
55.618175109341301
20
-44.070595186976348
30
0
0
LINE
5
603
100
AcDbEntity
8
0
100
AcDbLine
10
54.618175109341287
20
-45.070595186976391
30
0
11
40.618175109341152
21
-45.070594564379036
31
0
0
SPLINE
5
604
100
AcDbEntity
8
0
100
AcDbSpline
70
0
71
3
72
8
73
4
74
0
42
0.000000001
43
0.0000000001
44
0.0000000001
40
0
40
0
40
0
40
0
40
1
40
1
40
1
40
1
10
39.618175109341387
20
-44.070595186976348
30
0
10
39.618175109341387
20
-44.622879936806669
30
0
10
40.065890359510476
20
-45.070595186976405
30
0
10
40.618175109341081
20
-45.070595186976405
30
0
0
LINE
5
605
100
AcDbEntity
8
0
100
AcDbLine
10
39.618175109341387
20
-44.070595186976348
30
0
11
39.618177243979147
21
-41.570595186977854
31
0
0
SPLINE
5
606
100
AcDbEntity
8
0
100
AcDbSpline
70
0
71
3
72
8
73
4
74
0
42
0.000000001
43
0.0000000001
44
0.0000000001
40
0
40
0
40
0
40
0
40
1
40
1
40
1
40
1
10
40.618174643684064
20
-40.57059518698167
30
0
10
40.065890909333284
20
-40.570596623082309
30
0
10
39.618177243979147
20
-41.018311452625369
30
0
10
39.618177243979147
20
-41.570595186977854
30
0
0
LINE
5
607
100
AcDbEntity
8
0
100
AcDbLine
10
40.618174643684064
20
-40.57059518698167
30
0
11
40.618175109338146
21
-35.570595186976369
31
0
0
SPLINE
5
608
100
AcDbEntity
8
0
100
AcDbSpline
70
0
71
3
72
8
73
4
74
0
42
0.000000001
43
0.0000000001
44
0.0000000001
40
0
40
0
40
0
40
0
40
1
40
1
40
1
40
1
10
20.584132148654582
20
-34.570595186980192
30
0
10
20.584132148654582
20
-35.122878921332656
30
0
10
21.031845814008246
20
-35.570593750875723
30
0
10
21.584129548359144
20
-35.570595186976362
30
0
0
LINE
5
609
100
AcDbEntity
8
0
100
AcDbLine
10
20.584132148654582
20
-34.570595186980192
30
0
11
20.584132148654582
21
-32.070595186979759
31
0
0
SPLINE
5
610
100
AcDbEntity
8
0
100
AcDbSpline
70
0
71
3
72
8
73
4
74
0
42
0.000000001
43
0.0000000001
44
0.0000000001
40
0
40
0
40
0
40
0
40
1
40
1
40
1
40
1
10
21.584132148654223
20
-31.070595186979748
30
0
10
21.031847398823583
20
-31.07059518697973
30
0
10
20.584132148654582
20
-31.518310437149463
30
0
10
20.584132148654582
20
-32.070595186979759
30
0
0
LINE
5
611
100
AcDbEntity
8
0
100
AcDbLine
10
21.584132148654223
20
-31.070595186979748
30
0
11
35.58413214865395
21
-31.070592557032931
31
0
0
SPLINE
5
612
100
AcDbEntity
8
0
100
AcDbSpline
70
0
71
3
72
8
73
4
74
0
42
0.000000001
43
0.0000000001
44
0.0000000001
40
0
40
0
40
0
40
0
40
1
40
1
40
1
40
1
10
36.584132148654462
20
-32.070595186979773
30
0
10
36.584132148654462
20
-31.518310437149477
30
0
10
36.136416898485066
20
-31.07059518697973
30
0
10
35.584132148654447
20
-31.07059518697973
30
0
0
LINE
5
613
100
AcDbEntity
8
0
100
AcDbLine
10
36.584132148654462
20
-32.070595186979773
30
0
11
36.58413214865444
21
-34.570597787275616
31
0
0
SPLINE
5
614
100
AcDbEntity
8
0
100
AcDbSpline
70
0
71
3
72
8
73
4
74
0
42
0.000000001
43
0.0000000001
44
0.0000000001
40
0
40
0
40
0
40
0
40
1
40
1
40
1
40
1
10
35.584129548362128
20
-35.570595186976362
30
0
10
36.136414298190864
20
-35.570596623080206
30
0
10
36.584130712550845
20
-35.12288253710463
30
0
10
36.58413214865444
20
-34.570597787275616
30
0
0
LINE
5
615
100
AcDbEntity
8
0
100
AcDbLine
10
35.584129548362128
20
-35.570595186976362
30
0
11
35.584129548362142
21
-40.570595186975922
31
0
0
SPLINE
5
616
100
AcDbEntity
8
0
100
AcDbSpline
70
0
71
3
72
8
73
4
74
0
42
0.000000001
43
0.0000000001
44
0.0000000001
40
0
40
0
40
0
40
0
40
1
40
1
40
1
40
1
10
36.584129548362128
20
-41.570595186975929
30
0
10
36.584129548362128
20
-41.01831043714563
30
0
10
36.136414298192769
20
-40.570595186975922
30
0
10
35.584129548362142
20
-40.570595186975922
30
0
0
LINE
5
617
100
AcDbEntity
8
0
100
AcDbLine
10
36.584129548362128
20
-41.570595186975929
30
0
11
36.584129548362142
21
-44.070595186976348
31
0
0
SPLINE
5
618
100
AcDbEntity
8
0
100
AcDbSpline
70
0
71
3
72
8
73
4
74
0
42
0.000000001
43
0.0000000001
44
0.0000000001
40
0
40
0
40
0
40
0
40
1
40
1
40
1
40
1
10
35.584129548362128
20
-45.070595186976391
30
0
10
36.136414298192754
20
-45.070595186976384
30
0
10
36.584129548362142
20
-44.622879936806676
30
0
10
36.584129548362142
20
-44.070595186976348
30
0
0
LINE
5
619
100
AcDbEntity
8
0
100
AcDbLine
10
35.584129548362128
20
-45.070595186976391
30
0
11
21.584129548361982
21
-45.070594564379
31
0
0
SPLINE
5
620
100
AcDbEntity
8
0
100
AcDbSpline
70
0
71
3
72
8
73
4
74
0
42
0.000000001
43
0.0000000001
44
0.0000000001
40
0
40
0
40
0
40
0
40
1
40
1
40
1
40
1
10
20.584129548362256
20
-44.070595186976348
30
0
10
20.584129548362252
20
-44.622879936806676
30
0
10
21.031844798531264
20
-45.070595186976384
30
0
10
21.584129548361922
20
-45.070595186976369
30
0
0
LINE
5
621
100
AcDbEntity
8
0
100
AcDbLine
10
20.584129548362256
20
-44.070595186976348
30
0
11
20.584131683000169
21
-41.570595186977869
31
0
0
SPLINE
5
622
100
AcDbEntity
8
0
100
AcDbSpline
70
0
71
3
72
8
73
4
74
0
42
0.000000001
43
0.0000000001
44
0.0000000001
40
0
40
0
40
0
40
0
40
1
40
1
40
1
40
1
10
21.584129082705076
20
-40.570595186981684
30
0
10
21.031845348354146
20
-40.570596623082331
30
0
10
20.584131683000166
20
-41.018311452625383
30
0
10
20.584131683000169
20
-41.570595186977869
30
0
0
LINE
5
623
100
AcDbEntity
8
0
100
AcDbLine
10
21.584129082705076
20
-40.570595186981684
30
0
11
21.584129548359144
21
-35.570595186976369
31
0
0
SPLINE
5
624
100
AcDbEntity
8
0
100
AcDbSpline
70
0
71
3
72
8
73
4
74
0
42
0.000000001
43
0.0000000001
44
0.0000000001
40
0
40
0
40
0
40
0
40
1
40
1
40
1
40
1
10
1.5022232706091432
20
-34.570595186980192
30
0
10
1.5022232706091432
20
-35.122878921332656
30
0
10
1.9499369359631535
20
-35.570593750875744
30
0
10
2.5022206703137484
20
-35.570595186976377
30
0
0
LINE
5
625
100
AcDbEntity
8
0
100
AcDbLine
10
1.5022232706091432
20
-34.570595186980192
30
0
11
1.5022232706091574
21
-32.070595186979759
31
0
0
SPLINE
5
626
100
AcDbEntity
8
0
100
AcDbSpline
70
0
71
3
72
8
73
4
74
0
42
0.000000001
43
0.0000000001
44
0.0000000001
40
0
40
0
40
0
40
0
40
1
40
1
40
1
40
1
10
2.5022232706091301
20
-31.07059518697973
30
0
10
1.9499385207781272
20
-31.07059518697973
30
0
10
1.5022232706091574
20
-31.518310437149463
30
0
10
1.5022232706091574
20
-32.070595186979759
30
0
0
LINE
5
627
100
AcDbEntity
8
0
100
AcDbLine
10
2.5022232706091301
20
-31.07059518697973
30
0
11
16.502223270608557
21
-31.070592557032963
31
0
0
SPLINE
5
628
100
AcDbEntity
8
0
100
AcDbSpline
70
0
71
3
72
8
73
4
74
0
42
0.000000001
43
0.0000000001
44
0.0000000001
40
0
40
0
40
0
40
0
40
1
40
1
40
1
40
1
10
17.502223270609065
20
-32.070595186979759
30
0
10
17.502223270609065
20
-31.518310437149463
30
0
10
17.05450802043995
20
-31.070595186979748
30
0
10
16.502223270609051
20
-31.070595186979745
30
0
0
LINE
5
629
100
AcDbEntity
8
0
100
AcDbLine
10
17.502223270609065
20
-32.070595186979759
30
0
11
17.502223270609047
21
-34.570597787275616
31
0
0
SPLINE
5
630
100
AcDbEntity
8
0
100
AcDbSpline
70
0
71
3
72
8
73
4
74
0
42
0.000000001
43
0.0000000001
44
0.0000000001
40
0
40
0
40
0
40
0
40
1
40
1
40
1
40
1
10
16.502220670316426
20
-35.570595186976362
30
0
10
17.054505420145581
20
-35.57059662308022
30
0
10
17.502221834505228
20
-35.122882537104644
30
0
10
17.502223270609047
20
-34.570597787275616
30
0
0
LINE
5
631
100
AcDbEntity
8
0
100
AcDbLine
10
16.502220670316426
20
-35.570595186976362
30
0
11
16.50222067031644
21
-40.570595186975922
31
0
0
SPLINE
5
632
100
AcDbEntity
8
0
100
AcDbSpline
70
0
71
3
72
8
73
4
74
0
42
0.000000001
43
0.0000000001
44
0.0000000001
40
0
40
0
40
0
40
0
40
1
40
1
40
1
40
1
10
17.502220670316426
20
-41.570595186975936
30
0
10
17.502220670316426
20
-41.01831043714563
30
0
10
17.054505420147343
20
-40.570595186975922
30
0
10
16.50222067031644
20
-40.570595186975922
30
0
0
LINE
5
633
100
AcDbEntity
8
0
100
AcDbLine
10
17.502220670316426
20
-41.570595186975936
30
0
11
17.50222067031644
21
-44.070595186976348
31
0
0
SPLINE
5
634
100
AcDbEntity
8
0
100
AcDbSpline
70
0
71
3
72
8
73
4
74
0
42
0.000000001
43
0.0000000001
44
0.0000000001
40
0
40
0
40
0
40
0
40
1
40
1
40
1
40
1
10
16.502220670316426
20
-45.070595186976377
30
0
10
17.054505420147336
20
-45.070595186976384
30
0
10
17.50222067031644
20
-44.622879936806676
30
0
10
17.50222067031644
20
-44.070595186976348
30
0
0
LINE
5
635
100
AcDbEntity
8
0
100
AcDbLine
10
16.502220670316426
20
-45.070595186976377
30
0
11
2.5022206703165839
21
-45.070594564379
31
0
0
SPLINE
5
636
100
AcDbEntity
8
0
100
AcDbSpline
70
0
71
3
72
8
73
4
74
0
42
0.000000001
43
0.0000000001
44
0.0000000001
40
0
40
0
40
0
40
0
40
1
40
1
40
1
40
1
10
1.5022206703165373
20
-44.070595186976348
30
0
10
1.5022206703165231
20
-44.622879936806676
30
0
10
1.9499359204855071
20
-45.070595186976384
30
0
10
2.502220670316524
20
-45.070595186976384
30
0
0
LINE
5
637
100
AcDbEntity
8
0
100
AcDbLine
10
1.5022206703165373
20
-44.070595186976348
30
0
11
1.5022228049544342
21
-41.570595186977869
31
0
0
SPLINE
5
638
100
AcDbEntity
8
0
100
AcDbSpline
70
0
71
3
72
8
73
4
74
0
42
0.000000001
43
0.0000000001
44
0.0000000001
40
0
40
0
40
0
40
0
40
1
40
1
40
1
40
1
10
2.5022202046596496
20
-40.57059518698167
30
0
10
1.9499364703087219
20
-40.570596623082309
30
0
10
1.5022228049544339
20
-41.018311452625369
30
0
10
1.5022228049544342
20
-41.570595186977869
30
0
0
LINE
5
639
100
AcDbEntity
8
0
100
AcDbLine
10
2.5022202046596496
20
-40.57059518698167
30
0
11
2.5022206703137484
21
-35.570595186976384
31
0
0
SPLINE
5
640
100
AcDbEntity
8
0
100
AcDbSpline
70
0
71
3
72
8
73
4
74
0
42
0.000000001
43
0.0000000001
44
0.0000000001
40
0
40
0
40
0
40
0
40
1
40
1
40
1
40
1
10
-17.54777886403086
20
-34.570594341641169
30
0
10
-17.54777886403086
20
-35.122878909621669
30
0
10
-17.100063897668242
20
-35.570594084465554
30
0
10
-16.547779329687732
20
-35.570594341640557
30
0
0
LINE
5
641
100
AcDbEntity
8
0
100
AcDbLine
10
-17.54777886403086
20
-34.570594341641169
30
0
11
-17.54777886403086
21
-32.070594341640749
31
0
0
SPLINE
5
642
100
AcDbEntity
8
0
100
AcDbSpline
70
0
71
3
72
8
73
4
74
0
42
0.000000001
43
0.0000000001
44
0.0000000001
40
0
40
0
40
0
40
0
40
1
40
1
40
1
40
1
10
-16.547778864030743
20
-31.07059434164136
30
0
10
-17.100063613861771
20
-31.070594341641311
30
0
10
-17.547778864031041
20
-31.518309591810848
30
0
10
-17.54777886403086
20
-32.070594341640749
30
0
0
LINE
5
643
100
AcDbEntity
8
0
100
AcDbLine
10
-16.547778864030743
20
-31.07059434164136
30
0
11
-2.5477788640309162
21
-31.070594341640735
31
0
0
SPLINE
5
644
100
AcDbEntity
8
0
100
AcDbSpline
70
0
71
3
72
8
73
4
74
0
42
0.000000001
43
0.0000000001
44
0.0000000001
40
0
40
0
40
0
40
0
40
1
40
1
40
1
40
1
10
-1.5477788640309158
20
-32.070594341640749
30
0
10
-1.5477788640306664
20
-31.518309591810443
30
0
10
-1.9954941142001914
20
-31.07059434164082
30
0
10
-2.5477788640309167
20
-31.070594341640735
30
0
0
LINE
5
645
100
AcDbEntity
8
0
100
AcDbLine
10
-1.5477788640309158
20
-32.070594341640749
30
0
11
-1.5477788640312629
21
-34.570594807297766
31
0
0
SPLINE
5
646
100
AcDbEntity
8
0
100
AcDbSpline
70
0
71
3
72
8
73
4
74
0
42
0.000000001
43
0.0000000001
44
0.0000000001
40
0
40
0
40
0
40
0
40
1
40
1
40
1
40
1
10
-2.5477793296876801
20
-35.570594341640408
30
0
10
-1.995494579856788
20
-35.570594598816143
30
0
10
-1.5477791212060166
20
-35.122879557128726
30
0
10
-1.5477788640312629
20
-34.570594807297766
30
0
0
LINE
5
647
100
AcDbEntity
8
0
100
AcDbLine
10
-2.5477793296876801
20
-35.570594341640408
30
0
11
-2.5477793296876938
21
-40.570594341640565
31
0
0
SPLINE
5
648
100
AcDbEntity
8
0
100
AcDbSpline
70
0
71
3
72
8
73
4
74
0
42
0.000000001
43
0.0000000001
44
0.0000000001
40
0
40
0
40
0
40
0
40
1
40
1
40
1
40
1
10
-1.5477793296876794
20
-41.570594341640607
30
0
10
-1.5477793296876929
20
-41.018309591809647
30
0
10
-1.9954945798571211
20
-40.570594341640586
30
0
10
-2.5477793296876938
20
-40.570594341640565
30
0
0
LINE
5
649
100
AcDbEntity
8
0
100
AcDbLine
10
-1.5477793296876794
20
-41.570594341640607
30
0
11
-1.5477793296876929
21
-44.070594341640358
31
0
0
SPLINE
5
650
100
AcDbEntity
8
0
100
AcDbSpline
70
0
71
3
72
8
73
4
74
0
42
0.000000001
43
0.0000000001
44
0.0000000001
40
0
40
0
40
0
40
0
40
1
40
1
40
1
40
1
10
-2.5477793296876938
20
-45.070594341640408
30
0
10
-1.9954945798571211
20
-45.070594341640408
30
0
10
-1.5477793296876929
20
-44.622879091470693
30
0
10
-1.5477793296876929
20
-44.070594341640358
30
0
0
LINE
5
651
100
AcDbEntity
8
0
100
AcDbLine
10
-2.5477793296876938
20
-45.070594341640408
30
0
11
-16.547779329687504
21
-45.070594341640415
31
0
0
SPLINE
5
652
100
AcDbEntity
8
0
100
AcDbSpline
70
0
71
3
72
8
73
4
74
0
42
0.000000001
43
0.0000000001
44
0.0000000001
40
0
40
0
40
0
40
0
40
1
40
1
40
1
40
1
10
-17.547779329687636
20
-44.070594341640373
30
0
10
-17.547779329687625
20
-44.622879091470693
30
0
10
-17.100064079518528
20
-45.070594341640408
30
0
10
-16.547779329687504
20
-45.070594341640415
30
0
0
LINE
5
653
100
AcDbEntity
8
0
100
AcDbLine
10
-17.547779329687636
20
-44.070594341640373
30
0
11
-17.547777195046443
21
-41.570594341643357
31
0
0
SPLINE
5
654
100
AcDbEntity
8
0
100
AcDbSpline
70
0
71
3
72
8
73
4
74
0
42
0.000000001
43
0.0000000001
44
0.0000000001
40
0
40
0
40
0
40
0
40
1
40
1
40
1
40
1
10
-16.547777660702316
20
-40.57059434164394
30
0
10
-17.100062228683122
20
-40.570594598818339
30
0
10
-17.547777195046432
20
-41.018309773662843
30
0
10
-17.547777195046443
20
-41.570594341643357
30
0
0
LINE
5
655
100
AcDbEntity
8
0
100
AcDbLine
10
-16.547777660702316
20
-40.57059434164394
30
0
11
-16.547779329687732
21
-35.570594341640557
31
0
0
SPLINE
5
656
100
AcDbEntity
8
0
100
AcDbSpline
70
0
71
3
72
8
73
4
74
0
42
0.000000001
43
0.0000000001
44
0.0000000001
40
0
40
0
40
0
40
0
40
1
40
1
40
1
40
1
10
-36.605079765160362
20
-34.570594041132871
30
0
10
-36.605079765160362
20
-35.122878609113364
30
0
10
-36.157364798798028
20
-35.570593783957243
30
0
10
-35.605080230817563
20
-35.570594041132246
30
0
0
LINE
5
657
100
AcDbEntity
8
0
100
AcDbLine
10
-36.605079765160362
20
-34.570594041132871
30
0
11
-36.605079765160362
21
-32.070594041132466
31
0
0
SPLINE
5
658
100
AcDbEntity
8
0
100
AcDbSpline
70
0
71
3
72
8
73
4
74
0
42
0.000000001
43
0.0000000001
44
0.0000000001
40
0
40
0
40
0
40
0
40
1
40
1
40
1
40
1
10
-35.605079765159644
20
-31.070594041133063
30
0
10
-36.157364514991244
20
-31.070594041132992
30
0
10
-36.605079765160532
20
-31.518309291302536
30
0
10
-36.605079765160362
20
-32.070594041132466
30
0
0
LINE
5
659
100
AcDbEntity
8
0
100
AcDbLine
10
-35.605079765159644
20
-31.070594041133063
30
0
11
-21.605079765160461
21
-31.070594041132424
31
0
0
SPLINE
5
660
100
AcDbEntity
8
0
100
AcDbSpline
70
0
71
3
72
8
73
4
74
0
42
0.000000001
43
0.0000000001
44
0.0000000001
40
0
40
0
40
0
40
0
40
1
40
1
40
1
40
1
10
-20.605079765160468
20
-32.070594041132466
30
0
10
-20.605079765160244
20
-31.518309291302145
30
0
10
-21.052795015329714
20
-31.07059404113248
30
0
10
-21.605079765160461
20
-31.070594041132424
30
0
0
LINE
5
661
100
AcDbEntity
8
0
100
AcDbLine
10
-20.605079765160468
20
-32.070594041132466
30
0
11
-20.605079765160767
21
-34.570594506789497
31
0
0
SPLINE
5
662
100
AcDbEntity
8
0
100
AcDbSpline
70
0
71
3
72
8
73
4
74
0
42
0.000000001
43
0.0000000001
44
0.0000000001
40
0
40
0
40
0
40
0
40
1
40
1
40
1
40
1
10
-21.605080230817219
20
-35.570594041132125
30
0
10
-21.052795480986333
20
-35.570594298307832
30
0
10
-20.60508002233556
20
-35.122879256620458
30
0
10
-20.605079765160767
20
-34.570594506789497
30
0
0
LINE
5
663
100
AcDbEntity
8
0
100
AcDbLine
10
-21.605080230817219
20
-35.570594041132125
30
0
11
-21.605080230817219
21
-40.570594041132296
31
0
0
SPLINE
5
664
100
AcDbEntity
8
0
100
AcDbSpline
70
0
71
3
72
8
73
4
74
0
42
0.000000001
43
0.0000000001
44
0.0000000001
40
0
40
0
40
0
40
0
40
1
40
1
40
1
40
1
10
-20.605080230817229
20
-41.57059404113231
30
0
10
-20.605080230817229
20
-41.018309291301371
30
0
10
-21.052795480986624
20
-40.570594041132281
30
0
10
-21.605080230817219
20
-40.570594041132296
30
0
0
LINE
5
665
100
AcDbEntity
8
0
100
AcDbLine
10
-20.605080230817229
20
-41.57059404113231
30
0
11
-20.605080230817233
21
-44.07059404113209
31
0
0
SPLINE
5
666
100
AcDbEntity
8
0
100
AcDbSpline
70
0
71
3
72
8
73
4
74
0
42
0.000000001
43
0.0000000001
44
0.0000000001
40
0
40
0
40
0
40
0
40
1
40
1
40
1
40
1
10
-21.605080230817229
20
-45.070594041132132
30
0
10
-21.052795480986624
20
-45.070594041132125
30
0
10
-20.605080230817233
20
-44.622878790962403
30
0
10
-20.605080230817233
20
-44.07059404113209
30
0
0
LINE
5
667
100
AcDbEntity
8
0
100
AcDbLine
10
-21.605080230817229
20
-45.070594041132132
30
0
11
-35.605080230816405
21
-45.070594041132125
31
0
0
SPLINE
5
668
100
AcDbEntity
8
0
100
AcDbSpline
70
0
71
3
72
8
73
4
74
0
42
0.000000001
43
0.0000000001
44
0.0000000001
40
0
40
0
40
0
40
0
40
1
40
1
40
1
40
1
10
-36.60508023081713
20
-44.07059404113209
30
0
10
-36.60508023081713
20
-44.622878790962403
30
0
10
-36.157364980648005
20
-45.070594041132125
30
0
10
-35.605080230816405
20
-45.070594041132125
30
0
0
LINE
5
669
100
AcDbEntity
8
0
100
AcDbLine
10
-36.60508023081713
20
-44.07059404113209
30
0
11
-36.605078096176882
21
-41.570594041135031
31
0
0
SPLINE
5
670
100
AcDbEntity
8
0
100
AcDbSpline
70
0
71
3
72
8
73
4
74
0
42
0.000000001
43
0.0000000001
44
0.0000000001
40
0
40
0
40
0
40
0
40
1
40
1
40
1
40
1
10
-35.605078561832755
20
-40.570594041135635
30
0
10
-36.15736312981327
20
-40.570594298310006
30
0
10
-36.605078096176882
20
-41.018309473154531
30
0
10
-36.605078096176882
20
-41.570594041135031
30
0
0
LINE
5
671
100
AcDbEntity
8
0
100
AcDbLine
10
-35.605078561832755
20
-40.570594041135635
30
0
11
-35.605080230817563
21
-35.570594041132246
31
0
0
SPLINE
5
672
100
AcDbEntity
8
0
100
AcDbSpline
70
0
71
3
72
8
73
4
74
0
42
0.000000001
43
0.0000000001
44
0.0000000001
40
0
40
0
40
0
40
0
40
1
40
1
40
1
40
1
10
-55.651428480106546
20
-34.570594041132864
30
0
10
-55.651428480106546
20
-35.122878609113364
30
0
10
-55.20371351374429
20
-35.570593783957243
30
0
10
-54.651428945763776
20
-35.570594041132246
30
0
0
LINE
5
673
100
AcDbEntity
8
0
100
AcDbLine
10
-55.651428480106546
20
-34.570594041132864
30
0
11
-55.651428480106546
21
-32.070594041132466
31
0
0
SPLINE
5
674
100
AcDbEntity
8
0
100
AcDbSpline
70
0
71
3
72
8
73
4
74
0
42
0.000000001
43
0.0000000001
44
0.0000000001
40
0
40
0
40
0
40
0
40
1
40
1
40
1
40
1
10
-54.651428480105828
20
-31.070594041133063
30
0
10
-55.20371322993747
20
-31.070594041133095
30
0
10
-55.651428480106759
20
-31.518309291302614
30
0
10
-55.651428480106546
20
-32.070594041132466
30
0
0
LINE
5
675
100
AcDbEntity
8
0
100
AcDbLine
10
-54.651428480105828
20
-31.070594041133063
30
0
11
-40.651428480106645
21
-31.070594041132409
31
0
0
SPLINE
5
676
100
AcDbEntity
8
0
100
AcDbSpline
70
0
71
3
72
8
73
4
74
0
42
0.000000001
43
0.0000000001
44
0.0000000001
40
0
40
0
40
0
40
0
40
1
40
1
40
1
40
1
10
-39.651428480106631
20
-32.070594041132466
30
0
10
-39.65142848010619
20
-31.518309291302145
30
0
10
-40.099143730276069
20
-31.070594041132548
30
0
10
-40.651428480106645
20
-31.070594041132409
30
0
0
LINE
5
677
100
AcDbEntity
8
0
100
AcDbLine
10
-39.651428480106631
20
-32.070594041132466
30
0
11
-39.651428480107249
21
-34.570594506789483
31
0
0
SPLINE
5
678
100
AcDbEntity
8
0
100
AcDbSpline
70
0
71
3
72
8
73
4
74
0
42
0.000000001
43
0.0000000001
44
0.0000000001
40
0
40
0
40
0
40
0
40
1
40
1
40
1
40
1
10
-40.65142894576293
20
-35.570594041131926
30
0
10
-40.099144195932659
20
-35.570594298307768
30
0
10
-39.651428737281805
20
-35.122879256620443
30
0
10
-39.651428480107249
20
-34.570594506789483
30
0
0
LINE
5
679
100
AcDbEntity
8
0
100
AcDbLine
10
-40.65142894576293
20
-35.570594041131926
30
0
11
-40.65142894576293
21
-40.570594041132104
31
0
0
SPLINE
5
680
100
AcDbEntity
8
0
100
AcDbSpline
70
0
71
3
72
8
73
4
74
0
42
0.000000001
43
0.0000000001
44
0.0000000001
40
0
40
0
40
0
40
0
40
1
40
1
40
1
40
1
10
-39.65142894576293
20
-41.570594041132168
30
0
10
-39.65142894576293
20
-41.018309291301229
30
0
10
-40.099144195932659
20
-40.570594041132104
30
0
10
-40.65142894576293
20
-40.570594041132104
30
0
0
LINE
5
681
100
AcDbEntity
8
0
100
AcDbLine
10
-39.65142894576293
20
-41.570594041132168
30
0
11
-39.65142894576293
21
-44.07059404113194
31
0
0
SPLINE
5
682
100
AcDbEntity
8
0
100
AcDbSpline
70
0
71
3
72
8
73
4
74
0
42
0.000000001
43
0.0000000001
44
0.0000000001
40
0
40
0
40
0
40
0
40
1
40
1
40
1
40
1
10
-40.65142894576293
20
-45.070594041131962
30
0
10
-40.099144195932659
20
-45.070594041131962
30
0
10
-39.65142894576293
20
-44.622878790962261
30
0
10
-39.65142894576293
20
-44.07059404113194
30
0
0
LINE
5
683
100
AcDbEntity
8
0
100
AcDbLine
10
-40.65142894576293
20
-45.070594041131962
30
0
11
-54.651428945762106
21
-45.070594041131955
31
0
0
SPLINE
5
684
100
AcDbEntity
8
0
100
AcDbSpline
70
0
71
3
72
8
73
4
74
0
42
0.000000001
43
0.0000000001
44
0.0000000001
40
0
40
0
40
0
40
0
40
1
40
1
40
1
40
1
10
-55.651428945762838
20
-44.07059404113194
30
0
10
-55.651428945762831
20
-44.622878790962261
30
0
10
-55.20371369559377
20
-45.070594041131962
30
0
10
-54.651428945762106
20
-45.070594041131955
30
0
0
LINE
5
685
100
AcDbEntity
8
0
100
AcDbLine
10
-55.651428945762838
20
-44.07059404113194
30
0
11
-55.651426811123045
21
-41.570594041135045
31
0
0
SPLINE
5
686
100
AcDbEntity
8
0
100
AcDbSpline
70
0
71
3
72
8
73
4
74
0
42
0.000000001
43
0.0000000001
44
0.0000000001
40
0
40
0
40
0
40
0
40
1
40
1
40
1
40
1
10
-54.651427276778932
20
-40.570594041135635
30
0
10
-55.203711844759447
20
-40.570594298310006
30
0
10
-55.651426811123031
20
-41.018309473154531
30
0
10
-55.651426811123045
20
-41.570594041135045
30
0
0
LINE
5
687
100
AcDbEntity
8
0
100
AcDbLine
10
-54.651427276778932
20
-40.570594041135635
30
0
11
-54.651428945763776
21
-35.570594041132246
31
0
0
SPLINE
5
688
100
AcDbEntity
8
0
100
AcDbSpline
70
0
71
3
72
8
73
4
74
0
42
0.000000001
43
0.0000000001
44
0.0000000001
40
0
40
0
40
0
40
0
40
1
40
1
40
1
40
1
10
-74.697777195052794
20
-34.57059568728728
30
0
10
-74.697777195052794
20
-35.122879603489558
30
0
10
-74.250063245893756
20
-35.570594508357836
30
0
10
-73.697779329693432
20
-35.57059568728539
30
0
0
LINE
5
689
100
AcDbEntity
8
0
100
AcDbLine
10
-74.697777195052794
20
-34.57059568728728
30
0
11
-74.697777195050861
21
-32.070595687287472
31
0
0
SPLINE
5
690
100
AcDbEntity
8
0
100
AcDbSpline
70
0
71
3
72
8
73
4
74
0
42
0.000000001
43
0.0000000001
44
0.0000000001
40
0
40
0
40
0
40
0
40
1
40
1
40
1
40
1
10
-73.697777195050861
20
-31.070595687287437
30
0
10
-74.250061944881736
20
-31.07059568728744
30
0
10
-74.697777195050861
20
-31.518310937456526
30
0
10
-74.697777195050861
20
-32.070595687287472
30
0
0
LINE
5
691
100
AcDbEntity
8
0
100
AcDbLine
10
-73.697777195050861
20
-31.070595687287437
30
0
11
-72.697779329725222
21
-31.070591201785078
31
0
0
LINE
5
692
100
AcDbEntity
8
0
100
AcDbLine
10
-72.697779329725222
20
-31.070591201785078
30
0
11
-59.697777195050989
21
-31.070595006508572
31
0
0
SPLINE
5
693
100
AcDbEntity
8
0
100
AcDbSpline
70
0
71
3
72
8
73
4
74
0
42
0.000000001
43
0.0000000001
44
0.0000000001
40
0
40
0
40
0
40
0
40
1
40
1
40
1
40
1
10
-58.69777719505089
20
-32.070595687287472
30
0
10
-58.69777719505089
20
-31.518310937456526
30
0
10
-59.145492445219901
20
-31.070595687287454
30
0
10
-59.69777719505089
20
-31.070595687287451
30
0
0
LINE
5
694
100
AcDbEntity
8
0
100
AcDbLine
10
-58.69777719505089
20
-32.070595687287472
30
0
11
-58.697777195052836
21
-34.570597821926071
31
0
0
SPLINE
5
695
100
AcDbEntity
8
0
100
AcDbSpline
70
0
71
3
72
8
73
4
74
0
42
0.000000001
43
0.0000000001
44
0.0000000001
40
0
40
0
40
0
40
0
40
1
40
1
40
1
40
1
10
-59.697779329690647
20
-35.570595687284417
30
0
10
-59.145494579860937
20
-35.570596866213137
30
0
10
-58.697778373982175
20
-35.122882571755753
30
0
10
-58.697777195052836
20
-34.570597821926071
30
0
0
LINE
5
696
100
AcDbEntity
8
0
100
AcDbLine
10
-59.697779329690647
20
-35.570595687284417
30
0
11
-59.697779329690647
21
-40.570595687284595
31
0
0
SPLINE
5
697
100
AcDbEntity
8
0
100
AcDbSpline
70
0
71
3
72
8
73
4
74
0
42
0.000000001
43
0.0000000001
44
0.0000000001
40
0
40
0
40
0
40
0
40
1
40
1
40
1
40
1
10
-58.697779329690647
20
-41.57059568728463
30
0
10
-58.697779329690647
20
-41.018310937453634
30
0
10
-59.145494579859658
20
-40.57059568728458
30
0
10
-59.697779329690647
20
-40.570595687284595
30
0
0
LINE
5
698
100
AcDbEntity
8
0
100
AcDbLine
10
-58.697779329690647
20
-41.57059568728463
30
0
11
-58.697779329690647
21
-44.070595687284388
31
0
0
SPLINE
5
699
100
AcDbEntity
8
0
100
AcDbSpline
70
0
71
3
72
8
73
4
74
0
42
0.000000001
43
0.0000000001
44
0.0000000001
40
0
40
0
40
0
40
0
40
1
40
1
40
1
40
1
10
-59.697779329690647
20
-45.070595687284445
30
0
10
-59.145494579859658
20
-45.070595687284431
30
0
10
-58.697779329690647
20
-44.62288043711532
30
0
10
-58.697779329690647
20
-44.070595687284388
30
0
0
LINE
5
700
100
AcDbEntity
8
0
100
AcDbLine
10
-59.697779329690647
20
-45.070595687284445
30
0
11
-60.69778146429244
21
-45.070591201812746
31
0
0
LINE
5
701
100
AcDbEntity
8
0
100
AcDbLine
10
-60.69778146429244
20
-45.070591201812746
30
0
11
-73.697779329690505
21
-45.070595006505634
31
0
0
SPLINE
5
702
100
AcDbEntity
8
0
100
AcDbSpline
70
0
71
3
72
8
73
4
74
0
42
0.000000001
43
0.0000000001
44
0.0000000001
40
0
40
0
40
0
40
0
40
1
40
1
40
1
40
1
10
-74.697779329690633
20
-44.070595687284388
30
0
10
-74.697779329690604
20
-44.62288043711532
30
0
10
-74.250064079521479
20
-45.070595687284445
30
0
10
-73.697779329690604
20
-45.070595687284445
30
0
0
LINE
5
703
100
AcDbEntity
8
0
100
AcDbLine
10
-74.697779329690633
20
-44.070595687284388
30
0
11
-74.697777195052808
21
-41.570595687287508
31
0
0
SPLINE
5
704
100
AcDbEntity
8
0
100
AcDbSpline
70
0
71
3
72
8
73
4
74
0
42
0.000000001
43
0.0000000001
44
0.0000000001
40
0
40
0
40
0
40
0
40
1
40
1
40
1
40
1
10
-73.697779329693432
20
-40.570595687290052
30
0
10
-74.250063245893756
20
-40.570596866217585
30
0
10
-74.697777195052794
20
-41.018311771085223
30
0
10
-74.697777195052808
20
-41.570595687287508
30
0
0
LINE
5
705
100
AcDbEntity
8
0
100
AcDbLine
10
-73.697779329693432
20
-40.570595687290052
30
0
11
-73.697779329693432
21
-35.57059568728539
31
0
0
SPLINE
5
706
100
AcDbEntity
8
0
100
AcDbSpline
70
0
71
3
72
8
73
4
74
0
42
0.000000001
43
0.0000000001
44
0.0000000001
40
0
40
0
40
0
40
0
40
1
40
1
40
1
40
1
10
112.75222350344347
20
-41.57059588693869
30
0
10
112.75222350344347
20
-41.018311137108384
30
0
10
112.30450825327438
20
-40.570595886938648
30
0
10
111.7522235034434
20
-40.570595886938648
30
0
0
LINE
5
707
100
AcDbEntity
8
0
100
AcDbLine
10
112.75222350344347
20
-41.57059588693869
30
0
11
112.75222350344347
21
-44.070595886939103
31
0
0
SPLINE
5
708
100
AcDbEntity
8
0
100
AcDbSpline
70
0
71
3
72
8
73
4
74
0
42
0.000000001
43
0.0000000001
44
0.0000000001
40
0
40
0
40
0
40
0
40
1
40
1
40
1
40
1
10
111.75222350344342
20
-45.070595886939124
30
0
10
112.30450825327439
20
-45.070595886939124
30
0
10
112.75222350344343
20
-44.622880636769423
30
0
10
112.75222350344347
20
-44.070595886939103
30
0
0
LINE
5
709
100
AcDbEntity
8
0
100
AcDbLine
10
111.75222350344342
20
-45.070595886939124
30
0
11
97.752223503443574
21
-45.070595886939124
31
0
0
SPLINE
5
710
100
AcDbEntity
8
0
100
AcDbSpline
70
0
71
3
72
8
73
4
74
0
42
0.000000001
43
0.0000000001
44
0.0000000001
40
0
40
0
40
0
40
0
40
1
40
1
40
1
40
1
10
96.752223503443588
20
-44.070595886939103
30
0
10
96.752223503443588
20
-44.62288063676943
30
0
10
97.19993875361267
20
-45.070595886939124
30
0
10
97.752223503443574
20
-45.070595886939124
30
0
0
LINE
5
711
100
AcDbEntity
8
0
100
AcDbLine
10
96.752223503443588
20
-44.070595886939103
30
0
11
96.75222350344356
21
-41.57059588693869
31
0
0
SPLINE
5
712
100
AcDbEntity
8
0
100
AcDbSpline
70
0
71
3
72
8
73
4
74
0
42
0.000000001
43
0.0000000001
44
0.0000000001
40
0
40
0
40
0
40
0
40
1
40
1
40
1
40
1
10
97.752221368803177
20
-40.570595886940595
30
0
10
97.199937452602455
20
-40.570597065868313
30
0
10
96.752223503443687
20
-41.018311970736718
30
0
10
96.75222350344356
20
-41.57059588693869
30
0
0
LINE
5
713
100
AcDbEntity
8
0
100
AcDbLine
10
97.752221368803177
20
-40.570595886940595
30
0
11
97.752221368803163
21
-35.570595886936573
31
0
0
SPLINE
5
714
100
AcDbEntity
8
0
100
AcDbSpline
70
0
71
3
72
8
73
4
74
0
42
0.000000001
43
0.0000000001
44
0.0000000001
40
0
40
0
40
0
40
0
40
1
40
1
40
1
40
1
10
96.752223503443588
20
-34.570595886939103
30
0
10
96.752223503443332
20
-35.122879803140606
30
0
10
97.199937452602185
20
-35.57059470800894
30
0
10
97.752221368803163
20
-35.570595886936573
30
0
0
LINE
5
715
100
AcDbEntity
8
0
100
AcDbLine
10
96.752223503443588
20
-34.570595886939103
30
0
11
96.75222350344356
21
-32.070595886938683
31
0
0
SPLINE
5
716
100
AcDbEntity
8
0
100
AcDbSpline
70
0
71
3
72
8
73
4
74
0
42
0.000000001
43
0.0000000001
44
0.0000000001
40
0
40
0
40
0
40
0
40
1
40
1
40
1
40
1
10
97.752223503443588
20
-31.070595886938655
30
0
10
97.19993875361267
20
-31.070595886938186
30
0
10
96.75222350344373
20
-31.518311137108039
30
0
10
96.75222350344356
20
-32.070595886938683
30
0
0
LINE
5
717
100
AcDbEntity
8
0
100
AcDbLine
10
97.752223503443588
20
-31.070595886938655
30
0
11
111.75222350344342
21
-31.070595886939291
31
0
0
SPLINE
5
718
100
AcDbEntity
8
0
100
AcDbSpline
70
0
71
3
72
8
73
4
74
0
42
0.000000001
43
0.0000000001
44
0.0000000001
40
0
40
0
40
0
40
0
40
1
40
1
40
1
40
1
10
112.75222350344343
20
-32.070595886938683
30
0
10
112.75222350344343
20
-31.518311137108359
30
0
10
112.30450825327439
20
-31.070595886938655
30
0
10
111.75222350344342
20
-31.070595886939291
30
0
0
LINE
5
719
100
AcDbEntity
8
0
100
AcDbLine
10
112.75222350344343
20
-32.070595886938683
30
0
11
112.75222350344347
21
-34.570595886939088
31
0
0
SPLINE
5
720
100
AcDbEntity
8
0
100
AcDbSpline
70
0
71
3
72
8
73
4
74
0
42
0.000000001
43
0.0000000001
44
0.0000000001
40
0
40
0
40
0
40
0
40
1
40
1
40
1
40
1
10
111.7522235034434
20
-35.570595886939117
30
0
10
112.30450825327439
20
-35.570595886939117
30
0
10
112.75222350344347
20
-35.122880636769395
30
0
10
112.75222350344347
20
-34.570595886939088
30
0
0
LINE
5
721
100
AcDbEntity
8
0
100
AcDbLine
10
111.7522235034434
20
-35.570595886939117
30
0
11
111.7522235034434
21
-40.570595886938648
31
0
0
SPLINE
5
722
100
AcDbEntity
8
0
100
AcDbSpline
70
0
71
3
72
8
73
4
74
0
42
0.000000001
43
0.0000000001
44
0.0000000001
40
0
40
0
40
0
40
0
40
1
40
1
40
1
40
1
10
-93.74777719505515
20
-34.570595886937809
30
0
10
-93.74777719505515
20
-35.122879803139455
30
0
10
-93.300063245896098
20
-35.570594708007718
30
0
10
-92.747779329694836
20
-35.570595886935259
30
0
0
LINE
5
723
100
AcDbEntity
8
0
100
AcDbLine
10
-93.74777719505515
20
-34.570595886937809
30
0
11
-93.747777195051754
21
-32.07059588693739
31
0
0
SPLINE
5
724
100
AcDbEntity
8
0
100
AcDbSpline
70
0
71
3
72
8
73
4
74
0
42
0.000000001
43
0.0000000001
44
0.0000000001
40
0
40
0
40
0
40
0
40
1
40
1
40
1
40
1
10
-92.747777195051654
20
-31.070595886937372
30
0
10
-93.300061944881918
20
-31.070595886937376
30
0
10
-93.747777195051754
20
-31.51831113710643
30
0
10
-93.747777195051754
20
-32.07059588693739
30
0
0
LINE
5
725
100
AcDbEntity
8
0
100
AcDbLine
10
-92.747777195051654
20
-31.070595886937372
30
0
11
-91.747779329736417
21
-31.070590735933045
31
0
0
LINE
5
726
100
AcDbEntity
8
0
100
AcDbLine
10
-91.747779329736417
20
-31.070590735933045
30
0
11
-78.747777195051256
21
-31.070595106379177
31
0
0
SPLINE
5
727
100
AcDbEntity
8
0
100
AcDbSpline
70
0
71
3
72
8
73
4
74
0
42
0.000000001
43
0.0000000001
44
0.0000000001
40
0
40
0
40
0
40
0
40
1
40
1
40
1
40
1
10
-77.747777195051128
20
-32.070595886937376
30
0
10
-77.747777195051128
20
-31.51831113710643
30
0
10
-78.195492445220864
20
-31.070595886937376
30
0
10
-78.747777195051128
20
-31.070595886937365
30
0
0
LINE
5
728
100
AcDbEntity
8
0
100
AcDbLine
10
-77.747777195051128
20
-32.070595886937376
30
0
11
-77.747777195053629
21
-34.570598021575968
31
0
0
SPLINE
5
729
100
AcDbEntity
8
0
100
AcDbSpline
70
0
71
3
72
8
73
4
74
0
42
0.000000001
43
0.0000000001
44
0.0000000001
40
0
40
0
40
0
40
0
40
1
40
1
40
1
40
1
10
-78.747779329691213
20
-35.570595886933383
30
0
10
-78.195494579861503
20
-35.570597065862877
30
0
10
-77.747778373982527
20
-35.122882771405003
30
0
10
-77.747777195053629
20
-34.570598021575968
30
0
0
LINE
5
730
100
AcDbEntity
8
0
100
AcDbLine
10
-78.747779329691213
20
-35.570595886933383
30
0
11
-78.747779329691213
21
-40.570595886933589
31
0
0
SPLINE
5
731
100
AcDbEntity
8
0
100
AcDbSpline
70
0
71
3
72
8
73
4
74
0
42
0.000000001
43
0.0000000001
44
0.0000000001
40
0
40
0
40
0
40
0
40
1
40
1
40
1
40
1
10
-77.747779329691213
20
-41.57059588693361
30
0
10
-77.747779329691213
20
-41.018311137102643
30
0
10
-78.195494579860934
20
-40.570595886933589
30
0
10
-78.747779329691213
20
-40.570595886933589
30
0
0
LINE
5
732
100
AcDbEntity
8
0
100
AcDbLine
10
-77.747779329691213
20
-41.57059588693361
30
0
11
-77.747779329691213
21
-44.070595886933361
31
0
0
SPLINE
5
733
100
AcDbEntity
8
0
100
AcDbSpline
70
0
71
3
72
8
73
4
74
0
42
0.000000001
43
0.0000000001
44
0.0000000001
40
0
40
0
40
0
40
0
40
1
40
1
40
1
40
1
10
-78.747779329691213
20
-45.07059588693339
30
0
10
-78.195494579860934
20
-45.07059588693339
30
0
10
-77.747779329691213
20
-44.622880636764314
30
0
10
-77.747779329691213
20
-44.070595886933361
30
0
0
LINE
5
734
100
AcDbEntity
8
0
100
AcDbLine
10
-78.747779329691213
20
-45.07059588693339
30
0
11
-79.74778146428352
21
-45.070590735964473
31
0
0
LINE
5
735
100
AcDbEntity
8
0
100
AcDbLine
10
-79.74778146428352
20
-45.070590735964473
30
0
11
-92.747779329691596
21
-45.070595106375315
31
0
0
SPLINE
5
736
100
AcDbEntity
8
0
100
AcDbSpline
70
0
71
3
72
8
73
4
74
0
42
0.000000001
43
0.0000000001
44
0.0000000001
40
0
40
0
40
0
40
0
40
1
40
1
40
1
40
1
10
-93.747779329691866
20
-44.070595886933361
30
0
10
-93.747779329691838
20
-44.622880636764314
30
0
10
-93.300064079521988
20
-45.07059588693339
30
0
10
-92.747779329691724
20
-45.070595886933404
30
0
0
LINE
5
737
100
AcDbEntity
8
0
100
AcDbLine
10
-93.747779329691866
20
-44.070595886933361
30
0
11
-93.747777195054283
21
-41.570595886937404
31
0
0
SPLINE
5
738
100
AcDbEntity
8
0
100
AcDbSpline
70
0
71
3
72
8
73
4
74
0
42
0.000000001
43
0.0000000001
44
0.0000000001
40
0
40
0
40
0
40
0
40
1
40
1
40
1
40
1
10
-92.747779329694268
20
-40.570595886939287
30
0
10
-93.300063245895529
20
-40.570597065867339
30
0
10
-93.747777195054439
20
-41.018311970735752
30
0
10
-93.747777195054283
20
-41.570595886937404
30
0
0
LINE
5
739
100
AcDbEntity
8
0
100
AcDbLine
10
-92.747779329694268
20
-40.570595886939287
30
0
11
-92.747779329694836
21
-35.570595886935259
31
0
0
LINE
5
740
100
AcDbEntity
8
0
100
AcDbLine
10
-9.2290842081227957
20
30.132695911475761
30
0
11
-9.2290842081227886
21
31.130572097546082
31
0
0
LINE
5
741
100
AcDbEntity
8
0
100
AcDbLine
10
-9.2290842081227886
20
31.130572097546082
30
0
11
-24.104645014827511
21
31.130572097546004
31
0
0
LINE
5
742
100
AcDbEntity
8
0
100
AcDbLine
10
-24.104645014827511
20
31.130572097546004
30
0
11
-24.104579311602961
21
30.125705982089208
31
0
0
SPLINE
5
743
100
AcDbEntity
8
0
100
AcDbSpline
70
0
71
3
72
8
73
4
74
0
42
0.000000001
43
0.0000000001
44
0.0000000001
40
0
40
0
40
0
40
0
40
1
40
1
40
1
40
1
10
-25.104579311602649
20
29.125705982088181
30
0
10
-24.552294561772051
20
29.125705982088466
30
0
10
-24.104579311603167
20
29.573421232258408
30
0
10
-24.104579311602961
20
30.125705982089208
30
0
0
LINE
5
744
100
AcDbEntity
8
0
100
AcDbLine
10
-25.104579311602649
20
29.125705982088181
30
0
11
-32.105084208122356
21
29.125705982088537
31
0
0
SPLINE
5
745
100
AcDbEntity
8
0
100
AcDbSpline
70
0
71
3
72
8
73
4
74
0
42
0.000000001
43
0.0000000001
44
0.0000000001
40
0
40
0
40
0
40
0
40
1
40
1
40
1
40
1
10
-33.105084208121696
20
30.125705982088576
30
0
10
-33.105084208121873
20
29.573421232257616
30
0
10
-32.657368957952329
20
29.125705982088391
30
0
10
-32.105084208122356
20
29.125705982088537
30
0
0
LINE
5
746
100
AcDbEntity
8
0
100
AcDbLine
10
-33.105084208121696
20
30.125705982088576
30
0
11
-33.105084208121639
21
46.1327933042719
31
0
0
SPLINE
5
747
100
AcDbEntity
8
0
100
AcDbSpline
70
0
71
3
72
8
73
4
74
0
42
0.000000001
43
0.0000000001
44
0.0000000001
40
0
40
0
40
0
40
0
40
1
40
1
40
1
40
1
10
-32.105084208121639
20
47.132793304271942
30
0
10
-32.657368957952656
20
47.132793304271942
30
0
10
-33.105084208121639
20
46.68507805410222
30
0
10
-33.105084208121639
20
46.1327933042719
30
0
0
LINE
5
748
100
AcDbEntity
8
0
100
AcDbLine
10
-32.105084208121639
20
47.132793304271942
30
0
11
-1.229627319230735
21
47.132623868996205
31
0
0
SPLINE
5
749
100
AcDbEntity
8
0
100
AcDbSpline
70
0
71
3
72
8
73
4
74
0
42
0.000000001
43
0.0000000001
44
0.0000000001
40
0
40
0
40
0
40
0
40
1
40
1
40
1
40
1
10
-0.22962592486683309
20
46.132625263362627
30
0
10
-0.22962669495316113
20
46.684910013192926
30
0
10
-0.67734256940105153
20
47.132624639083176
30
0
10
-1.2296273192307361
20
47.132623868996205
30
0
0
LINE
5
750
100
AcDbEntity
8
0
100
AcDbLine
10
-0.22962592486683309
20
46.132625263362627
30
0
11
-0.2285797686407548
21
30.132695911477683
31
0
0
SPLINE
5
751
100
AcDbEntity
8
0
100
AcDbSpline
70
0
71
3
72
8
73
4
74
0
42
0.000000001
43
0.0000000001
44
0.0000000001
40
0
40
0
40
0
40
0
40
1
40
1
40
1
40
1
10
-1.2285797686407278
20
29.132695911477651
30
0
10
-0.67629501880973886
20
29.132695911477651
30
0
10
-0.2285797686407548
20
29.580411161646726
30
0
10
-0.2285797686407548
20
30.132695911477683
30
0
0
LINE
5
752
100
AcDbEntity
8
0
100
AcDbLine
10
-1.2285797686407278
20
29.132695911477651
30
0
11
-8.2290842081220443
21
29.132695911476372
31
0
0
SPLINE
5
753
100
AcDbEntity
8
0
100
AcDbSpline
70
0
71
3
72
8
73
4
74
0
42
0.000000001
43
0.0000000001
44
0.0000000001
40
0
40
0
40
0
40
0
40
1
40
1
40
1
40
1
10
-9.2290842081227957
20
30.132695911475761
30
0
10
-9.2290842081224298
20
29.580411161644811
30
0
10
-8.7813689579527558
20
29.132695911476016
30
0
10
-8.2290842081220443
20
29.132695911476372
30
0
0
ENDSEC
0
SECTION
2
OBJECTS
0
DICTIONARY
5
C
100
AcDbDictionary
3
ACAD_GROUP
350
D
3
ACAD_MLINESTYLE
350
17
0
DICTIONARY
5
D
100
AcDbDictionary
0
DICTIONARY
5
1A
330
C
100
AcDbDictionary
0
DICTIONARY
5
17
100
AcDbDictionary
0
ENDSEC
0
EOF
