0
SECTION
2
HEADER
9
$INSUNITS
70
4
9
$ACADVER
1
AC1014
9
$HANDSEED
5
FFFF
0
ENDSEC
0
SECTION
2
TABLES
0
TABLE
2
VPORT
5
8
100
AcDbSymbolTable
0
ENDTAB
0
TABLE
2
LTYPE
5
5
100
AcDbSymbolTable
0
LTYPE
5
14
100
AcDbSymbolTableRecord
100
AcDbLinetypeTableRecord
2
BYBLOCK
70
0
0
LTYPE
5
15
100
AcDbSymbolTableRecord
100
AcDbLinetypeTableRecord
2
BYLAYER
70
0
0
ENDTAB
0
TABLE
2
LAYER
5
2
100
AcDbSymbolTable
70
2
0
LAYER
5
50
100
AcDbSymbolTableRecord
100
AcDbLayerTableRecord
2
0
70
0
6
CONTINUOUS
0
ENDTAB
0
TABLE
2
STYLE
5
3
100
AcDbSymbolTable
70
1
0
STYLE
5
11
100
AcDbSymbolTableRecord
100
AcDbTextStyleTableRecord
2
STANDARD
70
0
0
ENDTAB
0
TABLE
2
VIEW
5
6
100
AcDbSymbolTable
70
0
0
ENDTAB
0
TABLE
2
UCS
5
7
100
AcDbSymbolTable
70
0
0
ENDTAB
0
TABLE
2
APPID
5
9
100
AcDbSymbolTable
70
2
0
APPID
5
12
100
AcDbSymbolTableRecord
100
AcDbRegAppTableRecord
2
ACAD
70
0
0
ENDTAB
0
TABLE
2
DIMSTYLE
5
A
100
AcDbSymbolTable
70
1
0
ENDTAB
0
TABLE
2
BLOCK_RECORD
5
1
100
AcDbSymbolTable
70
1
0
BLOCK_RECORD
5
1F
100
AcDbSymbolTableRecord
100
AcDbBlockTableRecord
2
*MODEL_SPACE
0
BLOCK_RECORD
5
1B
100
AcDbSymbolTableRecord
100
AcDbBlockTableRecord
2
*PAPER_SPACE
0
ENDTAB
0
ENDSEC
0
SECTION
2
BLOCKS
0
BLOCK
5
20
100
AcDbEntity
100
AcDbBlockBegin
2
*MODEL_SPACE
0
ENDBLK
5
21
100
AcDbEntity
100
AcDbBlockEnd
0
BLOCK
5
1C
100
AcDbEntity
100
AcDbBlockBegin
2
*PAPER_SPACE
0
ENDBLK
5
1D
100
AcDbEntity
100
AcDbBlockEnd
0
ENDSEC
0
SECTION
2
ENTITIES
0
LWPOLYLINE
5
100
100
AcDbEntity
8
0
100
AcDbPolyline
90
4
70
1
43
0.0
10
-41.640567516830757
20
50.005220326254246
10
-91.727435897833232
20
50.008580593266039
42
0.99999999999999989
10
-91.727570075398802
20
48.008580597758879
10
-41.640701694396597
20
48.005220330726374
42
0.99999999999999989
0
LWPOLYLINE
5
101
100
AcDbEntity
8
0
100
AcDbPolyline
90
4
70
1
43
0.0
10
-98.890580046814108
20
50.005364893047677
10
-148.82738829084082
20
50.008597362356646
42
0.99999999999999989
10
-148.82751775322981
20
48.008597366530438
10
-98.890709509135647
20
48.00536489730051
42
0.99999999999999989
0
LWPOLYLINE
5
102
100
AcDbEntity
8
0
100
AcDbPolyline
90
24
70
1
43
0.0
10
-91.5
20
-10.521838193730444
10
-104
20
-10.521838193730451
42
0.41421356237309437
10
-105
20
-11.521838193730446
10
-105
20
-26.521838193730446
42
0.41421356237309503
10
-104
20
-27.521838193730442
10
125.33811962542634
20
-27.521838193730446
42
0.41399235880270924
10
126.33811934019084
20
-26.52259348894923
10
126.35061485254793
20
-9.9787196736309092
42
0.41443480054831772
10
125.35061513778339
20
-8.9779643784121195
10
123.70000000000003
20
-8.9779643784121212
42
-0.41421356237310025
10
122.70000000000002
20
-7.9779643784121257
10
122.70000000000002
20
9.5220356215878983
42
0.4142135623730937
10
121.7
20
10.522035621587873
10
110.3
20
10.522035621587875
42
-0.41421356237309048
10
109.30000000000001
20
11.522035621587873
10
109.30000000000001
20
26.700000000000017
42
0.41421356237310153
10
108.29999999999998
20
27.700000000000031
10
-83.200000000000003
20
27.70000000000001
42
0.41421356237309631
10
-84.200000000000003
20
26.70000000000001
10
-84.200000000000003
20
11.000000000000004
42
-0.41421356237309503
10
-85.199999999999989
20
10.000000000000002
10
-89.500000000000014
20
9.9999999999999964
42
0.4142135623730957
10
-90.5
20
8.9999999999999982
10
-90.5
20
-9.5218381937304439
42
-0.4142135623730957
0
LWPOLYLINE
5
103
100
AcDbEntity
8
0
100
AcDbPolyline
90
8
70
1
43
0.0
10
149.25
20
54
42
-0.41421356237309503
10
153.25
20
50
10
153.25
20
-50
42
-0.41421356237309503
10
149.25
20
-54
10
-149.25
20
-54
42
-0.41421356237309503
10
-153.25
20
-50
10
-153.25
20
50
42
-0.41421356237309503
10
-149.25
20
54
0
LWPOLYLINE
5
104
100
AcDbEntity
8
0
100
AcDbPolyline
90
4
70
1
43
0.0
10
-72.644098711826402
20
-48.616864440614698
10
-3.6446371758744807
20
-48.616864440614698
42
0.99999999999999989
10
-3.6446371758744789
20
-46.616864440614698
10
-72.644098711826402
20
-46.616864440614705
42
0.99999999999999989
0
LINE
5
105
100
AcDbEntity
8
0
100
AcDbLine
10
-1.0639318810652101
20
47.933312062998901
30
0
11
-32.525558135352298
21
47.931360342911901
31
0
0
ARC
5
106
100
AcDbEntity
8
0
100
AcDbCircle
10
-32.525620168704798
20
48.931361677216707
30
0
40
1.0000013362288609
210
0
220
0
230
1
100
AcDbArc
50
90.040878710235276
51
270.00355424454023
0
LINE
5
107
100
AcDbEntity
8
0
100
AcDbLine
10
-32.526333637685198
20
49.93136275892688
30
0
11
-1.0588948115188357
21
49.933299056544406
31
0
0
ARC
5
108
100
AcDbEntity
8
0
100
AcDbCircle
10
-1.05883327880933
20
48.933299065042
30
0
40
1.0000000000000542
210
0
220
0
230
1
100
AcDbArc
50
-90.292129656375124
51
90.003525564582191
0
LWPOLYLINE
5
109
100
AcDbEntity
8
0
100
AcDbPolyline
90
4
70
1
43
0.0
10
148.755362824126
20
50.183135559385299
10
79.755901288173604
20
50.183135559385299
42
0.99999999999999989
10
79.755901288173604
20
48.183135559385306
10
148.755362824126
20
48.183135559385306
42
0.99999999999999989
0
LWPOLYLINE
5
110
100
AcDbEntity
8
0
100
AcDbPolyline
90
4
70
1
43
0.0
10
3.5559012881735619
20
-48.616864440614698
10
72.555362824125496
20
-48.616864440614698
42
0.99999999999999989
10
72.555362824125496
20
-46.616864440614698
10
3.5559012881735601
20
-46.616864440614705
42
0.99999999999999989
0
LWPOLYLINE
5
111
100
AcDbEntity
8
0
100
AcDbPolyline
90
4
70
1
43
0.0
10
-79.944637175874504
20
-46.616864440614698
10
-148.944098711826
20
-46.616864440614698
42
0.99999999999999989
10
-148.944098711826
20
-48.616864440614698
10
-79.944637175874504
20
-48.616864440614698
42
0.99999999999999989
0
LWPOLYLINE
5
112
100
AcDbEntity
8
0
100
AcDbPolyline
90
4
70
1
43
0.0
10
2.9744418663177719
20
47.931360342912008
10
35.0360681185619
20
47.933318169446899
42
1.0025833657955801
10
35.041105096633501
20
49.933305170068401
10
2.9736663623147703
20
49.93136275892688
42
0.99967433646023085
0
LWPOLYLINE
5
113
100
AcDbEntity
8
0
100
AcDbPolyline
90
4
70
1
43
0.0
10
74.841112280828597
20
49.933299063560099
10
39.273666362314799
20
49.931362758926909
42
0.9996707615398015
10
39.274434714125903
20
47.931360342493903
10
74.836068118934804
20
47.933312062998965
42
1.0025798573244564
0
LWPOLYLINE
5
114
100
AcDbEntity
8
0
100
AcDbPolyline
90
4
70
1
43
0.0
10
79.755901288173604
20
-48.616864440614698
10
148.755362824126
20
-48.616864440614698
42
0.99999999999999989
10
148.755362824126
20
-46.616864440614698
10
79.755901288173604
20
-46.616864440614705
42
0.99999999999999989
0
SPLINE
5
115
100
AcDbEntity
8
0
100
AcDbSpline
70
0
71
3
72
8
73
4
74
0
42
0.000000001
43
0.0000000001
44
0.0000000001
40
0
40
0
40
0
40
0
40
1
40
1
40
1
40
1
10
39.343123999654409
20
47.132741644328597
30
0
10
38.790839249824003
20
47.132741644328597
30
0
10
38.343123999654303
20
46.685026394159607
30
0
10
38.343123999654402
20
46.132741644328597
30
0
0
LINE
5
116
100
AcDbEntity
8
0
100
AcDbLine
10
39.343123999654409
20
47.132741644328597
30
0
11
74.906782397917397
21
47.1330797627678
31
0
0
SPLINE
5
117
100
AcDbEntity
8
0
100
AcDbSpline
70
0
71
3
72
8
73
4
74
0
42
0.000000001
43
0.0000000001
44
0.0000000001
40
0
40
0
40
0
40
0
40
1
40
1
40
1
40
1
10
75.906823242744693
20
46.133120609264104
30
0
10
75.906800684308493
20
46.685405358634206
30
0
10
75.459067147286902
20
47.133102321203999
30
0
10
74.906782397917397
20
47.1330797627678
30
0
0
LINE
5
118
100
AcDbEntity
8
0
100
AcDbLine
10
75.906823242744693
20
46.133120609264104
30
0
11
75.907869888396803
21
30.125705982089205
31
0
0
SPLINE
5
119
100
AcDbEntity
8
0
100
AcDbSpline
70
0
71
3
72
8
73
4
74
0
42
0.000000001
43
0.0000000001
44
0.0000000001
40
0
40
0
40
0
40
0
40
1
40
1
40
1
40
1
10
74.907869888396903
20
29.125705982089201
30
0
10
75.460154638227905
20
29.125705982089201
30
0
10
75.907869888396803
20
29.573421232258301
30
0
10
75.907869888396803
20
30.125705982089205
30
0
0
LINE
5
120
100
AcDbEntity
8
0
100
AcDbLine
10
74.907869888396903
20
29.125705982089201
30
0
11
63.144915791880898
21
29.125705982089201
31
0
0
SPLINE
5
121
100
AcDbEntity
8
0
100
AcDbSpline
70
0
71
3
72
8
73
4
74
0
42
0.000000001
43
0.0000000001
44
0.0000000001
40
0
40
0
40
0
40
0
40
1
40
1
40
1
40
1
10
62.144915791880905
20
30.125705982089205
30
0
10
62.144915791880905
20
29.573421232258301
30
0
10
62.592631042050009
20
29.125705982089201
30
0
10
63.144915791880898
20
29.125705982089201
30
0
0
LINE
5
122
100
AcDbEntity
8
0
100
AcDbLine
10
62.144915791880905
20
30.125705982089205
30
0
11
62.144915791880905
21
31.137511226934702
31
0
0
LINE
5
123
100
AcDbEntity
8
0
100
AcDbLine
10
62.144915791880905
20
31.137511226934702
30
0
11
47.332803730273405
21
31.137511226934805
31
0
0
LINE
5
124
100
AcDbEntity
8
0
100
AcDbLine
10
47.332803730273405
20
31.137511226934805
30
0
11
47.332869890534397
21
30.125655182089499
31
0
0
SPLINE
5
125
100
AcDbEntity
8
0
100
AcDbSpline
70
0
71
3
72
8
73
4
74
0
42
0.000000001
43
0.0000000001
44
0.0000000001
40
0
40
0
40
0
40
0
40
1
40
1
40
1
40
1
10
46.332869890534802
20
29.125655182089304
30
0
10
46.885154640365407
20
29.1256551820894
30
0
10
47.332869890534496
20
29.573370432258503
30
0
10
47.332869890534397
20
30.125655182089499
30
0
0
LINE
5
126
100
AcDbEntity
8
0
100
AcDbLine
10
46.332869890534802
20
29.125655182089304
30
0
11
39.332364991878002
21
29.125655182088899
31
0
0
SPLINE
5
127
100
AcDbEntity
8
0
100
AcDbSpline
70
0
71
3
72
8
73
4
74
0
42
0.000000001
43
0.0000000001
44
0.0000000001
40
0
40
0
40
0
40
0
40
1
40
1
40
1
40
1
10
38.332364991877903
20
30.1256551820887
30
0
10
38.332364991877903
20
29.573370432257803
30
0
10
38.780080242047305
20
29.125655182088703
30
0
10
39.332364991878002
20
29.125655182088899
30
0
0
LINE
5
128
100
AcDbEntity
8
0
100
AcDbLine
10
38.332364991877903
20
30.1256551820887
30
0
11
38.343123999654409
21
46.132741644328597
31
0
0
SPLINE
5
129
100
AcDbEntity
8
0
100
AcDbSpline
70
0
71
3
72
8
73
4
74
0
42
0.000000001
43
0.0000000001
44
0.0000000001
40
0
40
0
40
0
40
0
40
1
40
1
40
1
40
1
10
77.7022237362699
20
-34.570594487022099
30
0
10
77.70222373627
20
-35.122878403224398
30
0
10
78.149937685428597
20
-35.570593308092597
30
0
10
78.702221601629702
20
-35.570594487020102
30
0
0
LINE
5
130
100
AcDbEntity
8
0
100
AcDbLine
10
77.7022237362699
20
-34.570594487022099
30
0
11
77.702223736270398
21
-32.070594487022802
31
0
0
SPLINE
5
131
100
AcDbEntity
8
0
100
AcDbSpline
70
0
71
3
72
8
73
4
74
0
42
0.000000001
43
0.0000000001
44
0.0000000001
40
0
40
0
40
0
40
0
40
1
40
1
40
1
40
1
10
78.702223736270412
20
-31.070594487022802
30
0
10
78.149938986439494
20
-31.070594487022802
30
0
10
77.702223736270398
20
-31.518309737191899
30
0
10
77.702223736270398
20
-32.070594487022802
30
0
0
LINE
5
132
100
AcDbEntity
8
0
100
AcDbLine
10
78.702223736270412
20
-31.070594487022802
30
0
11
92.702223736270298
21
-31.070594487022802
31
0
0
SPLINE
5
133
100
AcDbEntity
8
0
100
AcDbSpline
70
0
71
3
72
8
73
4
74
0
42
0.000000001
43
0.0000000001
44
0.0000000001
40
0
40
0
40
0
40
0
40
1
40
1
40
1
40
1
10
93.702223736270298
20
-32.070594487022802
30
0
10
93.702223736270298
20
-31.518309737191899
30
0
10
93.254508486101201
20
-31.070594487022802
30
0
10
92.702223736270298
20
-31.070594487022802
30
0
0
LINE
5
134
100
AcDbEntity
8
0
100
AcDbLine
10
93.702223736270298
20
-32.070594487022802
30
0
11
93.702223736270298
21
-34.570596621660698
31
0
0
SPLINE
5
135
100
AcDbEntity
8
0
100
AcDbSpline
70
0
71
3
72
8
73
4
74
0
42
0.000000001
43
0.0000000001
44
0.0000000001
40
0
40
0
40
0
40
0
40
1
40
1
40
1
40
1
10
92.702221601634307
20
-35.570594487020699
30
0
10
93.254506351463903
20
-35.5705956659489
30
0
10
93.702222557342111
20
-35.122881371490408
30
0
10
93.702223736270298
20
-34.570596621660698
30
0
0
LINE
5
136
100
AcDbEntity
8
0
100
AcDbLine
10
92.702221601634307
20
-35.570594487020699
30
0
11
92.702221601634207
21
-40.570594487020905
31
0
0
SPLINE
5
137
100
AcDbEntity
8
0
100
AcDbSpline
70
0
71
3
72
8
73
4
74
0
42
0.000000001
43
0.0000000001
44
0.0000000001
40
0
40
0
40
0
40
0
40
1
40
1
40
1
40
1
10
93.702221601634207
20
-41.570594487020898
30
0
10
93.702221601634207
20
-41.018309737190002
30
0
10
93.25450635146521
20
-40.570594487020905
30
0
10
92.702221601634207
20
-40.570594487020905
30
0
0
LINE
5
138
100
AcDbEntity
8
0
100
AcDbLine
10
93.702221601634207
20
-41.570594487020898
30
0
11
93.702221601634207
21
-44.0705944870206
31
0
0
SPLINE
5
139
100
AcDbEntity
8
0
100
AcDbSpline
70
0
71
3
72
8
73
4
74
0
42
0.000000001
43
0.0000000001
44
0.0000000001
40
0
40
0
40
0
40
0
40
1
40
1
40
1
40
1
10
92.702221601634307
20
-45.070594487020699
30
0
10
93.25450635146521
20
-45.070594487020699
30
0
10
93.702221601634207
20
-44.622879236851603
30
0
10
93.702221601634207
20
-44.0705944870206
30
0
0
LINE
5
140
100
AcDbEntity
8
0
100
AcDbLine
10
92.702221601634307
20
-45.070594487020699
30
0
11
78.702221601634307
21
-45.070594487020699
31
0
0
SPLINE
5
141
100
AcDbEntity
8
0
100
AcDbSpline
70
0
71
3
72
8
73
4
74
0
42
0.000000001
43
0.0000000001
44
0.0000000001
40
0
40
0
40
0
40
0
40
1
40
1
40
1
40
1
10
77.702221601634307
20
-44.0705944870206
30
0
10
77.702221601634307
20
-44.622879236851603
30
0
10
78.149936851803517
20
-45.070594487020699
30
0
10
78.702221601634307
20
-45.070594487020699
30
0
0
LINE
5
142
100
AcDbEntity
8
0
100
AcDbLine
10
77.702221601634307
20
-44.0705944870206
30
0
11
77.702223736270398
21
-41.570594487022802
31
0
0
SPLINE
5
143
100
AcDbEntity
8
0
100
AcDbSpline
70
0
71
3
72
8
73
4
74
0
42
0.000000001
43
0.0000000001
44
0.0000000001
40
0
40
0
40
0
40
0
40
1
40
1
40
1
40
1
10
78.702221601630001
20
-40.570594487025403
30
0
10
78.149937685428995
20
-40.570595665952908
30
0
10
77.702223736270398
20
-41.01831057082051
30
0
10
77.702223736270398
20
-41.570594487022802
30
0
0
LINE
5
144
100
AcDbEntity
8
0
100
AcDbLine
10
78.702221601630001
20
-40.570594487025403
30
0
11
78.702221601629702
21
-35.570594487020102
31
0
0
SPLINE
5
145
100
AcDbEntity
8
0
100
AcDbSpline
70
0
71
3
72
8
73
4
74
0
42
0.000000001
43
0.0000000001
44
0.0000000001
40
0
40
0
40
0
40
0
40
1
40
1
40
1
40
1
10
-130.85508236546201
20
16.5794052589
30
0
10
-131.40736628166303
20
16.5794040799722
30
0
10
-131.85508023082099
20
16.131689175104398
30
0
10
-131.85508023082002
20
15.579405258902202
30
0
0
LINE
5
146
100
AcDbEntity
8
0
100
AcDbLine
10
-130.85508236546201
20
16.5794052589
30
0
11
-130.85508236546099
21
21.579405258904298
31
0
0
SPLINE
5
147
100
AcDbEntity
8
0
100
AcDbSpline
70
0
71
3
72
8
73
4
74
0
42
0.000000001
43
0.0000000001
44
0.0000000001
40
0
40
0
40
0
40
0
40
1
40
1
40
1
40
1
10
-131.85508023082002
20
22.579405258902405
30
0
10
-131.85508023082099
20
22.027121342700205
30
0
10
-131.40736628166201
20
21.579406437831899
30
0
10
-130.85508236546099
20
21.579405258904298
30
0
0
LINE
5
148
100
AcDbEntity
8
0
100
AcDbLine
10
-131.85508023082002
20
22.579405258902405
30
0
11
-131.85508023082002
21
25.079405258902199
31
0
0
SPLINE
5
149
100
AcDbEntity
8
0
100
AcDbSpline
70
0
71
3
72
8
73
4
74
0
42
0.000000001
43
0.0000000001
44
0.0000000001
40
0
40
0
40
0
40
0
40
1
40
1
40
1
40
1
10
-130.85508023082099
20
26.079405258902199
30
0
10
-131.40736498065104
20
26.079405258902
30
0
10
-131.85508023082002
20
25.631690008732999
30
0
10
-131.85508023082002
20
25.079405258902199
30
0
0
LINE
5
150
100
AcDbEntity
8
0
100
AcDbLine
10
-130.85508023082099
20
26.079405258902199
30
0
11
-123.42433420811901
21
26.079406104248299
31
0
0
SPLINE
5
151
100
AcDbEntity
8
0
100
AcDbSpline
70
0
71
3
72
8
73
4
74
0
42
0.000000001
43
0.0000000001
44
0.0000000001
40
0
40
0
40
0
40
0
40
1
40
1
40
1
40
1
10
-123.42433420811901
20
26.079406104248299
30
0
10
-123.258648783171
20
26.0794061042482
30
0
10
-123.12433420812
20
26.213720679299005
30
0
10
-123.12433420812
20
26.379406104248599
30
0
0
LINE
5
152
100
AcDbEntity
8
0
100
AcDbLine
10
-123.12433420812
20
26.379406104248599
30
0
11
-123.124334208121
21
27.080456212498902
31
0
0
SPLINE
5
153
100
AcDbEntity
8
0
100
AcDbSpline
70
0
71
3
72
8
73
4
74
0
42
0.000000001
43
0.0000000001
44
0.0000000001
40
0
40
0
40
0
40
0
40
1
40
1
40
1
40
1
10
-122.12433420812101
20
28.080456212498301
30
0
10
-122.676618957952
20
28.0804562124985
30
0
10
-123.124334208121
20
27.632740962329404
30
0
10
-123.124334208121
20
27.080456212498902
30
0
0
LINE
5
154
100
AcDbEntity
8
0
100
AcDbLine
10
-122.12433420812101
20
28.080456212498301
30
0
11
-116.11357411708802
21
28.087446141886204
31
0
0
SPLINE
5
155
100
AcDbEntity
8
0
100
AcDbSpline
70
0
71
3
72
8
73
4
74
0
42
0.000000001
43
0.0000000001
44
0.0000000001
40
0
40
0
40
0
40
0
40
1
40
1
40
1
40
1
10
-115.11357411709
20
27.087447225146004
30
0
10
-115.11357471535702
20
27.639731551937501
30
0
10
-115.56128979029701
20
28.0874461418863
30
0
10
-116.11357411708802
20
28.087446141886204
30
0
0
LINE
5
156
100
AcDbEntity
8
0
100
AcDbLine
10
-115.11357411709
20
27.087447225146004
30
0
11
-115.11357270786057
21
26.086396033484025
31
0
0
LINE
5
157
100
AcDbEntity
8
0
100
AcDbLine
10
-115.11357270786057
20
26.086396033484025
30
0
11
-99.548334208120011
21
26.079406804206503
31
0
0
SPLINE
5
158
100
AcDbEntity
8
0
100
AcDbSpline
70
0
71
3
72
8
73
4
74
0
42
0.000000001
43
0.0000000001
44
0.0000000001
40
0
40
0
40
0
40
0
40
1
40
1
40
1
40
1
10
-99.548334208120011
20
26.079406804206503
30
0
10
-99.382648783170907
20
26.079406804206599
30
0
10
-99.248334208120099
20
26.213721379257304
30
0
10
-99.248334208120298
20
26.379406804206905
30
0
0
LINE
5
159
100
AcDbEntity
8
0
100
AcDbLine
10
-99.248334208120298
20
26.379406804206905
30
0
11
-99.248334208119616
21
27.079404735841802
31
0
0
SPLINE
5
160
100
AcDbEntity
8
0
100
AcDbSpline
70
0
71
3
72
8
73
4
74
0
42
0.000000001
43
0.0000000001
44
0.0000000001
40
0
40
0
40
0
40
0
40
1
40
1
40
1
40
1
10
-98.248334208119701
20
28.079404735840505
30
0
10
-98.800618957950007
20
28.079404735840804
30
0
10
-99.248334208118919
20
27.631689485672304
30
0
10
-99.248334208119616
20
27.079404735841802
30
0
0
LINE
5
161
100
AcDbEntity
8
0
100
AcDbLine
10
-98.248334208119701
20
28.079404735840505
30
0
11
-92.237574117086197
21
28.086394665229001
31
0
0
SPLINE
5
162
100
AcDbEntity
8
0
100
AcDbSpline
70
0
71
3
72
8
73
4
74
0
42
0.000000001
43
0.0000000001
44
0.0000000001
40
0
40
0
40
0
40
0
40
1
40
1
40
1
40
1
10
-91.237574117086893
20
27.086395748488805
30
0
10
-91.237574715354299
20
27.638680075280302
30
0
10
-91.685289790295016
20
28.0863946652292
30
0
10
-92.237574117086197
20
28.086394665229001
30
0
0
LINE
5
163
100
AcDbEntity
8
0
100
AcDbLine
10
-91.237574117086893
20
27.086395748488805
30
0
11
-91.237573014547095
21
26.385345256941498
31
0
0
SPLINE
5
164
100
AcDbEntity
8
0
100
AcDbSpline
70
0
71
3
72
8
73
4
74
0
42
0.000000001
43
0.0000000001
44
0.0000000001
40
0
40
0
40
0
40
0
40
1
40
1
40
1
40
1
10
-91.237573357668197
20
26.385345256940802
30
0
10
-91.236994081844614
20
26.220071326292398
30
0
10
-91.102850146155617
20
26.086396733594398
30
0
10
-90.937575200345208
20
26.086396733594398
30
0
0
LINE
5
165
100
AcDbEntity
8
0
100
AcDbLine
10
-90.937575200345208
20
26.086396733594398
30
0
11
-90.650570757373302
21
26.086395188297704
31
0
0
SPLINE
5
166
100
AcDbEntity
8
0
100
AcDbSpline
70
0
71
3
72
8
73
4
74
0
42
0.000000001
43
0.0000000001
44
0.0000000001
40
0
40
0
40
0
40
0
40
1
40
1
40
1
40
1
10
-89.650570757373316
20
25.086395188297704
30
0
10
-89.650570757373316
20
25.638679938128
30
0
10
-90.098286007542896
20
26.086395188297704
30
0
10
-90.650570757373302
20
26.086395188297704
30
0
0
LINE
5
167
100
AcDbEntity
8
0
100
AcDbLine
10
-89.650570757373316
20
25.086395188297704
30
0
11
-89.650570757373316
21
22.586395188297299
31
0
0
SPLINE
5
168
100
AcDbEntity
8
0
100
AcDbSpline
70
0
71
3
72
8
73
4
74
0
42
0.000000001
43
0.0000000001
44
0.0000000001
40
0
40
0
40
0
40
0
40
1
40
1
40
1
40
1
10
-90.650573357666218
20
21.586397788597203
30
0
10
-90.098288607837205
20
21.586396352492699
30
0
10
-89.650572193477203
20
22.034110438468304
30
0
10
-89.650570757373316
20
22.586395188297299
30
0
0
LINE
5
169
100
AcDbEntity
8
0
100
AcDbLine
10
-90.650573357666218
20
21.586397788597203
30
0
11
-90.650570757369508
21
16.5863977885938
31
0
0
SPLINE
5
170
100
AcDbEntity
8
0
100
AcDbSpline
70
0
71
3
72
8
73
4
74
0
42
0.000000001
43
0.0000000001
44
0.0000000001
40
0
40
0
40
0
40
0
40
1
40
1
40
1
40
1
10
-89.650570757369493
20
15.586397788593702
30
0
10
-89.650570757369493
20
16.1386825384247
30
0
10
-90.098286007539116
20
16.5863977885938
30
0
10
-90.650570757369508
20
16.5863977885938
30
0
0
LINE
5
171
100
AcDbEntity
8
0
100
AcDbLine
10
-89.650570757369493
20
15.586397788593702
30
0
11
-89.650570757369493
21
13.086397788593302
31
0
0
SPLINE
5
172
100
AcDbEntity
8
0
100
AcDbSpline
70
0
71
3
72
8
73
4
74
0
42
0.000000001
43
0.0000000001
44
0.0000000001
40
0
40
0
40
0
40
0
40
1
40
1
40
1
40
1
10
-90.650570757369508
20
12.086397788593302
30
0
10
-90.098286007539116
20
12.086397788593302
30
0
10
-89.650570757369493
20
12.534113038762399
30
0
10
-89.650570757369493
20
13.086397788593302
30
0
0
LINE
5
173
100
AcDbEntity
8
0
100
AcDbLine
10
-90.650570757369508
20
12.086397788593302
30
0
11
-90.950572892009916
21
12.086399333890601
31
0
0
LINE
5
174
100
AcDbEntity
8
0
100
AcDbLine
10
-90.950572892009916
20
12.086399333890601
30
0
11
-130.85508023081499
21
12.0794078591881
31
0
0
SPLINE
5
175
100
AcDbEntity
8
0
100
AcDbSpline
70
0
71
3
72
8
73
4
74
0
42
0.000000001
43
0.0000000001
44
0.0000000001
40
0
40
0
40
0
40
0
40
1
40
1
40
1
40
1
10
-131.85508023081499
20
13.079407859188201
30
0
10
-131.85508023081499
20
12.527123109357202
30
0
10
-131.40736498064601
20
12.0794078591881
30
0
10
-130.85508023081499
20
12.0794078591881
30
0
0
LINE
5
176
100
AcDbEntity
8
0
100
AcDbLine
10
-131.85508023081499
20
13.079407859188201
30
0
11
-131.85508023082002
21
15.579405258902202
31
0
0
SPLINE
5
177
100
AcDbEntity
8
0
100
AcDbSpline
70
0
71
3
72
8
73
4
74
0
42
0.000000001
43
0.0000000001
44
0.0000000001
40
0
40
0
40
0
40
0
40
1
40
1
40
1
40
1
10
-112.799700726916
20
41.632951023601798
30
0
10
-112.799700726916
20
41.080667107400203
30
0
10
-112.351986777758
20
40.632952202531897
30
0
10
-111.79970286155701
20
40.632951023604306
30
0
0
LINE
5
178
100
AcDbEntity
8
0
100
AcDbLine
10
-112.799700726916
20
41.632951023601798
30
0
11
-112.799700726914
21
44.132951023601599
31
0
0
SPLINE
5
179
100
AcDbEntity
8
0
100
AcDbSpline
70
0
71
3
72
8
73
4
74
0
42
0.000000001
43
0.0000000001
44
0.0000000001
40
0
40
0
40
0
40
0
40
1
40
1
40
1
40
1
10
-111.79970072691401
20
45.132951023601599
30
0
10
-112.351985476745
20
45.132951023601599
30
0
10
-112.799700726914
20
44.68523577343251
30
0
10
-112.799700726914
20
44.132951023601599
30
0
0
LINE
5
180
100
AcDbEntity
8
0
100
AcDbLine
10
-111.79970072691401
20
45.132951023601599
30
0
11
-111.499702395898
21
45.132952169448899
31
0
0
LINE
5
181
100
AcDbEntity
8
0
100
AcDbLine
10
-111.499702395898
20
45.132952169448899
30
0
11
-97.799700726914267
21
45.132951106406239
31
0
0
SPLINE
5
182
100
AcDbEntity
8
0
100
AcDbSpline
70
0
71
3
72
8
73
4
74
0
42
0.000000001
43
0.0000000001
44
0.0000000001
40
0
40
0
40
0
40
0
40
1
40
1
40
1
40
1
10
-96.799700726914196
20
44.132951023601599
30
0
10
-96.799700726914196
20
44.68523577343251
30
0
10
-97.247415977083307
20
45.132951023601599
30
0
10
-97.799700726914196
20
45.132951023601599
30
0
0
LINE
5
183
100
AcDbEntity
8
0
100
AcDbLine
10
-96.799700726914196
20
44.132951023601599
30
0
11
-96.799700726916015
21
41.632948888963
31
0
0
SPLINE
5
184
100
AcDbEntity
8
0
100
AcDbSpline
70
0
71
3
72
8
73
4
74
0
42
0.000000001
43
0.0000000001
44
0.0000000001
40
0
40
0
40
0
40
0
40
1
40
1
40
1
40
1
10
-97.79970286155401
20
40.632951023605301
30
0
10
-97.247418111724414
20
40.632949844675899
30
0
10
-96.799701905845495
20
41.080664139133305
30
0
10
-96.799700726916015
20
41.632948888963
30
0
0
LINE
5
185
100
AcDbEntity
8
0
100
AcDbLine
10
-97.79970286155401
20
40.632951023605301
30
0
11
-97.79970286155401
21
35.632951023605102
31
0
0
SPLINE
5
186
100
AcDbEntity
8
0
100
AcDbSpline
70
0
71
3
72
8
73
4
74
0
42
0.000000001
43
0.0000000001
44
0.0000000001
40
0
40
0
40
0
40
0
40
1
40
1
40
1
40
1
10
-96.79970286155401
20
34.632951023605102
30
0
10
-96.79970286155401
20
35.185235773435998
30
0
10
-97.247418111723107
20
35.632951023605102
30
0
10
-97.79970286155401
20
35.632951023605102
30
0
0
LINE
5
187
100
AcDbEntity
8
0
100
AcDbLine
10
-96.79970286155401
20
34.632951023605102
30
0
11
-96.79970286155401
21
32.132951023605301
31
0
0
SPLINE
5
188
100
AcDbEntity
8
0
100
AcDbSpline
70
0
71
3
72
8
73
4
74
0
42
0.000000001
43
0.0000000001
44
0.0000000001
40
0
40
0
40
0
40
0
40
1
40
1
40
1
40
1
10
-97.79970286155401
20
31.132951023605301
30
0
10
-97.247418111723107
20
31.132951023605301
30
0
10
-96.79970286155401
20
31.580666273774405
30
0
10
-96.79970286155401
20
32.132951023605301
30
0
0
LINE
5
189
100
AcDbEntity
8
0
100
AcDbLine
10
-97.79970286155401
20
31.132951023605301
30
0
11
-98.099704530536513
21
31.132952169452604
31
0
0
LINE
5
190
100
AcDbEntity
8
0
100
AcDbLine
10
-98.099704530536513
20
31.132952169452604
30
0
11
-111.79970286155402
21
31.132951372775022
31
0
0
SPLINE
5
191
100
AcDbEntity
8
0
100
AcDbSpline
70
0
71
3
72
8
73
4
74
0
42
0.000000001
43
0.0000000001
44
0.0000000001
40
0
40
0
40
0
40
0
40
1
40
1
40
1
40
1
10
-112.79970286155401
20
32.132951023605301
30
0
10
-112.79970286155401
20
31.580666273774405
30
0
10
-112.351987611385
20
31.132951023605301
30
0
10
-111.79970286155401
20
31.132951023605301
30
0
0
LINE
5
192
100
AcDbEntity
8
0
100
AcDbLine
10
-112.79970286155401
20
32.132951023605301
30
0
11
-112.799700726916
21
34.632951023601599
31
0
0
SPLINE
5
193
100
AcDbEntity
8
0
100
AcDbSpline
70
0
71
3
72
8
73
4
74
0
42
0.000000001
43
0.0000000001
44
0.0000000001
40
0
40
0
40
0
40
0
40
1
40
1
40
1
40
1
10
-111.79970286155701
20
35.632951023599702
30
0
10
-112.351986777758
20
35.632949844671501
30
0
10
-112.799700726916
20
35.185234939803898
30
0
10
-112.799700726916
20
34.632951023601599
30
0
0
LINE
5
194
100
AcDbEntity
8
0
100
AcDbLine
10
-111.79970286155701
20
35.632951023599702
30
0
11
-111.79970286155701
21
40.632951023604306
31
0
0
SPLINE
5
195
100
AcDbEntity
8
0
100
AcDbSpline
70
0
71
3
72
8
73
4
74
0
42
0.000000001
43
0.0000000001
44
0.0000000001
40
0
40
0
40
0
40
0
40
1
40
1
40
1
40
1
10
-131.84970072691701
20
41.632950823952598
30
0
10
-131.84970072691701
20
41.080666907750299
30
0
10
-131.40198677775899
20
40.632952002882703
30
0
10
-130.849702861558
20
40.632950823954502
30
0
0
LINE
5
196
100
AcDbEntity
8
0
100
AcDbLine
10
-131.84970072691701
20
41.632950823952598
30
0
11
-131.84970072691499
21
44.132950823951703
31
0
0
SPLINE
5
197
100
AcDbEntity
8
0
100
AcDbSpline
70
0
71
3
72
8
73
4
74
0
42
0.000000001
43
0.0000000001
44
0.0000000001
40
0
40
0
40
0
40
0
40
1
40
1
40
1
40
1
10
-130.84970072691499
20
45.132950823951703
30
0
10
-131.40198547674601
20
45.132950823951703
30
0
10
-131.84970072691499
20
44.685235573782606
30
0
10
-131.84970072691499
20
44.132950823951703
30
0
0
LINE
5
198
100
AcDbEntity
8
0
100
AcDbLine
10
-130.84970072691499
20
45.132950823951703
30
0
11
-129.84970286160438
21
45.132955308955651
31
0
0
LINE
5
199
100
AcDbEntity
8
0
100
AcDbLine
10
-129.84970286160438
20
45.132955308955651
30
0
11
-116.849700726915
21
45.132951504963401
31
0
0
SPLINE
5
200
100
AcDbEntity
8
0
100
AcDbSpline
70
0
71
3
72
8
73
4
74
0
42
0.000000001
43
0.0000000001
44
0.0000000001
40
0
40
0
40
0
40
0
40
1
40
1
40
1
40
1
10
-115.84970072691502
20
44.132950823951703
30
0
10
-115.84970072691502
20
44.685235573782606
30
0
10
-116.29741597708401
20
45.132950823951703
30
0
10
-116.849700726915
20
45.132950823951703
30
0
0
LINE
5
201
100
AcDbEntity
8
0
100
AcDbLine
10
-115.84970072691502
20
44.132950823951703
30
0
11
-115.84970072691802
21
41.632948689312499
31
0
0
SPLINE
5
202
100
AcDbEntity
8
0
100
AcDbSpline
70
0
71
3
72
8
73
4
74
0
42
0.000000001
43
0.0000000001
44
0.0000000001
40
0
40
0
40
0
40
0
40
1
40
1
40
1
40
1
10
-116.84970286155601
20
40.632950823955099
30
0
10
-116.297418111726
20
40.632949645026201
30
0
10
-115.849701905846
20
41.080663939482804
30
0
10
-115.84970072691802
20
41.632948689312499
30
0
0
LINE
5
203
100
AcDbEntity
8
0
100
AcDbLine
10
-116.84970286155601
20
40.632950823955099
30
0
11
-116.849700726916
21
35.632950823953003
31
0
0
SPLINE
5
204
100
AcDbEntity
8
0
100
AcDbSpline
70
0
71
3
72
8
73
4
74
0
42
0.000000001
43
0.0000000001
44
0.0000000001
40
0
40
0
40
0
40
0
40
1
40
1
40
1
40
1
10
-115.84970072691702
20
34.632950823952299
30
0
10
-115.84970072691702
20
35.185235573783302
30
0
10
-116.29741597708501
20
35.632950823952598
30
0
10
-116.849700726916
20
35.632950823953003
30
0
0
LINE
5
205
100
AcDbEntity
8
0
100
AcDbLine
10
-115.84970072691702
20
34.632950823952299
30
0
11
-115.84970072691702
21
32.132950823952598
31
0
0
SPLINE
5
206
100
AcDbEntity
8
0
100
AcDbSpline
70
0
71
3
72
8
73
4
74
0
42
0.000000001
43
0.0000000001
44
0.0000000001
40
0
40
0
40
0
40
0
40
1
40
1
40
1
40
1
10
-116.84970072691701
20
31.132950823952502
30
0
10
-116.29741597708602
20
31.132950823952502
30
0
10
-115.84970072691702
20
31.580666074121599
30
0
10
-115.84970072691702
20
32.132950823952598
30
0
0
LINE
5
207
100
AcDbEntity
8
0
100
AcDbLine
10
-116.84970072691701
20
31.132950823952502
30
0
11
-117.84970286150457
21
31.132955308925713
31
0
0
LINE
5
208
100
AcDbEntity
8
0
100
AcDbLine
10
-117.84970286150457
20
31.132955308925713
30
0
11
-130.84970072691701
21
31.132951504964147
31
0
0
SPLINE
5
209
100
AcDbEntity
8
0
100
AcDbSpline
70
0
71
3
72
8
73
4
74
0
42
0.000000001
43
0.0000000001
44
0.0000000001
40
0
40
0
40
0
40
0
40
1
40
1
40
1
40
1
10
-131.84970072691701
20
32.132950823952598
30
0
10
-131.84970072691701
20
31.580666074121599
30
0
10
-131.401985476748
20
31.132950823952502
30
0
10
-130.84970072691701
20
31.132950823952502
30
0
0
LINE
5
210
100
AcDbEntity
8
0
100
AcDbLine
10
-131.84970072691701
20
32.132950823952598
30
0
11
-131.84970072691701
21
34.632950823952299
31
0
0
SPLINE
5
211
100
AcDbEntity
8
0
100
AcDbSpline
70
0
71
3
72
8
73
4
74
0
42
0.000000001
43
0.0000000001
44
0.0000000001
40
0
40
0
40
0
40
0
40
1
40
1
40
1
40
1
10
-130.849702861558
20
35.632950823949798
30
0
10
-131.40198677775899
20
35.6329496450223
30
0
10
-131.84970072691701
20
35.185234740154002
30
0
10
-131.84970072691701
20
34.632950823952299
30
0
0
LINE
5
212
100
AcDbEntity
8
0
100
AcDbLine
10
-130.849702861558
20
35.632950823949798
30
0
11
-130.849702861558
21
40.632950823954502
31
0
0
SPLINE
5
213
100
AcDbEntity
8
0
100
AcDbSpline
70
0
71
3
72
8
73
4
74
0
42
0.000000001
43
0.0000000001
44
0.0000000001
40
0
40
0
40
0
40
0
40
1
40
1
40
1
40
1
10
-150.88356317958201
20
41.643373773114298
30
0
10
-150.88356317958201
20
41.091089205133798
30
0
10
-150.435848213219
20
40.643374030289301
30
0
10
-149.88356364523804
20
40.643373773114305
30
0
0
LINE
5
214
100
AcDbEntity
8
0
100
AcDbLine
10
-150.88356317958201
20
41.643373773114298
30
0
11
-150.88356317958201
21
44.143373773114106
31
0
0
SPLINE
5
215
100
AcDbEntity
8
0
100
AcDbSpline
70
0
71
3
72
8
73
4
74
0
42
0.000000001
43
0.0000000001
44
0.0000000001
40
0
40
0
40
0
40
0
40
1
40
1
40
1
40
1
10
-149.88356317958201
20
45.143373773114099
30
0
10
-150.43584792941201
20
45.143373773113908
30
0
10
-150.88356317958201
20
44.695658522944903
30
0
10
-150.88356317958201
20
44.143373773114106
30
0
0
LINE
5
216
100
AcDbEntity
8
0
100
AcDbLine
10
-149.88356317958201
20
45.143373773114099
30
0
11
-135.88356317958099
21
45.143373773114099
31
0
0
SPLINE
5
217
100
AcDbEntity
8
0
100
AcDbSpline
70
0
71
3
72
8
73
4
74
0
42
0.000000001
43
0.0000000001
44
0.0000000001
40
0
40
0
40
0
40
0
40
1
40
1
40
1
40
1
10
-134.88356317958102
20
44.143373773114106
30
0
10
-134.88356317958102
20
44.695658522945003
30
0
10
-135.33127842975
20
45.143373773114
30
0
10
-135.88356317958099
20
45.143373773114099
30
0
0
LINE
5
218
100
AcDbEntity
8
0
100
AcDbLine
10
-134.88356317958102
20
44.143373773114106
30
0
11
-134.88356317958201
21
41.643373307457097
31
0
0
SPLINE
5
219
100
AcDbEntity
8
0
100
AcDbSpline
70
0
71
3
72
8
73
4
74
0
42
0.000000001
43
0.0000000001
44
0.0000000001
40
0
40
0
40
0
40
0
40
1
40
1
40
1
40
1
10
-135.88356364523699
20
40.643373773114597
30
0
10
-135.33127889540702
20
40.643373515939409
30
0
10
-134.88356343675599
20
41.091088557626698
30
0
10
-134.88356317958201
20
41.643373307457097
30
0
0
LINE
5
220
100
AcDbEntity
8
0
100
AcDbLine
10
-135.88356364523699
20
40.643373773114597
30
0
11
-135.88356364523699
21
35.643373773114398
31
0
0
SPLINE
5
221
100
AcDbEntity
8
0
100
AcDbSpline
70
0
71
3
72
8
73
4
74
0
42
0.000000001
43
0.0000000001
44
0.0000000001
40
0
40
0
40
0
40
0
40
1
40
1
40
1
40
1
10
-134.88356364523699
20
34.643373773114298
30
0
10
-134.88356364523699
20
35.195658522945301
30
0
10
-135.33127889540702
20
35.643373773114398
30
0
10
-135.88356364523699
20
35.643373773114398
30
0
0
LINE
5
222
100
AcDbEntity
8
0
100
AcDbLine
10
-134.88356364523699
20
34.643373773114298
30
0
11
-134.88356364523699
21
32.143373773114597
31
0
0
SPLINE
5
223
100
AcDbEntity
8
0
100
AcDbSpline
70
0
71
3
72
8
73
4
74
0
42
0.000000001
43
0.0000000001
44
0.0000000001
40
0
40
0
40
0
40
0
40
1
40
1
40
1
40
1
10
-135.88356364523699
20
31.143373773114604
30
0
10
-135.33127889540702
20
31.143373773114604
30
0
10
-134.88356364523699
20
31.591089023283601
30
0
10
-134.88356364523699
20
32.143373773114597
30
0
0
LINE
5
224
100
AcDbEntity
8
0
100
AcDbLine
10
-135.88356364523699
20
31.143373773114604
30
0
11
-149.88356364523804
21
31.143373773114604
31
0
0
SPLINE
5
225
100
AcDbEntity
8
0
100
AcDbSpline
70
0
71
3
72
8
73
4
74
0
42
0.000000001
43
0.0000000001
44
0.0000000001
40
0
40
0
40
0
40
0
40
1
40
1
40
1
40
1
10
-150.88356364523801
20
32.143373773114597
30
0
10
-150.88356364523801
20
31.591089023283601
30
0
10
-150.43584839506801
20
31.143373773114604
30
0
10
-149.88356364523804
20
31.143373773114604
30
0
0
LINE
5
226
100
AcDbEntity
8
0
100
AcDbLine
10
-150.88356364523801
20
32.143373773114597
30
0
11
-150.88356151059699
21
34.643373773111499
31
0
0
SPLINE
5
227
100
AcDbEntity
8
0
100
AcDbSpline
70
0
71
3
72
8
73
4
74
0
42
0.000000001
43
0.0000000001
44
0.0000000001
40
0
40
0
40
0
40
0
40
1
40
1
40
1
40
1
10
-149.88356197625302
20
35.643373773111499
30
0
10
-150.43584654423401
20
35.643373515936503
30
0
10
-150.88356151059699
20
35.195658341092603
30
0
10
-150.88356151059699
20
34.643373773111499
30
0
0
LINE
5
228
100
AcDbEntity
8
0
100
AcDbLine
10
-149.88356197625302
20
35.643373773111499
30
0
11
-149.88356364523801
21
40.643373773114305
31
0
0
SPLINE
5
229
100
AcDbEntity
8
0
100
AcDbSpline
70
0
71
3
72
8
73
4
74
0
42
0.000000001
43
0.0000000001
44
0.0000000001
40
0
40
0
40
0
40
0
40
1
40
1
40
1
40
1
10
-39.644321223027902
20
34.6363951882959
30
0
10
-39.644321223027902
20
35.188679938126903
30
0
10
-40.102795480973505
20
35.6294052589082
30
0
10
-40.655080230803797
20
35.6294052589082
30
0
0
LINE
5
230
100
AcDbEntity
8
0
100
AcDbLine
10
-39.644321223027902
20
34.6363951882959
30
0
11
-39.644321223027902
21
32.136395188295509
31
0
0
SPLINE
5
231
100
AcDbEntity
8
0
100
AcDbSpline
70
0
71
3
72
8
73
4
74
0
42
0.000000001
43
0.0000000001
44
0.0000000001
40
0
40
0
40
0
40
0
40
1
40
1
40
1
40
1
10
-40.644321223027902
20
31.136395188296202
30
0
10
-40.092036473197709
20
31.136395188296099
30
0
10
-39.644321223027902
20
31.584110438465203
30
0
10
-39.644321223027902
20
32.136395188295509
30
0
0
LINE
5
232
100
AcDbEntity
8
0
100
AcDbLine
10
-40.644321223027902
20
31.136395188296202
30
0
11
-54.64432122302771
21
31.136395188296099
31
0
0
LINE
5
233
100
AcDbEntity
8
0
100
AcDbLine
10
-54.64432122302771
20
31.136395188296099
30
0
11
-92.749700726915805
21
31.132900223602604
31
0
0
SPLINE
5
234
100
AcDbEntity
8
0
100
AcDbSpline
70
0
71
3
72
8
73
4
74
0
42
0.000000001
43
0.0000000001
44
0.0000000001
40
0
40
0
40
0
40
0
40
1
40
1
40
1
40
1
10
-93.749700726915805
20
32.132900223602
30
0
10
-93.749700726915904
20
31.580615473771303
30
0
10
-93.301985476746808
20
31.132900223602405
30
0
10
-92.749700726915805
20
31.132900223602604
30
0
0
LINE
5
235
100
AcDbEntity
8
0
100
AcDbLine
10
-93.749700726915805
20
32.132900223602
30
0
11
-93.749700726915805
21
34.6329002236006
31
0
0
SPLINE
5
236
100
AcDbEntity
8
0
100
AcDbSpline
70
0
71
3
72
8
73
4
74
0
42
0.000000001
43
0.0000000001
44
0.0000000001
40
0
40
0
40
0
40
0
40
1
40
1
40
1
40
1
10
-92.749702861556614
20
35.63290022359871
30
0
10
-93.301986777756809
20
35.632899044671198
30
0
10
-93.749700726915805
20
35.185184139802899
30
0
10
-93.749700726915805
20
34.6329002236006
30
0
0
LINE
5
237
100
AcDbEntity
8
0
100
AcDbLine
10
-92.749702861556614
20
35.63290022359871
30
0
11
-92.738943853780114
21
40.639890152991207
31
0
0
SPLINE
5
238
100
AcDbEntity
8
0
100
AcDbSpline
70
0
71
3
72
8
73
4
74
0
42
0.000000001
43
0.0000000001
44
0.0000000001
40
0
40
0
40
0
40
0
40
1
40
1
40
1
40
1
10
-93.738941719139206
20
41.639890152988698
30
0
10
-93.738941719139206
20
41.087606236787011
30
0
10
-93.291227769980395
20
40.639891331918804
30
0
10
-92.738943853780114
20
40.639890152991207
30
0
0
LINE
5
239
100
AcDbEntity
8
0
100
AcDbLine
10
-93.738941719139206
20
41.639890152988698
30
0
11
-93.738941719139206
21
44.139890152989103
31
0
0
SPLINE
5
240
100
AcDbEntity
8
0
100
AcDbSpline
70
0
71
3
72
8
73
4
74
0
42
0.000000001
43
0.0000000001
44
0.0000000001
40
0
40
0
40
0
40
0
40
1
40
1
40
1
40
1
10
-92.73894171913922
20
45.13989015298921
30
0
10
-93.291226468970308
20
45.13989015298921
30
0
10
-93.738941719139206
20
44.69217490281941
30
0
10
-93.738941719139206
20
44.139890152989103
30
0
0
LINE
5
241
100
AcDbEntity
8
0
100
AcDbLine
10
-92.73894171913922
20
45.13989015298921
30
0
11
-40.644321223027902
21
45.136395188296
31
0
0
SPLINE
5
242
100
AcDbEntity
8
0
100
AcDbSpline
70
0
71
3
72
8
73
4
74
0
42
0.000000001
43
0.0000000001
44
0.0000000001
40
0
40
0
40
0
40
0
40
1
40
1
40
1
40
1
10
-39.644321223027902
20
44.136395188296007
30
0
10
-39.644321223027902
20
44.688679938126903
30
0
10
-40.092036473197709
20
45.136395188296
30
0
10
-40.644321223027902
20
45.136395188296
30
0
0
LINE
5
243
100
AcDbEntity
8
0
100
AcDbLine
10
-39.644321223027902
20
44.136395188296007
30
0
11
-39.644321223027902
21
41.636395188295509
31
0
0
SPLINE
5
244
100
AcDbEntity
8
0
100
AcDbSpline
70
0
71
3
72
8
73
4
74
0
42
0.000000001
43
0.0000000001
44
0.0000000001
40
0
40
0
40
0
40
0
40
1
40
1
40
1
40
1
10
-40.655080230803797
20
40.629405258908299
30
0
10
-40.102795480973505
20
40.629405258908299
30
0
10
-39.644321223027902
20
41.084110438465203
30
0
10
-39.644321223027902
20
41.636395188295509
30
0
0
LINE
5
245
100
AcDbEntity
8
0
100
AcDbLine
10
-40.655080230803797
20
40.629405258908299
30
0
11
-40.655080230803797
21
35.629405258908193
31
0
0
SPLINE
5
246
100
AcDbEntity
8
0
100
AcDbSpline
70
0
71
3
72
8
73
4
74
0
42
0.000000001
43
0.0000000001
44
0.0000000001
40
0
40
0
40
0
40
0
40
1
40
1
40
1
40
1
10
-150.89432191428
20
3.53639383764125
30
0
10
-150.89432191428
20
2.9841099214395999
30
0
10
-150.44660796512099
20
2.53639501657132
30
0
10
-149.89432404892
20
2.5363938376437902
30
0
0
LINE
5
247
100
AcDbEntity
8
0
100
AcDbLine
10
-150.89432191428
20
3.53639383764125
30
0
11
-150.89432191427599
21
6.0363938376417003
31
0
0
SPLINE
5
248
100
AcDbEntity
8
0
100
AcDbSpline
70
0
71
3
72
8
73
4
74
0
42
0.000000001
43
0.0000000001
44
0.0000000001
40
0
40
0
40
0
40
0
40
1
40
1
40
1
40
1
10
-149.89432191427599
20
7.0363938376417412
30
0
10
-150.44660666410701
20
7.0363938376417412
30
0
10
-150.89432191427599
20
6.5886785874726606
30
0
10
-150.89432191427599
20
6.0363938376417003
30
0
0
LINE
5
249
100
AcDbEntity
8
0
100
AcDbLine
10
-149.89432191427599
20
7.0363938376417412
30
0
11
-148.89432404898082
21
7.0363989886460114
31
0
0
LINE
5
250
100
AcDbEntity
8
0
100
AcDbLine
10
-148.89432404898082
20
7.0363989886460114
30
0
11
-135.89432191427599
21
7.0363946185525741
31
0
0
SPLINE
5
251
100
AcDbEntity
8
0
100
AcDbSpline
70
0
71
3
72
8
73
4
74
0
42
0.000000001
43
0.0000000001
44
0.0000000001
40
0
40
0
40
0
40
0
40
1
40
1
40
1
40
1
10
-134.89432191427599
20
6.0363938376416906
30
0
10
-134.89432191427599
20
6.5886785874726606
30
0
10
-135.34203716444603
20
7.0363938376417412
30
0
10
-135.89432191427599
20
7.0363938376417305
30
0
0
LINE
5
252
100
AcDbEntity
8
0
100
AcDbLine
10
-134.89432191427599
20
6.0363938376416906
30
0
11
-134.89432191427903
21
3.53639170300313
31
0
0
SPLINE
5
253
100
AcDbEntity
8
0
100
AcDbSpline
70
0
71
3
72
8
73
4
74
0
42
0.000000001
43
0.0000000001
44
0.0000000001
40
0
40
0
40
0
40
0
40
1
40
1
40
1
40
1
10
-135.89432404891599
20
2.53639383764579
30
0
10
-135.342039299086
20
2.5363926587162307
30
0
10
-134.89432309320699
20
2.9841069531740998
30
0
10
-134.89432191427903
20
3.53639170300313
30
0
0
LINE
5
254
100
AcDbEntity
8
0
100
AcDbLine
10
-135.89432404891599
20
2.53639383764579
30
0
11
-135.89432404891599
21
-2.4636061623543899
31
0
0
SPLINE
5
255
100
AcDbEntity
8
0
100
AcDbSpline
70
0
71
3
72
8
73
4
74
0
42
0.000000001
43
0.0000000001
44
0.0000000001
40
0
40
0
40
0
40
0
40
1
40
1
40
1
40
1
10
-134.89432404891599
20
-3.4636061623544299
30
0
10
-134.89432404891599
20
-2.9113214125234599
30
0
10
-135.342039299086
20
-2.4636061623543899
30
0
10
-135.89432404891599
20
-2.4636061623543899
30
0
0
LINE
5
256
100
AcDbEntity
8
0
100
AcDbLine
10
-134.89432404891599
20
-3.4636061623544299
30
0
11
-134.89432404891599
21
-5.9636061623541901
31
0
0
SPLINE
5
257
100
AcDbEntity
8
0
100
AcDbSpline
70
0
71
3
72
8
73
4
74
0
42
0.000000001
43
0.0000000001
44
0.0000000001
40
0
40
0
40
0
40
0
40
1
40
1
40
1
40
1
10
-135.89432404891599
20
-6.96360616235423
30
0
10
-135.342039299086
20
-6.96360616235423
30
0
10
-134.89432404891599
20
-6.5158909121851405
30
0
10
-134.89432404891599
20
-5.9636061623541901
30
0
0
LINE
5
258
100
AcDbEntity
8
0
100
AcDbLine
10
-135.89432404891599
20
-6.96360616235423
30
0
11
-136.89432618348928
21
-6.96360101138528
31
0
0
LINE
5
259
100
AcDbEntity
8
0
100
AcDbLine
10
-136.89432618348928
20
-6.96360101138528
30
0
11
-149.89432404891701
21
-6.9636053814434771
31
0
0
SPLINE
5
260
100
AcDbEntity
8
0
100
AcDbSpline
70
0
71
3
72
8
73
4
74
0
42
0.000000001
43
0.0000000001
44
0.0000000001
40
0
40
0
40
0
40
0
40
1
40
1
40
1
40
1
10
-150.89432404891704
20
-5.9636061623541901
30
0
10
-150.89432404891704
20
-6.5158909121851405
30
0
10
-150.44660879874701
20
-6.96360616235423
30
0
10
-149.89432404891701
20
-6.96360616235423
30
0
0
LINE
5
261
100
AcDbEntity
8
0
100
AcDbLine
10
-150.89432404891704
20
-5.9636061623541901
30
0
11
-150.894321914279
21
-3.4636061623583601
31
0
0
SPLINE
5
262
100
AcDbEntity
8
0
100
AcDbSpline
70
0
71
3
72
8
73
4
74
0
42
0.000000001
43
0.0000000001
44
0.0000000001
40
0
40
0
40
0
40
0
40
1
40
1
40
1
40
1
10
-149.894324048919
20
-2.4636061623602403
30
0
10
-150.44660796512099
20
-2.4636073412883102
30
0
10
-150.894321914279
20
-2.9113222461567103
30
0
10
-150.894321914279
20
-3.4636061623583601
30
0
0
LINE
5
263
100
AcDbEntity
8
0
100
AcDbLine
10
-149.894324048919
20
-2.4636061623602403
30
0
11
-149.89432404892
21
2.5363938376437902
31
0
0
SPLINE
5
264
100
AcDbEntity
8
0
100
AcDbSpline
70
0
71
3
72
8
73
4
74
0
42
0.000000001
43
0.0000000001
44
0.0000000001
40
0
40
0
40
0
40
0
40
1
40
1
40
1
40
1
10
-134.90508078551699
20
-41.563606447774902
30
0
10
-134.90508078551699
20
-41.011321697943998
30
0
10
-135.352796035686
20
-40.563606447774909
30
0
10
-135.90508078551699
20
-40.563606447774909
30
0
0
LINE
5
265
100
AcDbEntity
8
0
100
AcDbLine
10
-134.90508078551699
20
-41.563606447774902
30
0
11
-134.90508078551699
21
-44.06360644777471
31
0
0
SPLINE
5
266
100
AcDbEntity
8
0
100
AcDbSpline
70
0
71
3
72
8
73
4
74
0
42
0.000000001
43
0.0000000001
44
0.0000000001
40
0
40
0
40
0
40
0
40
1
40
1
40
1
40
1
10
-135.90508078551699
20
-45.063606447774703
30
0
10
-135.352796035686
20
-45.063606447774703
30
0
10
-134.90508078551699
20
-44.615891197605599
30
0
10
-134.90508078551699
20
-44.06360644777471
30
0
0
LINE
5
267
100
AcDbEntity
8
0
100
AcDbLine
10
-135.90508078551699
20
-45.063606447774703
30
0
11
-149.90508078551699
21
-45.063606447774703
31
0
0
SPLINE
5
268
100
AcDbEntity
8
0
100
AcDbSpline
70
0
71
3
72
8
73
4
74
0
42
0.000000001
43
0.0000000001
44
0.0000000001
40
0
40
0
40
0
40
0
40
1
40
1
40
1
40
1
10
-150.90508078551699
20
-44.06360644777471
30
0
10
-150.90508078551699
20
-44.615891197605706
30
0
10
-150.457365535348
20
-45.063606447774703
30
0
10
-149.90508078551699
20
-45.063606447774703
30
0
0
LINE
5
269
100
AcDbEntity
8
0
100
AcDbLine
10
-150.90508078551699
20
-44.06360644777471
30
0
11
-150.90508078551699
21
-41.563606447774902
31
0
0
SPLINE
5
270
100
AcDbEntity
8
0
100
AcDbSpline
70
0
71
3
72
8
73
4
74
0
42
0.000000001
43
0.0000000001
44
0.0000000001
40
0
40
0
40
0
40
0
40
1
40
1
40
1
40
1
10
-149.90508292015701
20
-40.563606447776799
30
0
10
-150.45736683635801
20
-40.563607626704901
30
0
10
-150.90508078551699
20
-41.011322531573306
30
0
10
-150.90508078551699
20
-41.563606447774902
30
0
0
LINE
5
271
100
AcDbEntity
8
0
100
AcDbLine
10
-149.90508292015701
20
-40.563606447776799
30
0
11
-149.90508292015701
21
-35.563606447772798
31
0
0
SPLINE
5
272
100
AcDbEntity
8
0
100
AcDbSpline
70
0
71
3
72
8
73
4
74
0
42
0.000000001
43
0.0000000001
44
0.0000000001
40
0
40
0
40
0
40
0
40
1
40
1
40
1
40
1
10
-150.90508078551699
20
-34.5636064477753
30
0
10
-150.90508078551699
20
-35.115890363976803
30
0
10
-150.45736683635801
20
-35.563605268845102
30
0
10
-149.90508292015701
20
-35.563606447772798
30
0
0
LINE
5
273
100
AcDbEntity
8
0
100
AcDbLine
10
-150.90508078551699
20
-34.5636064477753
30
0
11
-150.90508078551699
21
-32.063606447774902
31
0
0
SPLINE
5
274
100
AcDbEntity
8
0
100
AcDbSpline
70
0
71
3
72
8
73
4
74
0
42
0.000000001
43
0.0000000001
44
0.0000000001
40
0
40
0
40
0
40
0
40
1
40
1
40
1
40
1
10
-149.90508078551699
20
-31.063606447774905
30
0
10
-150.457365535348
20
-31.063606447775001
30
0
10
-150.90508078551699
20
-31.511321697944705
30
0
10
-150.90508078551699
20
-32.063606447774902
30
0
0
LINE
5
275
100
AcDbEntity
8
0
100
AcDbLine
10
-149.90508078551699
20
-31.063606447774905
30
0
11
-135.90508078551699
21
-31.063606447774905
31
0
0
SPLINE
5
276
100
AcDbEntity
8
0
100
AcDbSpline
70
0
71
3
72
8
73
4
74
0
42
0.000000001
43
0.0000000001
44
0.0000000001
40
0
40
0
40
0
40
0
40
1
40
1
40
1
40
1
10
-134.90508078551699
20
-32.063606447774902
30
0
10
-134.90508078551699
20
-31.511321697944599
30
0
10
-135.352796035686
20
-31.063606447775001
30
0
10
-135.90508078551699
20
-31.063606447774905
30
0
0
LINE
5
277
100
AcDbEntity
8
0
100
AcDbLine
10
-134.90508078551699
20
-32.063606447774902
30
0
11
-134.90508078551699
21
-34.5636064477753
31
0
0
SPLINE
5
278
100
AcDbEntity
8
0
100
AcDbSpline
70
0
71
3
72
8
73
4
74
0
42
0.000000001
43
0.0000000001
44
0.0000000001
40
0
40
0
40
0
40
0
40
1
40
1
40
1
40
1
10
-135.90508078551699
20
-35.563606447774703
30
0
10
-135.352796035686
20
-35.563606447774902
30
0
10
-134.90508078551699
20
-35.115891197605301
30
0
10
-134.90508078551699
20
-34.5636064477753
30
0
0
LINE
5
279
100
AcDbEntity
8
0
100
AcDbLine
10
-135.90508078551699
20
-35.563606447774703
30
0
11
-135.90508078551699
21
-40.563606447774909
31
0
0
SPLINE
5
280
100
AcDbEntity
8
0
100
AcDbSpline
70
0
71
3
72
8
73
4
74
0
42
0.000000001
43
0.0000000001
44
0.0000000001
40
0
40
0
40
0
40
0
40
1
40
1
40
1
40
1
10
-150.90508078551801
20
-15.520595477536801
30
0
10
-150.90508078551801
20
-16.072879393738503
30
0
10
-150.45736683635903
20
-16.520594298606703
30
0
10
-149.90508292015801
20
-16.5205954775343
30
0
0
LINE
5
281
100
AcDbEntity
8
0
100
AcDbLine
10
-150.90508078551801
20
-15.520595477536801
30
0
11
-150.90508078551403
21
-13.0205954775364
31
0
0
SPLINE
5
282
100
AcDbEntity
8
0
100
AcDbSpline
70
0
71
3
72
8
73
4
74
0
42
0.000000001
43
0.0000000001
44
0.0000000001
40
0
40
0
40
0
40
0
40
1
40
1
40
1
40
1
10
-149.905080785514
20
-12.0205954775364
30
0
10
-150.45736553534499
20
-12.0205954775364
30
0
10
-150.90508078551403
20
-12.4683107277055
30
0
10
-150.90508078551403
20
-13.0205954775364
30
0
0
LINE
5
283
100
AcDbEntity
8
0
100
AcDbLine
10
-149.905080785514
20
-12.0205954775364
30
0
11
-148.90508292021875
21
-12.020590326532139
31
0
0
LINE
5
284
100
AcDbEntity
8
0
100
AcDbLine
10
-148.90508292021875
20
-12.020590326532139
30
0
11
-135.90508078551403
21
-12.020594696625553
31
0
0
SPLINE
5
285
100
AcDbEntity
8
0
100
AcDbSpline
70
0
71
3
72
8
73
4
74
0
42
0.000000001
43
0.0000000001
44
0.0000000001
40
0
40
0
40
0
40
0
40
1
40
1
40
1
40
1
10
-134.905080785514
20
-13.0205954775364
30
0
10
-134.905080785514
20
-12.4683107277055
30
0
10
-135.35279603568401
20
-12.0205954775364
30
0
10
-135.90508078551403
20
-12.0205954775364
30
0
0
LINE
5
286
100
AcDbEntity
8
0
100
AcDbLine
10
-134.905080785514
20
-13.0205954775364
30
0
11
-134.90508078551599
21
-15.520597612174999
31
0
0
SPLINE
5
287
100
AcDbEntity
8
0
100
AcDbSpline
70
0
71
3
72
8
73
4
74
0
42
0.000000001
43
0.0000000001
44
0.0000000001
40
0
40
0
40
0
40
0
40
1
40
1
40
1
40
1
10
-135.905082920154
20
-16.5205954775324
30
0
10
-135.35279817032401
20
-16.520596656461901
30
0
10
-134.905081964445
20
-16.072882362003998
30
0
10
-134.90508078551599
20
-15.520597612174999
30
0
0
LINE
5
288
100
AcDbEntity
8
0
100
AcDbLine
10
-135.905082920154
20
-16.5205954775324
30
0
11
-135.905082920154
21
-21.520595477532602
31
0
0
SPLINE
5
289
100
AcDbEntity
8
0
100
AcDbSpline
70
0
71
3
72
8
73
4
74
0
42
0.000000001
43
0.0000000001
44
0.0000000001
40
0
40
0
40
0
40
0
40
1
40
1
40
1
40
1
10
-134.905082920154
20
-22.520595477532602
30
0
10
-134.905082920154
20
-21.968310727701699
30
0
10
-135.35279817032401
20
-21.520595477532602
30
0
10
-135.905082920154
20
-21.520595477532602
30
0
0
LINE
5
290
100
AcDbEntity
8
0
100
AcDbLine
10
-134.905082920154
20
-22.520595477532602
30
0
11
-134.905082920154
21
-25.020595477532403
31
0
0
SPLINE
5
291
100
AcDbEntity
8
0
100
AcDbSpline
70
0
71
3
72
8
73
4
74
0
42
0.000000001
43
0.0000000001
44
0.0000000001
40
0
40
0
40
0
40
0
40
1
40
1
40
1
40
1
10
-135.905082920154
20
-26.020595477532403
30
0
10
-135.35279817032401
20
-26.020595477532403
30
0
10
-134.905082920154
20
-25.572880227363402
30
0
10
-134.905082920154
20
-25.020595477532403
30
0
0
LINE
5
292
100
AcDbEntity
8
0
100
AcDbLine
10
-135.905082920154
20
-26.020595477532403
30
0
11
-136.90508505472727
21
-26.020590326563472
31
0
0
LINE
5
293
100
AcDbEntity
8
0
100
AcDbLine
10
-136.90508505472727
20
-26.020590326563472
30
0
11
-149.90508292015397
21
-26.020594696621657
31
0
0
SPLINE
5
294
100
AcDbEntity
8
0
100
AcDbSpline
70
0
71
3
72
8
73
4
74
0
42
0.000000001
43
0.0000000001
44
0.0000000001
40
0
40
0
40
0
40
0
40
1
40
1
40
1
40
1
10
-150.905082920154
20
-25.020595477532403
30
0
10
-150.905082920154
20
-25.572880227363299
30
0
10
-150.45736766998499
20
-26.020595477532403
30
0
10
-149.905082920154
20
-26.020595477532403
30
0
0
LINE
5
295
100
AcDbEntity
8
0
100
AcDbLine
10
-150.905082920154
20
-25.020595477532403
30
0
11
-150.90508078551699
21
-22.520595477536403
31
0
0
SPLINE
5
296
100
AcDbEntity
8
0
100
AcDbSpline
70
0
71
3
72
8
73
4
74
0
42
0.000000001
43
0.0000000001
44
0.0000000001
40
0
40
0
40
0
40
0
40
1
40
1
40
1
40
1
10
-149.90508292015701
20
-21.520595477538301
30
0
10
-150.45736683635801
20
-21.520596656466399
30
0
10
-150.90508078551699
20
-21.968311561334804
30
0
10
-150.90508078551699
20
-22.520595477536403
30
0
0
LINE
5
297
100
AcDbEntity
8
0
100
AcDbLine
10
-149.90508292015701
20
-21.520595477538301
30
0
11
-149.90508292015801
21
-16.5205954775343
31
0
0
SPLINE
5
298
100
AcDbEntity
8
0
100
AcDbSpline
70
0
71
3
72
8
73
4
74
0
42
0.000000001
43
0.0000000001
44
0.0000000001
40
0
40
0
40
0
40
0
40
1
40
1
40
1
40
1
10
-150.88356304304199
20
22.593378770072
30
0
10
-150.88356304304199
20
22.0410942020915
30
0
10
-150.43584807667901
20
21.593379027247003
30
0
10
-149.88356350869901
20
21.593378770072
30
0
0
LINE
5
299
100
AcDbEntity
8
0
100
AcDbLine
10
-150.88356304304199
20
22.593378770072
30
0
11
-150.88356304304199
21
25.093378770071801
31
0
0
SPLINE
5
300
100
AcDbEntity
8
0
100
AcDbSpline
70
0
71
3
72
8
73
4
74
0
42
0.000000001
43
0.0000000001
44
0.0000000001
40
0
40
0
40
0
40
0
40
1
40
1
40
1
40
1
10
-149.88356304304199
20
26.093378770071801
30
0
10
-150.43584779287301
20
26.093378770071801
30
0
10
-150.88356304304199
20
25.645663519902705
30
0
10
-150.88356304304199
20
25.093378770071801
30
0
0
LINE
5
301
100
AcDbEntity
8
0
100
AcDbLine
10
-149.88356304304199
20
26.093378770071801
30
0
11
-135.88356304304199
21
26.093378770071801
31
0
0
SPLINE
5
302
100
AcDbEntity
8
0
100
AcDbSpline
70
0
71
3
72
8
73
4
74
0
42
0.000000001
43
0.0000000001
44
0.0000000001
40
0
40
0
40
0
40
0
40
1
40
1
40
1
40
1
10
-134.88356304304199
20
25.093378770071801
30
0
10
-134.88356304304199
20
25.645663519902705
30
0
10
-135.331278293211
20
26.093378770071801
30
0
10
-135.88356304304199
20
26.093378770071801
30
0
0
LINE
5
303
100
AcDbEntity
8
0
100
AcDbLine
10
-134.88356304304199
20
25.093378770071801
30
0
11
-134.88356304304199
21
22.593378304415399
31
0
0
SPLINE
5
304
100
AcDbEntity
8
0
100
AcDbSpline
70
0
71
3
72
8
73
4
74
0
42
0.000000001
43
0.0000000001
44
0.0000000001
40
0
40
0
40
0
40
0
40
1
40
1
40
1
40
1
10
-135.88356350869901
20
21.593378770072
30
0
10
-135.331278758868
20
21.593378512897004
30
0
10
-134.88356330021699
20
22.0410935545844
30
0
10
-134.88356304304199
20
22.593378304415399
30
0
0
LINE
5
305
100
AcDbEntity
8
0
100
AcDbLine
10
-135.88356350869901
20
21.593378770072
30
0
11
-135.88356350869901
21
16.593378770071801
31
0
0
SPLINE
5
306
100
AcDbEntity
8
0
100
AcDbSpline
70
0
71
3
72
8
73
4
74
0
42
0.000000001
43
0.0000000001
44
0.0000000001
40
0
40
0
40
0
40
0
40
1
40
1
40
1
40
1
10
-134.88356350869901
20
15.5933787700718
30
0
10
-134.88356350869901
20
16.145663519902701
30
0
10
-135.331278758868
20
16.593378770071801
30
0
10
-135.88356350869901
20
16.593378770071801
30
0
0
LINE
5
307
100
AcDbEntity
8
0
100
AcDbLine
10
-134.88356350869901
20
15.5933787700718
30
0
11
-134.88356350869901
21
13.093378770072002
31
0
0
SPLINE
5
308
100
AcDbEntity
8
0
100
AcDbSpline
70
0
71
3
72
8
73
4
74
0
42
0.000000001
43
0.0000000001
44
0.0000000001
40
0
40
0
40
0
40
0
40
1
40
1
40
1
40
1
10
-135.88356350869901
20
12.093378770072
30
0
10
-135.331278758868
20
12.093378770072
30
0
10
-134.88356350869901
20
12.541094020240999
30
0
10
-134.88356350869901
20
13.093378770072002
30
0
0
LINE
5
309
100
AcDbEntity
8
0
100
AcDbLine
10
-135.88356350869901
20
12.093378770072
30
0
11
-149.88356350869901
21
12.093378770072
31
0
0
SPLINE
5
310
100
AcDbEntity
8
0
100
AcDbSpline
70
0
71
3
72
8
73
4
74
0
42
0.000000001
43
0.0000000001
44
0.0000000001
40
0
40
0
40
0
40
0
40
1
40
1
40
1
40
1
10
-150.88356350869901
20
13.093378770072002
30
0
10
-150.88356350869901
20
12.541094020240999
30
0
10
-150.43584825853
20
12.093378770072
30
0
10
-149.88356350869901
20
12.093378770072
30
0
0
LINE
5
311
100
AcDbEntity
8
0
100
AcDbLine
10
-150.88356350869901
20
13.093378770072002
30
0
11
-150.883561374057
21
15.593378770069201
31
0
0
SPLINE
5
312
100
AcDbEntity
8
0
100
AcDbSpline
70
0
71
3
72
8
73
4
74
0
42
0.000000001
43
0.0000000001
44
0.0000000001
40
0
40
0
40
0
40
0
40
1
40
1
40
1
40
1
10
-149.883561839713
20
16.593378770069201
30
0
10
-150.43584640769399
20
16.593378512894901
30
0
10
-150.883561374057
20
16.145663338050301
30
0
10
-150.883561374057
20
15.593378770069201
30
0
0
LINE
5
313
100
AcDbEntity
8
0
100
AcDbLine
10
-149.883561839713
20
16.593378770069201
30
0
11
-149.88356350869901
21
21.593378770072
31
0
0
SPLINE
5
314
100
AcDbEntity
8
0
100
AcDbSpline
70
0
71
3
72
8
73
4
74
0
42
0.000000001
43
0.0000000001
44
0.0000000001
40
0
40
0
40
0
40
0
40
1
40
1
40
1
40
1
10
-92.042578833846406
20
6.0294071589790912
30
0
10
-92.042578833846406
20
6.5816919088100612
30
0
10
-92.490294084015517
20
7.0294071589791409
30
0
10
-93.042578833846505
20
7.0294071589791409
30
0
0
LINE
5
315
100
AcDbEntity
8
0
100
AcDbLine
10
-92.042578833846406
20
6.0294071589790912
30
0
11
-92.042578833849603
21
3.5294045586832699
31
0
0
SPLINE
5
316
100
AcDbEntity
8
0
100
AcDbSpline
70
0
71
3
72
8
73
4
74
0
42
0.000000001
43
0.0000000001
44
0.0000000001
40
0
40
0
40
0
40
0
40
1
40
1
40
1
40
1
10
-93.042581434144097
20
2.5294071589841098
30
0
10
-92.490296684315098
20
2.5294057228793805
30
0
10
-92.042580269954314
20
2.9771198088542499
30
0
10
-92.042578833849603
20
3.5294045586832699
30
0
0
LINE
5
317
100
AcDbEntity
8
0
100
AcDbLine
10
-93.042581434144097
20
2.5294071589841098
30
0
11
-93.042578833848097
21
-2.4705928410192808
31
0
0
SPLINE
5
318
100
AcDbEntity
8
0
100
AcDbSpline
70
0
71
3
72
8
73
4
74
0
42
0.000000001
43
0.0000000001
44
0.0000000001
40
0
40
0
40
0
40
0
40
1
40
1
40
1
40
1
10
-92.042578833848808
20
-3.4705928410201303
30
0
10
-92.042578833848395
20
-2.9183080911891803
30
0
10
-92.490294084017094
20
-2.4705928410197302
30
0
10
-93.042578833848097
20
-2.4705928410192799
30
0
0
LINE
5
319
100
AcDbEntity
8
0
100
AcDbLine
10
-92.042578833848808
20
-3.4705928410201303
30
0
11
-92.042578833848808
21
-5.9705928410199007
31
0
0
SPLINE
5
320
100
AcDbEntity
8
0
100
AcDbSpline
70
0
71
3
72
8
73
4
74
0
42
0.000000001
43
0.0000000001
44
0.0000000001
40
0
40
0
40
0
40
0
40
1
40
1
40
1
40
1
10
-93.042578833848907
20
-6.9705928410199203
30
0
10
-92.490294084018018
20
-6.9705928410199203
30
0
10
-92.042578833848808
20
-6.5228775908508396
30
0
10
-92.042578833848808
20
-5.9705928410199007
30
0
0
LINE
5
321
100
AcDbEntity
8
0
100
AcDbLine
10
-93.042578833848907
20
-6.9705928410199203
30
0
11
-96.010832365443818
21
-6.9705925768953101
31
0
0
LINE
5
322
100
AcDbEntity
8
0
100
AcDbLine
10
-96.010832365443818
20
-6.9705925768953101
30
0
11
-96.010832365443818
21
-7.9705938957498805
31
0
0
SPLINE
5
323
100
AcDbEntity
8
0
100
AcDbSpline
70
0
71
3
72
8
73
4
74
0
42
0.000000001
43
0.0000000001
44
0.0000000001
40
0
40
0
40
0
40
0
40
1
40
1
40
1
40
1
10
-97.010832365443804
20
-8.9705938957499001
30
0
10
-96.458547615612815
20
-8.9705938957499107
30
0
10
-96.010832365443818
20
-8.5228786455808407
30
0
10
-96.010832365443818
20
-7.9705938957498805
30
0
0
LINE
5
324
100
AcDbEntity
8
0
100
AcDbLine
10
-97.010832365443804
20
-8.9705938957499001
30
0
11
-103.010834208118
21
-8.9705938957499001
31
0
0
SPLINE
5
325
100
AcDbEntity
8
0
100
AcDbSpline
70
0
71
3
72
8
73
4
74
0
42
0.000000001
43
0.0000000001
44
0.0000000001
40
0
40
0
40
0
40
0
40
1
40
1
40
1
40
1
10
-104.01083420811801
20
-7.9705938957498805
30
0
10
-104.01083420811801
20
-8.5228786455808407
30
0
10
-103.56311895794902
20
-8.9705938957499001
30
0
10
-103.010834208118
20
-8.9705938957499001
30
0
0
LINE
5
326
100
AcDbEntity
8
0
100
AcDbLine
10
-104.01083420811801
20
-7.9705938957498805
30
0
11
-104.01083420811801
21
-6.9705942673391608
31
0
0
LINE
5
327
100
AcDbEntity
8
0
100
AcDbLine
10
-104.01083420811801
20
-6.9705942673391608
30
0
11
-114.456133465319
21
-6.9705942673397905
31
0
0
LINE
5
328
100
AcDbEntity
8
0
100
AcDbLine
10
-114.456133465319
20
-6.9705942673397905
30
0
11
-114.456133465319
21
-12.020593631138501
31
0
0
LINE
5
329
100
AcDbEntity
8
0
100
AcDbLine
10
-114.456133465319
20
-12.020593631138501
30
0
11
-112.09257976516
21
-12.020593841455401
31
0
0
SPLINE
5
330
100
AcDbEntity
8
0
100
AcDbSpline
70
0
71
3
72
8
73
4
74
0
42
0.000000001
43
0.0000000001
44
0.0000000001
40
0
40
0
40
0
40
0
40
1
40
1
40
1
40
1
10
-111.09257976516
20
-13.020593841455401
30
0
10
-111.09257976516
20
-12.468309091624501
30
0
10
-111.54029501532901
20
-12.020593841455401
30
0
10
-112.09257976516
20
-12.020593841455401
30
0
0
LINE
5
331
100
AcDbEntity
8
0
100
AcDbLine
10
-111.09257976516
20
-13.020593841455401
30
0
11
-111.09257976516
21
-15.520596441751202
31
0
0
SPLINE
5
332
100
AcDbEntity
8
0
100
AcDbSpline
70
0
71
3
72
8
73
4
74
0
42
0.000000001
43
0.0000000001
44
0.0000000001
40
0
40
0
40
0
40
0
40
1
40
1
40
1
40
1
10
-112.09258236545301
20
-16.520593841452001
30
0
10
-111.540297615624
20
-16.520595277555898
30
0
10
-111.092581201264
20
-16.072881191580301
30
0
10
-111.09257976516
20
-15.520596441751202
30
0
0
LINE
5
333
100
AcDbEntity
8
0
100
AcDbLine
10
-112.09258236545301
20
-16.520593841452001
30
0
11
-112.09258236545301
21
-21.5205938414522
31
0
0
SPLINE
5
334
100
AcDbEntity
8
0
100
AcDbSpline
70
0
71
3
72
8
73
4
74
0
42
0.000000001
43
0.0000000001
44
0.0000000001
40
0
40
0
40
0
40
0
40
1
40
1
40
1
40
1
10
-111.09258236545301
20
-22.5205938414522
30
0
10
-111.09258236545301
20
-21.968309091621304
30
0
10
-111.54029761562199
20
-21.5205938414522
30
0
10
-112.09258236545301
20
-21.5205938414522
30
0
0
LINE
5
335
100
AcDbEntity
8
0
100
AcDbLine
10
-111.09258236545301
20
-22.5205938414522
30
0
11
-111.09258236545301
21
-25.020593841452605
31
0
0
SPLINE
5
336
100
AcDbEntity
8
0
100
AcDbSpline
70
0
71
3
72
8
73
4
74
0
42
0.000000001
43
0.0000000001
44
0.0000000001
40
0
40
0
40
0
40
0
40
1
40
1
40
1
40
1
10
-112.09258236545301
20
-26.020593841452705
30
0
10
-111.54029761562199
20
-26.020593841452705
30
0
10
-111.09258236545301
20
-25.572878591283601
30
0
10
-111.09258236545301
20
-25.020593841452605
30
0
0
LINE
5
337
100
AcDbEntity
8
0
100
AcDbLine
10
-112.09258236545301
20
-26.020593841452705
30
0
11
-126.092582365453
21
-26.020593218574476
31
0
0
SPLINE
5
338
100
AcDbEntity
8
0
100
AcDbSpline
70
0
71
3
72
8
73
4
74
0
42
0.000000001
43
0.0000000001
44
0.0000000001
40
0
40
0
40
0
40
0
40
1
40
1
40
1
40
1
10
-127.00159211194702
20
-25.437368697675602
30
0
10
-126.83864956845602
20
-25.792755684054903
30
0
10
-126.483542954985
20
-26.020593841452705
30
0
10
-126.09258236545301
20
-26.020593841452705
30
0
0
LINE
5
339
100
AcDbEntity
8
0
100
AcDbLine
10
-127.00159211194702
20
-25.437368697675602
30
0
11
-129.45686540015899
21
-25.437368697675602
31
0
0
SPLINE
5
340
100
AcDbEntity
8
0
100
AcDbSpline
70
0
71
3
72
8
73
4
74
0
42
0.000000001
43
0.0000000001
44
0.0000000001
40
0
40
0
40
0
40
0
40
1
40
1
40
1
40
1
10
-130.45686540015902
20
-24.437368697675602
30
0
10
-130.45686540015902
20
-24.989653447506505
30
0
10
-130.00915014999003
20
-25.437368697675602
30
0
10
-129.45686540015899
20
-25.437368697675602
30
0
0
LINE
5
341
100
AcDbEntity
8
0
100
AcDbLine
10
-130.45686540015902
20
-24.437368697675602
30
0
11
-130.45686540015902
21
-18.437366855001301
31
0
0
SPLINE
5
342
100
AcDbEntity
8
0
100
AcDbSpline
70
0
71
3
72
8
73
4
74
0
42
0.000000001
43
0.0000000001
44
0.0000000001
40
0
40
0
40
0
40
0
40
1
40
1
40
1
40
1
10
-129.45686540015899
20
-17.437366855001301
30
0
10
-130.00915014999003
20
-17.437366855001301
30
0
10
-130.45686540015902
20
-17.885082105170302
30
0
10
-130.45686540015902
20
-18.437366855001301
30
0
0
LINE
5
343
100
AcDbEntity
8
0
100
AcDbLine
10
-129.45686540015899
20
-17.437366855001301
30
0
11
-128.456132973862
21
-17.437366855003798
31
0
0
LINE
5
344
100
AcDbEntity
8
0
100
AcDbLine
10
-128.456132973862
20
-17.437366855003798
30
0
11
-128.456132973862
21
-1.5613686976787888
31
0
0
LINE
5
345
100
AcDbEntity
8
0
100
AcDbLine
10
-128.456132973862
20
-1.5613686976787888
30
0
11
-129.456132468493
21
-1.5613686976787799
31
0
0
SPLINE
5
346
100
AcDbEntity
8
0
100
AcDbSpline
70
0
71
3
72
8
73
4
74
0
42
0.000000001
43
0.0000000001
44
0.0000000001
40
0
40
0
40
0
40
0
40
1
40
1
40
1
40
1
10
-130.456132468493
20
-0.56136869767874109
30
0
10
-130.456132468493
20
-1.1136534475097
30
0
10
-130.00841721832401
20
-1.5613686976787799
30
0
10
-129.456132468493
20
-1.5613686976787799
30
0
0
LINE
5
347
100
AcDbEntity
8
0
100
AcDbLine
10
-130.456132468493
20
-0.56136869767874109
30
0
11
-130.456132468493
21
5.4386331449955607
31
0
0
SPLINE
5
348
100
AcDbEntity
8
0
100
AcDbSpline
70
0
71
3
72
8
73
4
74
0
42
0.000000001
43
0.0000000001
44
0.0000000001
40
0
40
0
40
0
40
0
40
1
40
1
40
1
40
1
10
-129.456132468493
20
6.4386331449956007
30
0
10
-130.00841721832401
20
6.43863314499559
30
0
10
-130.456132468493
20
5.9909178948265112
30
0
10
-130.456132468493
20
5.4386331449955607
30
0
0
LINE
5
349
100
AcDbEntity
8
0
100
AcDbLine
10
-129.456132468493
20
6.4386331449956007
30
0
11
-127.879844278728
21
6.43863314499559
31
0
0
LINE
5
350
100
AcDbEntity
8
0
100
AcDbLine
10
-127.879844278728
20
6.43863314499559
30
0
11
-127.879844278728
21
8.0193760594304795
31
0
0
SPLINE
5
351
100
AcDbEntity
8
0
100
AcDbSpline
70
0
71
3
72
8
73
4
74
0
42
0.000000001
43
0.0000000001
44
0.0000000001
40
0
40
0
40
0
40
0
40
1
40
1
40
1
40
1
10
-126.879844278729
20
9.0193760594305097
30
0
10
-127.43212902855902
20
9.0193760594305097
30
0
10
-127.879844278728
20
8.5716608092614308
30
0
10
-127.879844278728
20
8.0193760594304795
30
0
0
LINE
5
352
100
AcDbEntity
8
0
100
AcDbLine
10
-126.879844278729
20
9.0193760594305097
30
0
11
-120.87984243605402
21
9.0193760594305026
31
0
0
SPLINE
5
353
100
AcDbEntity
8
0
100
AcDbSpline
70
0
71
3
72
8
73
4
74
0
42
0.000000001
43
0.0000000001
44
0.0000000001
40
0
40
0
40
0
40
0
40
1
40
1
40
1
40
1
10
-119.87984243605402
20
8.0193760594304795
30
0
10
-119.87984243605402
20
8.5716608092614202
30
0
10
-120.32755768622401
20
9.0193760594305097
30
0
10
-120.87984243605402
20
9.0193760594305026
30
0
0
LINE
5
354
100
AcDbEntity
8
0
100
AcDbLine
10
-119.87984243605402
20
8.0193760594304795
30
0
11
-119.87984243605402
21
7.0186462334260513
31
0
0
LINE
5
355
100
AcDbEntity
8
0
100
AcDbLine
10
-119.87984243605402
20
7.0186462334260513
30
0
11
-104.00007520033901
21
7.0363951705903505
31
0
0
LINE
5
356
100
AcDbEntity
8
0
100
AcDbLine
10
-104.00007520033901
20
7.0363951705903505
30
0
11
-104.00007520033901
21
8.0363946652241598
31
0
0
SPLINE
5
357
100
AcDbEntity
8
0
100
AcDbSpline
70
0
71
3
72
8
73
4
74
0
42
0.000000001
43
0.0000000001
44
0.0000000001
40
0
40
0
40
0
40
0
40
1
40
1
40
1
40
1
10
-103.00007520033901
20
9.0363946652242007
30
0
10
-103.55235995017
20
9.0363946652242007
30
0
10
-104.00007520033901
20
8.5886794150551093
30
0
10
-104.00007520033901
20
8.0363946652241598
30
0
0
LINE
5
358
100
AcDbEntity
8
0
100
AcDbLine
10
-103.00007520033901
20
9.0363946652242007
30
0
11
-97.000073357664803
21
9.03639466522419
31
0
0
SPLINE
5
359
100
AcDbEntity
8
0
100
AcDbSpline
70
0
71
3
72
8
73
4
74
0
42
0.000000001
43
0.0000000001
44
0.0000000001
40
0
40
0
40
0
40
0
40
1
40
1
40
1
40
1
10
-96.000073357664803
20
8.0363946652241598
30
0
10
-96.000073357664803
20
8.5886794150551093
30
0
10
-96.447788607833814
20
9.03639466522419
30
0
10
-97.000073357664803
20
9.03639466522419
30
0
0
LINE
5
360
100
AcDbEntity
8
0
100
AcDbLine
10
-96.000073357664803
20
8.0363946652241598
30
0
11
-96.000073357664803
21
7.0294074221463196
31
0
0
LINE
5
361
100
AcDbEntity
8
0
100
AcDbLine
10
-96.000073357664803
20
7.0294074221463196
30
0
11
-93.042578833846505
21
7.0294071589791409
31
0
0
SPLINE
5
362
100
AcDbEntity
8
0
100
AcDbSpline
70
0
71
3
72
8
73
4
74
0
42
0.000000001
43
0.0000000001
44
0.0000000001
40
0.00135598022727102
40
0.00135598022727102
40
0.00135598022727102
40
0.00135598022727102
40
1
40
1
40
1
40
1
10
-130.557325200473
20
-31.070599991772401
30
0
10
-131.10857722921401
20
-31.0718119013329
30
0
10
-131.55507911653601
20
-31.519061660379698
30
0
10
-131.555079116537
20
-32.070597523009397
30
0
0
SPLINE
5
363
100
AcDbEntity
8
0
100
AcDbSpline
70
0
71
3
72
8
73
4
74
0
42
0.000000001
43
0.0000000001
44
0.0000000001
40
4.0122607356447596e-09
40
4.0122607356447596e-09
40
4.0122607356447596e-09
40
4.0122607356447596e-09
40
1
40
1
40
1
40
1
10
-130.557325198363
20
-31.070600045381802
30
0
10
-130.39170804189001
20
-31.064080051588
30
0
10
-130.260025869787
20
-30.9293267086186
30
0
10
-130.257325200357
20
-30.763603266405902
30
0
0
LINE
5
364
100
AcDbEntity
8
0
100
AcDbLine
10
-130.257325200357
20
-30.763603266405902
30
0
11
-130.25732520035899
21
-30.062553858118299
31
0
0
SPLINE
5
365
100
AcDbEntity
8
0
100
AcDbSpline
70
0
71
3
72
8
73
4
74
0
42
0.000000001
43
0.0000000001
44
0.0000000001
40
0
40
0
40
0
40
0
40
1
40
1
40
1
40
1
10
-129.25732520035899
20
-29.062553858118303
30
0
10
-129.80960995019001
20
-29.062553858118303
30
0
10
-130.25732520035899
20
-29.510269108287403
30
0
10
-130.25732520035899
20
-30.062553858118299
30
0
0
LINE
5
366
100
AcDbEntity
8
0
100
AcDbLine
10
-129.25732520035899
20
-29.062553858118303
30
0
11
-123.26808313246302
21
-29.062553858118303
31
0
0
SPLINE
5
367
100
AcDbEntity
8
0
100
AcDbSpline
70
0
71
3
72
8
73
4
74
0
42
0.000000001
43
0.0000000001
44
0.0000000001
40
0
40
0
40
0
40
0
40
1
40
1
40
1
40
1
10
-122.26808313246302
20
-30.0625527732298
30
0
10
-122.26808373163001
20
-29.510268447074299
30
0
10
-122.71579880630702
20
-29.062553858118303
30
0
10
-123.26808313246302
20
-29.062553858118303
30
0
0
LINE
5
368
100
AcDbEntity
8
0
100
AcDbLine
10
-122.26808313246302
20
-30.0625527732298
30
0
11
-122.26808204643501
21
-31.063603266406204
31
0
0
LINE
5
369
100
AcDbEntity
8
0
100
AcDbLine
10
-122.26808204643501
20
-31.063603266406204
30
0
11
-106.39208420813502
21
-31.063603266406204
31
0
0
LINE
5
370
100
AcDbEntity
8
0
100
AcDbLine
10
-106.39208420813502
20
-31.063603266406204
30
0
11
-106.39208420813301
21
-30.063605334773502
31
0
0
SPLINE
5
371
100
AcDbEntity
8
0
100
AcDbSpline
70
0
71
3
72
8
73
4
74
0
42
0.000000001
43
0.0000000001
44
0.0000000001
40
0
40
0
40
0
40
0
40
1
40
1
40
1
40
1
10
-105.39208420813301
20
-29.063605334775403
30
0
10
-105.94436895796299
20
-29.063605334775403
30
0
10
-106.39208420813202
20
-29.511320584943903
30
0
10
-106.39208420813301
20
-30.063605334773502
30
0
0
LINE
5
372
100
AcDbEntity
8
0
100
AcDbLine
10
-105.39208420813301
20
-29.063605334775403
30
0
11
-99.38132411710022
21
-29.063605334775403
31
0
0
SPLINE
5
373
100
AcDbEntity
8
0
100
AcDbSpline
70
0
71
3
72
8
73
4
74
0
42
0.000000001
43
0.0000000001
44
0.0000000001
40
0
40
0
40
0
40
0
40
1
40
1
40
1
40
1
10
-98.381324117100917
20
-30.0636042515162
30
0
10
-98.381324715367811
20
-29.511319924724702
30
0
10
-98.829039790308912
20
-29.063605334775403
30
0
10
-99.38132411710022
20
-29.063605334775403
30
0
0
LINE
5
374
100
AcDbEntity
8
0
100
AcDbLine
10
-98.381324117100917
20
-30.0636042515162
30
0
11
-98.381324117100917
21
-31.063603911828999
31
0
0
LINE
5
375
100
AcDbEntity
8
0
100
AcDbLine
10
-98.381324117100917
20
-31.063603911828999
30
0
11
-97.794320757387396
21
-31.063603911828999
31
0
0
SPLINE
5
376
100
AcDbEntity
8
0
100
AcDbSpline
70
0
71
3
72
8
73
4
74
0
42
0.000000001
43
0.0000000001
44
0.0000000001
40
0
40
0
40
0
40
0
40
1
40
1
40
1
40
1
10
-96.794320757387311
20
-32.063603911829105
30
0
10
-96.794320757387311
20
-31.511319161998102
30
0
10
-97.242036007556408
20
-31.063603911828999
30
0
10
-97.794320757387396
20
-31.063603911828999
30
0
0
LINE
5
377
100
AcDbEntity
8
0
100
AcDbLine
10
-96.794320757387311
20
-32.063603911829105
30
0
11
-96.794320757390508
21
-34.563606512125503
31
0
0
SPLINE
5
378
100
AcDbEntity
8
0
100
AcDbSpline
70
0
71
3
72
8
73
4
74
0
42
0.000000001
43
0.0000000001
44
0.0000000001
40
0
40
0
40
0
40
0
40
1
40
1
40
1
40
1
10
-97.794323357685016
20
-35.563603911824103
30
0
10
-97.242038607856614
20
-35.563605347928799
30
0
10
-96.794322193495915
20
-35.115891261953898
30
0
10
-96.794320757390508
20
-34.563606512125503
30
0
0
LINE
5
379
100
AcDbEntity
8
0
100
AcDbLine
10
-97.794323357685016
20
-35.563603911824103
30
0
11
-97.805079765165402
21
-40.570593841215299
31
0
0
SPLINE
5
380
100
AcDbEntity
8
0
100
AcDbSpline
70
0
71
3
72
8
73
4
74
0
42
0.000000001
43
0.0000000001
44
0.0000000001
40
0
40
0
40
0
40
0
40
1
40
1
40
1
40
1
10
-96.805079765166212
20
-41.570593841216102
30
0
10
-96.805079765165715
20
-41.018309091385802
30
0
10
-97.252795015334414
20
-40.570593841215697
30
0
10
-97.805079765165402
20
-40.570593841215299
30
0
0
LINE
5
381
100
AcDbEntity
8
0
100
AcDbLine
10
-96.805079765166212
20
-41.570593841216102
30
0
11
-96.805079765166212
21
-44.063603911828004
31
0
0
SPLINE
5
382
100
AcDbEntity
8
0
100
AcDbSpline
70
0
71
3
72
8
73
4
74
0
42
0.000000001
43
0.0000000001
44
0.0000000001
40
0
40
0
40
0
40
0
40
1
40
1
40
1
40
1
10
-97.805079765166511
20
-45.063603911827698
30
0
10
-97.252795015335607
20
-45.063603911827897
30
0
10
-96.805079765166397
20
-44.615888661659
30
0
10
-96.805079765166212
20
-44.063603911828004
30
0
0
LINE
5
383
100
AcDbEntity
8
0
100
AcDbLine
10
-97.805079765166511
20
-45.063603911827698
30
0
11
-130.55507911653601
21
-45.063603911827698
31
0
0
SPLINE
5
384
100
AcDbEntity
8
0
100
AcDbSpline
70
0
71
3
72
8
73
4
74
0
42
0.000000001
43
0.0000000001
44
0.0000000001
40
0
40
0
40
0
40
0
40
1
40
1
40
1
40
1
10
-131.55507911653601
20
-44.063603911827798
30
0
10
-131.55507911653601
20
-44.615888661658801
30
0
10
-131.107363866367
20
-45.063603911827805
30
0
10
-130.55507911653601
20
-45.063603911827698
30
0
0
LINE
5
385
100
AcDbEntity
8
0
100
AcDbLine
10
-131.55507911653601
20
-44.063603911827798
30
0
11
-131.55507911653601
21
-41.570597523009702
31
0
0
SPLINE
5
386
100
AcDbEntity
8
0
100
AcDbSpline
70
0
71
3
72
8
73
4
74
0
42
0.000000001
43
0.0000000001
44
0.0000000001
40
0
40
0
40
0
40
0
40
1
40
1
40
1
40
1
10
-130.555081251178
20
-40.57059752301231
30
0
10
-131.10736516737799
20
-40.570598701940398
30
0
10
-131.55507911653601
20
-41.018313606808007
30
0
10
-131.55507911653601
20
-41.570597523009702
30
0
0
LINE
5
387
100
AcDbEntity
8
0
100
AcDbLine
10
-130.555081251178
20
-40.57059752301231
30
0
11
-130.555081251178
21
-35.570597523007599
31
0
0
SPLINE
5
388
100
AcDbEntity
8
0
100
AcDbSpline
70
0
71
3
72
8
73
4
74
0
42
0.000000001
43
0.0000000001
44
0.0000000001
40
0
40
0
40
0
40
0
40
1
40
1
40
1
40
1
10
-131.555079116537
20
-34.570597523009802
30
0
10
-131.555079116537
20
-35.122881439211397
30
0
10
-131.10736516737799
20
-35.570596344079902
30
0
10
-130.555081251178
20
-35.570597523007599
30
0
0
LINE
5
389
100
AcDbEntity
8
0
100
AcDbLine
10
-131.555079116537
20
-34.570597523009802
30
0
11
-131.555079116537
21
-32.070597523009397
31
0
0
SPLINE
5
390
100
AcDbEntity
8
0
100
AcDbSpline
70
0
71
3
72
8
73
4
74
0
42
0.000000001
43
0.0000000001
44
0.0000000001
40
0
40
0
40
0
40
0
40
1
40
1
40
1
40
1
10
146.093179242628
20
-22.5205938424225
30
0
10
146.093179242628
20
-21.9683090925915
30
0
10
145.64546399245901
20
-21.5205938424224
30
0
10
145.093179242628
20
-21.5205938424224
30
0
0
LINE
5
391
100
AcDbEntity
8
0
100
AcDbLine
10
146.093179242628
20
-22.5205938424225
30
0
11
146.093179242628
21
-25.020593842422905
31
0
0
SPLINE
5
392
100
AcDbEntity
8
0
100
AcDbSpline
70
0
71
3
72
8
73
4
74
0
42
0.000000001
43
0.0000000001
44
0.0000000001
40
0
40
0
40
0
40
0
40
1
40
1
40
1
40
1
10
145.093179242628
20
-26.020593842422301
30
0
10
145.64546399245901
20
-26.020593842422301
30
0
10
146.093179242628
20
-25.572878592253204
30
0
10
146.093179242628
20
-25.020593842422905
30
0
0
LINE
5
393
100
AcDbEntity
8
0
100
AcDbLine
10
145.093179242628
20
-26.020593842422301
30
0
11
131.093179242628
21
-26.020593842422301
31
0
0
SPLINE
5
394
100
AcDbEntity
8
0
100
AcDbSpline
70
0
71
3
72
8
73
4
74
0
42
0.000000001
43
0.0000000001
44
0.0000000001
40
0
40
0
40
0
40
0
40
1
40
1
40
1
40
1
10
130.093179242628
20
-25.020593842422905
30
0
10
130.093179242628
20
-25.572878592253204
30
0
10
130.540894492798
20
-26.020593842422301
30
0
10
131.093179242628
20
-26.020593842422301
30
0
0
LINE
5
395
100
AcDbEntity
8
0
100
AcDbLine
10
130.093179242628
20
-25.020593842422905
30
0
11
130.093179242628
21
-22.5205938424225
31
0
0
SPLINE
5
396
100
AcDbEntity
8
0
100
AcDbSpline
70
0
71
3
72
8
73
4
74
0
42
0.000000001
43
0.0000000001
44
0.0000000001
40
0
40
0
40
0
40
0
40
1
40
1
40
1
40
1
10
131.093177107988
20
-21.5205938424244
30
0
10
130.54089319178701
20
-21.520595021352101
30
0
10
130.09317924262899
20
-21.968309926220503
30
0
10
130.093179242628
20
-22.5205938424225
30
0
0
LINE
5
397
100
AcDbEntity
8
0
100
AcDbLine
10
131.093177107988
20
-21.5205938424244
30
0
11
131.093177107988
21
-16.5205938424203
31
0
0
SPLINE
5
398
100
AcDbEntity
8
0
100
AcDbSpline
70
0
71
3
72
8
73
4
74
0
42
0.000000001
43
0.0000000001
44
0.0000000001
40
0
40
0
40
0
40
0
40
1
40
1
40
1
40
1
10
130.093179242628
20
-15.520593842422901
30
0
10
130.093179242628
20
-16.072877758624401
30
0
10
130.54089319178701
20
-16.5205926634927
30
0
10
131.093177107988
20
-16.5205938424203
30
0
0
LINE
5
399
100
AcDbEntity
8
0
100
AcDbLine
10
130.093179242628
20
-15.520593842422901
30
0
11
130.093179242628
21
-13.020593842422501
31
0
0
SPLINE
5
400
100
AcDbEntity
8
0
100
AcDbSpline
70
0
71
3
72
8
73
4
74
0
42
0.000000001
43
0.0000000001
44
0.0000000001
40
0
40
0
40
0
40
0
40
1
40
1
40
1
40
1
10
131.093179242628
20
-12.0205938424224
30
0
10
130.540894492798
20
-12.0205938424224
30
0
10
130.093179242628
20
-12.4683090925915
30
0
10
130.093179242628
20
-13.020593842422501
30
0
0
LINE
5
401
100
AcDbEntity
8
0
100
AcDbLine
10
131.093179242628
20
-12.0205938424224
30
0
11
145.093179242628
21
-12.0205938424224
31
0
0
SPLINE
5
402
100
AcDbEntity
8
0
100
AcDbSpline
70
0
71
3
72
8
73
4
74
0
42
0.000000001
43
0.0000000001
44
0.0000000001
40
0
40
0
40
0
40
0
40
1
40
1
40
1
40
1
10
146.093179242628
20
-13.020593842422501
30
0
10
146.093179242628
20
-12.4683090925915
30
0
10
145.64546399245901
20
-12.0205938424224
30
0
10
145.093179242628
20
-12.0205938424224
30
0
0
LINE
5
403
100
AcDbEntity
8
0
100
AcDbLine
10
146.093179242628
20
-13.020593842422501
30
0
11
146.093179242628
21
-15.520593842422901
31
0
0
SPLINE
5
404
100
AcDbEntity
8
0
100
AcDbSpline
70
0
71
3
72
8
73
4
74
0
42
0.000000001
43
0.0000000001
44
0.0000000001
40
0
40
0
40
0
40
0
40
1
40
1
40
1
40
1
10
145.093179242628
20
-16.520593842422901
30
0
10
145.64546399245901
20
-16.520593842422901
30
0
10
146.093179242628
20
-16.0728785922532
30
0
10
146.093179242628
20
-15.520593842422901
30
0
0
LINE
5
405
100
AcDbEntity
8
0
100
AcDbLine
10
145.093179242628
20
-16.520593842422901
30
0
11
145.093179242628
21
-21.520593842422407
31
0
0
SPLINE
5
406
100
AcDbEntity
8
0
100
AcDbSpline
70
0
71
3
72
8
73
4
74
0
42
0.000000001
43
0.0000000001
44
0.0000000001
40
0
40
0
40
0
40
0
40
1
40
1
40
1
40
1
10
127.701169769201
20
-5.96360411174531
30
0
10
127.701169769201
20
-6.5158888615762711
30
0
10
128.14888501937
20
-6.9636041117453509
30
0
10
128.70116976920099
20
-6.9636041117453509
30
0
0
LINE
5
407
100
AcDbEntity
8
0
100
AcDbLine
10
127.701169769201
20
-5.96360411174531
30
0
11
127.711928776978
21
-3.4636046498345703
31
0
0
SPLINE
5
408
100
AcDbEntity
8
0
100
AcDbSpline
70
0
71
3
72
8
73
4
74
0
42
0.000000001
43
0.0000000001
44
0.0000000001
40
0
40
0
40
0
40
0
40
1
40
1
40
1
40
1
10
128.711926642337
20
-2.4636046498364599
30
0
10
128.15964272613601
20
-2.4636058287646501
30
0
10
127.711928776978
20
-2.9113207336329099
30
0
10
127.711928776978
20
-3.4636046498345703
30
0
0
LINE
5
409
100
AcDbEntity
8
0
100
AcDbLine
10
128.711926642337
20
-2.4636046498364599
30
0
11
128.711926642337
21
2.5363953501675702
31
0
0
SPLINE
5
410
100
AcDbEntity
8
0
100
AcDbSpline
70
0
71
3
72
8
73
4
74
0
42
0.000000001
43
0.0000000001
44
0.0000000001
40
0
40
0
40
0
40
0
40
1
40
1
40
1
40
1
10
127.711928776978
20
3.5363953501656704
30
0
10
127.711928776978
20
2.9841114339633803
30
0
10
128.15964272613601
20
2.53639652909576
30
0
10
128.711926642337
20
2.5363953501675702
30
0
0
LINE
5
411
100
AcDbEntity
8
0
100
AcDbLine
10
127.711928776978
20
3.5363953501656704
30
0
11
127.711928776978
21
6.0294054207776204
31
0
0
SPLINE
5
412
100
AcDbEntity
8
0
100
AcDbSpline
70
0
71
3
72
8
73
4
74
0
42
0.000000001
43
0.0000000001
44
0.0000000001
40
0
40
0
40
0
40
0
40
1
40
1
40
1
40
1
10
128.71192877697803
20
7.02940542077764
30
0
10
128.15964402714701
20
7.02940542077764
30
0
10
127.711928776978
20
6.5816901706079296
30
0
10
127.711928776978
20
6.0294054207776204
30
0
0
LINE
5
413
100
AcDbEntity
8
0
100
AcDbLine
10
128.71192877697803
20
7.02940542077764
30
0
11
147.46368552650901
21
7.02940542077764
31
0
0
SPLINE
5
414
100
AcDbEntity
8
0
100
AcDbSpline
70
0
71
3
72
8
73
4
74
0
42
0.000000001
43
0.0000000001
44
0.0000000001
40
0
40
0
40
0
40
0
40
1
40
1
40
1
40
1
10
148.46368552650901
20
6.0294054207776107
30
0
10
148.46368552650901
20
6.5816901706079296
30
0
10
148.01597027634
20
7.02940542077764
30
0
10
147.46368552650901
20
7.02940542077764
30
0
0
LINE
5
415
100
AcDbEntity
8
0
100
AcDbLine
10
148.46368552650901
20
6.0294054207776107
30
0
11
148.463685526402
21
3.5293880678090006
31
0
0
SPLINE
5
416
100
AcDbEntity
8
0
100
AcDbSpline
70
0
71
3
72
8
73
4
74
0
42
0.000000001
43
0.0000000001
44
0.0000000001
40
0
40
0
40
0
40
0
40
1
40
1
40
1
40
1
10
147.46366763455501
20
2.5294059590266298
30
0
10
148.01595238429701
20
2.5293960775730602
30
0
10
148.46367564489501
20
2.9771033171698305
30
0
10
148.463685526349
20
3.5293880669122304
30
0
0
LINE
5
417
100
AcDbEntity
8
0
100
AcDbLine
10
147.46366763455501
20
2.5294059590266298
30
0
11
147.474444534285
21
-2.4636041117455099
31
0
0
SPLINE
5
418
100
AcDbEntity
8
0
100
AcDbSpline
70
0
71
3
72
8
73
4
74
0
42
0.000000001
43
0.0000000001
44
0.0000000001
40
0
40
0
40
0
40
0
40
1
40
1
40
1
40
1
10
148.474444534285
20
-3.4636041117455503
30
0
10
148.474444534285
20
-2.9113193619145799
30
0
10
148.02672928411599
20
-2.4636041117455099
30
0
10
147.474444534285
20
-2.4636041117455099
30
0
0
LINE
5
419
100
AcDbEntity
8
0
100
AcDbLine
10
148.474444534285
20
-3.4636041117455503
30
0
11
148.474444534285
21
-5.9636042571254313
31
0
0
SPLINE
5
420
100
AcDbEntity
8
0
100
AcDbSpline
70
0
71
3
72
8
73
4
74
0
42
0.000000001
43
0.0000000001
44
0.0000000001
40
0
40
0
40
0
40
0
40
1
40
1
40
1
40
1
10
147.474444388905
20
-6.9636041117453606
30
0
10
148.02672913873602
20
-6.9636041920366498
30
0
10
148.47444445399401
20
-6.5158890069564013
30
0
10
148.474444534285
20
-5.9636042571254313
30
0
0
LINE
5
421
100
AcDbEntity
8
0
100
AcDbLine
10
147.474444388905
20
-6.9636041117453606
30
0
11
128.70116976920099
21
-6.9636041117453509
31
0
0
SPLINE
5
422
100
AcDbEntity
8
0
100
AcDbSpline
70
0
71
3
72
8
73
4
74
0
42
0.000000001
43
0.0000000001
44
0.0000000001
40
0
40
0
40
0
40
0
40
1
40
1
40
1
40
1
10
111.03242023485102
20
13.086396187219902
30
0
10
111.03242023485102
20
12.534111447132501
30
0
10
111.48013546981402
20
12.086396200999701
30
0
10
112.03242020990001
20
12.086396187219901
30
0
0
LINE
5
423
100
AcDbEntity
8
0
100
AcDbLine
10
111.03242023485102
20
13.086396187219902
30
0
11
111.03242023485102
21
15.579405983810302
31
0
0
SPLINE
5
424
100
AcDbEntity
8
0
100
AcDbSpline
70
0
71
3
72
8
73
4
74
0
42
0.000000001
43
0.0000000001
44
0.0000000001
40
0
40
0
40
0
40
0
40
1
40
1
40
1
40
1
10
112.02165862678001
20
16.5724160544212
30
0
10
111.46937489242902
20
16.5724146183206
30
0
10
111.03242023485102
20
16.1316897181634
30
0
10
111.03242023485102
20
15.579405983810302
30
0
0
LINE
5
425
100
AcDbEntity
8
0
100
AcDbLine
10
112.02165862678001
20
16.5724160544212
30
0
11
112.02165862678001
21
21.572416054425901
31
0
0
SPLINE
5
426
100
AcDbEntity
8
0
100
AcDbSpline
70
0
71
3
72
8
73
4
74
0
42
0.000000001
43
0.0000000001
44
0.0000000001
40
0
40
0
40
0
40
0
40
1
40
1
40
1
40
1
10
111.02166122707501
20
22.572416054422703
30
0
10
111.02166122707501
20
22.020132320070203
30
0
10
111.46937489242902
20
21.572417490526501
30
0
10
112.02165862678001
20
21.572416054425901
30
0
0
LINE
5
427
100
AcDbEntity
8
0
100
AcDbLine
10
111.02166122707501
20
22.572416054422703
30
0
11
111.02166122707501
21
25.072416054422501
31
0
0
SPLINE
5
428
100
AcDbEntity
8
0
100
AcDbSpline
70
0
71
3
72
8
73
4
74
0
42
0.000000001
43
0.0000000001
44
0.0000000001
40
0
40
0
40
0
40
0
40
1
40
1
40
1
40
1
10
112.02166122707501
20
26.072416054422504
30
0
10
111.469376477244
20
26.072416054422504
30
0
10
111.02166122707501
20
25.6247008042535
30
0
10
111.02166122707501
20
25.072416054422501
30
0
0
LINE
5
429
100
AcDbEntity
8
0
100
AcDbLine
10
112.02166122707501
20
26.072416054422504
30
0
11
113.03241763455502
21
26.079406129198802
31
0
0
LINE
5
430
100
AcDbEntity
8
0
100
AcDbLine
10
113.03241763455502
20
26.079406129198802
30
0
11
115.000665791882
21
26.079406522824705
31
0
0
LINE
5
431
100
AcDbEntity
8
0
100
AcDbLine
10
115.000665791882
20
26.079406522824705
30
0
11
115.011424799658
21
27.086394690175698
31
0
0
SPLINE
5
432
100
AcDbEntity
8
0
100
AcDbSpline
70
0
71
3
72
8
73
4
74
0
42
0.000000001
43
0.0000000001
44
0.0000000001
40
0
40
0
40
0
40
0
40
1
40
1
40
1
40
1
10
116.01142479965802
20
28.086394690175702
30
0
10
115.459140049827
20
28.086394690175702
30
0
10
115.011424799658
20
27.638679440006001
30
0
10
115.011424799658
20
27.086394690175698
30
0
0
LINE
5
433
100
AcDbEntity
8
0
100
AcDbLine
10
116.01142479965802
20
28.086394690175702
30
0
11
122.00066579187902
21
28.086394690175702
31
0
0
SPLINE
5
434
100
AcDbEntity
8
0
100
AcDbSpline
70
0
71
3
72
8
73
4
74
0
42
0.000000001
43
0.0000000001
44
0.0000000001
40
0
40
0
40
0
40
0
40
1
40
1
40
1
40
1
10
123.000665791879
20
27.086394690175698
30
0
10
123.000665791879
20
27.638679440006001
30
0
10
122.55295054171
20
28.086394690175702
30
0
10
122.00066579187902
20
28.086394690175702
30
0
0
LINE
5
435
100
AcDbEntity
8
0
100
AcDbLine
10
123.000665791879
20
27.086394690175698
30
0
11
123.000665791879
21
26.0794054122766
31
0
0
LINE
5
436
100
AcDbEntity
8
0
100
AcDbLine
10
123.000665791879
20
26.0794054122766
30
0
11
138.876667634559
21
26.0794054122766
31
0
0
LINE
5
437
100
AcDbEntity
8
0
100
AcDbLine
10
138.876667634559
20
26.0794054122766
30
0
11
138.876667634559
21
27.079406104247703
31
0
0
SPLINE
5
438
100
AcDbEntity
8
0
100
AcDbSpline
70
0
71
3
72
8
73
4
74
0
42
0.000000001
43
0.0000000001
44
0.0000000001
40
0
40
0
40
0
40
0
40
1
40
1
40
1
40
1
10
139.876667634559
20
28.079406104247703
30
0
10
139.324382884729
20
28.079406104247703
30
0
10
138.876667634559
20
27.631690854077998
30
0
10
138.876667634559
20
27.079406104247703
30
0
0
LINE
5
439
100
AcDbEntity
8
0
100
AcDbLine
10
139.876667634559
20
28.079406104247703
30
0
11
145.87666763455701
21
28.079406104247703
31
0
0
SPLINE
5
440
100
AcDbEntity
8
0
100
AcDbSpline
70
0
71
3
72
8
73
4
74
0
42
0.000000001
43
0.0000000001
44
0.0000000001
40
0
40
0
40
0
40
0
40
1
40
1
40
1
40
1
10
146.87666763455701
20
27.079406104247703
30
0
10
146.87666763455701
20
27.631690854077998
30
0
10
146.428952384388
20
28.079406104247703
30
0
10
145.87666763455701
20
28.079406104247703
30
0
0
LINE
5
441
100
AcDbEntity
8
0
100
AcDbLine
10
146.87666763455701
20
27.079406104247703
30
0
11
146.87666763455701
21
13.086395317822902
31
0
0
SPLINE
5
442
100
AcDbEntity
8
0
100
AcDbSpline
70
0
71
3
72
8
73
4
74
0
42
0.000000001
43
0.0000000001
44
0.0000000001
40
0
40
0
40
0
40
0
40
1
40
1
40
1
40
1
10
145.87666760960701
20
12.0863953427741
30
0
10
146.42895235943701
20
12.086395328994202
30
0
10
146.876667620777
20
12.534110567992602
30
0
10
146.87666763455701
20
13.086395317822902
30
0
0
LINE
5
443
100
AcDbEntity
8
0
100
AcDbLine
10
145.87666760960701
20
12.0863953427741
30
0
11
112.03242020990001
21
12.086396187219901
31
0
0
SPLINE
5
444
100
AcDbEntity
8
0
100
AcDbSpline
70
0
71
3
72
8
73
4
74
0
42
0.000000001
43
0.0000000001
44
0.0000000001
40
0
40
0
40
0
40
0
40
1
40
1
40
1
40
1
10
130.08247145622101
20
32.136395374581397
30
0
10
130.08247145622101
20
31.584110624750501
30
0
10
130.53018670639
20
31.136395374581404
30
0
10
131.08247145622099
20
31.136395374581404
30
0
0
LINE
5
445
100
AcDbEntity
8
0
100
AcDbLine
10
130.08247145622101
20
32.136395374581397
30
0
11
130.093230463997
21
34.636395374581198
31
0
0
SPLINE
5
446
100
AcDbEntity
8
0
100
AcDbSpline
70
0
71
3
72
8
73
4
74
0
42
0.000000001
43
0.0000000001
44
0.0000000001
40
0
40
0
40
0
40
0
40
1
40
1
40
1
40
1
10
131.093228329357
20
35.636395374579301
30
0
10
130.54094441315601
20
35.6363941956511
30
0
10
130.093230463997
20
35.188679290783497
30
0
10
130.093230463997
20
34.636395374581198
30
0
0
LINE
5
447
100
AcDbEntity
8
0
100
AcDbLine
10
131.093228329357
20
35.636395374579301
30
0
11
131.093228329357
21
40.636395374583302
31
0
0
SPLINE
5
448
100
AcDbEntity
8
0
100
AcDbSpline
70
0
71
3
72
8
73
4
74
0
42
0.000000001
43
0.0000000001
44
0.0000000001
40
0
40
0
40
0
40
0
40
1
40
1
40
1
40
1
10
130.093230463997
20
41.636395374581397
30
0
10
130.093230463997
20
41.084111458379802
30
0
10
130.54094441315601
20
40.636396553511503
30
0
10
131.093228329357
20
40.636395374583302
30
0
0
LINE
5
449
100
AcDbEntity
8
0
100
AcDbLine
10
130.093230463997
20
41.636395374581397
30
0
11
130.093230463997
21
44.129405445193399
31
0
0
SPLINE
5
450
100
AcDbEntity
8
0
100
AcDbSpline
70
0
71
3
72
8
73
4
74
0
42
0.000000001
43
0.0000000001
44
0.0000000001
40
0
40
0
40
0
40
0
40
1
40
1
40
1
40
1
10
131.09323046399703
20
45.129405445193399
30
0
10
130.54094571416701
20
45.129405445193399
30
0
10
130.093230463997
20
44.681690195024302
30
0
10
130.093230463997
20
44.129405445193399
30
0
0
LINE
5
451
100
AcDbEntity
8
0
100
AcDbLine
10
131.09323046399703
20
45.129405445193399
30
0
11
147.47442924262899
21
45.136395888254903
31
0
0
SPLINE
5
452
100
AcDbEntity
8
0
100
AcDbSpline
70
0
71
3
72
8
73
4
74
0
42
0.000000001
43
0.0000000001
44
0.0000000001
40
0
40
0
40
0
40
0
40
1
40
1
40
1
40
1
10
148.47442924262901
20
44.136395888254903
30
0
10
148.47442924262901
20
44.688680638085799
30
0
10
148.02671399245901
20
45.136395888254903
30
0
10
147.47442924262899
20
45.136395888254903
30
0
0
LINE
5
453
100
AcDbEntity
8
0
100
AcDbLine
10
148.47442924262901
20
44.136395888254903
30
0
11
148.47442924262901
21
41.636395888255102
31
0
0
SPLINE
5
454
100
AcDbEntity
8
0
100
AcDbSpline
70
0
71
3
72
8
73
4
74
0
42
0.000000001
43
0.0000000001
44
0.0000000001
40
0
40
0
40
0
40
0
40
1
40
1
40
1
40
1
10
147.47442924262899
20
40.636395888255102
30
0
10
148.02671399245901
20
40.636395888255102
30
0
10
148.47442924262901
20
41.084111138424106
30
0
10
148.47442924262901
20
41.636395888255102
30
0
0
LINE
5
455
100
AcDbEntity
8
0
100
AcDbLine
10
147.47442924262899
20
40.636395888255102
30
0
11
147.47442924262899
21
35.636395888254903
31
0
0
SPLINE
5
456
100
AcDbEntity
8
0
100
AcDbSpline
70
0
71
3
72
8
73
4
74
0
42
0.000000001
43
0.0000000001
44
0.0000000001
40
0
40
0
40
0
40
0
40
1
40
1
40
1
40
1
10
148.47442924262901
20
34.636395888254903
30
0
10
148.47442924262901
20
35.188680638085799
30
0
10
148.02671399245901
20
35.636395888254903
30
0
10
147.47442924262899
20
35.636395888254903
30
0
0
LINE
5
457
100
AcDbEntity
8
0
100
AcDbLine
10
148.47442924262901
20
34.636395888254903
30
0
11
148.47442924262901
21
32.136395888255102
31
0
0
SPLINE
5
458
100
AcDbEntity
8
0
100
AcDbSpline
70
0
71
3
72
8
73
4
74
0
42
0.000000001
43
0.0000000001
44
0.0000000001
40
0
40
0
40
0
40
0
40
1
40
1
40
1
40
1
10
147.47442945834899
20
31.136395888254999
30
0
10
148.02671412393602
20
31.1363960073942
30
0
10
148.47442924262901
20
31.584111222668305
30
0
10
148.47442924262901
20
32.136395888255102
30
0
0
LINE
5
459
100
AcDbEntity
8
0
100
AcDbLine
10
147.47442945834899
20
31.136395888254999
30
0
11
131.08247145622099
21
31.136395374581408
31
0
0
SPLINE
5
460
100
AcDbEntity
8
0
100
AcDbSpline
70
0
71
3
72
8
73
4
74
0
42
0.000000001
43
0.0000000001
44
0.0000000001
40
0
40
0
40
0
40
0
40
1
40
1
40
1
40
1
10
101.51817885262501
20
32.1294043600954
30
0
10
101.51817885262501
20
31.577119610264504
30
0
10
101.96589410279401
20
31.1294043600954
30
0
10
102.518178852625
20
31.129404360095201
30
0
0
LINE
5
461
100
AcDbEntity
8
0
100
AcDbLine
10
101.51817885262501
20
32.1294043600954
30
0
11
101.51817885262501
21
34.636394288669202
31
0
0
SPLINE
5
462
100
AcDbEntity
8
0
100
AcDbSpline
70
0
71
3
72
8
73
4
74
0
42
0.000000001
43
0.0000000001
44
0.0000000001
40
0
40
0
40
0
40
0
40
1
40
1
40
1
40
1
10
102.51817625233001
20
35.636394288665997
30
0
10
101.96589251797901
20
35.636392852565407
30
0
10
101.51817885262501
20
35.188678023021701
30
0
10
101.51817885262501
20
34.636394288669202
30
0
0
LINE
5
463
100
AcDbEntity
8
0
100
AcDbLine
10
102.51817625233001
20
35.636394288665997
30
0
11
102.51817625233001
21
40.636394288672605
31
0
0
SPLINE
5
464
100
AcDbEntity
8
0
100
AcDbSpline
70
0
71
3
72
8
73
4
74
0
42
0.000000001
43
0.0000000001
44
0.0000000001
40
0
40
0
40
0
40
0
40
1
40
1
40
1
40
1
10
101.51817885262501
20
41.636394288669401
30
0
10
101.51817885262501
20
41.084110554316304
30
0
10
101.96589251797901
20
40.636395724773202
30
0
10
102.51817625233001
20
40.636394288672605
30
0
0
LINE
5
465
100
AcDbEntity
8
0
100
AcDbLine
10
101.51817885262501
20
41.636394288669401
30
0
11
101.50741984484901
21
44.129404359281409
31
0
0
SPLINE
5
466
100
AcDbEntity
8
0
100
AcDbSpline
70
0
71
3
72
8
73
4
74
0
42
0.000000001
43
0.0000000001
44
0.0000000001
40
0
40
0
40
0
40
0
40
1
40
1
40
1
40
1
10
102.50741984484901
20
45.129404359281402
30
0
10
101.95513509501801
20
45.129404359281402
30
0
10
101.50741984484901
20
44.681689109111701
30
0
10
101.50741984484901
20
44.129404359281409
30
0
0
LINE
5
467
100
AcDbEntity
8
0
100
AcDbLine
10
102.50741984484901
20
45.129404359281402
30
0
11
123.66192924262802
21
45.12940595968071
31
0
0
SPLINE
5
468
100
AcDbEntity
8
0
100
AcDbSpline
70
0
71
3
72
8
73
4
74
0
42
0.000000001
43
0.0000000001
44
0.0000000001
40
0
40
0
40
0
40
0
40
1
40
1
40
1
40
1
10
124.66192924262801
20
44.129405959680703
30
0
10
124.66192924262801
20
44.681690709511699
30
0
10
124.21421399245901
20
45.12940595968071
30
0
10
123.66192924262802
20
45.12940595968071
30
0
0
LINE
5
469
100
AcDbEntity
8
0
100
AcDbLine
10
124.66192924262801
20
44.129405959680703
30
0
11
124.66192924262801
21
41.636395888255102
31
0
0
SPLINE
5
470
100
AcDbEntity
8
0
100
AcDbSpline
70
0
71
3
72
8
73
4
74
0
42
0.000000001
43
0.0000000001
44
0.0000000001
40
0
40
0
40
0
40
0
40
1
40
1
40
1
40
1
10
123.66192924262802
20
40.636395888255102
30
0
10
124.21421399245901
20
40.636395888255102
30
0
10
124.66192924262801
20
41.084111138424106
30
0
10
124.66192924262801
20
41.636395888255102
30
0
0
LINE
5
471
100
AcDbEntity
8
0
100
AcDbLine
10
123.66192924262802
20
40.636395888255102
30
0
11
123.66192924262802
21
35.636395888254903
31
0
0
SPLINE
5
472
100
AcDbEntity
8
0
100
AcDbSpline
70
0
71
3
72
8
73
4
74
0
42
0.000000001
43
0.0000000001
44
0.0000000001
40
0
40
0
40
0
40
0
40
1
40
1
40
1
40
1
10
124.66192924262801
20
34.636395888254903
30
0
10
124.66192924262801
20
35.188680638085799
30
0
10
124.21421399245901
20
35.636395888254903
30
0
10
123.66192924262802
20
35.636395888254903
30
0
0
LINE
5
473
100
AcDbEntity
8
0
100
AcDbLine
10
124.66192924262801
20
34.636395888254903
30
0
11
124.66192924262801
21
32.129405959680909
31
0
0
SPLINE
5
474
100
AcDbEntity
8
0
100
AcDbSpline
70
0
71
3
72
8
73
4
74
0
42
0.000000001
43
0.0000000001
44
0.0000000001
40
0
40
0
40
0
40
0
40
1
40
1
40
1
40
1
10
123.66192931828101
20
31.129405959680902
30
0
10
124.21421403856699
20
31.129406001462598
30
0
10
124.66192924262801
20
31.577121239394401
30
0
10
124.66192924262801
20
32.129405959680909
30
0
0
LINE
5
475
100
AcDbEntity
8
0
100
AcDbLine
10
123.66192931828101
20
31.129405959680902
30
0
11
102.518178852625
21
31.129404360095204
31
0
0
SPLINE
5
476
100
AcDbEntity
8
0
100
AcDbSpline
70
0
71
3
72
8
73
4
74
0
42
0.000000001
43
0.0000000001
44
0.0000000001
40
0
40
0
40
0
40
0
40
1
40
1
40
1
40
1
10
99.838618870985002
20
31.129404359280901
30
0
10
100.39090362081602
20
31.129404305040701
30
0
10
100.83861891495602
20
31.5771195112392
30
0
10
100.83861896919601
20
32.129404261070199
30
0
0
LINE
5
477
100
AcDbEntity
8
0
100
AcDbLine
10
99.838618870985002
20
31.129404359280901
30
0
11
90.206114071243121
21
31.136395235747205
31
0
0
LINE
5
478
100
AcDbEntity
8
0
100
AcDbLine
10
90.206114071243121
20
31.136395235747205
30
0
11
90.206179698310507
21
30.1326959114777
31
0
0
SPLINE
5
479
100
AcDbEntity
8
0
100
AcDbSpline
70
0
71
3
72
8
73
4
74
0
42
0.000000001
43
0.0000000001
44
0.0000000001
40
0
40
0
40
0
40
0
40
1
40
1
40
1
40
1
10
89.20617969831082
20
29.132695911477704
30
0
10
89.75846444814151
20
29.132695911477704
30
0
10
90.206179698310621
20
29.580411161646705
30
0
10
90.206179698310507
20
30.1326959114777
30
0
0
LINE
5
480
100
AcDbEntity
8
0
100
AcDbLine
10
89.20617969831082
20
29.132695911477704
30
0
11
82.205674799654403
21
29.132695911476404
31
0
0
SPLINE
5
481
100
AcDbEntity
8
0
100
AcDbSpline
70
0
71
3
72
8
73
4
74
0
42
0.000000001
43
0.0000000001
44
0.0000000001
40
0
40
0
40
0
40
0
40
1
40
1
40
1
40
1
10
81.205674799654417
20
30.132695911476404
30
0
10
81.205674799654417
20
29.580411161645404
30
0
10
81.653390049823798
20
29.132695911476404
30
0
10
82.205674799654403
20
29.132695911476404
30
0
0
LINE
5
482
100
AcDbEntity
8
0
100
AcDbLine
10
81.205674799654417
20
30.132695911476404
30
0
11
81.205674799654417
21
46.140310228155201
31
0
0
SPLINE
5
483
100
AcDbEntity
8
0
100
AcDbSpline
70
0
71
3
72
8
73
4
74
0
42
0.000000001
43
0.0000000001
44
0.0000000001
40
0
40
0
40
0
40
0
40
1
40
1
40
1
40
1
10
82.213206477473705
20
47.132721392033503
30
0
10
81.660937511472
20
47.136896806663408
30
0
10
81.209850214284216
20
46.6925791941567
30
0
10
81.205674799654417
20
46.140310228155201
30
0
0
LINE
5
484
100
AcDbEntity
8
0
100
AcDbLine
10
82.213206477473705
20
47.132721392033503
30
0
11
89.205705877275705
21
47.140309713960498
31
0
0
SPLINE
5
485
100
AcDbEntity
8
0
100
AcDbSpline
70
0
71
3
72
8
73
4
74
0
42
0.000000001
43
0.0000000001
44
0.0000000001
40
0
40
0
40
0
40
0
40
1
40
1
40
1
40
1
10
90.205178925916613
20
46.139783040132897
30
0
10
90.205469876477906
20
46.692067713325606
30
0
10
89.757990550468506
20
47.140018763399205
30
0
10
89.205705877275705
20
47.140309713960498
30
0
0
LINE
5
486
100
AcDbEntity
8
0
100
AcDbLine
10
90.205178925916613
20
46.139783040132897
30
0
11
90.205179063175393
21
45.136395235830506
31
0
0
LINE
5
487
100
AcDbEntity
8
0
100
AcDbLine
10
90.205179063175393
20
45.136395235830506
30
0
11
99.849377976972818
21
45.136394288669202
31
0
0
SPLINE
5
488
100
AcDbEntity
8
0
100
AcDbSpline
70
0
71
3
72
8
73
4
74
0
42
0.000000001
43
0.0000000001
44
0.0000000001
40
0
40
0
40
0
40
0
40
1
40
1
40
1
40
1
10
100.849377976973
20
44.136394288669209
30
0
10
100.849377976973
20
44.688679038500197
30
0
10
100.40166272680402
20
45.136394288669202
30
0
10
99.849377976972818
20
45.136394288669202
30
0
0
LINE
5
489
100
AcDbEntity
8
0
100
AcDbLine
10
100.849377976973
20
44.136394288669209
30
0
11
100.83862156948902
21
41.629401758982297
31
0
0
SPLINE
5
490
100
AcDbEntity
8
0
100
AcDbSpline
70
0
71
3
72
8
73
4
74
0
42
0.000000001
43
0.0000000001
44
0.0000000001
40
0
40
0
40
0
40
0
40
1
40
1
40
1
40
1
10
99.838618969196318
20
40.629404359281608
30
0
10
100.39090371902502
20
40.6294029231777
30
0
10
100.83862013338502
20
41.077117009153305
30
0
10
100.83862156948902
20
41.629401758982297
30
0
0
LINE
5
491
100
AcDbEntity
8
0
100
AcDbLine
10
99.838618969196318
20
40.629404359281608
30
0
11
99.838618969196318
21
35.629404359281402
31
0
0
SPLINE
5
492
100
AcDbEntity
8
0
100
AcDbSpline
70
0
71
3
72
8
73
4
74
0
42
0.000000001
43
0.0000000001
44
0.0000000001
40
0
40
0
40
0
40
0
40
1
40
1
40
1
40
1
10
100.83861896919601
20
34.629404359281402
30
0
10
100.83861896919601
20
35.181689109111701
30
0
10
100.39090371902701
20
35.629404359281402
30
0
10
99.838618969196318
20
35.629404359281402
30
0
0
LINE
5
493
100
AcDbEntity
8
0
100
AcDbLine
10
100.83861896919601
20
34.629404359281402
30
0
11
100.83861896919601
21
32.129404261070199
31
0
0
SPLINE
5
494
100
AcDbEntity
8
0
100
AcDbSpline
70
0
71
3
72
8
73
4
74
0
42
0.000000001
43
0.0000000001
44
0.0000000001
40
0
40
0
40
0
40
0
40
1
40
1
40
1
40
1
10
1.5110582808606501
20
32.139890202874199
30
0
10
1.5110582808606501
20
31.587728800227204
30
0
10
1.95858104521096
20
31.140064658760803
30
0
10
2.5107424203135604
20
31.139890252757905
30
0
0
LINE
5
495
100
AcDbEntity
8
0
100
AcDbLine
10
1.5110582808606501
20
32.139890202874199
30
0
11
1.5110582808606501
21
34.639890152990198
31
0
0
SPLINE
5
496
100
AcDbEntity
8
0
100
AcDbSpline
70
0
71
3
72
8
73
4
74
0
42
0.000000001
43
0.0000000001
44
0.0000000001
40
0
40
0
40
0
40
0
40
1
40
1
40
1
40
1
10
2.5110561462196701
20
35.639890152987597
30
0
10
1.95877223001925
20
35.639888974059502
30
0
10
1.5110582808606601
20
35.192174069191807
30
0
10
1.5110582808606501
20
34.639890152990198
30
0
0
LINE
5
497
100
AcDbEntity
8
0
100
AcDbLine
10
2.5110561462196701
20
35.639890152987597
30
0
11
2.5002971384431598
21
40.632900223604508
31
0
0
SPLINE
5
498
100
AcDbEntity
8
0
100
AcDbSpline
70
0
71
3
72
8
73
4
74
0
42
0.000000001
43
0.0000000001
44
0.0000000001
40
0
40
0
40
0
40
0
40
1
40
1
40
1
40
1
10
1.5002992730842601
20
41.632900223602
30
0
10
1.5002992730842601
20
41.080616307400305
30
0
10
1.9480132222428301
20
40.632901402532006
30
0
10
2.5002971384431598
20
40.632900223604508
30
0
0
LINE
5
499
100
AcDbEntity
8
0
100
AcDbLine
10
1.5002992730842601
20
41.632900223602
30
0
11
1.5002992730842601
21
44.129405379007203
31
0
0
SPLINE
5
500
100
AcDbEntity
8
0
100
AcDbSpline
70
0
71
3
72
8
73
4
74
0
42
0.000000001
43
0.0000000001
44
0.0000000001
40
0
40
0
40
0
40
0
40
1
40
1
40
1
40
1
10
2.5002985439193699
20
45.129405379006606
30
0
10
1.9480140788452602
20
45.129404976300698
30
0
10
1.5002992730842701
20
44.681689844081703
30
0
10
1.5002992730842601
20
44.129405379007203
30
0
0
LINE
5
501
100
AcDbEntity
8
0
100
AcDbLine
10
2.5002985439193699
20
45.129405379006606
30
0
11
35.555678776972201
21
45.136445988295897
31
0
0
SPLINE
5
502
100
AcDbEntity
8
0
100
AcDbSpline
70
0
71
3
72
8
73
4
74
0
42
0.000000001
43
0.0000000001
44
0.0000000001
40
0
40
0
40
0
40
0
40
1
40
1
40
1
40
1
10
36.5556787769723
20
44.136445988295804
30
0
10
36.5556787769723
20
44.6887307381268
30
0
10
36.107963526803097
20
45.136445988295897
30
0
10
35.555678776972201
20
45.136445988295897
30
0
0
LINE
5
503
100
AcDbEntity
8
0
100
AcDbLine
10
36.5556787769723
20
44.136445988295804
30
0
11
36.5556787769723
21
41.636445988296103
31
0
0
SPLINE
5
504
100
AcDbEntity
8
0
100
AcDbSpline
70
0
71
3
72
8
73
4
74
0
42
0.000000001
43
0.0000000001
44
0.0000000001
40
0
40
0
40
0
40
0
40
1
40
1
40
1
40
1
10
35.555678776972201
20
40.636445988296003
30
0
10
36.107963526803097
20
40.636445988296003
30
0
10
36.5556787769723
20
41.0841612384651
30
0
10
36.5556787769723
20
41.636445988296103
30
0
0
LINE
5
505
100
AcDbEntity
8
0
100
AcDbLine
10
35.555678776972201
20
40.636445988296003
30
0
11
35.544919769196099
21
35.629456058907998
31
0
0
SPLINE
5
506
100
AcDbEntity
8
0
100
AcDbSpline
70
0
71
3
72
8
73
4
74
0
42
0.000000001
43
0.0000000001
44
0.0000000001
40
0
40
0
40
0
40
0
40
1
40
1
40
1
40
1
10
36.544919769195999
20
34.629456058908005
30
0
10
36.544919769195999
20
35.181740808738901
30
0
10
36.097204519026597
20
35.629456058907998
30
0
10
35.544919769196099
20
35.629456058907998
30
0
0
LINE
5
507
100
AcDbEntity
8
0
100
AcDbLine
10
36.544919769195999
20
34.629456058908005
30
0
11
36.544919769195999
21
32.129456058908197
31
0
0
SPLINE
5
508
100
AcDbEntity
8
0
100
AcDbSpline
70
0
71
3
72
8
73
4
74
0
42
0.000000001
43
0.0000000001
44
0.0000000001
40
0
40
0
40
0
40
0
40
1
40
1
40
1
40
1
10
35.544919769196099
20
31.1294560589082
30
0
10
36.097204519026903
20
31.1294560589082
30
0
10
36.544919769195999
20
31.577171309077304
30
0
10
36.544919769195999
20
32.129456058908197
30
0
0
LINE
5
509
100
AcDbEntity
8
0
100
AcDbLine
10
35.544919769196099
20
31.1294560589082
30
0
11
2.5107424203135604
21
31.139890252757905
31
0
0
SPLINE
5
510
100
AcDbEntity
8
0
100
AcDbSpline
70
0
71
3
72
8
73
4
74
0
42
0.000000001
43
0.0000000001
44
0.0000000001
40
0
40
0
40
0
40
0
40
1
40
1
40
1
40
1
10
150.852222804962
20
-41.570595886938698
30
0
10
150.852222804962
20
-41.018311137108398
30
0
10
150.40450755479301
20
-40.570595886938705
30
0
10
149.852222804962
20
-40.570595886938705
30
0
0
LINE
5
511
100
AcDbEntity
8
0
100
AcDbLine
10
150.852222804962
20
-41.570595886938698
30
0
11
150.852222804962
21
-44.07059588693911
31
0
0
SPLINE
5
512
100
AcDbEntity
8
0
100
AcDbSpline
70
0
71
3
72
8
73
4
74
0
42
0.000000001
43
0.0000000001
44
0.0000000001
40
0
40
0
40
0
40
0
40
1
40
1
40
1
40
1
10
149.852222804962
20
-45.070595886939103
30
0
10
150.40450755479301
20
-45.070595886939103
30
0
10
150.852222804962
20
-44.622880636769402
30
0
10
150.852222804962
20
-44.07059588693911
30
0
0
LINE
5
513
100
AcDbEntity
8
0
100
AcDbLine
10
149.852222804962
20
-45.070595886939103
30
0
11
135.852222804962
21
-45.070595886939103
31
0
0
SPLINE
5
514
100
AcDbEntity
8
0
100
AcDbSpline
70
0
71
3
72
8
73
4
74
0
42
0.000000001
43
0.0000000001
44
0.0000000001
40
0
40
0
40
0
40
0
40
1
40
1
40
1
40
1
10
134.852222804962
20
-44.07059588693911
30
0
10
134.852222804962
20
-44.622880636769402
30
0
10
135.29993805513101
20
-45.070595886939103
30
0
10
135.852222804962
20
-45.070595886939103
30
0
0
LINE
5
515
100
AcDbEntity
8
0
100
AcDbLine
10
134.852222804962
20
-44.07059588693911
30
0
11
134.852222804962
21
-41.570595886938698
31
0
0
SPLINE
5
516
100
AcDbEntity
8
0
100
AcDbSpline
70
0
71
3
72
8
73
4
74
0
42
0.000000001
43
0.0000000001
44
0.0000000001
40
0
40
0
40
0
40
0
40
1
40
1
40
1
40
1
10
135.852220670322
20
-40.570595886940602
30
0
10
135.29993675412001
20
-40.570597065868597
30
0
10
134.852222804962
20
-41.018311970737003
30
0
10
134.852222804962
20
-41.570595886938698
30
0
0
LINE
5
517
100
AcDbEntity
8
0
100
AcDbLine
10
135.852220670322
20
-40.570595886940602
30
0
11
135.852220670321
21
-35.570595886936601
31
0
0
SPLINE
5
518
100
AcDbEntity
8
0
100
AcDbSpline
70
0
71
3
72
8
73
4
74
0
42
0.000000001
43
0.0000000001
44
0.0000000001
40
0
40
0
40
0
40
0
40
1
40
1
40
1
40
1
10
134.852222804962
20
-34.570595886939103
30
0
10
134.852222804962
20
-35.122879803140599
30
0
10
135.29993675412001
20
-35.570594708008898
30
0
10
135.852220670321
20
-35.570595886936601
30
0
0
LINE
5
519
100
AcDbEntity
8
0
100
AcDbLine
10
134.852222804962
20
-34.570595886939103
30
0
11
134.852222804962
21
-32.070595886938698
31
0
0
SPLINE
5
520
100
AcDbEntity
8
0
100
AcDbSpline
70
0
71
3
72
8
73
4
74
0
42
0.000000001
43
0.0000000001
44
0.0000000001
40
0
40
0
40
0
40
0
40
1
40
1
40
1
40
1
10
135.852222804962
20
-31.070595886938701
30
0
10
135.29993805513101
20
-31.070595886938204
30
0
10
134.852222804962
20
-31.518311137108004
30
0
10
134.852222804962
20
-32.070595886938698
30
0
0
LINE
5
521
100
AcDbEntity
8
0
100
AcDbLine
10
135.852222804962
20
-31.070595886938701
30
0
11
149.852222804962
21
-31.070595886939305
31
0
0
SPLINE
5
522
100
AcDbEntity
8
0
100
AcDbSpline
70
0
71
3
72
8
73
4
74
0
42
0.000000001
43
0.0000000001
44
0.0000000001
40
0
40
0
40
0
40
0
40
1
40
1
40
1
40
1
10
150.852222804962
20
-32.070595886938698
30
0
10
150.852222804962
20
-31.518311137108405
30
0
10
150.40450755479301
20
-31.070595886938701
30
0
10
149.852222804962
20
-31.070595886939305
30
0
0
LINE
5
523
100
AcDbEntity
8
0
100
AcDbLine
10
150.852222804962
20
-32.070595886938698
30
0
11
150.852222804962
21
-34.570595886939103
31
0
0
SPLINE
5
524
100
AcDbEntity
8
0
100
AcDbSpline
70
0
71
3
72
8
73
4
74
0
42
0.000000001
43
0.0000000001
44
0.0000000001
40
0
40
0
40
0
40
0
40
1
40
1
40
1
40
1
10
149.852222804962
20
-35.570595886939103
30
0
10
150.40450755479301
20
-35.570595886939103
30
0
10
150.852222804962
20
-35.122880636769402
30
0
10
150.852222804962
20
-34.570595886939103
30
0
0
LINE
5
525
100
AcDbEntity
8
0
100
AcDbLine
10
149.852222804962
20
-35.570595886939103
30
0
11
149.852222804962
21
-40.570595886938705
31
0
0
SPLINE
5
526
100
AcDbEntity
8
0
100
AcDbSpline
70
0
71
3
72
8
73
4
74
0
42
0.000000001
43
0.0000000001
44
0.0000000001
40
0
40
0
40
0
40
0
40
1
40
1
40
1
40
1
10
58.652223270612609
20
-34.570595186980199
30
0
10
58.652223270612609
20
-35.122878921332699
30
0
10
59.099936935966298
20
-35.570593750875702
30
0
10
59.652220670317206
20
-35.570595186976405
30
0
0
LINE
5
527
100
AcDbEntity
8
0
100
AcDbLine
10
58.652223270612609
20
-34.570595186980199
30
0
11
58.652223270612609
21
-32.070595186979801
31
0
0
SPLINE
5
528
100
AcDbEntity
8
0
100
AcDbSpline
70
0
71
3
72
8
73
4
74
0
42
0.000000001
43
0.0000000001
44
0.0000000001
40
0
40
0
40
0
40
0
40
1
40
1
40
1
40
1
10
59.652223270612303
20
-31.070595186979698
30
0
10
59.099938520781699
20
-31.070595186979698
30
0
10
58.652223270612609
20
-31.518310437149498
30
0
10
58.652223270612609
20
-32.070595186979801
30
0
0
LINE
5
529
100
AcDbEntity
8
0
100
AcDbLine
10
59.652223270612303
20
-31.070595186979698
30
0
11
73.652223270611941
21
-31.070592557032889
31
0
0
SPLINE
5
530
100
AcDbEntity
8
0
100
AcDbSpline
70
0
71
3
72
8
73
4
74
0
42
0.000000001
43
0.0000000001
44
0.0000000001
40
0
40
0
40
0
40
0
40
1
40
1
40
1
40
1
10
74.652223270612595
20
-32.070595186979801
30
0
10
74.652223270612595
20
-31.518310437149498
30
0
10
74.2045080204432
20
-31.070595186979698
30
0
10
73.652223270612396
20
-31.070595186979698
30
0
0
LINE
5
531
100
AcDbEntity
8
0
100
AcDbLine
10
74.652223270612595
20
-32.070595186979801
30
0
11
74.652223270612595
21
-34.570597787275602
31
0
0
SPLINE
5
532
100
AcDbEntity
8
0
100
AcDbSpline
70
0
71
3
72
8
73
4
74
0
42
0.000000001
43
0.0000000001
44
0.0000000001
40
0
40
0
40
0
40
0
40
1
40
1
40
1
40
1
10
73.652220670320304
20
-35.570595186976405
30
0
10
74.204505420149104
20
-35.570596623080199
30
0
10
74.652221834509106
20
-35.122882537104601
30
0
10
74.652223270612595
20
-34.570597787275602
30
0
0
LINE
5
533
100
AcDbEntity
8
0
100
AcDbLine
10
73.652220670320304
20
-35.570595186976405
30
0
11
73.652220670320304
21
-40.570595186975908
31
0
0
SPLINE
5
534
100
AcDbEntity
8
0
100
AcDbSpline
70
0
71
3
72
8
73
4
74
0
42
0.000000001
43
0.0000000001
44
0.0000000001
40
0
40
0
40
0
40
0
40
1
40
1
40
1
40
1
10
74.652220670320503
20
-41.570595186975901
30
0
10
74.652220670320503
20
-41.018310437145608
30
0
10
74.204505420151008
20
-40.570595186975908
30
0
10
73.652220670320304
20
-40.570595186975908
30
0
0
LINE
5
535
100
AcDbEntity
8
0
100
AcDbLine
10
74.652220670320503
20
-41.570595186975901
30
0
11
74.652220670320503
21
-44.070595186976298
31
0
0
SPLINE
5
536
100
AcDbEntity
8
0
100
AcDbSpline
70
0
71
3
72
8
73
4
74
0
42
0.000000001
43
0.0000000001
44
0.0000000001
40
0
40
0
40
0
40
0
40
1
40
1
40
1
40
1
10
73.652220670320304
20
-45.070595186976405
30
0
10
74.204505420151094
20
-45.070595186976405
30
0
10
74.652220670320503
20
-44.622879936806697
30
0
10
74.652220670320503
20
-44.070595186976298
30
0
0
LINE
5
537
100
AcDbEntity
8
0
100
AcDbLine
10
73.652220670320304
20
-45.070595186976405
30
0
11
59.652220670320332
21
-45.070594564097703
31
0
0
SPLINE
5
538
100
AcDbEntity
8
0
100
AcDbSpline
70
0
71
3
72
8
73
4
74
0
42
0.000000001
43
0.0000000001
44
0.0000000001
40
0
40
0
40
0
40
0
40
1
40
1
40
1
40
1
10
58.652220670320609
20
-44.070595186976298
30
0
10
58.652220670320609
20
-44.622879936806697
30
0
10
59.0999359204895
20
-45.070595186976405
30
0
10
59.652220670320304
20
-45.070595186976405
30
0
0
LINE
5
539
100
AcDbEntity
8
0
100
AcDbLine
10
58.652220670320609
20
-44.070595186976298
30
0
11
58.652222804958207
21
-41.570595186977897
31
0
0
SPLINE
5
540
100
AcDbEntity
8
0
100
AcDbSpline
70
0
71
3
72
8
73
4
74
0
42
0.000000001
43
0.0000000001
44
0.0000000001
40
0
40
0
40
0
40
0
40
1
40
1
40
1
40
1
10
59.652220204663102
20
-40.570595186981706
30
0
10
59.099936470312301
20
-40.570596623082302
30
0
10
58.652222804958207
20
-41.018311452625397
30
0
10
58.652222804958207
20
-41.570595186977897
30
0
0
LINE
5
541
100
AcDbEntity
8
0
100
AcDbLine
10
59.652220204663102
20
-40.570595186981706
30
0
11
59.652220670317206
21
-35.570595186976405
31
0
0
SPLINE
5
542
100
AcDbEntity
8
0
100
AcDbSpline
70
0
71
3
72
8
73
4
74
0
42
0.000000001
43
0.0000000001
44
0.0000000001
40
0
40
0
40
0
40
0
40
1
40
1
40
1
40
1
10
39.618177709633599
20
-34.570595186980199
30
0
10
39.618177709633599
20
-35.122878921332699
30
0
10
40.06589137498721
20
-35.570593750875801
30
0
10
40.618175109338097
20
-35.570595186976405
30
0
0
LINE
5
543
100
AcDbEntity
8
0
100
AcDbLine
10
39.618177709633599
20
-34.570595186980199
30
0
11
39.618177709633599
21
-32.070595186979801
31
0
0
SPLINE
5
544
100
AcDbEntity
8
0
100
AcDbSpline
70
0
71
3
72
8
73
4
74
0
42
0.000000001
43
0.0000000001
44
0.0000000001
40
0
40
0
40
0
40
0
40
1
40
1
40
1
40
1
10
40.618177709633301
20
-31.070595186979698
30
0
10
40.065892959802703
20
-31.070595186979698
30
0
10
39.618177709633599
20
-31.518310437149498
30
0
10
39.618177709633599
20
-32.070595186979801
30
0
0
LINE
5
545
100
AcDbEntity
8
0
100
AcDbLine
10
40.618177709633301
20
-31.070595186979698
30
0
11
54.618177709632931
21
-31.070592557032889
31
0
0
SPLINE
5
546
100
AcDbEntity
8
0
100
AcDbSpline
70
0
71
3
72
8
73
4
74
0
42
0.000000001
43
0.0000000001
44
0.0000000001
40
0
40
0
40
0
40
0
40
1
40
1
40
1
40
1
10
55.618177709633507
20
-32.070595186979801
30
0
10
55.618177709633507
20
-31.518310437149498
30
0
10
55.170462459464105
20
-31.070595186979698
30
0
10
54.6181777096334
20
-31.070595186979698
30
0
0
LINE
5
547
100
AcDbEntity
8
0
100
AcDbLine
10
55.618177709633507
20
-32.070595186979801
30
0
11
55.618177709633507
21
-34.570597787275602
31
0
0
SPLINE
5
548
100
AcDbEntity
8
0
100
AcDbSpline
70
0
71
3
72
8
73
4
74
0
42
0.000000001
43
0.0000000001
44
0.0000000001
40
0
40
0
40
0
40
0
40
1
40
1
40
1
40
1
10
54.618175109341308
20
-35.570595186976405
30
0
10
55.170459859170009
20
-35.570596623080199
30
0
10
55.618176273530004
20
-35.122882537104601
30
0
10
55.618177709633507
20
-34.570597787275602
30
0
0
LINE
5
549
100
AcDbEntity
8
0
100
AcDbLine
10
54.618175109341308
20
-35.570595186976405
30
0
11
54.618175109341308
21
-40.570595186975908
31
0
0
SPLINE
5
550
100
AcDbEntity
8
0
100
AcDbSpline
70
0
71
3
72
8
73
4
74
0
42
0.000000001
43
0.0000000001
44
0.0000000001
40
0
40
0
40
0
40
0
40
1
40
1
40
1
40
1
10
55.618175109341301
20
-41.570595186975901
30
0
10
55.618175109341301
20
-41.018310437145608
30
0
10
55.170459859171899
20
-40.570595186975908
30
0
10
54.618175109341308
20
-40.570595186975908
30
0
0
LINE
5
551
100
AcDbEntity
8
0
100
AcDbLine
10
55.618175109341301
20
-41.570595186975901
30
0
11
55.618175109341301
21
-44.070595186976298
31
0
0
SPLINE
5
552
100
AcDbEntity
8
0
100
AcDbSpline
70
0
71
3
72
8
73
4
74
0
42
0.000000001
43
0.0000000001
44
0.0000000001
40
0
40
0
40
0
40
0
40
1
40
1
40
1
40
1
10
54.618175109341308
20
-45.070595186976405
30
0
10
55.170459859171899
20
-45.070595186976405
30
0
10
55.618175109341301
20
-44.622879936806697
30
0
10
55.618175109341301
20
-44.070595186976298
30
0
0
LINE
5
553
100
AcDbEntity
8
0
100
AcDbLine
10
54.618175109341308
20
-45.070595186976405
30
0
11
40.618175109341188
21
-45.070594564097703
31
0
0
SPLINE
5
554
100
AcDbEntity
8
0
100
AcDbSpline
70
0
71
3
72
8
73
4
74
0
42
0.000000001
43
0.0000000001
44
0.0000000001
40
0
40
0
40
0
40
0
40
1
40
1
40
1
40
1
10
39.618175109341401
20
-44.070595186976298
30
0
10
39.618175109341401
20
-44.622879936806697
30
0
10
40.065890359510504
20
-45.070595186976405
30
0
10
40.618175109341109
20
-45.070595186976405
30
0
0
LINE
5
555
100
AcDbEntity
8
0
100
AcDbLine
10
39.618175109341401
20
-44.070595186976298
30
0
11
39.618177243979098
21
-41.570595186977897
31
0
0
SPLINE
5
556
100
AcDbEntity
8
0
100
AcDbSpline
70
0
71
3
72
8
73
4
74
0
42
0.000000001
43
0.0000000001
44
0.0000000001
40
0
40
0
40
0
40
0
40
1
40
1
40
1
40
1
10
40.6181746436841
20
-40.570595186981706
30
0
10
40.065890909333305
20
-40.570596623082302
30
0
10
39.618177243979098
20
-41.018311452625397
30
0
10
39.618177243979098
20
-41.570595186977897
30
0
0
LINE
5
557
100
AcDbEntity
8
0
100
AcDbLine
10
40.6181746436841
20
-40.570595186981706
30
0
11
40.618175109338097
21
-35.570595186976405
31
0
0
SPLINE
5
558
100
AcDbEntity
8
0
100
AcDbSpline
70
0
71
3
72
8
73
4
74
0
42
0.000000001
43
0.0000000001
44
0.0000000001
40
0
40
0
40
0
40
0
40
1
40
1
40
1
40
1
10
20.5841321486546
20
-34.570595186980199
30
0
10
20.5841321486546
20
-35.122878921332699
30
0
10
21.0318458140082
20
-35.570593750875702
30
0
10
21.584129548359101
20
-35.570595186976405
30
0
0
LINE
5
559
100
AcDbEntity
8
0
100
AcDbLine
10
20.5841321486546
20
-34.570595186980199
30
0
11
20.5841321486546
21
-32.070595186979801
31
0
0
SPLINE
5
560
100
AcDbEntity
8
0
100
AcDbSpline
70
0
71
3
72
8
73
4
74
0
42
0.000000001
43
0.0000000001
44
0.0000000001
40
0
40
0
40
0
40
0
40
1
40
1
40
1
40
1
10
21.584132148654199
20
-31.070595186979698
30
0
10
21.031847398823601
20
-31.070595186979698
30
0
10
20.5841321486546
20
-31.518310437149498
30
0
10
20.5841321486546
20
-32.070595186979801
30
0
0
LINE
5
561
100
AcDbEntity
8
0
100
AcDbLine
10
21.584132148654199
20
-31.070595186979698
30
0
11
35.584132148653936
21
-31.070592557032889
31
0
0
SPLINE
5
562
100
AcDbEntity
8
0
100
AcDbSpline
70
0
71
3
72
8
73
4
74
0
42
0.000000001
43
0.0000000001
44
0.0000000001
40
0
40
0
40
0
40
0
40
1
40
1
40
1
40
1
10
36.584132148654497
20
-32.070595186979801
30
0
10
36.584132148654497
20
-31.518310437149498
30
0
10
36.136416898485102
20
-31.070595186979698
30
0
10
35.584132148654398
20
-31.070595186979698
30
0
0
LINE
5
563
100
AcDbEntity
8
0
100
AcDbLine
10
36.584132148654497
20
-32.070595186979801
30
0
11
36.584132148654398
21
-34.570597787275602
31
0
0
SPLINE
5
564
100
AcDbEntity
8
0
100
AcDbSpline
70
0
71
3
72
8
73
4
74
0
42
0.000000001
43
0.0000000001
44
0.0000000001
40
0
40
0
40
0
40
0
40
1
40
1
40
1
40
1
10
35.5841295483621
20
-35.570595186976405
30
0
10
36.1364142981909
20
-35.570596623080199
30
0
10
36.584130712550802
20
-35.122882537104601
30
0
10
36.584132148654398
20
-34.570597787275602
30
0
0
LINE
5
565
100
AcDbEntity
8
0
100
AcDbLine
10
35.5841295483621
20
-35.570595186976405
30
0
11
35.5841295483621
21
-40.570595186975908
31
0
0
SPLINE
5
566
100
AcDbEntity
8
0
100
AcDbSpline
70
0
71
3
72
8
73
4
74
0
42
0.000000001
43
0.0000000001
44
0.0000000001
40
0
40
0
40
0
40
0
40
1
40
1
40
1
40
1
10
36.5841295483621
20
-41.570595186975901
30
0
10
36.5841295483621
20
-41.018310437145608
30
0
10
36.136414298192804
20
-40.570595186975908
30
0
10
35.5841295483621
20
-40.570595186975908
30
0
0
LINE
5
567
100
AcDbEntity
8
0
100
AcDbLine
10
36.5841295483621
20
-41.570595186975901
30
0
11
36.5841295483621
21
-44.070595186976298
31
0
0
SPLINE
5
568
100
AcDbEntity
8
0
100
AcDbSpline
70
0
71
3
72
8
73
4
74
0
42
0.000000001
43
0.0000000001
44
0.0000000001
40
0
40
0
40
0
40
0
40
1
40
1
40
1
40
1
10
35.5841295483621
20
-45.070595186976405
30
0
10
36.136414298192804
20
-45.070595186976405
30
0
10
36.5841295483621
20
-44.622879936806697
30
0
10
36.5841295483621
20
-44.070595186976298
30
0
0
LINE
5
569
100
AcDbEntity
8
0
100
AcDbLine
10
35.5841295483621
20
-45.070595186976405
30
0
11
21.584129548361982
21
-45.070594564097746
31
0
0
SPLINE
5
570
100
AcDbEntity
8
0
100
AcDbSpline
70
0
71
3
72
8
73
4
74
0
42
0.000000001
43
0.0000000001
44
0.0000000001
40
0
40
0
40
0
40
0
40
1
40
1
40
1
40
1
10
20.584129548362299
20
-44.070595186976298
30
0
10
20.584129548362299
20
-44.622879936806697
30
0
10
21.031844798531299
20
-45.070595186976405
30
0
10
21.584129548361904
20
-45.070595186976405
30
0
0
LINE
5
571
100
AcDbEntity
8
0
100
AcDbLine
10
20.584129548362299
20
-44.070595186976298
30
0
11
20.584131683000205
21
-41.570595186977897
31
0
0
SPLINE
5
572
100
AcDbEntity
8
0
100
AcDbSpline
70
0
71
3
72
8
73
4
74
0
42
0.000000001
43
0.0000000001
44
0.0000000001
40
0
40
0
40
0
40
0
40
1
40
1
40
1
40
1
10
21.5841290827051
20
-40.570595186981706
30
0
10
21.0318453483541
20
-40.570596623082302
30
0
10
20.584131683000205
20
-41.018311452625397
30
0
10
20.584131683000205
20
-41.570595186977897
30
0
0
LINE
5
573
100
AcDbEntity
8
0
100
AcDbLine
10
21.5841290827051
20
-40.570595186981706
30
0
11
21.584129548359101
21
-35.570595186976405
31
0
0
SPLINE
5
574
100
AcDbEntity
8
0
100
AcDbSpline
70
0
71
3
72
8
73
4
74
0
42
0.000000001
43
0.0000000001
44
0.0000000001
40
0
40
0
40
0
40
0
40
1
40
1
40
1
40
1
10
1.5022232706091401
20
-34.570595186980199
30
0
10
1.5022232706091401
20
-35.122878921332699
30
0
10
1.9499369359631502
20
-35.570593750875702
30
0
10
2.5022206703137502
20
-35.570595186976405
30
0
0
LINE
5
575
100
AcDbEntity
8
0
100
AcDbLine
10
1.5022232706091401
20
-34.570595186980199
30
0
11
1.5022232706091601
21
-32.070595186979801
31
0
0
SPLINE
5
576
100
AcDbEntity
8
0
100
AcDbSpline
70
0
71
3
72
8
73
4
74
0
42
0.000000001
43
0.0000000001
44
0.0000000001
40
0
40
0
40
0
40
0
40
1
40
1
40
1
40
1
10
2.5022232706091301
20
-31.070595186979698
30
0
10
1.9499385207781299
20
-31.070595186979698
30
0
10
1.5022232706091601
20
-31.518310437149498
30
0
10
1.5022232706091601
20
-32.070595186979801
30
0
0
LINE
5
577
100
AcDbEntity
8
0
100
AcDbLine
10
2.5022232706091301
20
-31.070595186979698
30
0
11
16.502223270608571
21
-31.070592557032928
31
0
0
SPLINE
5
578
100
AcDbEntity
8
0
100
AcDbSpline
70
0
71
3
72
8
73
4
74
0
42
0.000000001
43
0.0000000001
44
0.0000000001
40
0
40
0
40
0
40
0
40
1
40
1
40
1
40
1
10
17.5022232706091
20
-32.070595186979801
30
0
10
17.5022232706091
20
-31.518310437149498
30
0
10
17.05450802044
20
-31.070595186979698
30
0
10
16.5022232706091
20
-31.070595186979698
30
0
0
LINE
5
579
100
AcDbEntity
8
0
100
AcDbLine
10
17.5022232706091
20
-32.070595186979801
30
0
11
17.502223270609001
21
-34.570597787275602
31
0
0
SPLINE
5
580
100
AcDbEntity
8
0
100
AcDbSpline
70
0
71
3
72
8
73
4
74
0
42
0.000000001
43
0.0000000001
44
0.0000000001
40
0
40
0
40
0
40
0
40
1
40
1
40
1
40
1
10
16.502220670316401
20
-35.570595186976405
30
0
10
17.054505420145599
20
-35.570596623080199
30
0
10
17.5022218345052
20
-35.122882537104601
30
0
10
17.502223270609001
20
-34.570597787275602
30
0
0
LINE
5
581
100
AcDbEntity
8
0
100
AcDbLine
10
16.502220670316401
20
-35.570595186976405
30
0
11
16.502220670316401
21
-40.570595186975908
31
0
0
SPLINE
5
582
100
AcDbEntity
8
0
100
AcDbSpline
70
0
71
3
72
8
73
4
74
0
42
0.000000001
43
0.0000000001
44
0.0000000001
40
0
40
0
40
0
40
0
40
1
40
1
40
1
40
1
10
17.502220670316401
20
-41.570595186975901
30
0
10
17.502220670316401
20
-41.018310437145608
30
0
10
17.054505420147301
20
-40.570595186975908
30
0
10
16.502220670316401
20
-40.570595186975908
30
0
0
LINE
5
583
100
AcDbEntity
8
0
100
AcDbLine
10
17.502220670316401
20
-41.570595186975901
30
0
11
17.502220670316401
21
-44.070595186976298
31
0
0
SPLINE
5
584
100
AcDbEntity
8
0
100
AcDbSpline
70
0
71
3
72
8
73
4
74
0
42
0.000000001
43
0.0000000001
44
0.0000000001
40
0
40
0
40
0
40
0
40
1
40
1
40
1
40
1
10
16.502220670316401
20
-45.070595186976405
30
0
10
17.054505420147301
20
-45.070595186976405
30
0
10
17.502220670316401
20
-44.622879936806697
30
0
10
17.502220670316401
20
-44.070595186976298
30
0
0
LINE
5
585
100
AcDbEntity
8
0
100
AcDbLine
10
16.502220670316401
20
-45.070595186976405
30
0
11
2.5022206703165795
21
-45.070594564097703
31
0
0
SPLINE
5
586
100
AcDbEntity
8
0
100
AcDbSpline
70
0
71
3
72
8
73
4
74
0
42
0.000000001
43
0.0000000001
44
0.0000000001
40
0
40
0
40
0
40
0
40
1
40
1
40
1
40
1
10
1.5022206703165399
20
-44.070595186976298
30
0
10
1.50222067031652
20
-44.622879936806697
30
0
10
1.9499359204855102
20
-45.070595186976405
30
0
10
2.50222067031652
20
-45.070595186976405
30
0
0
LINE
5
587
100
AcDbEntity
8
0
100
AcDbLine
10
1.5022206703165399
20
-44.070595186976298
30
0
11
1.5022228049544299
21
-41.570595186977897
31
0
0
SPLINE
5
588
100
AcDbEntity
8
0
100
AcDbSpline
70
0
71
3
72
8
73
4
74
0
42
0.000000001
43
0.0000000001
44
0.0000000001
40
0
40
0
40
0
40
0
40
1
40
1
40
1
40
1
10
2.5022202046596504
20
-40.570595186981706
30
0
10
1.9499364703087201
20
-40.570596623082302
30
0
10
1.5022228049544299
20
-41.018311452625397
30
0
10
1.5022228049544299
20
-41.570595186977897
30
0
0
LINE
5
589
100
AcDbEntity
8
0
100
AcDbLine
10
2.5022202046596504
20
-40.570595186981706
30
0
11
2.5022206703137502
21
-35.570595186976405
31
0
0
SPLINE
5
590
100
AcDbEntity
8
0
100
AcDbSpline
70
0
71
3
72
8
73
4
74
0
42
0.000000001
43
0.0000000001
44
0.0000000001
40
0
40
0
40
0
40
0
40
1
40
1
40
1
40
1
10
-17.547778864030899
20
-34.570594341641197
30
0
10
-17.547778864030899
20
-35.122878909621697
30
0
10
-17.1000638976682
20
-35.570594084465597
30
0
10
-16.5477793296877
20
-35.5705943416406
30
0
0
LINE
5
591
100
AcDbEntity
8
0
100
AcDbLine
10
-17.547778864030899
20
-34.570594341641197
30
0
11
-17.547778864030899
21
-32.0705943416407
31
0
0
SPLINE
5
592
100
AcDbEntity
8
0
100
AcDbSpline
70
0
71
3
72
8
73
4
74
0
42
0.000000001
43
0.0000000001
44
0.0000000001
40
0
40
0
40
0
40
0
40
1
40
1
40
1
40
1
10
-16.547778864030704
20
-31.070594341641403
30
0
10
-17.100063613861799
20
-31.0705943416413
30
0
10
-17.547778864031002
20
-31.518309591810802
30
0
10
-17.547778864030899
20
-32.0705943416407
30
0
0
LINE
5
593
100
AcDbEntity
8
0
100
AcDbLine
10
-16.547778864030704
20
-31.070594341641403
30
0
11
-2.5477788640309207
21
-31.0705943416407
31
0
0
SPLINE
5
594
100
AcDbEntity
8
0
100
AcDbSpline
70
0
71
3
72
8
73
4
74
0
42
0.000000001
43
0.0000000001
44
0.0000000001
40
0
40
0
40
0
40
0
40
1
40
1
40
1
40
1
10
-1.54777886403092
20
-32.0705943416407
30
0
10
-1.54777886403067
20
-31.518309591810404
30
0
10
-1.9954941142001903
20
-31.070594341640803
30
0
10
-2.5477788640309202
20
-31.0705943416407
30
0
0
LINE
5
595
100
AcDbEntity
8
0
100
AcDbLine
10
-1.54777886403092
20
-32.0705943416407
30
0
11
-1.54777886403126
21
-34.570594807297809
31
0
0
SPLINE
5
596
100
AcDbEntity
8
0
100
AcDbSpline
70
0
71
3
72
8
73
4
74
0
42
0.000000001
43
0.0000000001
44
0.0000000001
40
0
40
0
40
0
40
0
40
1
40
1
40
1
40
1
10
-2.5477793296876801
20
-35.570594341640401
30
0
10
-1.9954945798567902
20
-35.570594598816101
30
0
10
-1.5477791212060199
20
-35.122879557128698
30
0
10
-1.54777886403126
20
-34.570594807297809
30
0
0
LINE
5
597
100
AcDbEntity
8
0
100
AcDbLine
10
-2.5477793296876801
20
-35.570594341640401
30
0
11
-2.5477793296876898
21
-40.5705943416406
31
0
0
SPLINE
5
598
100
AcDbEntity
8
0
100
AcDbSpline
70
0
71
3
72
8
73
4
74
0
42
0.000000001
43
0.0000000001
44
0.0000000001
40
0
40
0
40
0
40
0
40
1
40
1
40
1
40
1
10
-1.5477793296876801
20
-41.570594341640607
30
0
10
-1.5477793296876903
20
-41.018309591809597
30
0
10
-1.99549457985712
20
-40.5705943416406
30
0
10
-2.5477793296876898
20
-40.5705943416406
30
0
0
LINE
5
599
100
AcDbEntity
8
0
100
AcDbLine
10
-1.5477793296876801
20
-41.570594341640607
30
0
11
-1.5477793296876903
21
-44.070594341640401
31
0
0
SPLINE
5
600
100
AcDbEntity
8
0
100
AcDbSpline
70
0
71
3
72
8
73
4
74
0
42
0.000000001
43
0.0000000001
44
0.0000000001
40
0
40
0
40
0
40
0
40
1
40
1
40
1
40
1
10
-2.5477793296876898
20
-45.070594341640408
30
0
10
-1.99549457985712
20
-45.070594341640408
30
0
10
-1.5477793296876903
20
-44.622879091470708
30
0
10
-1.5477793296876903
20
-44.070594341640401
30
0
0
LINE
5
601
100
AcDbEntity
8
0
100
AcDbLine
10
-2.5477793296876898
20
-45.070594341640408
30
0
11
-16.547779329687501
21
-45.070594341640408
31
0
0
SPLINE
5
602
100
AcDbEntity
8
0
100
AcDbSpline
70
0
71
3
72
8
73
4
74
0
42
0.000000001
43
0.0000000001
44
0.0000000001
40
0
40
0
40
0
40
0
40
1
40
1
40
1
40
1
10
-17.5477793296876
20
-44.070594341640401
30
0
10
-17.5477793296876
20
-44.622879091470708
30
0
10
-17.1000640795185
20
-45.070594341640408
30
0
10
-16.547779329687501
20
-45.070594341640408
30
0
0
LINE
5
603
100
AcDbEntity
8
0
100
AcDbLine
10
-17.5477793296876
20
-44.070594341640401
30
0
11
-17.5477771950464
21
-41.5705943416434
31
0
0
SPLINE
5
604
100
AcDbEntity
8
0
100
AcDbSpline
70
0
71
3
72
8
73
4
74
0
42
0.000000001
43
0.0000000001
44
0.0000000001
40
0
40
0
40
0
40
0
40
1
40
1
40
1
40
1
10
-16.547777660702302
20
-40.570594341643897
30
0
10
-17.1000622286831
20
-40.570594598818303
30
0
10
-17.5477771950464
20
-41.0183097736628
30
0
10
-17.5477771950464
20
-41.5705943416434
30
0
0
LINE
5
605
100
AcDbEntity
8
0
100
AcDbLine
10
-16.547777660702302
20
-40.570594341643897
30
0
11
-16.5477793296877
21
-35.5705943416406
31
0
0
SPLINE
5
606
100
AcDbEntity
8
0
100
AcDbSpline
70
0
71
3
72
8
73
4
74
0
42
0.000000001
43
0.0000000001
44
0.0000000001
40
0
40
0
40
0
40
0
40
1
40
1
40
1
40
1
10
-36.605079765160397
20
-34.5705940411329
30
0
10
-36.605079765160397
20
-35.1228786091134
30
0
10
-36.157364798798
20
-35.5705937839572
30
0
10
-35.605080230817599
20
-35.570594041132203
30
0
0
LINE
5
607
100
AcDbEntity
8
0
100
AcDbLine
10
-36.605079765160397
20
-34.5705940411329
30
0
11
-36.605079765160397
21
-32.070594041132509
31
0
0
SPLINE
5
608
100
AcDbEntity
8
0
100
AcDbSpline
70
0
71
3
72
8
73
4
74
0
42
0.000000001
43
0.0000000001
44
0.0000000001
40
0
40
0
40
0
40
0
40
1
40
1
40
1
40
1
10
-35.605079765159601
20
-31.070594041133099
30
0
10
-36.157364514991201
20
-31.070594041133003
30
0
10
-36.605079765160497
20
-31.518309291302504
30
0
10
-36.605079765160397
20
-32.070594041132509
30
0
0
LINE
5
609
100
AcDbEntity
8
0
100
AcDbLine
10
-35.605079765159601
20
-31.070594041133099
30
0
11
-21.605079765160504
21
-31.070594041132402
31
0
0
SPLINE
5
610
100
AcDbEntity
8
0
100
AcDbSpline
70
0
71
3
72
8
73
4
74
0
42
0.000000001
43
0.0000000001
44
0.0000000001
40
0
40
0
40
0
40
0
40
1
40
1
40
1
40
1
10
-20.6050797651605
20
-32.070594041132509
30
0
10
-20.605079765160198
20
-31.518309291302099
30
0
10
-21.0527950153297
20
-31.070594041132505
30
0
10
-21.605079765160504
20
-31.070594041132402
30
0
0
LINE
5
611
100
AcDbEntity
8
0
100
AcDbLine
10
-20.6050797651605
20
-32.070594041132509
30
0
11
-20.605079765160799
21
-34.570594506789497
31
0
0
SPLINE
5
612
100
AcDbEntity
8
0
100
AcDbSpline
70
0
71
3
72
8
73
4
74
0
42
0.000000001
43
0.0000000001
44
0.0000000001
40
0
40
0
40
0
40
0
40
1
40
1
40
1
40
1
10
-21.605080230817201
20
-35.570594041132097
30
0
10
-21.052795480986305
20
-35.570594298307803
30
0
10
-20.605080022335599
20
-35.1228792566205
30
0
10
-20.605079765160799
20
-34.570594506789497
30
0
0
LINE
5
613
100
AcDbEntity
8
0
100
AcDbLine
10
-21.605080230817201
20
-35.570594041132097
30
0
11
-21.605080230817201
21
-40.57059404113231
31
0
0
SPLINE
5
614
100
AcDbEntity
8
0
100
AcDbSpline
70
0
71
3
72
8
73
4
74
0
42
0.000000001
43
0.0000000001
44
0.0000000001
40
0
40
0
40
0
40
0
40
1
40
1
40
1
40
1
10
-20.605080230817201
20
-41.570594041132303
30
0
10
-20.605080230817201
20
-41.018309291301406
30
0
10
-21.052795480986603
20
-40.57059404113231
30
0
10
-21.605080230817201
20
-40.57059404113231
30
0
0
LINE
5
615
100
AcDbEntity
8
0
100
AcDbLine
10
-20.605080230817201
20
-41.570594041132303
30
0
11
-20.605080230817201
21
-44.070594041132097
31
0
0
SPLINE
5
616
100
AcDbEntity
8
0
100
AcDbSpline
70
0
71
3
72
8
73
4
74
0
42
0.000000001
43
0.0000000001
44
0.0000000001
40
0
40
0
40
0
40
0
40
1
40
1
40
1
40
1
10
-21.605080230817201
20
-45.070594041132097
30
0
10
-21.052795480986603
20
-45.070594041132097
30
0
10
-20.605080230817201
20
-44.622878790962403
30
0
10
-20.605080230817201
20
-44.070594041132097
30
0
0
LINE
5
617
100
AcDbEntity
8
0
100
AcDbLine
10
-21.605080230817201
20
-45.070594041132097
30
0
11
-35.605080230816398
21
-45.070594041132097
31
0
0
SPLINE
5
618
100
AcDbEntity
8
0
100
AcDbSpline
70
0
71
3
72
8
73
4
74
0
42
0.000000001
43
0.0000000001
44
0.0000000001
40
0
40
0
40
0
40
0
40
1
40
1
40
1
40
1
10
-36.605080230817101
20
-44.070594041132097
30
0
10
-36.605080230817101
20
-44.622878790962403
30
0
10
-36.157364980647998
20
-45.070594041132097
30
0
10
-35.605080230816398
20
-45.070594041132097
30
0
0
LINE
5
619
100
AcDbEntity
8
0
100
AcDbLine
10
-36.605080230817101
20
-44.070594041132097
30
0
11
-36.605078096176896
21
-41.570594041135003
31
0
0
SPLINE
5
620
100
AcDbEntity
8
0
100
AcDbSpline
70
0
71
3
72
8
73
4
74
0
42
0.000000001
43
0.0000000001
44
0.0000000001
40
0
40
0
40
0
40
0
40
1
40
1
40
1
40
1
10
-35.605078561832798
20
-40.5705940411356
30
0
10
-36.157363129813298
20
-40.570594298309999
30
0
10
-36.605078096176896
20
-41.018309473154503
30
0
10
-36.605078096176896
20
-41.570594041135003
30
0
0
LINE
5
621
100
AcDbEntity
8
0
100
AcDbLine
10
-35.605078561832798
20
-40.5705940411356
30
0
11
-35.605080230817599
21
-35.570594041132203
31
0
0
SPLINE
5
622
100
AcDbEntity
8
0
100
AcDbSpline
70
0
71
3
72
8
73
4
74
0
42
0.000000001
43
0.0000000001
44
0.0000000001
40
0
40
0
40
0
40
0
40
1
40
1
40
1
40
1
10
-55.65142848010651
20
-34.5705940411329
30
0
10
-55.65142848010651
20
-35.1228786091134
30
0
10
-55.203713513744297
20
-35.5705937839572
30
0
10
-54.651428945763804
20
-35.570594041132203
30
0
0
LINE
5
623
100
AcDbEntity
8
0
100
AcDbLine
10
-55.65142848010651
20
-34.5705940411329
30
0
11
-55.65142848010651
21
-32.070594041132509
31
0
0
SPLINE
5
624
100
AcDbEntity
8
0
100
AcDbSpline
70
0
71
3
72
8
73
4
74
0
42
0.000000001
43
0.0000000001
44
0.0000000001
40
0
40
0
40
0
40
0
40
1
40
1
40
1
40
1
10
-54.6514284801058
20
-31.070594041133099
30
0
10
-55.203713229937499
20
-31.070594041133099
30
0
10
-55.651428480106802
20
-31.5183092913026
30
0
10
-55.65142848010651
20
-32.070594041132509
30
0
0
LINE
5
625
100
AcDbEntity
8
0
100
AcDbLine
10
-54.6514284801058
20
-31.070594041133099
30
0
11
-40.651428480106603
21
-31.070594041132402
31
0
0
SPLINE
5
626
100
AcDbEntity
8
0
100
AcDbSpline
70
0
71
3
72
8
73
4
74
0
42
0.000000001
43
0.0000000001
44
0.0000000001
40
0
40
0
40
0
40
0
40
1
40
1
40
1
40
1
10
-39.651428480106603
20
-32.070594041132509
30
0
10
-39.651428480106205
20
-31.518309291302099
30
0
10
-40.099143730276097
20
-31.070594041132505
30
0
10
-40.651428480106603
20
-31.070594041132402
30
0
0
LINE
5
627
100
AcDbEntity
8
0
100
AcDbLine
10
-39.651428480106603
20
-32.070594041132509
30
0
11
-39.651428480107199
21
-34.570594506789497
31
0
0
SPLINE
5
628
100
AcDbEntity
8
0
100
AcDbSpline
70
0
71
3
72
8
73
4
74
0
42
0.000000001
43
0.0000000001
44
0.0000000001
40
0
40
0
40
0
40
0
40
1
40
1
40
1
40
1
10
-40.651428945762902
20
-35.570594041131898
30
0
10
-40.099144195932709
20
-35.570594298307803
30
0
10
-39.651428737281798
20
-35.122879256620401
30
0
10
-39.651428480107199
20
-34.570594506789497
30
0
0
LINE
5
629
100
AcDbEntity
8
0
100
AcDbLine
10
-40.651428945762902
20
-35.570594041131898
30
0
11
-40.651428945762902
21
-40.570594041132104
31
0
0
SPLINE
5
630
100
AcDbEntity
8
0
100
AcDbSpline
70
0
71
3
72
8
73
4
74
0
42
0.000000001
43
0.0000000001
44
0.0000000001
40
0
40
0
40
0
40
0
40
1
40
1
40
1
40
1
10
-39.651428945762902
20
-41.570594041132203
30
0
10
-39.651428945762902
20
-41.0183092913012
30
0
10
-40.099144195932709
20
-40.570594041132104
30
0
10
-40.651428945762902
20
-40.570594041132104
30
0
0
LINE
5
631
100
AcDbEntity
8
0
100
AcDbLine
10
-39.651428945762902
20
-41.570594041132203
30
0
11
-39.651428945762902
21
-44.070594041131905
31
0
0
SPLINE
5
632
100
AcDbEntity
8
0
100
AcDbSpline
70
0
71
3
72
8
73
4
74
0
42
0.000000001
43
0.0000000001
44
0.0000000001
40
0
40
0
40
0
40
0
40
1
40
1
40
1
40
1
10
-40.651428945762902
20
-45.070594041131997
30
0
10
-40.099144195932709
20
-45.070594041131997
30
0
10
-39.651428945762902
20
-44.622878790962297
30
0
10
-39.651428945762902
20
-44.070594041131905
30
0
0
LINE
5
633
100
AcDbEntity
8
0
100
AcDbLine
10
-40.651428945762902
20
-45.070594041131997
30
0
11
-54.651428945762106
21
-45.070594041131997
31
0
0
SPLINE
5
634
100
AcDbEntity
8
0
100
AcDbSpline
70
0
71
3
72
8
73
4
74
0
42
0.000000001
43
0.0000000001
44
0.0000000001
40
0
40
0
40
0
40
0
40
1
40
1
40
1
40
1
10
-55.651428945762802
20
-44.070594041131905
30
0
10
-55.651428945762802
20
-44.622878790962297
30
0
10
-55.203713695593805
20
-45.070594041131997
30
0
10
-54.651428945762106
20
-45.070594041131997
30
0
0
LINE
5
635
100
AcDbEntity
8
0
100
AcDbLine
10
-55.651428945762802
20
-44.070594041131905
30
0
11
-55.651426811123002
21
-41.570594041135003
31
0
0
SPLINE
5
636
100
AcDbEntity
8
0
100
AcDbSpline
70
0
71
3
72
8
73
4
74
0
42
0.000000001
43
0.0000000001
44
0.0000000001
40
0
40
0
40
0
40
0
40
1
40
1
40
1
40
1
10
-54.651427276778897
20
-40.5705940411356
30
0
10
-55.203711844759404
20
-40.570594298309999
30
0
10
-55.651426811123002
20
-41.018309473154503
30
0
10
-55.651426811123002
20
-41.570594041135003
30
0
0
LINE
5
637
100
AcDbEntity
8
0
100
AcDbLine
10
-54.651427276778897
20
-40.5705940411356
30
0
11
-54.651428945763804
21
-35.570594041132203
31
0
0
SPLINE
5
638
100
AcDbEntity
8
0
100
AcDbSpline
70
0
71
3
72
8
73
4
74
0
42
0.000000001
43
0.0000000001
44
0.0000000001
40
0
40
0
40
0
40
0
40
1
40
1
40
1
40
1
10
-74.697777195052794
20
-34.570595687287302
30
0
10
-74.697777195052794
20
-35.122879603489601
30
0
10
-74.250063245893799
20
-35.5705945083578
30
0
10
-73.697779329693404
20
-35.570595687285397
30
0
0
LINE
5
639
100
AcDbEntity
8
0
100
AcDbLine
10
-74.697777195052794
20
-34.570595687287302
30
0
11
-74.697777195050904
21
-32.070595687287508
31
0
0
SPLINE
5
640
100
AcDbEntity
8
0
100
AcDbSpline
70
0
71
3
72
8
73
4
74
0
42
0.000000001
43
0.0000000001
44
0.0000000001
40
0
40
0
40
0
40
0
40
1
40
1
40
1
40
1
10
-73.697777195050918
20
-31.070595687287401
30
0
10
-74.250061944881693
20
-31.070595687287401
30
0
10
-74.697777195050904
20
-31.518310937456505
30
0
10
-74.697777195050904
20
-32.070595687287508
30
0
0
LINE
5
641
100
AcDbEntity
8
0
100
AcDbLine
10
-73.697777195050918
20
-31.070595687287401
30
0
11
-72.697779329739248
21
-31.070591201785032
31
0
0
LINE
5
642
100
AcDbEntity
8
0
100
AcDbLine
10
-72.697779329739248
20
-31.070591201785032
30
0
11
-59.697777195050989
21
-31.070595006201017
31
0
0
SPLINE
5
643
100
AcDbEntity
8
0
100
AcDbSpline
70
0
71
3
72
8
73
4
74
0
42
0.000000001
43
0.0000000001
44
0.0000000001
40
0
40
0
40
0
40
0
40
1
40
1
40
1
40
1
10
-58.697777195050904
20
-32.070595687287508
30
0
10
-58.697777195050904
20
-31.518310937456505
30
0
10
-59.145492445219901
20
-31.070595687287504
30
0
10
-59.697777195050897
20
-31.070595687287504
30
0
0
LINE
5
644
100
AcDbEntity
8
0
100
AcDbLine
10
-58.697777195050904
20
-32.070595687287508
30
0
11
-58.697777195052801
21
-34.5705978219261
31
0
0
SPLINE
5
645
100
AcDbEntity
8
0
100
AcDbSpline
70
0
71
3
72
8
73
4
74
0
42
0.000000001
43
0.0000000001
44
0.0000000001
40
0
40
0
40
0
40
0
40
1
40
1
40
1
40
1
10
-59.697779329690597
20
-35.570595687284403
30
0
10
-59.145494579860909
20
-35.570596866213101
30
0
10
-58.69777837398221
20
-35.122882571755802
30
0
10
-58.697777195052801
20
-34.5705978219261
30
0
0
LINE
5
646
100
AcDbEntity
8
0
100
AcDbLine
10
-59.697779329690597
20
-35.570595687284403
30
0
11
-59.697779329690597
21
-40.570595687284609
31
0
0
SPLINE
5
647
100
AcDbEntity
8
0
100
AcDbSpline
70
0
71
3
72
8
73
4
74
0
42
0.000000001
43
0.0000000001
44
0.0000000001
40
0
40
0
40
0
40
0
40
1
40
1
40
1
40
1
10
-58.697779329690604
20
-41.570595687284602
30
0
10
-58.697779329690604
20
-41.018310937453599
30
0
10
-59.145494579859701
20
-40.570595687284609
30
0
10
-59.697779329690597
20
-40.570595687284609
30
0
0
LINE
5
648
100
AcDbEntity
8
0
100
AcDbLine
10
-58.697779329690604
20
-41.570595687284602
30
0
11
-58.697779329690604
21
-44.07059568728441
31
0
0
SPLINE
5
649
100
AcDbEntity
8
0
100
AcDbSpline
70
0
71
3
72
8
73
4
74
0
42
0.000000001
43
0.0000000001
44
0.0000000001
40
0
40
0
40
0
40
0
40
1
40
1
40
1
40
1
10
-59.697779329690597
20
-45.070595687284403
30
0
10
-59.145494579859701
20
-45.070595687284403
30
0
10
-58.697779329690604
20
-44.622880437115306
30
0
10
-58.697779329690604
20
-44.07059568728441
30
0
0
LINE
5
650
100
AcDbEntity
8
0
100
AcDbLine
10
-59.697779329690597
20
-45.070595687284403
30
0
11
-60.697781464278336
21
-45.070591201812739
31
0
0
LINE
5
651
100
AcDbEntity
8
0
100
AcDbLine
10
-60.697781464278336
20
-45.070591201812739
30
0
11
-73.697779329690533
21
-45.070595006198033
31
0
0
SPLINE
5
652
100
AcDbEntity
8
0
100
AcDbSpline
70
0
71
3
72
8
73
4
74
0
42
0.000000001
43
0.0000000001
44
0.0000000001
40
0
40
0
40
0
40
0
40
1
40
1
40
1
40
1
10
-74.697779329690604
20
-44.07059568728441
30
0
10
-74.697779329690604
20
-44.622880437115306
30
0
10
-74.250064079521508
20
-45.070595687284403
30
0
10
-73.697779329690604
20
-45.070595687284403
30
0
0
LINE
5
653
100
AcDbEntity
8
0
100
AcDbLine
10
-74.697779329690604
20
-44.07059568728441
30
0
11
-74.697777195052794
21
-41.570595687287508
31
0
0
SPLINE
5
654
100
AcDbEntity
8
0
100
AcDbSpline
70
0
71
3
72
8
73
4
74
0
42
0.000000001
43
0.0000000001
44
0.0000000001
40
0
40
0
40
0
40
0
40
1
40
1
40
1
40
1
10
-73.697779329693404
20
-40.570595687290101
30
0
10
-74.250063245893799
20
-40.570596866217599
30
0
10
-74.697777195052794
20
-41.018311771085209
30
0
10
-74.697777195052794
20
-41.570595687287508
30
0
0
LINE
5
655
100
AcDbEntity
8
0
100
AcDbLine
10
-73.697779329693404
20
-40.570595687290101
30
0
11
-73.697779329693404
21
-35.570595687285397
31
0
0
SPLINE
5
656
100
AcDbEntity
8
0
100
AcDbSpline
70
0
71
3
72
8
73
4
74
0
42
0.000000001
43
0.0000000001
44
0.0000000001
40
0
40
0
40
0
40
0
40
1
40
1
40
1
40
1
10
112.75222350344301
20
-41.570595886938698
30
0
10
112.75222350344301
20
-41.018311137108398
30
0
10
112.30450825327401
20
-40.570595886938598
30
0
10
111.75222350344301
20
-40.570595886938598
30
0
0
LINE
5
657
100
AcDbEntity
8
0
100
AcDbLine
10
112.75222350344301
20
-41.570595886938698
30
0
11
112.75222350344301
21
-44.07059588693911
31
0
0
SPLINE
5
658
100
AcDbEntity
8
0
100
AcDbSpline
70
0
71
3
72
8
73
4
74
0
42
0.000000001
43
0.0000000001
44
0.0000000001
40
0
40
0
40
0
40
0
40
1
40
1
40
1
40
1
10
111.75222350344301
20
-45.070595886939103
30
0
10
112.30450825327401
20
-45.070595886939103
30
0
10
112.75222350344301
20
-44.622880636769402
30
0
10
112.75222350344301
20
-44.07059588693911
30
0
0
LINE
5
659
100
AcDbEntity
8
0
100
AcDbLine
10
111.75222350344301
20
-45.070595886939103
30
0
11
97.752223503443616
21
-45.070595886939103
31
0
0
SPLINE
5
660
100
AcDbEntity
8
0
100
AcDbSpline
70
0
71
3
72
8
73
4
74
0
42
0.000000001
43
0.0000000001
44
0.0000000001
40
0
40
0
40
0
40
0
40
1
40
1
40
1
40
1
10
96.752223503443616
20
-44.07059588693911
30
0
10
96.752223503443616
20
-44.622880636769402
30
0
10
97.199938753612699
20
-45.070595886939103
30
0
10
97.752223503443616
20
-45.070595886939103
30
0
0
LINE
5
661
100
AcDbEntity
8
0
100
AcDbLine
10
96.752223503443616
20
-44.07059588693911
30
0
11
96.752223503443616
21
-41.570595886938698
31
0
0
SPLINE
5
662
100
AcDbEntity
8
0
100
AcDbSpline
70
0
71
3
72
8
73
4
74
0
42
0.000000001
43
0.0000000001
44
0.0000000001
40
0
40
0
40
0
40
0
40
1
40
1
40
1
40
1
10
97.75222136880322
20
-40.570595886940602
30
0
10
97.199937452602512
20
-40.570597065868299
30
0
10
96.752223503443702
20
-41.018311970736704
30
0
10
96.752223503443616
20
-41.570595886938698
30
0
0
LINE
5
663
100
AcDbEntity
8
0
100
AcDbLine
10
97.75222136880322
20
-40.570595886940602
30
0
11
97.75222136880322
21
-35.570595886936601
31
0
0
SPLINE
5
664
100
AcDbEntity
8
0
100
AcDbSpline
70
0
71
3
72
8
73
4
74
0
42
0.000000001
43
0.0000000001
44
0.0000000001
40
0
40
0
40
0
40
0
40
1
40
1
40
1
40
1
10
96.752223503443616
20
-34.570595886939103
30
0
10
96.752223503443304
20
-35.122879803140599
30
0
10
97.1999374526022
20
-35.570594708008898
30
0
10
97.75222136880322
20
-35.570595886936601
30
0
0
LINE
5
665
100
AcDbEntity
8
0
100
AcDbLine
10
96.752223503443616
20
-34.570595886939103
30
0
11
96.752223503443616
21
-32.070595886938698
31
0
0
SPLINE
5
666
100
AcDbEntity
8
0
100
AcDbSpline
70
0
71
3
72
8
73
4
74
0
42
0.000000001
43
0.0000000001
44
0.0000000001
40
0
40
0
40
0
40
0
40
1
40
1
40
1
40
1
10
97.752223503443616
20
-31.070595886938701
30
0
10
97.199938753612699
20
-31.070595886938204
30
0
10
96.752223503443702
20
-31.518311137108004
30
0
10
96.752223503443616
20
-32.070595886938698
30
0
0
LINE
5
667
100
AcDbEntity
8
0
100
AcDbLine
10
97.752223503443616
20
-31.070595886938701
30
0
11
111.75222350344301
21
-31.070595886939305
31
0
0
SPLINE
5
668
100
AcDbEntity
8
0
100
AcDbSpline
70
0
71
3
72
8
73
4
74
0
42
0.000000001
43
0.0000000001
44
0.0000000001
40
0
40
0
40
0
40
0
40
1
40
1
40
1
40
1
10
112.75222350344301
20
-32.070595886938698
30
0
10
112.75222350344301
20
-31.518311137108405
30
0
10
112.30450825327401
20
-31.070595886938701
30
0
10
111.75222350344301
20
-31.070595886939305
30
0
0
LINE
5
669
100
AcDbEntity
8
0
100
AcDbLine
10
112.75222350344301
20
-32.070595886938698
30
0
11
112.75222350344301
21
-34.570595886939103
31
0
0
SPLINE
5
670
100
AcDbEntity
8
0
100
AcDbSpline
70
0
71
3
72
8
73
4
74
0
42
0.000000001
43
0.0000000001
44
0.0000000001
40
0
40
0
40
0
40
0
40
1
40
1
40
1
40
1
10
111.75222350344301
20
-35.570595886939103
30
0
10
112.30450825327401
20
-35.570595886939103
30
0
10
112.75222350344301
20
-35.122880636769402
30
0
10
112.75222350344301
20
-34.570595886939103
30
0
0
LINE
5
671
100
AcDbEntity
8
0
100
AcDbLine
10
111.75222350344301
20
-35.570595886939103
30
0
11
111.75222350344301
21
-40.570595886938598
31
0
0
SPLINE
5
672
100
AcDbEntity
8
0
100
AcDbSpline
70
0
71
3
72
8
73
4
74
0
42
0.000000001
43
0.0000000001
44
0.0000000001
40
0
40
0
40
0
40
0
40
1
40
1
40
1
40
1
10
-93.747777195055093
20
-34.570595886937802
30
0
10
-93.747777195055093
20
-35.122879803139497
30
0
10
-93.300063245896098
20
-35.570594708007697
30
0
10
-92.747779329694794
20
-35.570595886935301
30
0
0
LINE
5
673
100
AcDbEntity
8
0
100
AcDbLine
10
-93.747777195055093
20
-34.570595886937802
30
0
11
-93.74777719505181
21
-32.070595886937397
31
0
0
SPLINE
5
674
100
AcDbEntity
8
0
100
AcDbSpline
70
0
71
3
72
8
73
4
74
0
42
0.000000001
43
0.0000000001
44
0.0000000001
40
0
40
0
40
0
40
0
40
1
40
1
40
1
40
1
10
-92.747777195051697
20
-31.070595886937404
30
0
10
-93.300061944881904
20
-31.070595886937404
30
0
10
-93.74777719505181
20
-31.518311137106405
30
0
10
-93.74777719505181
20
-32.070595886937397
30
0
0
LINE
5
675
100
AcDbEntity
8
0
100
AcDbLine
10
-92.747777195051697
20
-31.070595886937404
30
0
11
-91.747779329754792
21
-31.070590735933074
31
0
0
LINE
5
676
100
AcDbEntity
8
0
100
AcDbLine
10
-91.747779329754792
20
-31.070590735933074
30
0
11
-78.747777195051256
21
-31.070595106026552
31
0
0
SPLINE
5
677
100
AcDbEntity
8
0
100
AcDbSpline
70
0
71
3
72
8
73
4
74
0
42
0.000000001
43
0.0000000001
44
0.0000000001
40
0
40
0
40
0
40
0
40
1
40
1
40
1
40
1
10
-77.7477771950511
20
-32.070595886937397
30
0
10
-77.7477771950511
20
-31.518311137106405
30
0
10
-78.195492445220907
20
-31.070595886937404
30
0
10
-78.7477771950511
20
-31.070595886937404
30
0
0
LINE
5
678
100
AcDbEntity
8
0
100
AcDbLine
10
-77.7477771950511
20
-32.070595886937397
30
0
11
-77.747777195053601
21
-34.570598021576004
31
0
0
SPLINE
5
679
100
AcDbEntity
8
0
100
AcDbSpline
70
0
71
3
72
8
73
4
74
0
42
0.000000001
43
0.0000000001
44
0.0000000001
40
0
40
0
40
0
40
0
40
1
40
1
40
1
40
1
10
-78.747779329691213
20
-35.570595886933404
30
0
10
-78.195494579861503
20
-35.570597065862898
30
0
10
-77.747778373982499
20
-35.122882771405003
30
0
10
-77.747777195053601
20
-34.570598021576004
30
0
0
LINE
5
680
100
AcDbEntity
8
0
100
AcDbLine
10
-78.747779329691213
20
-35.570595886933404
30
0
11
-78.747779329691213
21
-40.570595886933603
31
0
0
SPLINE
5
681
100
AcDbEntity
8
0
100
AcDbSpline
70
0
71
3
72
8
73
4
74
0
42
0.000000001
43
0.0000000001
44
0.0000000001
40
0
40
0
40
0
40
0
40
1
40
1
40
1
40
1
10
-77.747779329691198
20
-41.570595886933603
30
0
10
-77.747779329691198
20
-41.018311137102607
30
0
10
-78.195494579860906
20
-40.570595886933603
30
0
10
-78.747779329691213
20
-40.570595886933603
30
0
0
LINE
5
682
100
AcDbEntity
8
0
100
AcDbLine
10
-77.747779329691198
20
-41.570595886933603
30
0
11
-77.747779329691198
21
-44.070595886933397
31
0
0
SPLINE
5
683
100
AcDbEntity
8
0
100
AcDbSpline
70
0
71
3
72
8
73
4
74
0
42
0.000000001
43
0.0000000001
44
0.0000000001
40
0
40
0
40
0
40
0
40
1
40
1
40
1
40
1
10
-78.747779329691213
20
-45.070595886933404
30
0
10
-78.195494579860906
20
-45.070595886933404
30
0
10
-77.747779329691198
20
-44.622880636764307
30
0
10
-77.747779329691198
20
-44.070595886933397
30
0
0
LINE
5
684
100
AcDbEntity
8
0
100
AcDbLine
10
-78.747779329691213
20
-45.070595886933404
30
0
11
-79.747781464265159
21
-45.070590735964473
31
0
0
LINE
5
685
100
AcDbEntity
8
0
100
AcDbLine
10
-79.747781464265159
20
-45.070590735964473
30
0
11
-92.747779329691639
21
-45.070595106022672
31
0
0
SPLINE
5
686
100
AcDbEntity
8
0
100
AcDbSpline
70
0
71
3
72
8
73
4
74
0
42
0.000000001
43
0.0000000001
44
0.0000000001
40
0
40
0
40
0
40
0
40
1
40
1
40
1
40
1
10
-93.747779329691895
20
-44.070595886933397
30
0
10
-93.747779329691795
20
-44.622880636764307
30
0
10
-93.300064079522002
20
-45.070595886933404
30
0
10
-92.74777932969171
20
-45.070595886933404
30
0
0
LINE
5
687
100
AcDbEntity
8
0
100
AcDbLine
10
-93.747779329691895
20
-44.070595886933397
30
0
11
-93.747777195054297
21
-41.570595886937404
31
0
0
SPLINE
5
688
100
AcDbEntity
8
0
100
AcDbSpline
70
0
71
3
72
8
73
4
74
0
42
0.000000001
43
0.0000000001
44
0.0000000001
40
0
40
0
40
0
40
0
40
1
40
1
40
1
40
1
10
-92.747779329694296
20
-40.570595886939309
30
0
10
-93.300063245895501
20
-40.570597065867304
30
0
10
-93.747777195054397
20
-41.018311970735802
30
0
10
-93.747777195054297
20
-41.570595886937404
30
0
0
LINE
5
689
100
AcDbEntity
8
0
100
AcDbLine
10
-92.747779329694296
20
-40.570595886939309
30
0
11
-92.747779329694794
21
-35.570595886935301
31
0
0
LINE
5
690
100
AcDbEntity
8
0
100
AcDbLine
10
-9.2290842081227993
20
30.1326959114758
30
0
11
-9.2290842081227904
21
31.1305720975461
31
0
0
LINE
5
691
100
AcDbEntity
8
0
100
AcDbLine
10
-9.2290842081227904
20
31.1305720975461
30
0
11
-24.104645014827501
21
31.130572097546004
31
0
0
LINE
5
692
100
AcDbEntity
8
0
100
AcDbLine
10
-24.104645014827501
20
31.130572097546004
30
0
11
-24.104579311603
21
30.125705982089205
31
0
0
SPLINE
5
693
100
AcDbEntity
8
0
100
AcDbSpline
70
0
71
3
72
8
73
4
74
0
42
0.000000001
43
0.0000000001
44
0.0000000001
40
0
40
0
40
0
40
0
40
1
40
1
40
1
40
1
10
-25.104579311602603
20
29.125705982088199
30
0
10
-24.552294561772104
20
29.125705982088501
30
0
10
-24.104579311603199
20
29.573421232258404
30
0
10
-24.104579311603
20
30.125705982089205
30
0
0
LINE
5
694
100
AcDbEntity
8
0
100
AcDbLine
10
-25.104579311602603
20
29.125705982088199
30
0
11
-32.105084208122399
21
29.125705982088501
31
0
0
SPLINE
5
695
100
AcDbEntity
8
0
100
AcDbSpline
70
0
71
3
72
8
73
4
74
0
42
0.000000001
43
0.0000000001
44
0.0000000001
40
0
40
0
40
0
40
0
40
1
40
1
40
1
40
1
10
-33.105084208121703
20
30.125705982088604
30
0
10
-33.105084208121902
20
29.573421232257605
30
0
10
-32.657368957952301
20
29.125705982088405
30
0
10
-32.105084208122399
20
29.125705982088501
30
0
0
LINE
5
696
100
AcDbEntity
8
0
100
AcDbLine
10
-33.105084208121703
20
30.125705982088604
30
0
11
-33.10508420812161
21
46.1327933042719
31
0
0
SPLINE
5
697
100
AcDbEntity
8
0
100
AcDbSpline
70
0
71
3
72
8
73
4
74
0
42
0.000000001
43
0.0000000001
44
0.0000000001
40
0
40
0
40
0
40
0
40
1
40
1
40
1
40
1
10
-32.105084208121603
20
47.132793304271907
30
0
10
-32.657368957952698
20
47.132793304271907
30
0
10
-33.10508420812161
20
46.685078054102206
30
0
10
-33.10508420812161
20
46.1327933042719
30
0
0
LINE
5
698
100
AcDbEntity
8
0
100
AcDbLine
10
-32.105084208121603
20
47.132793304271907
30
0
11
-1.2296273192307394
21
47.132623868996205
31
0
0
SPLINE
5
699
100
AcDbEntity
8
0
100
AcDbSpline
70
0
71
3
72
8
73
4
74
0
42
0.000000001
43
0.0000000001
44
0.0000000001
40
0
40
0
40
0
40
0
40
1
40
1
40
1
40
1
10
-0.22962592486683303
20
46.132625263362598
30
0
10
-0.22962669495316099
20
46.684910013192898
30
0
10
-0.67734256940105197
20
47.132624639083204
30
0
10
-1.2296273192307401
20
47.132623868996205
30
0
0
LINE
5
700
100
AcDbEntity
8
0
100
AcDbLine
10
-0.22962592486683303
20
46.132625263362598
30
0
11
-0.22857976864075502
21
30.1326959114777
31
0
0
SPLINE
5
701
100
AcDbEntity
8
0
100
AcDbSpline
70
0
71
3
72
8
73
4
74
0
42
0.000000001
43
0.0000000001
44
0.0000000001
40
0
40
0
40
0
40
0
40
1
40
1
40
1
40
1
10
-1.22857976864073
20
29.132695911477704
30
0
10
-0.67629501880973897
20
29.132695911477704
30
0
10
-0.22857976864075502
20
29.580411161646705
30
0
10
-0.22857976864075502
20
30.1326959114777
30
0
0
LINE
5
702
100
AcDbEntity
8
0
100
AcDbLine
10
-1.22857976864073
20
29.132695911477704
30
0
11
-8.2290842081220426
21
29.132695911476404
31
0
0
SPLINE
5
703
100
AcDbEntity
8
0
100
AcDbSpline
70
0
71
3
72
8
73
4
74
0
42
0.000000001
43
0.0000000001
44
0.0000000001
40
0
40
0
40
0
40
0
40
1
40
1
40
1
40
1
10
-9.2290842081227993
20
30.1326959114758
30
0
10
-9.2290842081224298
20
29.580411161644804
30
0
10
-8.7813689579527594
20
29.132695911475999
30
0
10
-8.2290842081220426
20
29.132695911476404
30
0
0
LINE
5
704
100
AcDbEntity
8
0
100
AcDbLine
10
130.80222327061699
20
-45.070595886939103
30
0
11
116.80222327061701
21
-45.070595886939103
31
0
0
SPLINE
5
705
100
AcDbEntity
8
0
100
AcDbSpline
70
0
71
3
72
8
73
4
74
0
42
0.000000001
43
0.0000000001
44
0.0000000001
40
0
40
0
40
0
40
0
40
1
40
1
40
1
40
1
10
115.80222327061702
20
-44.07059588693911
30
0
10
115.80222327061702
20
-44.622880636769402
30
0
10
116.24993852078602
20
-45.070595886939103
30
0
10
116.80222327061701
20
-45.070595886939103
30
0
0
LINE
5
706
100
AcDbEntity
8
0
100
AcDbLine
10
115.80222327061702
20
-44.07059588693911
30
0
11
115.80222327061702
21
-41.570595886938698
31
0
0
SPLINE
5
707
100
AcDbEntity
8
0
100
AcDbSpline
70
0
71
3
72
8
73
4
74
0
42
0.000000001
43
0.0000000001
44
0.0000000001
40
0
40
0
40
0
40
0
40
1
40
1
40
1
40
1
10
116.80222113597601
20
-40.570595886940602
30
0
10
116.24993721977502
20
-40.570597065868597
30
0
10
115.80222327061702
20
-41.018311970737003
30
0
10
115.80222327061702
20
-41.570595886938698
30
0
0
LINE
5
708
100
AcDbEntity
8
0
100
AcDbLine
10
116.80222113597601
20
-40.570595886940602
30
0
11
116.80222113597601
21
-35.570595886936601
31
0
0
SPLINE
5
709
100
AcDbEntity
8
0
100
AcDbSpline
70
0
71
3
72
8
73
4
74
0
42
0.000000001
43
0.0000000001
44
0.0000000001
40
0
40
0
40
0
40
0
40
1
40
1
40
1
40
1
10
115.80222327061702
20
-34.570595886939103
30
0
10
115.802223270616
20
-35.122879803140599
30
0
10
116.24993721977502
20
-35.570594708008898
30
0
10
116.80222113597601
20
-35.570595886936601
30
0
0
LINE
5
710
100
AcDbEntity
8
0
100
AcDbLine
10
115.80222327061702
20
-34.570595886939103
30
0
11
115.80222327061702
21
-32.070595886938698
31
0
0
SPLINE
5
711
100
AcDbEntity
8
0
100
AcDbSpline
70
0
71
3
72
8
73
4
74
0
42
0.000000001
43
0.0000000001
44
0.0000000001
40
0
40
0
40
0
40
0
40
1
40
1
40
1
40
1
10
116.80222327061701
20
-31.070595886938701
30
0
10
116.24993852078602
20
-31.070595886938204
30
0
10
115.80222327061702
20
-31.518311137108004
30
0
10
115.80222327061702
20
-32.070595886938698
30
0
0
LINE
5
712
100
AcDbEntity
8
0
100
AcDbLine
10
116.80222327061701
20
-31.070595886938701
30
0
11
130.80222327061699
21
-31.070595886939305
31
0
0
SPLINE
5
713
100
AcDbEntity
8
0
100
AcDbSpline
70
0
71
3
72
8
73
4
74
0
42
0.000000001
43
0.0000000001
44
0.0000000001
40
0
40
0
40
0
40
0
40
1
40
1
40
1
40
1
10
131.80222327061699
20
-32.070595886938698
30
0
10
131.80222327061699
20
-31.518311137108405
30
0
10
131.35450802044801
20
-31.070595886938605
30
0
10
130.80222327061699
20
-31.070595886939305
30
0
0
LINE
5
714
100
AcDbEntity
8
0
100
AcDbLine
10
131.80222327061699
20
-32.070595886938698
30
0
11
131.80222327061699
21
-34.570595886939103
31
0
0
SPLINE
5
715
100
AcDbEntity
8
0
100
AcDbSpline
70
0
71
3
72
8
73
4
74
0
42
0.000000001
43
0.0000000001
44
0.0000000001
40
0
40
0
40
0
40
0
40
1
40
1
40
1
40
1
10
130.80222327061699
20
-35.570595886939103
30
0
10
131.35450802044801
20
-35.570595886939103
30
0
10
131.80222327061699
20
-35.122880636769402
30
0
10
131.80222327061699
20
-34.570595886939103
30
0
0
LINE
5
716
100
AcDbEntity
8
0
100
AcDbLine
10
130.80222327061699
20
-35.570595886939103
30
0
11
130.80222327061699
21
-40.570595886938598
31
0
0
SPLINE
5
717
100
AcDbEntity
8
0
100
AcDbSpline
70
0
71
3
72
8
73
4
74
0
42
0.000000001
43
0.0000000001
44
0.0000000001
40
0
40
0
40
0
40
0
40
1
40
1
40
1
40
1
10
131.80222327061699
20
-41.570595886938698
30
0
10
131.80222327061699
20
-41.018311137108398
30
0
10
131.35450802044801
20
-40.570595886938598
30
0
10
130.80222327061699
20
-40.570595886938598
30
0
0
LINE
5
718
100
AcDbEntity
8
0
100
AcDbLine
10
131.80222327061699
20
-41.570595886938698
30
0
11
131.80222327061699
21
-44.07059588693911
31
0
0
SPLINE
5
719
100
AcDbEntity
8
0
100
AcDbSpline
70
0
71
3
72
8
73
4
74
0
42
0.000000001
43
0.0000000001
44
0.0000000001
40
0
40
0
40
0
40
0
40
1
40
1
40
1
40
1
10
130.80222327061699
20
-45.070595886939103
30
0
10
131.35450802044801
20
-45.070595886939103
30
0
10
131.80222327061699
20
-44.622880636769402
30
0
10
131.80222327061699
20
-44.07059588693911
30
0
0
ENDSEC
0
SECTION
2
OBJECTS
0
DICTIONARY
5
C
100
AcDbDictionary
3
ACAD_GROUP
350
D
3
ACAD_MLINESTYLE
350
17
0
DICTIONARY
5
D
100
AcDbDictionary
0
DICTIONARY
5
1A
330
C
100
AcDbDictionary
0
DICTIONARY
5
17
100
AcDbDictionary
0
ENDSEC
0
EOF
